M48
; DRILL file {KiCad (5.1.10)-1} date 08/19/21 21:12:35
; FORMAT={3:3/ absolute / metric / suppress trailing zeros}
; #@! TF.CreationDate,2021-08-19T21:12:35+09:00
; #@! TF.GenerationSoftware,Kicad,Pcbnew,(5.1.10)-1
; #@! TF.FileFunction,NonPlated,1,2,NPTH
FMAT,2
METRIC,LZ
T1C0.650
T2C1.900
T3C3.200
T4C3.400
%
G90
G05
T1
X04061Y-0135
X04639Y-0135
T2
X019Y-024
X019Y-042
X019Y-078
X03Y-024
X03Y-042
X03Y-078
X038Y-06
X038Y-078
X049Y-06
X049Y-078
X057Y-024
X057Y-042
X057Y-078
X068Y-024
X068Y-042
X068Y-078
X081Y-024
X081Y-042
X081Y-06
X081Y-078
X092Y-024
X092Y-042
X092Y-06
X092Y-078
X1Y-024
X1Y-042
X1Y-06
X1Y-078
X111Y-024
X111Y-042
X111Y-06
X111Y-078
X119Y-024
X119Y-042
X119Y-06
X119Y-078
X13Y-024
X13Y-042
X13Y-06
X13Y-078
X138Y-024
X138Y-042
X138Y-06
X138Y-078
X149Y-024
X149Y-042
X149Y-06
X149Y-078
T3
X016Y-011
X016Y-089
X0745Y-011
X0745Y-089
X152Y-011
X152Y-089
T4
X0245Y-024
X0245Y-042
X0245Y-078
X0435Y-06
X0435Y-078
X0625Y-024
X0625Y-042
X0625Y-078
X0865Y-024
X0865Y-042
X0865Y-06
X0865Y-078
X1055Y-024
X1055Y-042
X1055Y-06
X1055Y-078
X1245Y-024
X1245Y-042
X1245Y-06
X1245Y-078
X1435Y-024
X1435Y-042
X1435Y-06
X1435Y-078
T0
M30
