G04 #@! TF.GenerationSoftware,KiCad,Pcbnew,(5.1.10)-1*
G04 #@! TF.CreationDate,2021-08-19T21:12:26+09:00*
G04 #@! TF.ProjectId,cnc-controller,636e632d-636f-46e7-9472-6f6c6c65722e,rev?*
G04 #@! TF.SameCoordinates,Original*
G04 #@! TF.FileFunction,Legend,Top*
G04 #@! TF.FilePolarity,Positive*
%FSLAX46Y46*%
G04 Gerber Fmt 4.6, Leading zero omitted, Abs format (unit mm)*
G04 Created by KiCad (PCBNEW (5.1.10)-1) date 2021-08-19 21:12:26*
%MOMM*%
%LPD*%
G01*
G04 APERTURE LIST*
%ADD10C,0.100000*%
%ADD11C,0.120000*%
%ADD12C,0.150000*%
%ADD13C,0.010000*%
%ADD14C,3.200000*%
%ADD15C,3.400000*%
%ADD16C,2.000000*%
%ADD17C,1.900000*%
%ADD18R,0.650000X1.060000*%
%ADD19C,1.462000*%
%ADD20O,1.000000X2.100000*%
%ADD21O,1.000000X1.800000*%
%ADD22C,0.650000*%
%ADD23R,0.300000X1.140000*%
%ADD24R,0.600000X1.140000*%
%ADD25R,1.000000X1.000000*%
%ADD26O,1.000000X1.000000*%
%ADD27R,1.700000X1.700000*%
%ADD28O,1.700000X1.700000*%
%ADD29R,0.900000X0.800000*%
%ADD30C,2.100000*%
%ADD31R,0.700000X2.500000*%
G04 APERTURE END LIST*
D10*
X140226190Y-10801190D02*
X140226190Y-10467857D01*
X140226190Y-10563095D02*
X140250000Y-10515476D01*
X140273809Y-10491666D01*
X140321428Y-10467857D01*
X140369047Y-10467857D01*
X140607142Y-10801190D02*
X140559523Y-10777380D01*
X140535714Y-10753571D01*
X140511904Y-10705952D01*
X140511904Y-10563095D01*
X140535714Y-10515476D01*
X140559523Y-10491666D01*
X140607142Y-10467857D01*
X140678571Y-10467857D01*
X140726190Y-10491666D01*
X140750000Y-10515476D01*
X140773809Y-10563095D01*
X140773809Y-10705952D01*
X140750000Y-10753571D01*
X140726190Y-10777380D01*
X140678571Y-10801190D01*
X140607142Y-10801190D01*
X141202380Y-10467857D02*
X141202380Y-10872619D01*
X141178571Y-10920238D01*
X141154761Y-10944047D01*
X141107142Y-10967857D01*
X141035714Y-10967857D01*
X140988095Y-10944047D01*
X141202380Y-10777380D02*
X141154761Y-10801190D01*
X141059523Y-10801190D01*
X141011904Y-10777380D01*
X140988095Y-10753571D01*
X140964285Y-10705952D01*
X140964285Y-10563095D01*
X140988095Y-10515476D01*
X141011904Y-10491666D01*
X141059523Y-10467857D01*
X141154761Y-10467857D01*
X141202380Y-10491666D01*
X141392857Y-10467857D02*
X141511904Y-10801190D01*
X141630952Y-10467857D02*
X141511904Y-10801190D01*
X141464285Y-10920238D01*
X141440476Y-10944047D01*
X141392857Y-10967857D01*
X141821428Y-10610714D02*
X142202380Y-10610714D01*
X142654761Y-10777380D02*
X142607142Y-10801190D01*
X142511904Y-10801190D01*
X142464285Y-10777380D01*
X142440476Y-10753571D01*
X142416666Y-10705952D01*
X142416666Y-10563095D01*
X142440476Y-10515476D01*
X142464285Y-10491666D01*
X142511904Y-10467857D01*
X142607142Y-10467857D01*
X142654761Y-10491666D01*
X142869047Y-10467857D02*
X142869047Y-10801190D01*
X142869047Y-10515476D02*
X142892857Y-10491666D01*
X142940476Y-10467857D01*
X143011904Y-10467857D01*
X143059523Y-10491666D01*
X143083333Y-10539285D01*
X143083333Y-10801190D01*
X143535714Y-10777380D02*
X143488095Y-10801190D01*
X143392857Y-10801190D01*
X143345238Y-10777380D01*
X143321428Y-10753571D01*
X143297619Y-10705952D01*
X143297619Y-10563095D01*
X143321428Y-10515476D01*
X143345238Y-10491666D01*
X143392857Y-10467857D01*
X143488095Y-10467857D01*
X143535714Y-10491666D01*
X143750000Y-10610714D02*
X144130952Y-10610714D01*
X144583333Y-10777380D02*
X144535714Y-10801190D01*
X144440476Y-10801190D01*
X144392857Y-10777380D01*
X144369047Y-10753571D01*
X144345238Y-10705952D01*
X144345238Y-10563095D01*
X144369047Y-10515476D01*
X144392857Y-10491666D01*
X144440476Y-10467857D01*
X144535714Y-10467857D01*
X144583333Y-10491666D01*
X144869047Y-10801190D02*
X144821428Y-10777380D01*
X144797619Y-10753571D01*
X144773809Y-10705952D01*
X144773809Y-10563095D01*
X144797619Y-10515476D01*
X144821428Y-10491666D01*
X144869047Y-10467857D01*
X144940476Y-10467857D01*
X144988095Y-10491666D01*
X145011904Y-10515476D01*
X145035714Y-10563095D01*
X145035714Y-10705952D01*
X145011904Y-10753571D01*
X144988095Y-10777380D01*
X144940476Y-10801190D01*
X144869047Y-10801190D01*
X145250000Y-10467857D02*
X145250000Y-10801190D01*
X145250000Y-10515476D02*
X145273809Y-10491666D01*
X145321428Y-10467857D01*
X145392857Y-10467857D01*
X145440476Y-10491666D01*
X145464285Y-10539285D01*
X145464285Y-10801190D01*
X145630952Y-10467857D02*
X145821428Y-10467857D01*
X145702380Y-10301190D02*
X145702380Y-10729761D01*
X145726190Y-10777380D01*
X145773809Y-10801190D01*
X145821428Y-10801190D01*
X145988095Y-10801190D02*
X145988095Y-10467857D01*
X145988095Y-10563095D02*
X146011904Y-10515476D01*
X146035714Y-10491666D01*
X146083333Y-10467857D01*
X146130952Y-10467857D01*
X146369047Y-10801190D02*
X146321428Y-10777380D01*
X146297619Y-10753571D01*
X146273809Y-10705952D01*
X146273809Y-10563095D01*
X146297619Y-10515476D01*
X146321428Y-10491666D01*
X146369047Y-10467857D01*
X146440476Y-10467857D01*
X146488095Y-10491666D01*
X146511904Y-10515476D01*
X146535714Y-10563095D01*
X146535714Y-10705952D01*
X146511904Y-10753571D01*
X146488095Y-10777380D01*
X146440476Y-10801190D01*
X146369047Y-10801190D01*
X146821428Y-10801190D02*
X146773809Y-10777380D01*
X146750000Y-10729761D01*
X146750000Y-10301190D01*
X147083333Y-10801190D02*
X147035714Y-10777380D01*
X147011904Y-10729761D01*
X147011904Y-10301190D01*
X147464285Y-10777380D02*
X147416666Y-10801190D01*
X147321428Y-10801190D01*
X147273809Y-10777380D01*
X147250000Y-10729761D01*
X147250000Y-10539285D01*
X147273809Y-10491666D01*
X147321428Y-10467857D01*
X147416666Y-10467857D01*
X147464285Y-10491666D01*
X147488095Y-10539285D01*
X147488095Y-10586904D01*
X147250000Y-10634523D01*
X147702380Y-10801190D02*
X147702380Y-10467857D01*
X147702380Y-10563095D02*
X147726190Y-10515476D01*
X147750000Y-10491666D01*
X147797619Y-10467857D01*
X147845238Y-10467857D01*
X141964285Y-11651190D02*
X141678571Y-11651190D01*
X141821428Y-11651190D02*
X141821428Y-11151190D01*
X141773809Y-11222619D01*
X141726190Y-11270238D01*
X141678571Y-11294047D01*
X142250000Y-11365476D02*
X142202380Y-11341666D01*
X142178571Y-11317857D01*
X142154761Y-11270238D01*
X142154761Y-11246428D01*
X142178571Y-11198809D01*
X142202380Y-11175000D01*
X142250000Y-11151190D01*
X142345238Y-11151190D01*
X142392857Y-11175000D01*
X142416666Y-11198809D01*
X142440476Y-11246428D01*
X142440476Y-11270238D01*
X142416666Y-11317857D01*
X142392857Y-11341666D01*
X142345238Y-11365476D01*
X142250000Y-11365476D01*
X142202380Y-11389285D01*
X142178571Y-11413095D01*
X142154761Y-11460714D01*
X142154761Y-11555952D01*
X142178571Y-11603571D01*
X142202380Y-11627380D01*
X142250000Y-11651190D01*
X142345238Y-11651190D01*
X142392857Y-11627380D01*
X142416666Y-11603571D01*
X142440476Y-11555952D01*
X142440476Y-11460714D01*
X142416666Y-11413095D01*
X142392857Y-11389285D01*
X142345238Y-11365476D01*
X142654761Y-11460714D02*
X143035714Y-11460714D01*
X143273809Y-11651190D02*
X143273809Y-11151190D01*
X143273809Y-11389285D02*
X143559523Y-11389285D01*
X143559523Y-11651190D02*
X143559523Y-11151190D01*
X143797619Y-11651190D02*
X143797619Y-11317857D01*
X143797619Y-11151190D02*
X143773809Y-11175000D01*
X143797619Y-11198809D01*
X143821428Y-11175000D01*
X143797619Y-11151190D01*
X143797619Y-11198809D01*
X143964285Y-11317857D02*
X144154761Y-11317857D01*
X144035714Y-11151190D02*
X144035714Y-11579761D01*
X144059523Y-11627380D01*
X144107142Y-11651190D01*
X144154761Y-11651190D01*
X144392857Y-11651190D02*
X144345238Y-11627380D01*
X144321428Y-11603571D01*
X144297619Y-11555952D01*
X144297619Y-11413095D01*
X144321428Y-11365476D01*
X144345238Y-11341666D01*
X144392857Y-11317857D01*
X144464285Y-11317857D01*
X144511904Y-11341666D01*
X144535714Y-11365476D01*
X144559523Y-11413095D01*
X144559523Y-11555952D01*
X144535714Y-11603571D01*
X144511904Y-11627380D01*
X144464285Y-11651190D01*
X144392857Y-11651190D01*
X144773809Y-11651190D02*
X144773809Y-11317857D01*
X144773809Y-11365476D02*
X144797619Y-11341666D01*
X144845238Y-11317857D01*
X144916666Y-11317857D01*
X144964285Y-11341666D01*
X144988095Y-11389285D01*
X144988095Y-11651190D01*
X144988095Y-11389285D02*
X145011904Y-11341666D01*
X145059523Y-11317857D01*
X145130952Y-11317857D01*
X145178571Y-11341666D01*
X145202380Y-11389285D01*
X145202380Y-11651190D01*
X145511904Y-11651190D02*
X145464285Y-11627380D01*
X145440476Y-11603571D01*
X145416666Y-11555952D01*
X145416666Y-11413095D01*
X145440476Y-11365476D01*
X145464285Y-11341666D01*
X145511904Y-11317857D01*
X145583333Y-11317857D01*
X145630952Y-11341666D01*
X145654761Y-11365476D01*
X145678571Y-11413095D01*
X145678571Y-11555952D01*
X145654761Y-11603571D01*
X145630952Y-11627380D01*
X145583333Y-11651190D01*
X145511904Y-11651190D01*
X145869047Y-11627380D02*
X145916666Y-11651190D01*
X146011904Y-11651190D01*
X146059523Y-11627380D01*
X146083333Y-11579761D01*
X146083333Y-11555952D01*
X146059523Y-11508333D01*
X146011904Y-11484523D01*
X145940476Y-11484523D01*
X145892857Y-11460714D01*
X145869047Y-11413095D01*
X145869047Y-11389285D01*
X145892857Y-11341666D01*
X145940476Y-11317857D01*
X146011904Y-11317857D01*
X146059523Y-11341666D01*
X146297619Y-11651190D02*
X146297619Y-11317857D01*
X146297619Y-11151190D02*
X146273809Y-11175000D01*
X146297619Y-11198809D01*
X146321428Y-11175000D01*
X146297619Y-11151190D01*
X146297619Y-11198809D01*
D11*
X87000000Y-8800000D02*
X87000000Y-9100000D01*
X86000000Y-8800000D02*
X87000000Y-8800000D01*
X86000000Y-9100000D02*
X86000000Y-8800000D01*
D12*
X21909523Y-13952380D02*
X21433333Y-13952380D01*
X21433333Y-12952380D01*
X22242857Y-13428571D02*
X22576190Y-13428571D01*
X22719047Y-13952380D02*
X22242857Y-13952380D01*
X22242857Y-12952380D01*
X22719047Y-12952380D01*
X23147619Y-13952380D02*
X23147619Y-12952380D01*
X23385714Y-12952380D01*
X23528571Y-13000000D01*
X23623809Y-13095238D01*
X23671428Y-13190476D01*
X23719047Y-13380952D01*
X23719047Y-13523809D01*
X23671428Y-13714285D01*
X23623809Y-13809523D01*
X23528571Y-13904761D01*
X23385714Y-13952380D01*
X23147619Y-13952380D01*
X24338095Y-12952380D02*
X24528571Y-12952380D01*
X24623809Y-13000000D01*
X24719047Y-13095238D01*
X24766666Y-13285714D01*
X24766666Y-13619047D01*
X24719047Y-13809523D01*
X24623809Y-13904761D01*
X24528571Y-13952380D01*
X24338095Y-13952380D01*
X24242857Y-13904761D01*
X24147619Y-13809523D01*
X24100000Y-13619047D01*
X24100000Y-13285714D01*
X24147619Y-13095238D01*
X24242857Y-13000000D01*
X24338095Y-12952380D01*
X25528571Y-13428571D02*
X25195238Y-13428571D01*
X25195238Y-13952380D02*
X25195238Y-12952380D01*
X25671428Y-12952380D01*
X26385714Y-13428571D02*
X26052380Y-13428571D01*
X26052380Y-13952380D02*
X26052380Y-12952380D01*
X26528571Y-12952380D01*
X26909523Y-13571428D02*
X27671428Y-13571428D01*
X28338095Y-12952380D02*
X28528571Y-12952380D01*
X28623809Y-13000000D01*
X28719047Y-13095238D01*
X28766666Y-13285714D01*
X28766666Y-13619047D01*
X28719047Y-13809523D01*
X28623809Y-13904761D01*
X28528571Y-13952380D01*
X28338095Y-13952380D01*
X28242857Y-13904761D01*
X28147619Y-13809523D01*
X28100000Y-13619047D01*
X28100000Y-13285714D01*
X28147619Y-13095238D01*
X28242857Y-13000000D01*
X28338095Y-12952380D01*
X29195238Y-13952380D02*
X29195238Y-12952380D01*
X29766666Y-13952380D01*
X29766666Y-12952380D01*
X54547619Y-14052380D02*
X54214285Y-13576190D01*
X53976190Y-14052380D02*
X53976190Y-13052380D01*
X54357142Y-13052380D01*
X54452380Y-13100000D01*
X54500000Y-13147619D01*
X54547619Y-13242857D01*
X54547619Y-13385714D01*
X54500000Y-13480952D01*
X54452380Y-13528571D01*
X54357142Y-13576190D01*
X53976190Y-13576190D01*
X54976190Y-13528571D02*
X55309523Y-13528571D01*
X55452380Y-14052380D02*
X54976190Y-14052380D01*
X54976190Y-13052380D01*
X55452380Y-13052380D01*
X55833333Y-14004761D02*
X55976190Y-14052380D01*
X56214285Y-14052380D01*
X56309523Y-14004761D01*
X56357142Y-13957142D01*
X56404761Y-13861904D01*
X56404761Y-13766666D01*
X56357142Y-13671428D01*
X56309523Y-13623809D01*
X56214285Y-13576190D01*
X56023809Y-13528571D01*
X55928571Y-13480952D01*
X55880952Y-13433333D01*
X55833333Y-13338095D01*
X55833333Y-13242857D01*
X55880952Y-13147619D01*
X55928571Y-13100000D01*
X56023809Y-13052380D01*
X56261904Y-13052380D01*
X56404761Y-13100000D01*
X56833333Y-13528571D02*
X57166666Y-13528571D01*
X57309523Y-14052380D02*
X56833333Y-14052380D01*
X56833333Y-13052380D01*
X57309523Y-13052380D01*
X57595238Y-13052380D02*
X58166666Y-13052380D01*
X57880952Y-14052380D02*
X57880952Y-13052380D01*
D11*
X39300000Y-18600000D02*
X39300000Y-18100000D01*
X40000000Y-18600000D02*
X39300000Y-18600000D01*
D13*
G36*
X135656923Y-8390269D02*
G01*
X135675774Y-8438638D01*
X135699262Y-8514594D01*
X135724329Y-8608691D01*
X135786230Y-8857379D01*
X135643157Y-9121962D01*
X135593254Y-9214986D01*
X135527593Y-9338491D01*
X135450739Y-9483828D01*
X135367260Y-9642345D01*
X135281722Y-9805390D01*
X135212537Y-9937761D01*
X135117396Y-10119937D01*
X135010203Y-10324848D01*
X134898204Y-10538664D01*
X134788646Y-10747554D01*
X134688775Y-10937690D01*
X134647043Y-11017021D01*
X134573727Y-11156820D01*
X134507660Y-11283781D01*
X134451502Y-11392710D01*
X134407916Y-11478411D01*
X134379563Y-11535690D01*
X134369106Y-11559351D01*
X134369097Y-11559487D01*
X134389021Y-11559037D01*
X134443800Y-11548023D01*
X134525942Y-11528186D01*
X134627957Y-11501268D01*
X134672265Y-11489015D01*
X134782385Y-11459104D01*
X134877835Y-11434917D01*
X134950378Y-11418409D01*
X134991780Y-11411535D01*
X134997482Y-11411797D01*
X134983228Y-11422664D01*
X134935558Y-11450079D01*
X134860529Y-11490932D01*
X134764201Y-11542113D01*
X134652630Y-11600512D01*
X134531874Y-11663021D01*
X134407992Y-11726529D01*
X134287040Y-11787927D01*
X134175077Y-11844105D01*
X134078160Y-11891953D01*
X134002348Y-11928363D01*
X133953697Y-11950223D01*
X133938877Y-11955209D01*
X133940618Y-11937906D01*
X133958709Y-11894348D01*
X133969720Y-11871919D01*
X133989515Y-11831710D01*
X134025492Y-11757202D01*
X134074989Y-11653964D01*
X134135344Y-11527566D01*
X134203895Y-11383578D01*
X134277980Y-11227568D01*
X134314830Y-11149827D01*
X134395221Y-10980191D01*
X134475394Y-10811121D01*
X134551827Y-10650039D01*
X134620999Y-10504365D01*
X134679385Y-10381520D01*
X134723465Y-10288924D01*
X134733211Y-10268490D01*
X134888570Y-9943061D01*
X135026000Y-9655348D01*
X135146517Y-9403247D01*
X135251136Y-9184652D01*
X135340872Y-8997459D01*
X135416741Y-8839564D01*
X135479756Y-8708860D01*
X135530933Y-8603245D01*
X135571288Y-8520611D01*
X135601835Y-8458856D01*
X135623590Y-8415874D01*
X135637567Y-8389560D01*
X135644781Y-8377810D01*
X135645336Y-8377181D01*
X135656923Y-8390269D01*
G37*
X135656923Y-8390269D02*
X135675774Y-8438638D01*
X135699262Y-8514594D01*
X135724329Y-8608691D01*
X135786230Y-8857379D01*
X135643157Y-9121962D01*
X135593254Y-9214986D01*
X135527593Y-9338491D01*
X135450739Y-9483828D01*
X135367260Y-9642345D01*
X135281722Y-9805390D01*
X135212537Y-9937761D01*
X135117396Y-10119937D01*
X135010203Y-10324848D01*
X134898204Y-10538664D01*
X134788646Y-10747554D01*
X134688775Y-10937690D01*
X134647043Y-11017021D01*
X134573727Y-11156820D01*
X134507660Y-11283781D01*
X134451502Y-11392710D01*
X134407916Y-11478411D01*
X134379563Y-11535690D01*
X134369106Y-11559351D01*
X134369097Y-11559487D01*
X134389021Y-11559037D01*
X134443800Y-11548023D01*
X134525942Y-11528186D01*
X134627957Y-11501268D01*
X134672265Y-11489015D01*
X134782385Y-11459104D01*
X134877835Y-11434917D01*
X134950378Y-11418409D01*
X134991780Y-11411535D01*
X134997482Y-11411797D01*
X134983228Y-11422664D01*
X134935558Y-11450079D01*
X134860529Y-11490932D01*
X134764201Y-11542113D01*
X134652630Y-11600512D01*
X134531874Y-11663021D01*
X134407992Y-11726529D01*
X134287040Y-11787927D01*
X134175077Y-11844105D01*
X134078160Y-11891953D01*
X134002348Y-11928363D01*
X133953697Y-11950223D01*
X133938877Y-11955209D01*
X133940618Y-11937906D01*
X133958709Y-11894348D01*
X133969720Y-11871919D01*
X133989515Y-11831710D01*
X134025492Y-11757202D01*
X134074989Y-11653964D01*
X134135344Y-11527566D01*
X134203895Y-11383578D01*
X134277980Y-11227568D01*
X134314830Y-11149827D01*
X134395221Y-10980191D01*
X134475394Y-10811121D01*
X134551827Y-10650039D01*
X134620999Y-10504365D01*
X134679385Y-10381520D01*
X134723465Y-10288924D01*
X134733211Y-10268490D01*
X134888570Y-9943061D01*
X135026000Y-9655348D01*
X135146517Y-9403247D01*
X135251136Y-9184652D01*
X135340872Y-8997459D01*
X135416741Y-8839564D01*
X135479756Y-8708860D01*
X135530933Y-8603245D01*
X135571288Y-8520611D01*
X135601835Y-8458856D01*
X135623590Y-8415874D01*
X135637567Y-8389560D01*
X135644781Y-8377810D01*
X135645336Y-8377181D01*
X135656923Y-8390269D01*
G36*
X138911111Y-10566146D02*
G01*
X139330035Y-10566146D01*
X139330035Y-10742535D01*
X138911111Y-10742535D01*
X138911111Y-11004145D01*
X138911880Y-11118165D01*
X138915118Y-11197512D01*
X138922219Y-11251597D01*
X138934579Y-11289832D01*
X138953591Y-11321628D01*
X138959311Y-11329362D01*
X138992922Y-11373730D01*
X139013117Y-11400413D01*
X139014432Y-11402155D01*
X139031349Y-11392398D01*
X139067349Y-11357474D01*
X139096944Y-11324985D01*
X139172535Y-11238629D01*
X139232637Y-11297653D01*
X139292739Y-11356676D01*
X139203357Y-11463017D01*
X139145527Y-11529491D01*
X139089742Y-11589851D01*
X139058642Y-11620930D01*
X139003309Y-11672502D01*
X138756771Y-11344946D01*
X138756771Y-10742535D01*
X138679600Y-10742535D01*
X138630191Y-10739865D01*
X138608233Y-10723379D01*
X138602603Y-10680365D01*
X138602430Y-10654341D01*
X138604767Y-10597873D01*
X138619192Y-10572778D01*
X138656829Y-10566343D01*
X138679600Y-10566146D01*
X138756771Y-10566146D01*
X138756771Y-10345660D01*
X138911111Y-10345660D01*
X138911111Y-10566146D01*
G37*
X138911111Y-10566146D02*
X139330035Y-10566146D01*
X139330035Y-10742535D01*
X138911111Y-10742535D01*
X138911111Y-11004145D01*
X138911880Y-11118165D01*
X138915118Y-11197512D01*
X138922219Y-11251597D01*
X138934579Y-11289832D01*
X138953591Y-11321628D01*
X138959311Y-11329362D01*
X138992922Y-11373730D01*
X139013117Y-11400413D01*
X139014432Y-11402155D01*
X139031349Y-11392398D01*
X139067349Y-11357474D01*
X139096944Y-11324985D01*
X139172535Y-11238629D01*
X139232637Y-11297653D01*
X139292739Y-11356676D01*
X139203357Y-11463017D01*
X139145527Y-11529491D01*
X139089742Y-11589851D01*
X139058642Y-11620930D01*
X139003309Y-11672502D01*
X138756771Y-11344946D01*
X138756771Y-10742535D01*
X138679600Y-10742535D01*
X138630191Y-10739865D01*
X138608233Y-10723379D01*
X138602603Y-10680365D01*
X138602430Y-10654341D01*
X138604767Y-10597873D01*
X138619192Y-10572778D01*
X138656829Y-10566343D01*
X138679600Y-10566146D01*
X138756771Y-10566146D01*
X138756771Y-10345660D01*
X138911111Y-10345660D01*
X138911111Y-10566146D01*
G36*
X137676389Y-11646528D02*
G01*
X137500000Y-11646528D01*
X137500000Y-10566146D01*
X137676389Y-10566146D01*
X137676389Y-11646528D01*
G37*
X137676389Y-11646528D02*
X137500000Y-11646528D01*
X137500000Y-10566146D01*
X137676389Y-10566146D01*
X137676389Y-11646528D01*
G36*
X136463715Y-10642896D02*
G01*
X136461231Y-10682560D01*
X136449075Y-10709923D01*
X136420195Y-10727593D01*
X136367539Y-10738178D01*
X136284052Y-10744285D01*
X136179375Y-10748030D01*
X136087462Y-10751826D01*
X136028564Y-10758591D01*
X135991599Y-10771436D01*
X135965484Y-10793471D01*
X135950506Y-10812271D01*
X135906760Y-10870983D01*
X135955228Y-10939051D01*
X135979528Y-10971001D01*
X136003994Y-10990963D01*
X136039045Y-11001755D01*
X136095098Y-11006198D01*
X136182570Y-11007111D01*
X136206716Y-11007118D01*
X136409735Y-11007118D01*
X136525681Y-11162055D01*
X136586633Y-11249507D01*
X136620101Y-11311657D01*
X136624416Y-11345403D01*
X136624329Y-11345549D01*
X136602635Y-11376310D01*
X136561971Y-11430153D01*
X136510917Y-11495730D01*
X136508103Y-11499293D01*
X136409174Y-11624479D01*
X135824305Y-11624479D01*
X135824305Y-11448091D01*
X136328421Y-11448091D01*
X136375108Y-11382524D01*
X136421795Y-11316958D01*
X136372463Y-11250233D01*
X136347417Y-11218719D01*
X136322025Y-11199117D01*
X136285708Y-11188599D01*
X136227885Y-11184339D01*
X136137978Y-11183510D01*
X136122756Y-11183507D01*
X135922382Y-11183507D01*
X135805993Y-11027978D01*
X135689603Y-10872448D01*
X135803138Y-10719297D01*
X135916674Y-10566146D01*
X136463715Y-10566146D01*
X136463715Y-10642896D01*
G37*
X136463715Y-10642896D02*
X136461231Y-10682560D01*
X136449075Y-10709923D01*
X136420195Y-10727593D01*
X136367539Y-10738178D01*
X136284052Y-10744285D01*
X136179375Y-10748030D01*
X136087462Y-10751826D01*
X136028564Y-10758591D01*
X135991599Y-10771436D01*
X135965484Y-10793471D01*
X135950506Y-10812271D01*
X135906760Y-10870983D01*
X135955228Y-10939051D01*
X135979528Y-10971001D01*
X136003994Y-10990963D01*
X136039045Y-11001755D01*
X136095098Y-11006198D01*
X136182570Y-11007111D01*
X136206716Y-11007118D01*
X136409735Y-11007118D01*
X136525681Y-11162055D01*
X136586633Y-11249507D01*
X136620101Y-11311657D01*
X136624416Y-11345403D01*
X136624329Y-11345549D01*
X136602635Y-11376310D01*
X136561971Y-11430153D01*
X136510917Y-11495730D01*
X136508103Y-11499293D01*
X136409174Y-11624479D01*
X135824305Y-11624479D01*
X135824305Y-11448091D01*
X136328421Y-11448091D01*
X136375108Y-11382524D01*
X136421795Y-11316958D01*
X136372463Y-11250233D01*
X136347417Y-11218719D01*
X136322025Y-11199117D01*
X136285708Y-11188599D01*
X136227885Y-11184339D01*
X136137978Y-11183510D01*
X136122756Y-11183507D01*
X135922382Y-11183507D01*
X135805993Y-11027978D01*
X135689603Y-10872448D01*
X135803138Y-10719297D01*
X135916674Y-10566146D01*
X136463715Y-10566146D01*
X136463715Y-10642896D01*
G36*
X137257465Y-10720486D02*
G01*
X137141710Y-10720678D01*
X136998276Y-10724690D01*
X136892204Y-10737116D01*
X136817324Y-10759353D01*
X136767462Y-10792799D01*
X136753964Y-10808504D01*
X136709372Y-10868818D01*
X136757420Y-10937587D01*
X136781451Y-10969849D01*
X136805612Y-10990031D01*
X136840289Y-11000992D01*
X136895865Y-11005590D01*
X136982723Y-11006681D01*
X137008684Y-11006737D01*
X137211899Y-11007118D01*
X137331663Y-11165405D01*
X137451426Y-11323692D01*
X137329913Y-11474086D01*
X137208401Y-11624479D01*
X136640104Y-11624479D01*
X136640104Y-11448091D01*
X136888151Y-11446871D01*
X136995910Y-11445946D01*
X137068681Y-11443152D01*
X137115570Y-11436563D01*
X137145686Y-11424254D01*
X137168137Y-11404301D01*
X137184592Y-11384217D01*
X137232987Y-11322782D01*
X137184592Y-11253526D01*
X137160437Y-11221040D01*
X137136280Y-11200716D01*
X137101729Y-11189676D01*
X137046390Y-11185046D01*
X136959871Y-11183947D01*
X136932987Y-11183888D01*
X136729777Y-11183507D01*
X136618794Y-11036903D01*
X136567774Y-10967315D01*
X136529127Y-10910431D01*
X136509199Y-10875745D01*
X136507812Y-10870847D01*
X136520113Y-10845084D01*
X136552754Y-10794087D01*
X136599341Y-10727697D01*
X136612543Y-10709677D01*
X136717274Y-10567958D01*
X136987370Y-10567052D01*
X137257465Y-10566146D01*
X137257465Y-10720486D01*
G37*
X137257465Y-10720486D02*
X137141710Y-10720678D01*
X136998276Y-10724690D01*
X136892204Y-10737116D01*
X136817324Y-10759353D01*
X136767462Y-10792799D01*
X136753964Y-10808504D01*
X136709372Y-10868818D01*
X136757420Y-10937587D01*
X136781451Y-10969849D01*
X136805612Y-10990031D01*
X136840289Y-11000992D01*
X136895865Y-11005590D01*
X136982723Y-11006681D01*
X137008684Y-11006737D01*
X137211899Y-11007118D01*
X137331663Y-11165405D01*
X137451426Y-11323692D01*
X137329913Y-11474086D01*
X137208401Y-11624479D01*
X136640104Y-11624479D01*
X136640104Y-11448091D01*
X136888151Y-11446871D01*
X136995910Y-11445946D01*
X137068681Y-11443152D01*
X137115570Y-11436563D01*
X137145686Y-11424254D01*
X137168137Y-11404301D01*
X137184592Y-11384217D01*
X137232987Y-11322782D01*
X137184592Y-11253526D01*
X137160437Y-11221040D01*
X137136280Y-11200716D01*
X137101729Y-11189676D01*
X137046390Y-11185046D01*
X136959871Y-11183947D01*
X136932987Y-11183888D01*
X136729777Y-11183507D01*
X136618794Y-11036903D01*
X136567774Y-10967315D01*
X136529127Y-10910431D01*
X136509199Y-10875745D01*
X136507812Y-10870847D01*
X136520113Y-10845084D01*
X136552754Y-10794087D01*
X136599341Y-10727697D01*
X136612543Y-10709677D01*
X136717274Y-10567958D01*
X136987370Y-10567052D01*
X137257465Y-10566146D01*
X137257465Y-10720486D01*
G36*
X138452043Y-10566545D02*
G01*
X138488910Y-10573787D01*
X138507308Y-10589215D01*
X138513623Y-10614189D01*
X138514242Y-10650071D01*
X138514236Y-10654341D01*
X138514236Y-10742535D01*
X138076460Y-10742535D01*
X137965090Y-10884839D01*
X138016418Y-10951491D01*
X138042516Y-10982715D01*
X138069477Y-11002650D01*
X138107786Y-11014285D01*
X138167926Y-11020612D01*
X138260381Y-11024621D01*
X138274455Y-11025098D01*
X138481163Y-11032054D01*
X138585894Y-11173235D01*
X138635139Y-11242409D01*
X138671945Y-11299425D01*
X138689856Y-11334123D01*
X138690625Y-11338018D01*
X138677606Y-11365527D01*
X138643210Y-11416557D01*
X138594423Y-11480866D01*
X138585894Y-11491523D01*
X138481163Y-11621426D01*
X138189019Y-11622953D01*
X137896875Y-11624479D01*
X137896875Y-11470139D01*
X138378024Y-11470139D01*
X138435018Y-11402407D01*
X138492011Y-11334674D01*
X138434361Y-11259091D01*
X138376710Y-11183507D01*
X137971526Y-11183507D01*
X137868054Y-11042587D01*
X137819453Y-10974530D01*
X137783104Y-10920077D01*
X137765365Y-10888859D01*
X137764583Y-10885851D01*
X137776779Y-10861735D01*
X137809078Y-10812169D01*
X137855046Y-10746920D01*
X137865731Y-10732280D01*
X137966878Y-10594524D01*
X138166774Y-10580335D01*
X138297361Y-10571179D01*
X138390322Y-10566129D01*
X138452043Y-10566545D01*
G37*
X138452043Y-10566545D02*
X138488910Y-10573787D01*
X138507308Y-10589215D01*
X138513623Y-10614189D01*
X138514242Y-10650071D01*
X138514236Y-10654341D01*
X138514236Y-10742535D01*
X138076460Y-10742535D01*
X137965090Y-10884839D01*
X138016418Y-10951491D01*
X138042516Y-10982715D01*
X138069477Y-11002650D01*
X138107786Y-11014285D01*
X138167926Y-11020612D01*
X138260381Y-11024621D01*
X138274455Y-11025098D01*
X138481163Y-11032054D01*
X138585894Y-11173235D01*
X138635139Y-11242409D01*
X138671945Y-11299425D01*
X138689856Y-11334123D01*
X138690625Y-11338018D01*
X138677606Y-11365527D01*
X138643210Y-11416557D01*
X138594423Y-11480866D01*
X138585894Y-11491523D01*
X138481163Y-11621426D01*
X138189019Y-11622953D01*
X137896875Y-11624479D01*
X137896875Y-11470139D01*
X138378024Y-11470139D01*
X138435018Y-11402407D01*
X138492011Y-11334674D01*
X138434361Y-11259091D01*
X138376710Y-11183507D01*
X137971526Y-11183507D01*
X137868054Y-11042587D01*
X137819453Y-10974530D01*
X137783104Y-10920077D01*
X137765365Y-10888859D01*
X137764583Y-10885851D01*
X137776779Y-10861735D01*
X137809078Y-10812169D01*
X137855046Y-10746920D01*
X137865731Y-10732280D01*
X137966878Y-10594524D01*
X138166774Y-10580335D01*
X138297361Y-10571179D01*
X138390322Y-10566129D01*
X138452043Y-10566545D01*
G36*
X135821448Y-8983762D02*
G01*
X135839411Y-9043228D01*
X135865783Y-9133513D01*
X135898925Y-9248767D01*
X135937198Y-9383139D01*
X135978961Y-9530780D01*
X136022576Y-9685838D01*
X136066404Y-9842464D01*
X136108804Y-9994807D01*
X136148138Y-10137017D01*
X136182766Y-10263243D01*
X136211049Y-10367636D01*
X136231348Y-10444344D01*
X136242022Y-10487517D01*
X136243250Y-10494488D01*
X136226484Y-10517574D01*
X136215668Y-10518342D01*
X136179982Y-10514326D01*
X136115927Y-10507739D01*
X136055816Y-10501806D01*
X135923524Y-10488976D01*
X135877116Y-10312587D01*
X135855395Y-10238115D01*
X135836932Y-10189542D01*
X135824619Y-10173886D01*
X135821975Y-10178829D01*
X135812754Y-10195693D01*
X135788624Y-10212103D01*
X135743999Y-10229931D01*
X135673291Y-10251046D01*
X135570915Y-10277319D01*
X135431283Y-10310623D01*
X135421899Y-10312816D01*
X135297761Y-10340811D01*
X135189851Y-10363267D01*
X135104878Y-10378943D01*
X135049551Y-10386598D01*
X135030555Y-10385207D01*
X135042009Y-10343852D01*
X135070729Y-10284577D01*
X135108250Y-10221448D01*
X135146111Y-10168532D01*
X135175847Y-10139895D01*
X135178929Y-10138609D01*
X135244476Y-10121116D01*
X135322865Y-10103125D01*
X135802257Y-10103125D01*
X135810324Y-10121274D01*
X135816956Y-10117824D01*
X135819595Y-10091658D01*
X135816956Y-10088426D01*
X135803848Y-10091453D01*
X135802257Y-10103125D01*
X135322865Y-10103125D01*
X135332443Y-10100927D01*
X135432937Y-10079914D01*
X135536067Y-10059947D01*
X135631938Y-10042894D01*
X135710659Y-10030626D01*
X135762336Y-10025013D01*
X135776409Y-10025677D01*
X135797479Y-10024562D01*
X135794935Y-9991071D01*
X135794041Y-9987698D01*
X135783998Y-9949149D01*
X135765515Y-9876858D01*
X135740888Y-9779851D01*
X135712411Y-9667155D01*
X135700042Y-9618056D01*
X135619571Y-9298351D01*
X135713446Y-9126331D01*
X135755607Y-9050945D01*
X135789451Y-8993939D01*
X135809945Y-8963628D01*
X135813533Y-8960967D01*
X135821448Y-8983762D01*
G37*
X135821448Y-8983762D02*
X135839411Y-9043228D01*
X135865783Y-9133513D01*
X135898925Y-9248767D01*
X135937198Y-9383139D01*
X135978961Y-9530780D01*
X136022576Y-9685838D01*
X136066404Y-9842464D01*
X136108804Y-9994807D01*
X136148138Y-10137017D01*
X136182766Y-10263243D01*
X136211049Y-10367636D01*
X136231348Y-10444344D01*
X136242022Y-10487517D01*
X136243250Y-10494488D01*
X136226484Y-10517574D01*
X136215668Y-10518342D01*
X136179982Y-10514326D01*
X136115927Y-10507739D01*
X136055816Y-10501806D01*
X135923524Y-10488976D01*
X135877116Y-10312587D01*
X135855395Y-10238115D01*
X135836932Y-10189542D01*
X135824619Y-10173886D01*
X135821975Y-10178829D01*
X135812754Y-10195693D01*
X135788624Y-10212103D01*
X135743999Y-10229931D01*
X135673291Y-10251046D01*
X135570915Y-10277319D01*
X135431283Y-10310623D01*
X135421899Y-10312816D01*
X135297761Y-10340811D01*
X135189851Y-10363267D01*
X135104878Y-10378943D01*
X135049551Y-10386598D01*
X135030555Y-10385207D01*
X135042009Y-10343852D01*
X135070729Y-10284577D01*
X135108250Y-10221448D01*
X135146111Y-10168532D01*
X135175847Y-10139895D01*
X135178929Y-10138609D01*
X135244476Y-10121116D01*
X135322865Y-10103125D01*
X135802257Y-10103125D01*
X135810324Y-10121274D01*
X135816956Y-10117824D01*
X135819595Y-10091658D01*
X135816956Y-10088426D01*
X135803848Y-10091453D01*
X135802257Y-10103125D01*
X135322865Y-10103125D01*
X135332443Y-10100927D01*
X135432937Y-10079914D01*
X135536067Y-10059947D01*
X135631938Y-10042894D01*
X135710659Y-10030626D01*
X135762336Y-10025013D01*
X135776409Y-10025677D01*
X135797479Y-10024562D01*
X135794935Y-9991071D01*
X135794041Y-9987698D01*
X135783998Y-9949149D01*
X135765515Y-9876858D01*
X135740888Y-9779851D01*
X135712411Y-9667155D01*
X135700042Y-9618056D01*
X135619571Y-9298351D01*
X135713446Y-9126331D01*
X135755607Y-9050945D01*
X135789451Y-8993939D01*
X135809945Y-8963628D01*
X135813533Y-8960967D01*
X135821448Y-8983762D01*
D11*
X17000000Y-31500000D02*
X17000000Y-16500000D01*
X17000000Y-16500000D02*
X32000000Y-16500000D01*
X32000000Y-16500000D02*
X32000000Y-31500000D01*
X32000000Y-31500000D02*
X17000000Y-31500000D01*
X136000000Y-49500000D02*
X136000000Y-34500000D01*
X136000000Y-34500000D02*
X151000000Y-34500000D01*
X151000000Y-34500000D02*
X151000000Y-49500000D01*
X151000000Y-49500000D02*
X136000000Y-49500000D01*
X98000000Y-85500000D02*
X98000000Y-70500000D01*
X98000000Y-70500000D02*
X113000000Y-70500000D01*
X113000000Y-70500000D02*
X113000000Y-85500000D01*
X113000000Y-85500000D02*
X98000000Y-85500000D01*
X79000000Y-49500000D02*
X79000000Y-34500000D01*
X79000000Y-34500000D02*
X94000000Y-34500000D01*
X94000000Y-34500000D02*
X94000000Y-49500000D01*
X94000000Y-49500000D02*
X79000000Y-49500000D01*
X47110000Y-38690000D02*
X47110000Y-38390000D01*
X47110000Y-38390000D02*
X46810000Y-38390000D01*
X47110000Y-45310000D02*
X47110000Y-45610000D01*
X47110000Y-45610000D02*
X46810000Y-45610000D01*
X39890000Y-38690000D02*
X39890000Y-38390000D01*
X39890000Y-38390000D02*
X40190000Y-38390000D01*
X39890000Y-45310000D02*
X39890000Y-45610000D01*
X39890000Y-45610000D02*
X40190000Y-45610000D01*
X40190000Y-45610000D02*
X40190000Y-46925000D01*
X41840000Y-18100000D02*
X41840000Y-20550000D01*
X45060000Y-19900000D02*
X45060000Y-18100000D01*
X17000000Y-49500000D02*
X17000000Y-34500000D01*
X17000000Y-34500000D02*
X32000000Y-34500000D01*
X32000000Y-34500000D02*
X32000000Y-49500000D01*
X32000000Y-49500000D02*
X17000000Y-49500000D01*
X17000000Y-85500000D02*
X17000000Y-70500000D01*
X17000000Y-70500000D02*
X32000000Y-70500000D01*
X32000000Y-70500000D02*
X32000000Y-85500000D01*
X32000000Y-85500000D02*
X17000000Y-85500000D01*
X36000000Y-67500000D02*
X36000000Y-52500000D01*
X36000000Y-52500000D02*
X51000000Y-52500000D01*
X51000000Y-52500000D02*
X51000000Y-67500000D01*
X51000000Y-67500000D02*
X36000000Y-67500000D01*
X36000000Y-85500000D02*
X36000000Y-70500000D01*
X36000000Y-70500000D02*
X51000000Y-70500000D01*
X51000000Y-70500000D02*
X51000000Y-85500000D01*
X51000000Y-85500000D02*
X36000000Y-85500000D01*
X55000000Y-31500000D02*
X55000000Y-16500000D01*
X55000000Y-16500000D02*
X70000000Y-16500000D01*
X70000000Y-16500000D02*
X70000000Y-31500000D01*
X70000000Y-31500000D02*
X55000000Y-31500000D01*
X55000000Y-49500000D02*
X55000000Y-34500000D01*
X55000000Y-34500000D02*
X70000000Y-34500000D01*
X70000000Y-34500000D02*
X70000000Y-49500000D01*
X70000000Y-49500000D02*
X55000000Y-49500000D01*
X55000000Y-85500000D02*
X55000000Y-70500000D01*
X55000000Y-70500000D02*
X70000000Y-70500000D01*
X70000000Y-70500000D02*
X70000000Y-85500000D01*
X70000000Y-85500000D02*
X55000000Y-85500000D01*
X79000000Y-31500000D02*
X79000000Y-16500000D01*
X79000000Y-16500000D02*
X94000000Y-16500000D01*
X94000000Y-16500000D02*
X94000000Y-31500000D01*
X94000000Y-31500000D02*
X79000000Y-31500000D01*
X79000000Y-67500000D02*
X79000000Y-52500000D01*
X79000000Y-52500000D02*
X94000000Y-52500000D01*
X94000000Y-52500000D02*
X94000000Y-67500000D01*
X94000000Y-67500000D02*
X79000000Y-67500000D01*
X79000000Y-85500000D02*
X79000000Y-70500000D01*
X79000000Y-70500000D02*
X94000000Y-70500000D01*
X94000000Y-70500000D02*
X94000000Y-85500000D01*
X94000000Y-85500000D02*
X79000000Y-85500000D01*
X98000000Y-31500000D02*
X98000000Y-16500000D01*
X98000000Y-16500000D02*
X113000000Y-16500000D01*
X113000000Y-16500000D02*
X113000000Y-31500000D01*
X113000000Y-31500000D02*
X98000000Y-31500000D01*
X98000000Y-49500000D02*
X98000000Y-34500000D01*
X98000000Y-34500000D02*
X113000000Y-34500000D01*
X113000000Y-34500000D02*
X113000000Y-49500000D01*
X113000000Y-49500000D02*
X98000000Y-49500000D01*
X98000000Y-67500000D02*
X98000000Y-52500000D01*
X98000000Y-52500000D02*
X113000000Y-52500000D01*
X113000000Y-52500000D02*
X113000000Y-67500000D01*
X113000000Y-67500000D02*
X98000000Y-67500000D01*
X117000000Y-31500000D02*
X117000000Y-16500000D01*
X117000000Y-16500000D02*
X132000000Y-16500000D01*
X132000000Y-16500000D02*
X132000000Y-31500000D01*
X132000000Y-31500000D02*
X117000000Y-31500000D01*
X117000000Y-49500000D02*
X117000000Y-34500000D01*
X117000000Y-34500000D02*
X132000000Y-34500000D01*
X132000000Y-34500000D02*
X132000000Y-49500000D01*
X132000000Y-49500000D02*
X117000000Y-49500000D01*
X117000000Y-67500000D02*
X117000000Y-52500000D01*
X117000000Y-52500000D02*
X132000000Y-52500000D01*
X132000000Y-52500000D02*
X132000000Y-67500000D01*
X132000000Y-67500000D02*
X117000000Y-67500000D01*
X117000000Y-85500000D02*
X117000000Y-70500000D01*
X117000000Y-70500000D02*
X132000000Y-70500000D01*
X132000000Y-70500000D02*
X132000000Y-85500000D01*
X132000000Y-85500000D02*
X117000000Y-85500000D01*
X136000000Y-31500000D02*
X136000000Y-16500000D01*
X136000000Y-16500000D02*
X151000000Y-16500000D01*
X151000000Y-16500000D02*
X151000000Y-31500000D01*
X151000000Y-31500000D02*
X136000000Y-31500000D01*
X136000000Y-67500000D02*
X136000000Y-52500000D01*
X136000000Y-52500000D02*
X151000000Y-52500000D01*
X151000000Y-52500000D02*
X151000000Y-67500000D01*
X151000000Y-67500000D02*
X136000000Y-67500000D01*
X136000000Y-85500000D02*
X136000000Y-70500000D01*
X136000000Y-70500000D02*
X151000000Y-70500000D01*
X151000000Y-70500000D02*
X151000000Y-85500000D01*
X151000000Y-85500000D02*
X136000000Y-85500000D01*
X21200000Y-12400000D02*
X21200000Y-11200000D01*
X30000000Y-12400000D02*
X21200000Y-12400000D01*
X30000000Y-11200000D02*
X30000000Y-12400000D01*
X21200000Y-8000000D02*
X21200000Y-9200000D01*
X30000000Y-8000000D02*
X21200000Y-8000000D01*
X30000000Y-9200000D02*
X30000000Y-8000000D01*
X39460000Y-27716665D02*
X39460000Y-27948335D01*
X38740000Y-27716665D02*
X38740000Y-27948335D01*
X36401248Y-27265000D02*
X36923752Y-27265000D01*
X36401248Y-28735000D02*
X36923752Y-28735000D01*
X42008767Y-49290000D02*
X41716233Y-49290000D01*
X42008767Y-50310000D02*
X41716233Y-50310000D01*
X36410000Y-48216233D02*
X36410000Y-48508767D01*
X35390000Y-48216233D02*
X35390000Y-48508767D01*
X63891233Y-9590000D02*
X64183767Y-9590000D01*
X63891233Y-10610000D02*
X64183767Y-10610000D01*
X42008767Y-47790000D02*
X41716233Y-47790000D01*
X42008767Y-48810000D02*
X41716233Y-48810000D01*
X36890000Y-48216233D02*
X36890000Y-48508767D01*
X37910000Y-48216233D02*
X37910000Y-48508767D01*
X39410000Y-48216233D02*
X39410000Y-48508767D01*
X38390000Y-48216233D02*
X38390000Y-48508767D01*
X50191233Y-33890000D02*
X50483767Y-33890000D01*
X50191233Y-34910000D02*
X50483767Y-34910000D01*
X50191233Y-36410000D02*
X50483767Y-36410000D01*
X50191233Y-35390000D02*
X50483767Y-35390000D01*
X39153733Y-16690000D02*
X39496267Y-16690000D01*
X39153733Y-17710000D02*
X39496267Y-17710000D01*
X47818000Y-12984000D02*
X47818000Y-10698000D01*
X39182000Y-12984000D02*
X39182000Y-10698000D01*
X47818000Y-8920000D02*
X47818000Y-7142000D01*
X47818000Y-7142000D02*
X39182000Y-7142000D01*
X39182000Y-8920000D02*
X39182000Y-7142000D01*
X47818000Y-15016000D02*
X47818000Y-15524000D01*
X47818000Y-15524000D02*
X39182000Y-15524000D01*
X39182000Y-15524000D02*
X39182000Y-15016000D01*
X89695000Y-12830000D02*
X89695000Y-12007530D01*
X89695000Y-10122470D02*
X89695000Y-9300000D01*
X89695000Y-11392470D02*
X89695000Y-10737530D01*
X84680000Y-12830000D02*
X89695000Y-12830000D01*
X83225000Y-9300000D02*
X89695000Y-9300000D01*
X84680000Y-12830000D02*
X84680000Y-12263471D01*
X84680000Y-11136529D02*
X84680000Y-10993471D01*
X84626529Y-10940000D02*
X84483471Y-10940000D01*
X83356529Y-10940000D02*
X83225000Y-10940000D01*
X83225000Y-10940000D02*
X83225000Y-10737530D01*
X83225000Y-10122470D02*
X83225000Y-9300000D01*
X83920000Y-12830000D02*
X83160000Y-12830000D01*
X83160000Y-12830000D02*
X83160000Y-11700000D01*
X37530000Y-37690000D02*
X34870000Y-37690000D01*
X37530000Y-42830000D02*
X37530000Y-37690000D01*
X34870000Y-42830000D02*
X34870000Y-37690000D01*
X37530000Y-42830000D02*
X34870000Y-42830000D01*
X37530000Y-44100000D02*
X37530000Y-45430000D01*
X37530000Y-45430000D02*
X36200000Y-45430000D01*
X100370000Y-9670000D02*
X100370000Y-12330000D01*
X108050000Y-9670000D02*
X100370000Y-9670000D01*
X108050000Y-12330000D02*
X100370000Y-12330000D01*
X108050000Y-9670000D02*
X108050000Y-12330000D01*
X109320000Y-9670000D02*
X110650000Y-9670000D01*
X110650000Y-9670000D02*
X110650000Y-11000000D01*
X32140000Y-11270000D02*
X32140000Y-12200000D01*
X32140000Y-14430000D02*
X32140000Y-13500000D01*
X32140000Y-14430000D02*
X34300000Y-14430000D01*
X32140000Y-11270000D02*
X33600000Y-11270000D01*
X35922500Y-12757776D02*
X35922500Y-13267224D01*
X34877500Y-12757776D02*
X34877500Y-13267224D01*
X36377500Y-16032776D02*
X36377500Y-16542224D01*
X37422500Y-16032776D02*
X37422500Y-16542224D01*
X39577500Y-32432776D02*
X39577500Y-32942224D01*
X40622500Y-32432776D02*
X40622500Y-32942224D01*
X38922500Y-32445276D02*
X38922500Y-32954724D01*
X37877500Y-32445276D02*
X37877500Y-32954724D01*
X64342224Y-12177500D02*
X63832776Y-12177500D01*
X64342224Y-13222500D02*
X63832776Y-13222500D01*
X49242224Y-16677500D02*
X48732776Y-16677500D01*
X49242224Y-17722500D02*
X48732776Y-17722500D01*
X48745276Y-18177500D02*
X49254724Y-18177500D01*
X48745276Y-19222500D02*
X49254724Y-19222500D01*
X43877500Y-23142224D02*
X43877500Y-22632776D01*
X44922500Y-23142224D02*
X44922500Y-22632776D01*
X43022500Y-22632776D02*
X43022500Y-23142224D01*
X41977500Y-22632776D02*
X41977500Y-23142224D01*
X46522500Y-21354724D02*
X46522500Y-20845276D01*
X45477500Y-21354724D02*
X45477500Y-20845276D01*
X41422500Y-21342224D02*
X41422500Y-20832776D01*
X40377500Y-21342224D02*
X40377500Y-20832776D01*
X36177500Y-32967224D02*
X36177500Y-32457776D01*
X37222500Y-32967224D02*
X37222500Y-32457776D01*
X50132776Y-29822500D02*
X50642224Y-29822500D01*
X50132776Y-28777500D02*
X50642224Y-28777500D01*
X50132776Y-30277500D02*
X50642224Y-30277500D01*
X50132776Y-31322500D02*
X50642224Y-31322500D01*
X50132776Y-32822500D02*
X50642224Y-32822500D01*
X50132776Y-31777500D02*
X50642224Y-31777500D01*
X50532776Y-41077500D02*
X51042224Y-41077500D01*
X50532776Y-42122500D02*
X51042224Y-42122500D01*
X41822500Y-27932776D02*
X41822500Y-28442224D01*
X40777500Y-27932776D02*
X40777500Y-28442224D01*
X48132776Y-25922500D02*
X48642224Y-25922500D01*
X48132776Y-24877500D02*
X48642224Y-24877500D01*
X52950000Y-12750000D02*
X52950000Y-12000000D01*
X52950000Y-12750000D02*
X58950000Y-12750000D01*
X58950000Y-12000000D02*
X58950000Y-12750000D01*
X52950000Y-10000000D02*
X52950000Y-9250000D01*
X52950000Y-9250000D02*
X58950000Y-9250000D01*
X58950000Y-9250000D02*
X58950000Y-10000000D01*
X35570000Y-24160000D02*
X35240000Y-24160000D01*
X35240000Y-24160000D02*
X35240000Y-21440000D01*
X39630000Y-19260000D02*
X39630000Y-21440000D01*
X39960000Y-24160000D02*
X39630000Y-24160000D01*
X39960000Y-21440000D02*
X39960000Y-24160000D01*
X39960000Y-21440000D02*
X39630000Y-21440000D01*
X35240000Y-21440000D02*
X35570000Y-21440000D01*
D12*
X23166666Y-27804761D02*
X23309523Y-27852380D01*
X23547619Y-27852380D01*
X23642857Y-27804761D01*
X23690476Y-27757142D01*
X23738095Y-27661904D01*
X23738095Y-27566666D01*
X23690476Y-27471428D01*
X23642857Y-27423809D01*
X23547619Y-27376190D01*
X23357142Y-27328571D01*
X23261904Y-27280952D01*
X23214285Y-27233333D01*
X23166666Y-27138095D01*
X23166666Y-27042857D01*
X23214285Y-26947619D01*
X23261904Y-26900000D01*
X23357142Y-26852380D01*
X23595238Y-26852380D01*
X23738095Y-26900000D01*
X24071428Y-26852380D02*
X24309523Y-27852380D01*
X24500000Y-27138095D01*
X24690476Y-27852380D01*
X24928571Y-26852380D01*
X25214285Y-26852380D02*
X25833333Y-26852380D01*
X25500000Y-27233333D01*
X25642857Y-27233333D01*
X25738095Y-27280952D01*
X25785714Y-27328571D01*
X25833333Y-27423809D01*
X25833333Y-27661904D01*
X25785714Y-27757142D01*
X25738095Y-27804761D01*
X25642857Y-27852380D01*
X25357142Y-27852380D01*
X25261904Y-27804761D01*
X25214285Y-27757142D01*
X141690476Y-45804761D02*
X141833333Y-45852380D01*
X142071428Y-45852380D01*
X142166666Y-45804761D01*
X142214285Y-45757142D01*
X142261904Y-45661904D01*
X142261904Y-45566666D01*
X142214285Y-45471428D01*
X142166666Y-45423809D01*
X142071428Y-45376190D01*
X141880952Y-45328571D01*
X141785714Y-45280952D01*
X141738095Y-45233333D01*
X141690476Y-45138095D01*
X141690476Y-45042857D01*
X141738095Y-44947619D01*
X141785714Y-44900000D01*
X141880952Y-44852380D01*
X142119047Y-44852380D01*
X142261904Y-44900000D01*
X142595238Y-44852380D02*
X142833333Y-45852380D01*
X143023809Y-45138095D01*
X143214285Y-45852380D01*
X143452380Y-44852380D01*
X143785714Y-44947619D02*
X143833333Y-44900000D01*
X143928571Y-44852380D01*
X144166666Y-44852380D01*
X144261904Y-44900000D01*
X144309523Y-44947619D01*
X144357142Y-45042857D01*
X144357142Y-45138095D01*
X144309523Y-45280952D01*
X143738095Y-45852380D01*
X144357142Y-45852380D01*
X145214285Y-45185714D02*
X145214285Y-45852380D01*
X144976190Y-44804761D02*
X144738095Y-45519047D01*
X145357142Y-45519047D01*
X103690476Y-81804761D02*
X103833333Y-81852380D01*
X104071428Y-81852380D01*
X104166666Y-81804761D01*
X104214285Y-81757142D01*
X104261904Y-81661904D01*
X104261904Y-81566666D01*
X104214285Y-81471428D01*
X104166666Y-81423809D01*
X104071428Y-81376190D01*
X103880952Y-81328571D01*
X103785714Y-81280952D01*
X103738095Y-81233333D01*
X103690476Y-81138095D01*
X103690476Y-81042857D01*
X103738095Y-80947619D01*
X103785714Y-80900000D01*
X103880952Y-80852380D01*
X104119047Y-80852380D01*
X104261904Y-80900000D01*
X104595238Y-80852380D02*
X104833333Y-81852380D01*
X105023809Y-81138095D01*
X105214285Y-81852380D01*
X105452380Y-80852380D01*
X106357142Y-81852380D02*
X105785714Y-81852380D01*
X106071428Y-81852380D02*
X106071428Y-80852380D01*
X105976190Y-80995238D01*
X105880952Y-81090476D01*
X105785714Y-81138095D01*
X106928571Y-81280952D02*
X106833333Y-81233333D01*
X106785714Y-81185714D01*
X106738095Y-81090476D01*
X106738095Y-81042857D01*
X106785714Y-80947619D01*
X106833333Y-80900000D01*
X106928571Y-80852380D01*
X107119047Y-80852380D01*
X107214285Y-80900000D01*
X107261904Y-80947619D01*
X107309523Y-81042857D01*
X107309523Y-81090476D01*
X107261904Y-81185714D01*
X107214285Y-81233333D01*
X107119047Y-81280952D01*
X106928571Y-81280952D01*
X106833333Y-81328571D01*
X106785714Y-81376190D01*
X106738095Y-81471428D01*
X106738095Y-81661904D01*
X106785714Y-81757142D01*
X106833333Y-81804761D01*
X106928571Y-81852380D01*
X107119047Y-81852380D01*
X107214285Y-81804761D01*
X107261904Y-81757142D01*
X107309523Y-81661904D01*
X107309523Y-81471428D01*
X107261904Y-81376190D01*
X107214285Y-81328571D01*
X107119047Y-81280952D01*
X84690476Y-45804761D02*
X84833333Y-45852380D01*
X85071428Y-45852380D01*
X85166666Y-45804761D01*
X85214285Y-45757142D01*
X85261904Y-45661904D01*
X85261904Y-45566666D01*
X85214285Y-45471428D01*
X85166666Y-45423809D01*
X85071428Y-45376190D01*
X84880952Y-45328571D01*
X84785714Y-45280952D01*
X84738095Y-45233333D01*
X84690476Y-45138095D01*
X84690476Y-45042857D01*
X84738095Y-44947619D01*
X84785714Y-44900000D01*
X84880952Y-44852380D01*
X85119047Y-44852380D01*
X85261904Y-44900000D01*
X85595238Y-44852380D02*
X85833333Y-45852380D01*
X86023809Y-45138095D01*
X86214285Y-45852380D01*
X86452380Y-44852380D01*
X87357142Y-45852380D02*
X86785714Y-45852380D01*
X87071428Y-45852380D02*
X87071428Y-44852380D01*
X86976190Y-44995238D01*
X86880952Y-45090476D01*
X86785714Y-45138095D01*
X87738095Y-44947619D02*
X87785714Y-44900000D01*
X87880952Y-44852380D01*
X88119047Y-44852380D01*
X88214285Y-44900000D01*
X88261904Y-44947619D01*
X88309523Y-45042857D01*
X88309523Y-45138095D01*
X88261904Y-45280952D01*
X87690476Y-45852380D01*
X88309523Y-45852380D01*
X42952380Y-42761904D02*
X43761904Y-42761904D01*
X43857142Y-42714285D01*
X43904761Y-42666666D01*
X43952380Y-42571428D01*
X43952380Y-42380952D01*
X43904761Y-42285714D01*
X43857142Y-42238095D01*
X43761904Y-42190476D01*
X42952380Y-42190476D01*
X42952380Y-41809523D02*
X42952380Y-41190476D01*
X43333333Y-41523809D01*
X43333333Y-41380952D01*
X43380952Y-41285714D01*
X43428571Y-41238095D01*
X43523809Y-41190476D01*
X43761904Y-41190476D01*
X43857142Y-41238095D01*
X43904761Y-41285714D01*
X43952380Y-41380952D01*
X43952380Y-41666666D01*
X43904761Y-41761904D01*
X43857142Y-41809523D01*
X44238095Y-15852380D02*
X44238095Y-16661904D01*
X44285714Y-16757142D01*
X44333333Y-16804761D01*
X44428571Y-16852380D01*
X44619047Y-16852380D01*
X44714285Y-16804761D01*
X44761904Y-16757142D01*
X44809523Y-16661904D01*
X44809523Y-15852380D01*
X45238095Y-15947619D02*
X45285714Y-15900000D01*
X45380952Y-15852380D01*
X45619047Y-15852380D01*
X45714285Y-15900000D01*
X45761904Y-15947619D01*
X45809523Y-16042857D01*
X45809523Y-16138095D01*
X45761904Y-16280952D01*
X45190476Y-16852380D01*
X45809523Y-16852380D01*
X23166666Y-45804761D02*
X23309523Y-45852380D01*
X23547619Y-45852380D01*
X23642857Y-45804761D01*
X23690476Y-45757142D01*
X23738095Y-45661904D01*
X23738095Y-45566666D01*
X23690476Y-45471428D01*
X23642857Y-45423809D01*
X23547619Y-45376190D01*
X23357142Y-45328571D01*
X23261904Y-45280952D01*
X23214285Y-45233333D01*
X23166666Y-45138095D01*
X23166666Y-45042857D01*
X23214285Y-44947619D01*
X23261904Y-44900000D01*
X23357142Y-44852380D01*
X23595238Y-44852380D01*
X23738095Y-44900000D01*
X24071428Y-44852380D02*
X24309523Y-45852380D01*
X24500000Y-45138095D01*
X24690476Y-45852380D01*
X24928571Y-44852380D01*
X25738095Y-45185714D02*
X25738095Y-45852380D01*
X25500000Y-44804761D02*
X25261904Y-45519047D01*
X25880952Y-45519047D01*
X23166666Y-81804761D02*
X23309523Y-81852380D01*
X23547619Y-81852380D01*
X23642857Y-81804761D01*
X23690476Y-81757142D01*
X23738095Y-81661904D01*
X23738095Y-81566666D01*
X23690476Y-81471428D01*
X23642857Y-81423809D01*
X23547619Y-81376190D01*
X23357142Y-81328571D01*
X23261904Y-81280952D01*
X23214285Y-81233333D01*
X23166666Y-81138095D01*
X23166666Y-81042857D01*
X23214285Y-80947619D01*
X23261904Y-80900000D01*
X23357142Y-80852380D01*
X23595238Y-80852380D01*
X23738095Y-80900000D01*
X24071428Y-80852380D02*
X24309523Y-81852380D01*
X24500000Y-81138095D01*
X24690476Y-81852380D01*
X24928571Y-80852380D01*
X25785714Y-80852380D02*
X25309523Y-80852380D01*
X25261904Y-81328571D01*
X25309523Y-81280952D01*
X25404761Y-81233333D01*
X25642857Y-81233333D01*
X25738095Y-81280952D01*
X25785714Y-81328571D01*
X25833333Y-81423809D01*
X25833333Y-81661904D01*
X25785714Y-81757142D01*
X25738095Y-81804761D01*
X25642857Y-81852380D01*
X25404761Y-81852380D01*
X25309523Y-81804761D01*
X25261904Y-81757142D01*
X42166666Y-63804761D02*
X42309523Y-63852380D01*
X42547619Y-63852380D01*
X42642857Y-63804761D01*
X42690476Y-63757142D01*
X42738095Y-63661904D01*
X42738095Y-63566666D01*
X42690476Y-63471428D01*
X42642857Y-63423809D01*
X42547619Y-63376190D01*
X42357142Y-63328571D01*
X42261904Y-63280952D01*
X42214285Y-63233333D01*
X42166666Y-63138095D01*
X42166666Y-63042857D01*
X42214285Y-62947619D01*
X42261904Y-62900000D01*
X42357142Y-62852380D01*
X42595238Y-62852380D01*
X42738095Y-62900000D01*
X43071428Y-62852380D02*
X43309523Y-63852380D01*
X43500000Y-63138095D01*
X43690476Y-63852380D01*
X43928571Y-62852380D01*
X44738095Y-62852380D02*
X44547619Y-62852380D01*
X44452380Y-62900000D01*
X44404761Y-62947619D01*
X44309523Y-63090476D01*
X44261904Y-63280952D01*
X44261904Y-63661904D01*
X44309523Y-63757142D01*
X44357142Y-63804761D01*
X44452380Y-63852380D01*
X44642857Y-63852380D01*
X44738095Y-63804761D01*
X44785714Y-63757142D01*
X44833333Y-63661904D01*
X44833333Y-63423809D01*
X44785714Y-63328571D01*
X44738095Y-63280952D01*
X44642857Y-63233333D01*
X44452380Y-63233333D01*
X44357142Y-63280952D01*
X44309523Y-63328571D01*
X44261904Y-63423809D01*
X42166666Y-81804761D02*
X42309523Y-81852380D01*
X42547619Y-81852380D01*
X42642857Y-81804761D01*
X42690476Y-81757142D01*
X42738095Y-81661904D01*
X42738095Y-81566666D01*
X42690476Y-81471428D01*
X42642857Y-81423809D01*
X42547619Y-81376190D01*
X42357142Y-81328571D01*
X42261904Y-81280952D01*
X42214285Y-81233333D01*
X42166666Y-81138095D01*
X42166666Y-81042857D01*
X42214285Y-80947619D01*
X42261904Y-80900000D01*
X42357142Y-80852380D01*
X42595238Y-80852380D01*
X42738095Y-80900000D01*
X43071428Y-80852380D02*
X43309523Y-81852380D01*
X43500000Y-81138095D01*
X43690476Y-81852380D01*
X43928571Y-80852380D01*
X44214285Y-80852380D02*
X44880952Y-80852380D01*
X44452380Y-81852380D01*
X61166666Y-27804761D02*
X61309523Y-27852380D01*
X61547619Y-27852380D01*
X61642857Y-27804761D01*
X61690476Y-27757142D01*
X61738095Y-27661904D01*
X61738095Y-27566666D01*
X61690476Y-27471428D01*
X61642857Y-27423809D01*
X61547619Y-27376190D01*
X61357142Y-27328571D01*
X61261904Y-27280952D01*
X61214285Y-27233333D01*
X61166666Y-27138095D01*
X61166666Y-27042857D01*
X61214285Y-26947619D01*
X61261904Y-26900000D01*
X61357142Y-26852380D01*
X61595238Y-26852380D01*
X61738095Y-26900000D01*
X62071428Y-26852380D02*
X62309523Y-27852380D01*
X62500000Y-27138095D01*
X62690476Y-27852380D01*
X62928571Y-26852380D01*
X63452380Y-27280952D02*
X63357142Y-27233333D01*
X63309523Y-27185714D01*
X63261904Y-27090476D01*
X63261904Y-27042857D01*
X63309523Y-26947619D01*
X63357142Y-26900000D01*
X63452380Y-26852380D01*
X63642857Y-26852380D01*
X63738095Y-26900000D01*
X63785714Y-26947619D01*
X63833333Y-27042857D01*
X63833333Y-27090476D01*
X63785714Y-27185714D01*
X63738095Y-27233333D01*
X63642857Y-27280952D01*
X63452380Y-27280952D01*
X63357142Y-27328571D01*
X63309523Y-27376190D01*
X63261904Y-27471428D01*
X63261904Y-27661904D01*
X63309523Y-27757142D01*
X63357142Y-27804761D01*
X63452380Y-27852380D01*
X63642857Y-27852380D01*
X63738095Y-27804761D01*
X63785714Y-27757142D01*
X63833333Y-27661904D01*
X63833333Y-27471428D01*
X63785714Y-27376190D01*
X63738095Y-27328571D01*
X63642857Y-27280952D01*
X61166666Y-45804761D02*
X61309523Y-45852380D01*
X61547619Y-45852380D01*
X61642857Y-45804761D01*
X61690476Y-45757142D01*
X61738095Y-45661904D01*
X61738095Y-45566666D01*
X61690476Y-45471428D01*
X61642857Y-45423809D01*
X61547619Y-45376190D01*
X61357142Y-45328571D01*
X61261904Y-45280952D01*
X61214285Y-45233333D01*
X61166666Y-45138095D01*
X61166666Y-45042857D01*
X61214285Y-44947619D01*
X61261904Y-44900000D01*
X61357142Y-44852380D01*
X61595238Y-44852380D01*
X61738095Y-44900000D01*
X62071428Y-44852380D02*
X62309523Y-45852380D01*
X62500000Y-45138095D01*
X62690476Y-45852380D01*
X62928571Y-44852380D01*
X63357142Y-45852380D02*
X63547619Y-45852380D01*
X63642857Y-45804761D01*
X63690476Y-45757142D01*
X63785714Y-45614285D01*
X63833333Y-45423809D01*
X63833333Y-45042857D01*
X63785714Y-44947619D01*
X63738095Y-44900000D01*
X63642857Y-44852380D01*
X63452380Y-44852380D01*
X63357142Y-44900000D01*
X63309523Y-44947619D01*
X63261904Y-45042857D01*
X63261904Y-45280952D01*
X63309523Y-45376190D01*
X63357142Y-45423809D01*
X63452380Y-45471428D01*
X63642857Y-45471428D01*
X63738095Y-45423809D01*
X63785714Y-45376190D01*
X63833333Y-45280952D01*
X60690476Y-81804761D02*
X60833333Y-81852380D01*
X61071428Y-81852380D01*
X61166666Y-81804761D01*
X61214285Y-81757142D01*
X61261904Y-81661904D01*
X61261904Y-81566666D01*
X61214285Y-81471428D01*
X61166666Y-81423809D01*
X61071428Y-81376190D01*
X60880952Y-81328571D01*
X60785714Y-81280952D01*
X60738095Y-81233333D01*
X60690476Y-81138095D01*
X60690476Y-81042857D01*
X60738095Y-80947619D01*
X60785714Y-80900000D01*
X60880952Y-80852380D01*
X61119047Y-80852380D01*
X61261904Y-80900000D01*
X61595238Y-80852380D02*
X61833333Y-81852380D01*
X62023809Y-81138095D01*
X62214285Y-81852380D01*
X62452380Y-80852380D01*
X63357142Y-81852380D02*
X62785714Y-81852380D01*
X63071428Y-81852380D02*
X63071428Y-80852380D01*
X62976190Y-80995238D01*
X62880952Y-81090476D01*
X62785714Y-81138095D01*
X63976190Y-80852380D02*
X64071428Y-80852380D01*
X64166666Y-80900000D01*
X64214285Y-80947619D01*
X64261904Y-81042857D01*
X64309523Y-81233333D01*
X64309523Y-81471428D01*
X64261904Y-81661904D01*
X64214285Y-81757142D01*
X64166666Y-81804761D01*
X64071428Y-81852380D01*
X63976190Y-81852380D01*
X63880952Y-81804761D01*
X63833333Y-81757142D01*
X63785714Y-81661904D01*
X63738095Y-81471428D01*
X63738095Y-81233333D01*
X63785714Y-81042857D01*
X63833333Y-80947619D01*
X63880952Y-80900000D01*
X63976190Y-80852380D01*
X84690476Y-27804761D02*
X84833333Y-27852380D01*
X85071428Y-27852380D01*
X85166666Y-27804761D01*
X85214285Y-27757142D01*
X85261904Y-27661904D01*
X85261904Y-27566666D01*
X85214285Y-27471428D01*
X85166666Y-27423809D01*
X85071428Y-27376190D01*
X84880952Y-27328571D01*
X84785714Y-27280952D01*
X84738095Y-27233333D01*
X84690476Y-27138095D01*
X84690476Y-27042857D01*
X84738095Y-26947619D01*
X84785714Y-26900000D01*
X84880952Y-26852380D01*
X85119047Y-26852380D01*
X85261904Y-26900000D01*
X85595238Y-26852380D02*
X85833333Y-27852380D01*
X86023809Y-27138095D01*
X86214285Y-27852380D01*
X86452380Y-26852380D01*
X87357142Y-27852380D02*
X86785714Y-27852380D01*
X87071428Y-27852380D02*
X87071428Y-26852380D01*
X86976190Y-26995238D01*
X86880952Y-27090476D01*
X86785714Y-27138095D01*
X88309523Y-27852380D02*
X87738095Y-27852380D01*
X88023809Y-27852380D02*
X88023809Y-26852380D01*
X87928571Y-26995238D01*
X87833333Y-27090476D01*
X87738095Y-27138095D01*
X84690476Y-63804761D02*
X84833333Y-63852380D01*
X85071428Y-63852380D01*
X85166666Y-63804761D01*
X85214285Y-63757142D01*
X85261904Y-63661904D01*
X85261904Y-63566666D01*
X85214285Y-63471428D01*
X85166666Y-63423809D01*
X85071428Y-63376190D01*
X84880952Y-63328571D01*
X84785714Y-63280952D01*
X84738095Y-63233333D01*
X84690476Y-63138095D01*
X84690476Y-63042857D01*
X84738095Y-62947619D01*
X84785714Y-62900000D01*
X84880952Y-62852380D01*
X85119047Y-62852380D01*
X85261904Y-62900000D01*
X85595238Y-62852380D02*
X85833333Y-63852380D01*
X86023809Y-63138095D01*
X86214285Y-63852380D01*
X86452380Y-62852380D01*
X87357142Y-63852380D02*
X86785714Y-63852380D01*
X87071428Y-63852380D02*
X87071428Y-62852380D01*
X86976190Y-62995238D01*
X86880952Y-63090476D01*
X86785714Y-63138095D01*
X87690476Y-62852380D02*
X88309523Y-62852380D01*
X87976190Y-63233333D01*
X88119047Y-63233333D01*
X88214285Y-63280952D01*
X88261904Y-63328571D01*
X88309523Y-63423809D01*
X88309523Y-63661904D01*
X88261904Y-63757142D01*
X88214285Y-63804761D01*
X88119047Y-63852380D01*
X87833333Y-63852380D01*
X87738095Y-63804761D01*
X87690476Y-63757142D01*
X84690476Y-81804761D02*
X84833333Y-81852380D01*
X85071428Y-81852380D01*
X85166666Y-81804761D01*
X85214285Y-81757142D01*
X85261904Y-81661904D01*
X85261904Y-81566666D01*
X85214285Y-81471428D01*
X85166666Y-81423809D01*
X85071428Y-81376190D01*
X84880952Y-81328571D01*
X84785714Y-81280952D01*
X84738095Y-81233333D01*
X84690476Y-81138095D01*
X84690476Y-81042857D01*
X84738095Y-80947619D01*
X84785714Y-80900000D01*
X84880952Y-80852380D01*
X85119047Y-80852380D01*
X85261904Y-80900000D01*
X85595238Y-80852380D02*
X85833333Y-81852380D01*
X86023809Y-81138095D01*
X86214285Y-81852380D01*
X86452380Y-80852380D01*
X87357142Y-81852380D02*
X86785714Y-81852380D01*
X87071428Y-81852380D02*
X87071428Y-80852380D01*
X86976190Y-80995238D01*
X86880952Y-81090476D01*
X86785714Y-81138095D01*
X88214285Y-81185714D02*
X88214285Y-81852380D01*
X87976190Y-80804761D02*
X87738095Y-81519047D01*
X88357142Y-81519047D01*
X103690476Y-27804761D02*
X103833333Y-27852380D01*
X104071428Y-27852380D01*
X104166666Y-27804761D01*
X104214285Y-27757142D01*
X104261904Y-27661904D01*
X104261904Y-27566666D01*
X104214285Y-27471428D01*
X104166666Y-27423809D01*
X104071428Y-27376190D01*
X103880952Y-27328571D01*
X103785714Y-27280952D01*
X103738095Y-27233333D01*
X103690476Y-27138095D01*
X103690476Y-27042857D01*
X103738095Y-26947619D01*
X103785714Y-26900000D01*
X103880952Y-26852380D01*
X104119047Y-26852380D01*
X104261904Y-26900000D01*
X104595238Y-26852380D02*
X104833333Y-27852380D01*
X105023809Y-27138095D01*
X105214285Y-27852380D01*
X105452380Y-26852380D01*
X106357142Y-27852380D02*
X105785714Y-27852380D01*
X106071428Y-27852380D02*
X106071428Y-26852380D01*
X105976190Y-26995238D01*
X105880952Y-27090476D01*
X105785714Y-27138095D01*
X107261904Y-26852380D02*
X106785714Y-26852380D01*
X106738095Y-27328571D01*
X106785714Y-27280952D01*
X106880952Y-27233333D01*
X107119047Y-27233333D01*
X107214285Y-27280952D01*
X107261904Y-27328571D01*
X107309523Y-27423809D01*
X107309523Y-27661904D01*
X107261904Y-27757142D01*
X107214285Y-27804761D01*
X107119047Y-27852380D01*
X106880952Y-27852380D01*
X106785714Y-27804761D01*
X106738095Y-27757142D01*
X103690476Y-45804761D02*
X103833333Y-45852380D01*
X104071428Y-45852380D01*
X104166666Y-45804761D01*
X104214285Y-45757142D01*
X104261904Y-45661904D01*
X104261904Y-45566666D01*
X104214285Y-45471428D01*
X104166666Y-45423809D01*
X104071428Y-45376190D01*
X103880952Y-45328571D01*
X103785714Y-45280952D01*
X103738095Y-45233333D01*
X103690476Y-45138095D01*
X103690476Y-45042857D01*
X103738095Y-44947619D01*
X103785714Y-44900000D01*
X103880952Y-44852380D01*
X104119047Y-44852380D01*
X104261904Y-44900000D01*
X104595238Y-44852380D02*
X104833333Y-45852380D01*
X105023809Y-45138095D01*
X105214285Y-45852380D01*
X105452380Y-44852380D01*
X106357142Y-45852380D02*
X105785714Y-45852380D01*
X106071428Y-45852380D02*
X106071428Y-44852380D01*
X105976190Y-44995238D01*
X105880952Y-45090476D01*
X105785714Y-45138095D01*
X107214285Y-44852380D02*
X107023809Y-44852380D01*
X106928571Y-44900000D01*
X106880952Y-44947619D01*
X106785714Y-45090476D01*
X106738095Y-45280952D01*
X106738095Y-45661904D01*
X106785714Y-45757142D01*
X106833333Y-45804761D01*
X106928571Y-45852380D01*
X107119047Y-45852380D01*
X107214285Y-45804761D01*
X107261904Y-45757142D01*
X107309523Y-45661904D01*
X107309523Y-45423809D01*
X107261904Y-45328571D01*
X107214285Y-45280952D01*
X107119047Y-45233333D01*
X106928571Y-45233333D01*
X106833333Y-45280952D01*
X106785714Y-45328571D01*
X106738095Y-45423809D01*
X103690476Y-63804761D02*
X103833333Y-63852380D01*
X104071428Y-63852380D01*
X104166666Y-63804761D01*
X104214285Y-63757142D01*
X104261904Y-63661904D01*
X104261904Y-63566666D01*
X104214285Y-63471428D01*
X104166666Y-63423809D01*
X104071428Y-63376190D01*
X103880952Y-63328571D01*
X103785714Y-63280952D01*
X103738095Y-63233333D01*
X103690476Y-63138095D01*
X103690476Y-63042857D01*
X103738095Y-62947619D01*
X103785714Y-62900000D01*
X103880952Y-62852380D01*
X104119047Y-62852380D01*
X104261904Y-62900000D01*
X104595238Y-62852380D02*
X104833333Y-63852380D01*
X105023809Y-63138095D01*
X105214285Y-63852380D01*
X105452380Y-62852380D01*
X106357142Y-63852380D02*
X105785714Y-63852380D01*
X106071428Y-63852380D02*
X106071428Y-62852380D01*
X105976190Y-62995238D01*
X105880952Y-63090476D01*
X105785714Y-63138095D01*
X106690476Y-62852380D02*
X107357142Y-62852380D01*
X106928571Y-63852380D01*
X122690476Y-27804761D02*
X122833333Y-27852380D01*
X123071428Y-27852380D01*
X123166666Y-27804761D01*
X123214285Y-27757142D01*
X123261904Y-27661904D01*
X123261904Y-27566666D01*
X123214285Y-27471428D01*
X123166666Y-27423809D01*
X123071428Y-27376190D01*
X122880952Y-27328571D01*
X122785714Y-27280952D01*
X122738095Y-27233333D01*
X122690476Y-27138095D01*
X122690476Y-27042857D01*
X122738095Y-26947619D01*
X122785714Y-26900000D01*
X122880952Y-26852380D01*
X123119047Y-26852380D01*
X123261904Y-26900000D01*
X123595238Y-26852380D02*
X123833333Y-27852380D01*
X124023809Y-27138095D01*
X124214285Y-27852380D01*
X124452380Y-26852380D01*
X125357142Y-27852380D02*
X124785714Y-27852380D01*
X125071428Y-27852380D02*
X125071428Y-26852380D01*
X124976190Y-26995238D01*
X124880952Y-27090476D01*
X124785714Y-27138095D01*
X125833333Y-27852380D02*
X126023809Y-27852380D01*
X126119047Y-27804761D01*
X126166666Y-27757142D01*
X126261904Y-27614285D01*
X126309523Y-27423809D01*
X126309523Y-27042857D01*
X126261904Y-26947619D01*
X126214285Y-26900000D01*
X126119047Y-26852380D01*
X125928571Y-26852380D01*
X125833333Y-26900000D01*
X125785714Y-26947619D01*
X125738095Y-27042857D01*
X125738095Y-27280952D01*
X125785714Y-27376190D01*
X125833333Y-27423809D01*
X125928571Y-27471428D01*
X126119047Y-27471428D01*
X126214285Y-27423809D01*
X126261904Y-27376190D01*
X126309523Y-27280952D01*
X122690476Y-45804761D02*
X122833333Y-45852380D01*
X123071428Y-45852380D01*
X123166666Y-45804761D01*
X123214285Y-45757142D01*
X123261904Y-45661904D01*
X123261904Y-45566666D01*
X123214285Y-45471428D01*
X123166666Y-45423809D01*
X123071428Y-45376190D01*
X122880952Y-45328571D01*
X122785714Y-45280952D01*
X122738095Y-45233333D01*
X122690476Y-45138095D01*
X122690476Y-45042857D01*
X122738095Y-44947619D01*
X122785714Y-44900000D01*
X122880952Y-44852380D01*
X123119047Y-44852380D01*
X123261904Y-44900000D01*
X123595238Y-44852380D02*
X123833333Y-45852380D01*
X124023809Y-45138095D01*
X124214285Y-45852380D01*
X124452380Y-44852380D01*
X124785714Y-44947619D02*
X124833333Y-44900000D01*
X124928571Y-44852380D01*
X125166666Y-44852380D01*
X125261904Y-44900000D01*
X125309523Y-44947619D01*
X125357142Y-45042857D01*
X125357142Y-45138095D01*
X125309523Y-45280952D01*
X124738095Y-45852380D01*
X125357142Y-45852380D01*
X125976190Y-44852380D02*
X126071428Y-44852380D01*
X126166666Y-44900000D01*
X126214285Y-44947619D01*
X126261904Y-45042857D01*
X126309523Y-45233333D01*
X126309523Y-45471428D01*
X126261904Y-45661904D01*
X126214285Y-45757142D01*
X126166666Y-45804761D01*
X126071428Y-45852380D01*
X125976190Y-45852380D01*
X125880952Y-45804761D01*
X125833333Y-45757142D01*
X125785714Y-45661904D01*
X125738095Y-45471428D01*
X125738095Y-45233333D01*
X125785714Y-45042857D01*
X125833333Y-44947619D01*
X125880952Y-44900000D01*
X125976190Y-44852380D01*
X122690476Y-63804761D02*
X122833333Y-63852380D01*
X123071428Y-63852380D01*
X123166666Y-63804761D01*
X123214285Y-63757142D01*
X123261904Y-63661904D01*
X123261904Y-63566666D01*
X123214285Y-63471428D01*
X123166666Y-63423809D01*
X123071428Y-63376190D01*
X122880952Y-63328571D01*
X122785714Y-63280952D01*
X122738095Y-63233333D01*
X122690476Y-63138095D01*
X122690476Y-63042857D01*
X122738095Y-62947619D01*
X122785714Y-62900000D01*
X122880952Y-62852380D01*
X123119047Y-62852380D01*
X123261904Y-62900000D01*
X123595238Y-62852380D02*
X123833333Y-63852380D01*
X124023809Y-63138095D01*
X124214285Y-63852380D01*
X124452380Y-62852380D01*
X124785714Y-62947619D02*
X124833333Y-62900000D01*
X124928571Y-62852380D01*
X125166666Y-62852380D01*
X125261904Y-62900000D01*
X125309523Y-62947619D01*
X125357142Y-63042857D01*
X125357142Y-63138095D01*
X125309523Y-63280952D01*
X124738095Y-63852380D01*
X125357142Y-63852380D01*
X126309523Y-63852380D02*
X125738095Y-63852380D01*
X126023809Y-63852380D02*
X126023809Y-62852380D01*
X125928571Y-62995238D01*
X125833333Y-63090476D01*
X125738095Y-63138095D01*
X122690476Y-81804761D02*
X122833333Y-81852380D01*
X123071428Y-81852380D01*
X123166666Y-81804761D01*
X123214285Y-81757142D01*
X123261904Y-81661904D01*
X123261904Y-81566666D01*
X123214285Y-81471428D01*
X123166666Y-81423809D01*
X123071428Y-81376190D01*
X122880952Y-81328571D01*
X122785714Y-81280952D01*
X122738095Y-81233333D01*
X122690476Y-81138095D01*
X122690476Y-81042857D01*
X122738095Y-80947619D01*
X122785714Y-80900000D01*
X122880952Y-80852380D01*
X123119047Y-80852380D01*
X123261904Y-80900000D01*
X123595238Y-80852380D02*
X123833333Y-81852380D01*
X124023809Y-81138095D01*
X124214285Y-81852380D01*
X124452380Y-80852380D01*
X124785714Y-80947619D02*
X124833333Y-80900000D01*
X124928571Y-80852380D01*
X125166666Y-80852380D01*
X125261904Y-80900000D01*
X125309523Y-80947619D01*
X125357142Y-81042857D01*
X125357142Y-81138095D01*
X125309523Y-81280952D01*
X124738095Y-81852380D01*
X125357142Y-81852380D01*
X125738095Y-80947619D02*
X125785714Y-80900000D01*
X125880952Y-80852380D01*
X126119047Y-80852380D01*
X126214285Y-80900000D01*
X126261904Y-80947619D01*
X126309523Y-81042857D01*
X126309523Y-81138095D01*
X126261904Y-81280952D01*
X125690476Y-81852380D01*
X126309523Y-81852380D01*
X141690476Y-27804761D02*
X141833333Y-27852380D01*
X142071428Y-27852380D01*
X142166666Y-27804761D01*
X142214285Y-27757142D01*
X142261904Y-27661904D01*
X142261904Y-27566666D01*
X142214285Y-27471428D01*
X142166666Y-27423809D01*
X142071428Y-27376190D01*
X141880952Y-27328571D01*
X141785714Y-27280952D01*
X141738095Y-27233333D01*
X141690476Y-27138095D01*
X141690476Y-27042857D01*
X141738095Y-26947619D01*
X141785714Y-26900000D01*
X141880952Y-26852380D01*
X142119047Y-26852380D01*
X142261904Y-26900000D01*
X142595238Y-26852380D02*
X142833333Y-27852380D01*
X143023809Y-27138095D01*
X143214285Y-27852380D01*
X143452380Y-26852380D01*
X143785714Y-26947619D02*
X143833333Y-26900000D01*
X143928571Y-26852380D01*
X144166666Y-26852380D01*
X144261904Y-26900000D01*
X144309523Y-26947619D01*
X144357142Y-27042857D01*
X144357142Y-27138095D01*
X144309523Y-27280952D01*
X143738095Y-27852380D01*
X144357142Y-27852380D01*
X144690476Y-26852380D02*
X145309523Y-26852380D01*
X144976190Y-27233333D01*
X145119047Y-27233333D01*
X145214285Y-27280952D01*
X145261904Y-27328571D01*
X145309523Y-27423809D01*
X145309523Y-27661904D01*
X145261904Y-27757142D01*
X145214285Y-27804761D01*
X145119047Y-27852380D01*
X144833333Y-27852380D01*
X144738095Y-27804761D01*
X144690476Y-27757142D01*
X141690476Y-63804761D02*
X141833333Y-63852380D01*
X142071428Y-63852380D01*
X142166666Y-63804761D01*
X142214285Y-63757142D01*
X142261904Y-63661904D01*
X142261904Y-63566666D01*
X142214285Y-63471428D01*
X142166666Y-63423809D01*
X142071428Y-63376190D01*
X141880952Y-63328571D01*
X141785714Y-63280952D01*
X141738095Y-63233333D01*
X141690476Y-63138095D01*
X141690476Y-63042857D01*
X141738095Y-62947619D01*
X141785714Y-62900000D01*
X141880952Y-62852380D01*
X142119047Y-62852380D01*
X142261904Y-62900000D01*
X142595238Y-62852380D02*
X142833333Y-63852380D01*
X143023809Y-63138095D01*
X143214285Y-63852380D01*
X143452380Y-62852380D01*
X143785714Y-62947619D02*
X143833333Y-62900000D01*
X143928571Y-62852380D01*
X144166666Y-62852380D01*
X144261904Y-62900000D01*
X144309523Y-62947619D01*
X144357142Y-63042857D01*
X144357142Y-63138095D01*
X144309523Y-63280952D01*
X143738095Y-63852380D01*
X144357142Y-63852380D01*
X145261904Y-62852380D02*
X144785714Y-62852380D01*
X144738095Y-63328571D01*
X144785714Y-63280952D01*
X144880952Y-63233333D01*
X145119047Y-63233333D01*
X145214285Y-63280952D01*
X145261904Y-63328571D01*
X145309523Y-63423809D01*
X145309523Y-63661904D01*
X145261904Y-63757142D01*
X145214285Y-63804761D01*
X145119047Y-63852380D01*
X144880952Y-63852380D01*
X144785714Y-63804761D01*
X144738095Y-63757142D01*
X141690476Y-81804761D02*
X141833333Y-81852380D01*
X142071428Y-81852380D01*
X142166666Y-81804761D01*
X142214285Y-81757142D01*
X142261904Y-81661904D01*
X142261904Y-81566666D01*
X142214285Y-81471428D01*
X142166666Y-81423809D01*
X142071428Y-81376190D01*
X141880952Y-81328571D01*
X141785714Y-81280952D01*
X141738095Y-81233333D01*
X141690476Y-81138095D01*
X141690476Y-81042857D01*
X141738095Y-80947619D01*
X141785714Y-80900000D01*
X141880952Y-80852380D01*
X142119047Y-80852380D01*
X142261904Y-80900000D01*
X142595238Y-80852380D02*
X142833333Y-81852380D01*
X143023809Y-81138095D01*
X143214285Y-81852380D01*
X143452380Y-80852380D01*
X143785714Y-80947619D02*
X143833333Y-80900000D01*
X143928571Y-80852380D01*
X144166666Y-80852380D01*
X144261904Y-80900000D01*
X144309523Y-80947619D01*
X144357142Y-81042857D01*
X144357142Y-81138095D01*
X144309523Y-81280952D01*
X143738095Y-81852380D01*
X144357142Y-81852380D01*
X145214285Y-80852380D02*
X145023809Y-80852380D01*
X144928571Y-80900000D01*
X144880952Y-80947619D01*
X144785714Y-81090476D01*
X144738095Y-81280952D01*
X144738095Y-81661904D01*
X144785714Y-81757142D01*
X144833333Y-81804761D01*
X144928571Y-81852380D01*
X145119047Y-81852380D01*
X145214285Y-81804761D01*
X145261904Y-81757142D01*
X145309523Y-81661904D01*
X145309523Y-81423809D01*
X145261904Y-81328571D01*
X145214285Y-81280952D01*
X145119047Y-81233333D01*
X144928571Y-81233333D01*
X144833333Y-81280952D01*
X144785714Y-81328571D01*
X144738095Y-81423809D01*
X24066666Y-12004761D02*
X24209523Y-12052380D01*
X24447619Y-12052380D01*
X24542857Y-12004761D01*
X24590476Y-11957142D01*
X24638095Y-11861904D01*
X24638095Y-11766666D01*
X24590476Y-11671428D01*
X24542857Y-11623809D01*
X24447619Y-11576190D01*
X24257142Y-11528571D01*
X24161904Y-11480952D01*
X24114285Y-11433333D01*
X24066666Y-11338095D01*
X24066666Y-11242857D01*
X24114285Y-11147619D01*
X24161904Y-11100000D01*
X24257142Y-11052380D01*
X24495238Y-11052380D01*
X24638095Y-11100000D01*
X24971428Y-11052380D02*
X25209523Y-12052380D01*
X25400000Y-11338095D01*
X25590476Y-12052380D01*
X25828571Y-11052380D01*
X26733333Y-12052380D02*
X26161904Y-12052380D01*
X26447619Y-12052380D02*
X26447619Y-11052380D01*
X26352380Y-11195238D01*
X26257142Y-11290476D01*
X26161904Y-11338095D01*
X39333333Y-30157142D02*
X39285714Y-30204761D01*
X39142857Y-30252380D01*
X39047619Y-30252380D01*
X38904761Y-30204761D01*
X38809523Y-30109523D01*
X38761904Y-30014285D01*
X38714285Y-29823809D01*
X38714285Y-29680952D01*
X38761904Y-29490476D01*
X38809523Y-29395238D01*
X38904761Y-29300000D01*
X39047619Y-29252380D01*
X39142857Y-29252380D01*
X39285714Y-29300000D01*
X39333333Y-29347619D01*
X40285714Y-30252380D02*
X39714285Y-30252380D01*
X40000000Y-30252380D02*
X40000000Y-29252380D01*
X39904761Y-29395238D01*
X39809523Y-29490476D01*
X39714285Y-29538095D01*
X36495833Y-29957142D02*
X36448214Y-30004761D01*
X36305357Y-30052380D01*
X36210119Y-30052380D01*
X36067261Y-30004761D01*
X35972023Y-29909523D01*
X35924404Y-29814285D01*
X35876785Y-29623809D01*
X35876785Y-29480952D01*
X35924404Y-29290476D01*
X35972023Y-29195238D01*
X36067261Y-29100000D01*
X36210119Y-29052380D01*
X36305357Y-29052380D01*
X36448214Y-29100000D01*
X36495833Y-29147619D01*
X36876785Y-29147619D02*
X36924404Y-29100000D01*
X37019642Y-29052380D01*
X37257738Y-29052380D01*
X37352976Y-29100000D01*
X37400595Y-29147619D01*
X37448214Y-29242857D01*
X37448214Y-29338095D01*
X37400595Y-29480952D01*
X36829166Y-30052380D01*
X37448214Y-30052380D01*
X44433333Y-50157142D02*
X44385714Y-50204761D01*
X44242857Y-50252380D01*
X44147619Y-50252380D01*
X44004761Y-50204761D01*
X43909523Y-50109523D01*
X43861904Y-50014285D01*
X43814285Y-49823809D01*
X43814285Y-49680952D01*
X43861904Y-49490476D01*
X43909523Y-49395238D01*
X44004761Y-49300000D01*
X44147619Y-49252380D01*
X44242857Y-49252380D01*
X44385714Y-49300000D01*
X44433333Y-49347619D01*
X44766666Y-49252380D02*
X45385714Y-49252380D01*
X45052380Y-49633333D01*
X45195238Y-49633333D01*
X45290476Y-49680952D01*
X45338095Y-49728571D01*
X45385714Y-49823809D01*
X45385714Y-50061904D01*
X45338095Y-50157142D01*
X45290476Y-50204761D01*
X45195238Y-50252380D01*
X44909523Y-50252380D01*
X44814285Y-50204761D01*
X44766666Y-50157142D01*
X36257142Y-51166666D02*
X36304761Y-51214285D01*
X36352380Y-51357142D01*
X36352380Y-51452380D01*
X36304761Y-51595238D01*
X36209523Y-51690476D01*
X36114285Y-51738095D01*
X35923809Y-51785714D01*
X35780952Y-51785714D01*
X35590476Y-51738095D01*
X35495238Y-51690476D01*
X35400000Y-51595238D01*
X35352380Y-51452380D01*
X35352380Y-51357142D01*
X35400000Y-51214285D01*
X35447619Y-51166666D01*
X35685714Y-50309523D02*
X36352380Y-50309523D01*
X35304761Y-50547619D02*
X36019047Y-50785714D01*
X36019047Y-50166666D01*
X63870833Y-9027142D02*
X63823214Y-9074761D01*
X63680357Y-9122380D01*
X63585119Y-9122380D01*
X63442261Y-9074761D01*
X63347023Y-8979523D01*
X63299404Y-8884285D01*
X63251785Y-8693809D01*
X63251785Y-8550952D01*
X63299404Y-8360476D01*
X63347023Y-8265238D01*
X63442261Y-8170000D01*
X63585119Y-8122380D01*
X63680357Y-8122380D01*
X63823214Y-8170000D01*
X63870833Y-8217619D01*
X64775595Y-8122380D02*
X64299404Y-8122380D01*
X64251785Y-8598571D01*
X64299404Y-8550952D01*
X64394642Y-8503333D01*
X64632738Y-8503333D01*
X64727976Y-8550952D01*
X64775595Y-8598571D01*
X64823214Y-8693809D01*
X64823214Y-8931904D01*
X64775595Y-9027142D01*
X64727976Y-9074761D01*
X64632738Y-9122380D01*
X64394642Y-9122380D01*
X64299404Y-9074761D01*
X64251785Y-9027142D01*
X44433333Y-48657142D02*
X44385714Y-48704761D01*
X44242857Y-48752380D01*
X44147619Y-48752380D01*
X44004761Y-48704761D01*
X43909523Y-48609523D01*
X43861904Y-48514285D01*
X43814285Y-48323809D01*
X43814285Y-48180952D01*
X43861904Y-47990476D01*
X43909523Y-47895238D01*
X44004761Y-47800000D01*
X44147619Y-47752380D01*
X44242857Y-47752380D01*
X44385714Y-47800000D01*
X44433333Y-47847619D01*
X45290476Y-47752380D02*
X45100000Y-47752380D01*
X45004761Y-47800000D01*
X44957142Y-47847619D01*
X44861904Y-47990476D01*
X44814285Y-48180952D01*
X44814285Y-48561904D01*
X44861904Y-48657142D01*
X44909523Y-48704761D01*
X45004761Y-48752380D01*
X45195238Y-48752380D01*
X45290476Y-48704761D01*
X45338095Y-48657142D01*
X45385714Y-48561904D01*
X45385714Y-48323809D01*
X45338095Y-48228571D01*
X45290476Y-48180952D01*
X45195238Y-48133333D01*
X45004761Y-48133333D01*
X44909523Y-48180952D01*
X44861904Y-48228571D01*
X44814285Y-48323809D01*
X37757142Y-51166666D02*
X37804761Y-51214285D01*
X37852380Y-51357142D01*
X37852380Y-51452380D01*
X37804761Y-51595238D01*
X37709523Y-51690476D01*
X37614285Y-51738095D01*
X37423809Y-51785714D01*
X37280952Y-51785714D01*
X37090476Y-51738095D01*
X36995238Y-51690476D01*
X36900000Y-51595238D01*
X36852380Y-51452380D01*
X36852380Y-51357142D01*
X36900000Y-51214285D01*
X36947619Y-51166666D01*
X36852380Y-50833333D02*
X36852380Y-50166666D01*
X37852380Y-50595238D01*
X39257142Y-51166666D02*
X39304761Y-51214285D01*
X39352380Y-51357142D01*
X39352380Y-51452380D01*
X39304761Y-51595238D01*
X39209523Y-51690476D01*
X39114285Y-51738095D01*
X38923809Y-51785714D01*
X38780952Y-51785714D01*
X38590476Y-51738095D01*
X38495238Y-51690476D01*
X38400000Y-51595238D01*
X38352380Y-51452380D01*
X38352380Y-51357142D01*
X38400000Y-51214285D01*
X38447619Y-51166666D01*
X38780952Y-50595238D02*
X38733333Y-50690476D01*
X38685714Y-50738095D01*
X38590476Y-50785714D01*
X38542857Y-50785714D01*
X38447619Y-50738095D01*
X38400000Y-50690476D01*
X38352380Y-50595238D01*
X38352380Y-50404761D01*
X38400000Y-50309523D01*
X38447619Y-50261904D01*
X38542857Y-50214285D01*
X38590476Y-50214285D01*
X38685714Y-50261904D01*
X38733333Y-50309523D01*
X38780952Y-50404761D01*
X38780952Y-50595238D01*
X38828571Y-50690476D01*
X38876190Y-50738095D01*
X38971428Y-50785714D01*
X39161904Y-50785714D01*
X39257142Y-50738095D01*
X39304761Y-50690476D01*
X39352380Y-50595238D01*
X39352380Y-50404761D01*
X39304761Y-50309523D01*
X39257142Y-50261904D01*
X39161904Y-50214285D01*
X38971428Y-50214285D01*
X38876190Y-50261904D01*
X38828571Y-50309523D01*
X38780952Y-50404761D01*
X47333333Y-34757142D02*
X47285714Y-34804761D01*
X47142857Y-34852380D01*
X47047619Y-34852380D01*
X46904761Y-34804761D01*
X46809523Y-34709523D01*
X46761904Y-34614285D01*
X46714285Y-34423809D01*
X46714285Y-34280952D01*
X46761904Y-34090476D01*
X46809523Y-33995238D01*
X46904761Y-33900000D01*
X47047619Y-33852380D01*
X47142857Y-33852380D01*
X47285714Y-33900000D01*
X47333333Y-33947619D01*
X47809523Y-34852380D02*
X48000000Y-34852380D01*
X48095238Y-34804761D01*
X48142857Y-34757142D01*
X48238095Y-34614285D01*
X48285714Y-34423809D01*
X48285714Y-34042857D01*
X48238095Y-33947619D01*
X48190476Y-33900000D01*
X48095238Y-33852380D01*
X47904761Y-33852380D01*
X47809523Y-33900000D01*
X47761904Y-33947619D01*
X47714285Y-34042857D01*
X47714285Y-34280952D01*
X47761904Y-34376190D01*
X47809523Y-34423809D01*
X47904761Y-34471428D01*
X48095238Y-34471428D01*
X48190476Y-34423809D01*
X48238095Y-34376190D01*
X48285714Y-34280952D01*
X46457142Y-36257142D02*
X46409523Y-36304761D01*
X46266666Y-36352380D01*
X46171428Y-36352380D01*
X46028571Y-36304761D01*
X45933333Y-36209523D01*
X45885714Y-36114285D01*
X45838095Y-35923809D01*
X45838095Y-35780952D01*
X45885714Y-35590476D01*
X45933333Y-35495238D01*
X46028571Y-35400000D01*
X46171428Y-35352380D01*
X46266666Y-35352380D01*
X46409523Y-35400000D01*
X46457142Y-35447619D01*
X47409523Y-36352380D02*
X46838095Y-36352380D01*
X47123809Y-36352380D02*
X47123809Y-35352380D01*
X47028571Y-35495238D01*
X46933333Y-35590476D01*
X46838095Y-35638095D01*
X48028571Y-35352380D02*
X48123809Y-35352380D01*
X48219047Y-35400000D01*
X48266666Y-35447619D01*
X48314285Y-35542857D01*
X48361904Y-35733333D01*
X48361904Y-35971428D01*
X48314285Y-36161904D01*
X48266666Y-36257142D01*
X48219047Y-36304761D01*
X48123809Y-36352380D01*
X48028571Y-36352380D01*
X47933333Y-36304761D01*
X47885714Y-36257142D01*
X47838095Y-36161904D01*
X47790476Y-35971428D01*
X47790476Y-35733333D01*
X47838095Y-35542857D01*
X47885714Y-35447619D01*
X47933333Y-35400000D01*
X48028571Y-35352380D01*
X40566666Y-18628571D02*
X40233333Y-18628571D01*
X40233333Y-19152380D02*
X40233333Y-18152380D01*
X40709523Y-18152380D01*
X41614285Y-19152380D02*
X41042857Y-19152380D01*
X41328571Y-19152380D02*
X41328571Y-18152380D01*
X41233333Y-18295238D01*
X41138095Y-18390476D01*
X41042857Y-18438095D01*
X43166666Y-10912380D02*
X43166666Y-11626666D01*
X43119047Y-11769523D01*
X43023809Y-11864761D01*
X42880952Y-11912380D01*
X42785714Y-11912380D01*
X44166666Y-11912380D02*
X43595238Y-11912380D01*
X43880952Y-11912380D02*
X43880952Y-10912380D01*
X43785714Y-11055238D01*
X43690476Y-11150476D01*
X43595238Y-11198095D01*
X82923809Y-14066666D02*
X83400000Y-14066666D01*
X82828571Y-14352380D02*
X83161904Y-13352380D01*
X83495238Y-14352380D01*
X84400000Y-14352380D02*
X84066666Y-13876190D01*
X83828571Y-14352380D02*
X83828571Y-13352380D01*
X84209523Y-13352380D01*
X84304761Y-13400000D01*
X84352380Y-13447619D01*
X84400000Y-13542857D01*
X84400000Y-13685714D01*
X84352380Y-13780952D01*
X84304761Y-13828571D01*
X84209523Y-13876190D01*
X83828571Y-13876190D01*
X84828571Y-14352380D02*
X84828571Y-13352380D01*
X85161904Y-14066666D01*
X85495238Y-13352380D01*
X85495238Y-14352380D01*
X85971428Y-13971428D02*
X86733333Y-13971428D01*
X87161904Y-14304761D02*
X87304761Y-14352380D01*
X87542857Y-14352380D01*
X87638095Y-14304761D01*
X87685714Y-14257142D01*
X87733333Y-14161904D01*
X87733333Y-14066666D01*
X87685714Y-13971428D01*
X87638095Y-13923809D01*
X87542857Y-13876190D01*
X87352380Y-13828571D01*
X87257142Y-13780952D01*
X87209523Y-13733333D01*
X87161904Y-13638095D01*
X87161904Y-13542857D01*
X87209523Y-13447619D01*
X87257142Y-13400000D01*
X87352380Y-13352380D01*
X87590476Y-13352380D01*
X87733333Y-13400000D01*
X88066666Y-13352380D02*
X88304761Y-14352380D01*
X88495238Y-13638095D01*
X88685714Y-14352380D01*
X88923809Y-13352380D01*
X89304761Y-14352380D02*
X89304761Y-13352380D01*
X89542857Y-13352380D01*
X89685714Y-13400000D01*
X89780952Y-13495238D01*
X89828571Y-13590476D01*
X89876190Y-13780952D01*
X89876190Y-13923809D01*
X89828571Y-14114285D01*
X89780952Y-14209523D01*
X89685714Y-14304761D01*
X89542857Y-14352380D01*
X89304761Y-14352380D01*
X32752380Y-50271428D02*
X33561904Y-50271428D01*
X33657142Y-50223809D01*
X33704761Y-50176190D01*
X33752380Y-50080952D01*
X33752380Y-49890476D01*
X33704761Y-49795238D01*
X33657142Y-49747619D01*
X33561904Y-49700000D01*
X32752380Y-49700000D01*
X33466666Y-49271428D02*
X33466666Y-48795238D01*
X33752380Y-49366666D02*
X32752380Y-49033333D01*
X33752380Y-48700000D01*
X33752380Y-47795238D02*
X33276190Y-48128571D01*
X33752380Y-48366666D02*
X32752380Y-48366666D01*
X32752380Y-47985714D01*
X32800000Y-47890476D01*
X32847619Y-47842857D01*
X32942857Y-47795238D01*
X33085714Y-47795238D01*
X33180952Y-47842857D01*
X33228571Y-47890476D01*
X33276190Y-47985714D01*
X33276190Y-48366666D01*
X32752380Y-47509523D02*
X32752380Y-46938095D01*
X33752380Y-47223809D02*
X32752380Y-47223809D01*
X33752380Y-46080952D02*
X33752380Y-46652380D01*
X33752380Y-46366666D02*
X32752380Y-46366666D01*
X32895238Y-46461904D01*
X32990476Y-46557142D01*
X33038095Y-46652380D01*
X34085714Y-45366666D02*
X34085714Y-45604761D01*
X32657142Y-45604761D01*
X32657142Y-45366666D01*
X32800000Y-44461904D02*
X32752380Y-44557142D01*
X32752380Y-44700000D01*
X32800000Y-44842857D01*
X32895238Y-44938095D01*
X32990476Y-44985714D01*
X33180952Y-45033333D01*
X33323809Y-45033333D01*
X33514285Y-44985714D01*
X33609523Y-44938095D01*
X33704761Y-44842857D01*
X33752380Y-44700000D01*
X33752380Y-44604761D01*
X33704761Y-44461904D01*
X33657142Y-44414285D01*
X33323809Y-44414285D01*
X33323809Y-44604761D01*
X33752380Y-43985714D02*
X32752380Y-43985714D01*
X33752380Y-43414285D01*
X32752380Y-43414285D01*
X33752380Y-42938095D02*
X32752380Y-42938095D01*
X32752380Y-42700000D01*
X32800000Y-42557142D01*
X32895238Y-42461904D01*
X32990476Y-42414285D01*
X33180952Y-42366666D01*
X33323809Y-42366666D01*
X33514285Y-42414285D01*
X33609523Y-42461904D01*
X33704761Y-42557142D01*
X33752380Y-42700000D01*
X33752380Y-42938095D01*
X33704761Y-41890476D02*
X33752380Y-41890476D01*
X33847619Y-41938095D01*
X33895238Y-41985714D01*
X33752380Y-40890476D02*
X33276190Y-41223809D01*
X33752380Y-41461904D02*
X32752380Y-41461904D01*
X32752380Y-41080952D01*
X32800000Y-40985714D01*
X32847619Y-40938095D01*
X32942857Y-40890476D01*
X33085714Y-40890476D01*
X33180952Y-40938095D01*
X33228571Y-40985714D01*
X33276190Y-41080952D01*
X33276190Y-41461904D01*
X32752380Y-40557142D02*
X33752380Y-39890476D01*
X32752380Y-39890476D02*
X33752380Y-40557142D01*
X33704761Y-39461904D02*
X33752380Y-39461904D01*
X33847619Y-39509523D01*
X33895238Y-39557142D01*
X32752380Y-39176190D02*
X32752380Y-38604761D01*
X33752380Y-38890476D02*
X32752380Y-38890476D01*
X32752380Y-38366666D02*
X33752380Y-37700000D01*
X32752380Y-37700000D02*
X33752380Y-38366666D01*
X34085714Y-37414285D02*
X34085714Y-37176190D01*
X32657142Y-37176190D01*
X32657142Y-37414285D01*
X93828571Y-14304761D02*
X93971428Y-14352380D01*
X94209523Y-14352380D01*
X94304761Y-14304761D01*
X94352380Y-14257142D01*
X94400000Y-14161904D01*
X94400000Y-14066666D01*
X94352380Y-13971428D01*
X94304761Y-13923809D01*
X94209523Y-13876190D01*
X94019047Y-13828571D01*
X93923809Y-13780952D01*
X93876190Y-13733333D01*
X93828571Y-13638095D01*
X93828571Y-13542857D01*
X93876190Y-13447619D01*
X93923809Y-13400000D01*
X94019047Y-13352380D01*
X94257142Y-13352380D01*
X94400000Y-13400000D01*
X94685714Y-13352380D02*
X95257142Y-13352380D01*
X94971428Y-14352380D02*
X94971428Y-13352380D01*
X95590476Y-13971428D02*
X96352380Y-13971428D01*
X96971428Y-14352380D02*
X96876190Y-14304761D01*
X96828571Y-14209523D01*
X96828571Y-13352380D01*
X97352380Y-14352380D02*
X97352380Y-13685714D01*
X97352380Y-13352380D02*
X97304761Y-13400000D01*
X97352380Y-13447619D01*
X97400000Y-13400000D01*
X97352380Y-13352380D01*
X97352380Y-13447619D01*
X97828571Y-13685714D02*
X97828571Y-14352380D01*
X97828571Y-13780952D02*
X97876190Y-13733333D01*
X97971428Y-13685714D01*
X98114285Y-13685714D01*
X98209523Y-13733333D01*
X98257142Y-13828571D01*
X98257142Y-14352380D01*
X98733333Y-14352380D02*
X98733333Y-13352380D01*
X98828571Y-13971428D02*
X99114285Y-14352380D01*
X99114285Y-13685714D02*
X98733333Y-14066666D01*
X99828571Y-14685714D02*
X99590476Y-14685714D01*
X99590476Y-13257142D01*
X99828571Y-13257142D01*
X100780952Y-14257142D02*
X100733333Y-14304761D01*
X100590476Y-14352380D01*
X100495238Y-14352380D01*
X100352380Y-14304761D01*
X100257142Y-14209523D01*
X100209523Y-14114285D01*
X100161904Y-13923809D01*
X100161904Y-13780952D01*
X100209523Y-13590476D01*
X100257142Y-13495238D01*
X100352380Y-13400000D01*
X100495238Y-13352380D01*
X100590476Y-13352380D01*
X100733333Y-13400000D01*
X100780952Y-13447619D01*
X101685714Y-14352380D02*
X101209523Y-14352380D01*
X101209523Y-13352380D01*
X102019047Y-14352380D02*
X102019047Y-13352380D01*
X102590476Y-14352380D02*
X102161904Y-13780952D01*
X102590476Y-13352380D02*
X102019047Y-13923809D01*
X103066666Y-14304761D02*
X103066666Y-14352380D01*
X103019047Y-14447619D01*
X102971428Y-14495238D01*
X104019047Y-13400000D02*
X103923809Y-13352380D01*
X103780952Y-13352380D01*
X103638095Y-13400000D01*
X103542857Y-13495238D01*
X103495238Y-13590476D01*
X103447619Y-13780952D01*
X103447619Y-13923809D01*
X103495238Y-14114285D01*
X103542857Y-14209523D01*
X103638095Y-14304761D01*
X103780952Y-14352380D01*
X103876190Y-14352380D01*
X104019047Y-14304761D01*
X104066666Y-14257142D01*
X104066666Y-13923809D01*
X103876190Y-13923809D01*
X104495238Y-14352380D02*
X104495238Y-13352380D01*
X105066666Y-14352380D01*
X105066666Y-13352380D01*
X105542857Y-14352380D02*
X105542857Y-13352380D01*
X105780952Y-13352380D01*
X105923809Y-13400000D01*
X106019047Y-13495238D01*
X106066666Y-13590476D01*
X106114285Y-13780952D01*
X106114285Y-13923809D01*
X106066666Y-14114285D01*
X106019047Y-14209523D01*
X105923809Y-14304761D01*
X105780952Y-14352380D01*
X105542857Y-14352380D01*
X106590476Y-14304761D02*
X106590476Y-14352380D01*
X106542857Y-14447619D01*
X106495238Y-14495238D01*
X107019047Y-14352380D02*
X107019047Y-13352380D01*
X107685714Y-13352380D02*
X107876190Y-13352380D01*
X107971428Y-13400000D01*
X108066666Y-13495238D01*
X108114285Y-13685714D01*
X108114285Y-14019047D01*
X108066666Y-14209523D01*
X107971428Y-14304761D01*
X107876190Y-14352380D01*
X107685714Y-14352380D01*
X107590476Y-14304761D01*
X107495238Y-14209523D01*
X107447619Y-14019047D01*
X107447619Y-13685714D01*
X107495238Y-13495238D01*
X107590476Y-13400000D01*
X107685714Y-13352380D01*
X108590476Y-14304761D02*
X108590476Y-14352380D01*
X108542857Y-14447619D01*
X108495238Y-14495238D01*
X109590476Y-14352380D02*
X109257142Y-13876190D01*
X109019047Y-14352380D02*
X109019047Y-13352380D01*
X109400000Y-13352380D01*
X109495238Y-13400000D01*
X109542857Y-13447619D01*
X109590476Y-13542857D01*
X109590476Y-13685714D01*
X109542857Y-13780952D01*
X109495238Y-13828571D01*
X109400000Y-13876190D01*
X109019047Y-13876190D01*
X109971428Y-14304761D02*
X110114285Y-14352380D01*
X110352380Y-14352380D01*
X110447619Y-14304761D01*
X110495238Y-14257142D01*
X110542857Y-14161904D01*
X110542857Y-14066666D01*
X110495238Y-13971428D01*
X110447619Y-13923809D01*
X110352380Y-13876190D01*
X110161904Y-13828571D01*
X110066666Y-13780952D01*
X110019047Y-13733333D01*
X109971428Y-13638095D01*
X109971428Y-13542857D01*
X110019047Y-13447619D01*
X110066666Y-13400000D01*
X110161904Y-13352380D01*
X110400000Y-13352380D01*
X110542857Y-13400000D01*
X110828571Y-13352380D02*
X111400000Y-13352380D01*
X111114285Y-14352380D02*
X111114285Y-13352380D01*
X111638095Y-14685714D02*
X111876190Y-14685714D01*
X111876190Y-13257142D01*
X111638095Y-13257142D01*
X32804761Y-15897619D02*
X32709523Y-15850000D01*
X32614285Y-15754761D01*
X32471428Y-15611904D01*
X32376190Y-15564285D01*
X32280952Y-15564285D01*
X32328571Y-15802380D02*
X32233333Y-15754761D01*
X32138095Y-15659523D01*
X32090476Y-15469047D01*
X32090476Y-15135714D01*
X32138095Y-14945238D01*
X32233333Y-14850000D01*
X32328571Y-14802380D01*
X32519047Y-14802380D01*
X32614285Y-14850000D01*
X32709523Y-14945238D01*
X32757142Y-15135714D01*
X32757142Y-15469047D01*
X32709523Y-15659523D01*
X32614285Y-15754761D01*
X32519047Y-15802380D01*
X32328571Y-15802380D01*
X33709523Y-15802380D02*
X33138095Y-15802380D01*
X33423809Y-15802380D02*
X33423809Y-14802380D01*
X33328571Y-14945238D01*
X33233333Y-15040476D01*
X33138095Y-15088095D01*
X37252380Y-13166666D02*
X36776190Y-13500000D01*
X37252380Y-13738095D02*
X36252380Y-13738095D01*
X36252380Y-13357142D01*
X36300000Y-13261904D01*
X36347619Y-13214285D01*
X36442857Y-13166666D01*
X36585714Y-13166666D01*
X36680952Y-13214285D01*
X36728571Y-13261904D01*
X36776190Y-13357142D01*
X36776190Y-13738095D01*
X37252380Y-12214285D02*
X37252380Y-12785714D01*
X37252380Y-12500000D02*
X36252380Y-12500000D01*
X36395238Y-12595238D01*
X36490476Y-12690476D01*
X36538095Y-12785714D01*
X35952380Y-16454166D02*
X35476190Y-16787500D01*
X35952380Y-17025595D02*
X34952380Y-17025595D01*
X34952380Y-16644642D01*
X35000000Y-16549404D01*
X35047619Y-16501785D01*
X35142857Y-16454166D01*
X35285714Y-16454166D01*
X35380952Y-16501785D01*
X35428571Y-16549404D01*
X35476190Y-16644642D01*
X35476190Y-17025595D01*
X35047619Y-16073214D02*
X35000000Y-16025595D01*
X34952380Y-15930357D01*
X34952380Y-15692261D01*
X35000000Y-15597023D01*
X35047619Y-15549404D01*
X35142857Y-15501785D01*
X35238095Y-15501785D01*
X35380952Y-15549404D01*
X35952380Y-16120833D01*
X35952380Y-15501785D01*
X40552380Y-35666666D02*
X40076190Y-36000000D01*
X40552380Y-36238095D02*
X39552380Y-36238095D01*
X39552380Y-35857142D01*
X39600000Y-35761904D01*
X39647619Y-35714285D01*
X39742857Y-35666666D01*
X39885714Y-35666666D01*
X39980952Y-35714285D01*
X40028571Y-35761904D01*
X40076190Y-35857142D01*
X40076190Y-36238095D01*
X39552380Y-35333333D02*
X39552380Y-34714285D01*
X39933333Y-35047619D01*
X39933333Y-34904761D01*
X39980952Y-34809523D01*
X40028571Y-34761904D01*
X40123809Y-34714285D01*
X40361904Y-34714285D01*
X40457142Y-34761904D01*
X40504761Y-34809523D01*
X40552380Y-34904761D01*
X40552380Y-35190476D01*
X40504761Y-35285714D01*
X40457142Y-35333333D01*
X38952380Y-35666666D02*
X38476190Y-36000000D01*
X38952380Y-36238095D02*
X37952380Y-36238095D01*
X37952380Y-35857142D01*
X38000000Y-35761904D01*
X38047619Y-35714285D01*
X38142857Y-35666666D01*
X38285714Y-35666666D01*
X38380952Y-35714285D01*
X38428571Y-35761904D01*
X38476190Y-35857142D01*
X38476190Y-36238095D01*
X38285714Y-34809523D02*
X38952380Y-34809523D01*
X37904761Y-35047619D02*
X38619047Y-35285714D01*
X38619047Y-34666666D01*
X63920833Y-14582380D02*
X63587500Y-14106190D01*
X63349404Y-14582380D02*
X63349404Y-13582380D01*
X63730357Y-13582380D01*
X63825595Y-13630000D01*
X63873214Y-13677619D01*
X63920833Y-13772857D01*
X63920833Y-13915714D01*
X63873214Y-14010952D01*
X63825595Y-14058571D01*
X63730357Y-14106190D01*
X63349404Y-14106190D01*
X64825595Y-13582380D02*
X64349404Y-13582380D01*
X64301785Y-14058571D01*
X64349404Y-14010952D01*
X64444642Y-13963333D01*
X64682738Y-13963333D01*
X64777976Y-14010952D01*
X64825595Y-14058571D01*
X64873214Y-14153809D01*
X64873214Y-14391904D01*
X64825595Y-14487142D01*
X64777976Y-14534761D01*
X64682738Y-14582380D01*
X64444642Y-14582380D01*
X64349404Y-14534761D01*
X64301785Y-14487142D01*
X51633333Y-17652380D02*
X51300000Y-17176190D01*
X51061904Y-17652380D02*
X51061904Y-16652380D01*
X51442857Y-16652380D01*
X51538095Y-16700000D01*
X51585714Y-16747619D01*
X51633333Y-16842857D01*
X51633333Y-16985714D01*
X51585714Y-17080952D01*
X51538095Y-17128571D01*
X51442857Y-17176190D01*
X51061904Y-17176190D01*
X52490476Y-16652380D02*
X52300000Y-16652380D01*
X52204761Y-16700000D01*
X52157142Y-16747619D01*
X52061904Y-16890476D01*
X52014285Y-17080952D01*
X52014285Y-17461904D01*
X52061904Y-17557142D01*
X52109523Y-17604761D01*
X52204761Y-17652380D01*
X52395238Y-17652380D01*
X52490476Y-17604761D01*
X52538095Y-17557142D01*
X52585714Y-17461904D01*
X52585714Y-17223809D01*
X52538095Y-17128571D01*
X52490476Y-17080952D01*
X52395238Y-17033333D01*
X52204761Y-17033333D01*
X52109523Y-17080952D01*
X52061904Y-17128571D01*
X52014285Y-17223809D01*
X51633333Y-19252380D02*
X51300000Y-18776190D01*
X51061904Y-19252380D02*
X51061904Y-18252380D01*
X51442857Y-18252380D01*
X51538095Y-18300000D01*
X51585714Y-18347619D01*
X51633333Y-18442857D01*
X51633333Y-18585714D01*
X51585714Y-18680952D01*
X51538095Y-18728571D01*
X51442857Y-18776190D01*
X51061904Y-18776190D01*
X51966666Y-18252380D02*
X52633333Y-18252380D01*
X52204761Y-19252380D01*
X44852380Y-25766666D02*
X44376190Y-26100000D01*
X44852380Y-26338095D02*
X43852380Y-26338095D01*
X43852380Y-25957142D01*
X43900000Y-25861904D01*
X43947619Y-25814285D01*
X44042857Y-25766666D01*
X44185714Y-25766666D01*
X44280952Y-25814285D01*
X44328571Y-25861904D01*
X44376190Y-25957142D01*
X44376190Y-26338095D01*
X44280952Y-25195238D02*
X44233333Y-25290476D01*
X44185714Y-25338095D01*
X44090476Y-25385714D01*
X44042857Y-25385714D01*
X43947619Y-25338095D01*
X43900000Y-25290476D01*
X43852380Y-25195238D01*
X43852380Y-25004761D01*
X43900000Y-24909523D01*
X43947619Y-24861904D01*
X44042857Y-24814285D01*
X44090476Y-24814285D01*
X44185714Y-24861904D01*
X44233333Y-24909523D01*
X44280952Y-25004761D01*
X44280952Y-25195238D01*
X44328571Y-25290476D01*
X44376190Y-25338095D01*
X44471428Y-25385714D01*
X44661904Y-25385714D01*
X44757142Y-25338095D01*
X44804761Y-25290476D01*
X44852380Y-25195238D01*
X44852380Y-25004761D01*
X44804761Y-24909523D01*
X44757142Y-24861904D01*
X44661904Y-24814285D01*
X44471428Y-24814285D01*
X44376190Y-24861904D01*
X44328571Y-24909523D01*
X44280952Y-25004761D01*
X42952380Y-25766666D02*
X42476190Y-26100000D01*
X42952380Y-26338095D02*
X41952380Y-26338095D01*
X41952380Y-25957142D01*
X42000000Y-25861904D01*
X42047619Y-25814285D01*
X42142857Y-25766666D01*
X42285714Y-25766666D01*
X42380952Y-25814285D01*
X42428571Y-25861904D01*
X42476190Y-25957142D01*
X42476190Y-26338095D01*
X42952380Y-25290476D02*
X42952380Y-25100000D01*
X42904761Y-25004761D01*
X42857142Y-24957142D01*
X42714285Y-24861904D01*
X42523809Y-24814285D01*
X42142857Y-24814285D01*
X42047619Y-24861904D01*
X42000000Y-24909523D01*
X41952380Y-25004761D01*
X41952380Y-25195238D01*
X42000000Y-25290476D01*
X42047619Y-25338095D01*
X42142857Y-25385714D01*
X42380952Y-25385714D01*
X42476190Y-25338095D01*
X42523809Y-25290476D01*
X42571428Y-25195238D01*
X42571428Y-25004761D01*
X42523809Y-24909523D01*
X42476190Y-24861904D01*
X42380952Y-24814285D01*
X47952380Y-21842857D02*
X47476190Y-22176190D01*
X47952380Y-22414285D02*
X46952380Y-22414285D01*
X46952380Y-22033333D01*
X47000000Y-21938095D01*
X47047619Y-21890476D01*
X47142857Y-21842857D01*
X47285714Y-21842857D01*
X47380952Y-21890476D01*
X47428571Y-21938095D01*
X47476190Y-22033333D01*
X47476190Y-22414285D01*
X47952380Y-20890476D02*
X47952380Y-21461904D01*
X47952380Y-21176190D02*
X46952380Y-21176190D01*
X47095238Y-21271428D01*
X47190476Y-21366666D01*
X47238095Y-21461904D01*
X46952380Y-20271428D02*
X46952380Y-20176190D01*
X47000000Y-20080952D01*
X47047619Y-20033333D01*
X47142857Y-19985714D01*
X47333333Y-19938095D01*
X47571428Y-19938095D01*
X47761904Y-19985714D01*
X47857142Y-20033333D01*
X47904761Y-20080952D01*
X47952380Y-20176190D01*
X47952380Y-20271428D01*
X47904761Y-20366666D01*
X47857142Y-20414285D01*
X47761904Y-20461904D01*
X47571428Y-20509523D01*
X47333333Y-20509523D01*
X47142857Y-20461904D01*
X47047619Y-20414285D01*
X47000000Y-20366666D01*
X46952380Y-20271428D01*
X41352380Y-24942857D02*
X40876190Y-25276190D01*
X41352380Y-25514285D02*
X40352380Y-25514285D01*
X40352380Y-25133333D01*
X40400000Y-25038095D01*
X40447619Y-24990476D01*
X40542857Y-24942857D01*
X40685714Y-24942857D01*
X40780952Y-24990476D01*
X40828571Y-25038095D01*
X40876190Y-25133333D01*
X40876190Y-25514285D01*
X41352380Y-23990476D02*
X41352380Y-24561904D01*
X41352380Y-24276190D02*
X40352380Y-24276190D01*
X40495238Y-24371428D01*
X40590476Y-24466666D01*
X40638095Y-24561904D01*
X41352380Y-23038095D02*
X41352380Y-23609523D01*
X41352380Y-23323809D02*
X40352380Y-23323809D01*
X40495238Y-23419047D01*
X40590476Y-23514285D01*
X40638095Y-23609523D01*
X37152380Y-36442857D02*
X36676190Y-36776190D01*
X37152380Y-37014285D02*
X36152380Y-37014285D01*
X36152380Y-36633333D01*
X36200000Y-36538095D01*
X36247619Y-36490476D01*
X36342857Y-36442857D01*
X36485714Y-36442857D01*
X36580952Y-36490476D01*
X36628571Y-36538095D01*
X36676190Y-36633333D01*
X36676190Y-37014285D01*
X37152380Y-35490476D02*
X37152380Y-36061904D01*
X37152380Y-35776190D02*
X36152380Y-35776190D01*
X36295238Y-35871428D01*
X36390476Y-35966666D01*
X36438095Y-36061904D01*
X36247619Y-35109523D02*
X36200000Y-35061904D01*
X36152380Y-34966666D01*
X36152380Y-34728571D01*
X36200000Y-34633333D01*
X36247619Y-34585714D01*
X36342857Y-34538095D01*
X36438095Y-34538095D01*
X36580952Y-34585714D01*
X37152380Y-35157142D01*
X37152380Y-34538095D01*
X46357142Y-29752380D02*
X46023809Y-29276190D01*
X45785714Y-29752380D02*
X45785714Y-28752380D01*
X46166666Y-28752380D01*
X46261904Y-28800000D01*
X46309523Y-28847619D01*
X46357142Y-28942857D01*
X46357142Y-29085714D01*
X46309523Y-29180952D01*
X46261904Y-29228571D01*
X46166666Y-29276190D01*
X45785714Y-29276190D01*
X47309523Y-29752380D02*
X46738095Y-29752380D01*
X47023809Y-29752380D02*
X47023809Y-28752380D01*
X46928571Y-28895238D01*
X46833333Y-28990476D01*
X46738095Y-29038095D01*
X47642857Y-28752380D02*
X48261904Y-28752380D01*
X47928571Y-29133333D01*
X48071428Y-29133333D01*
X48166666Y-29180952D01*
X48214285Y-29228571D01*
X48261904Y-29323809D01*
X48261904Y-29561904D01*
X48214285Y-29657142D01*
X48166666Y-29704761D01*
X48071428Y-29752380D01*
X47785714Y-29752380D01*
X47690476Y-29704761D01*
X47642857Y-29657142D01*
X46357142Y-31252380D02*
X46023809Y-30776190D01*
X45785714Y-31252380D02*
X45785714Y-30252380D01*
X46166666Y-30252380D01*
X46261904Y-30300000D01*
X46309523Y-30347619D01*
X46357142Y-30442857D01*
X46357142Y-30585714D01*
X46309523Y-30680952D01*
X46261904Y-30728571D01*
X46166666Y-30776190D01*
X45785714Y-30776190D01*
X47309523Y-31252380D02*
X46738095Y-31252380D01*
X47023809Y-31252380D02*
X47023809Y-30252380D01*
X46928571Y-30395238D01*
X46833333Y-30490476D01*
X46738095Y-30538095D01*
X48166666Y-30585714D02*
X48166666Y-31252380D01*
X47928571Y-30204761D02*
X47690476Y-30919047D01*
X48309523Y-30919047D01*
X46357142Y-32852380D02*
X46023809Y-32376190D01*
X45785714Y-32852380D02*
X45785714Y-31852380D01*
X46166666Y-31852380D01*
X46261904Y-31900000D01*
X46309523Y-31947619D01*
X46357142Y-32042857D01*
X46357142Y-32185714D01*
X46309523Y-32280952D01*
X46261904Y-32328571D01*
X46166666Y-32376190D01*
X45785714Y-32376190D01*
X47309523Y-32852380D02*
X46738095Y-32852380D01*
X47023809Y-32852380D02*
X47023809Y-31852380D01*
X46928571Y-31995238D01*
X46833333Y-32090476D01*
X46738095Y-32138095D01*
X48214285Y-31852380D02*
X47738095Y-31852380D01*
X47690476Y-32328571D01*
X47738095Y-32280952D01*
X47833333Y-32233333D01*
X48071428Y-32233333D01*
X48166666Y-32280952D01*
X48214285Y-32328571D01*
X48261904Y-32423809D01*
X48261904Y-32661904D01*
X48214285Y-32757142D01*
X48166666Y-32804761D01*
X48071428Y-32852380D01*
X47833333Y-32852380D01*
X47738095Y-32804761D01*
X47690476Y-32757142D01*
X50144642Y-40622380D02*
X49811309Y-40146190D01*
X49573214Y-40622380D02*
X49573214Y-39622380D01*
X49954166Y-39622380D01*
X50049404Y-39670000D01*
X50097023Y-39717619D01*
X50144642Y-39812857D01*
X50144642Y-39955714D01*
X50097023Y-40050952D01*
X50049404Y-40098571D01*
X49954166Y-40146190D01*
X49573214Y-40146190D01*
X51097023Y-40622380D02*
X50525595Y-40622380D01*
X50811309Y-40622380D02*
X50811309Y-39622380D01*
X50716071Y-39765238D01*
X50620833Y-39860476D01*
X50525595Y-39908095D01*
X51954166Y-39622380D02*
X51763690Y-39622380D01*
X51668452Y-39670000D01*
X51620833Y-39717619D01*
X51525595Y-39860476D01*
X51477976Y-40050952D01*
X51477976Y-40431904D01*
X51525595Y-40527142D01*
X51573214Y-40574761D01*
X51668452Y-40622380D01*
X51858928Y-40622380D01*
X51954166Y-40574761D01*
X52001785Y-40527142D01*
X52049404Y-40431904D01*
X52049404Y-40193809D01*
X52001785Y-40098571D01*
X51954166Y-40050952D01*
X51858928Y-40003333D01*
X51668452Y-40003333D01*
X51573214Y-40050952D01*
X51525595Y-40098571D01*
X51477976Y-40193809D01*
X43182380Y-28830357D02*
X42706190Y-29163690D01*
X43182380Y-29401785D02*
X42182380Y-29401785D01*
X42182380Y-29020833D01*
X42230000Y-28925595D01*
X42277619Y-28877976D01*
X42372857Y-28830357D01*
X42515714Y-28830357D01*
X42610952Y-28877976D01*
X42658571Y-28925595D01*
X42706190Y-29020833D01*
X42706190Y-29401785D01*
X43182380Y-27877976D02*
X43182380Y-28449404D01*
X43182380Y-28163690D02*
X42182380Y-28163690D01*
X42325238Y-28258928D01*
X42420476Y-28354166D01*
X42468095Y-28449404D01*
X42182380Y-27544642D02*
X42182380Y-26877976D01*
X43182380Y-27306547D01*
X47744642Y-24422380D02*
X47411309Y-23946190D01*
X47173214Y-24422380D02*
X47173214Y-23422380D01*
X47554166Y-23422380D01*
X47649404Y-23470000D01*
X47697023Y-23517619D01*
X47744642Y-23612857D01*
X47744642Y-23755714D01*
X47697023Y-23850952D01*
X47649404Y-23898571D01*
X47554166Y-23946190D01*
X47173214Y-23946190D01*
X48697023Y-24422380D02*
X48125595Y-24422380D01*
X48411309Y-24422380D02*
X48411309Y-23422380D01*
X48316071Y-23565238D01*
X48220833Y-23660476D01*
X48125595Y-23708095D01*
X49268452Y-23850952D02*
X49173214Y-23803333D01*
X49125595Y-23755714D01*
X49077976Y-23660476D01*
X49077976Y-23612857D01*
X49125595Y-23517619D01*
X49173214Y-23470000D01*
X49268452Y-23422380D01*
X49458928Y-23422380D01*
X49554166Y-23470000D01*
X49601785Y-23517619D01*
X49649404Y-23612857D01*
X49649404Y-23660476D01*
X49601785Y-23755714D01*
X49554166Y-23803333D01*
X49458928Y-23850952D01*
X49268452Y-23850952D01*
X49173214Y-23898571D01*
X49125595Y-23946190D01*
X49077976Y-24041428D01*
X49077976Y-24231904D01*
X49125595Y-24327142D01*
X49173214Y-24374761D01*
X49268452Y-24422380D01*
X49458928Y-24422380D01*
X49554166Y-24374761D01*
X49601785Y-24327142D01*
X49649404Y-24231904D01*
X49649404Y-24041428D01*
X49601785Y-23946190D01*
X49554166Y-23898571D01*
X49458928Y-23850952D01*
X54616666Y-11404761D02*
X54759523Y-11452380D01*
X54997619Y-11452380D01*
X55092857Y-11404761D01*
X55140476Y-11357142D01*
X55188095Y-11261904D01*
X55188095Y-11166666D01*
X55140476Y-11071428D01*
X55092857Y-11023809D01*
X54997619Y-10976190D01*
X54807142Y-10928571D01*
X54711904Y-10880952D01*
X54664285Y-10833333D01*
X54616666Y-10738095D01*
X54616666Y-10642857D01*
X54664285Y-10547619D01*
X54711904Y-10500000D01*
X54807142Y-10452380D01*
X55045238Y-10452380D01*
X55188095Y-10500000D01*
X55521428Y-10452380D02*
X55759523Y-11452380D01*
X55950000Y-10738095D01*
X56140476Y-11452380D01*
X56378571Y-10452380D01*
X56711904Y-10547619D02*
X56759523Y-10500000D01*
X56854761Y-10452380D01*
X57092857Y-10452380D01*
X57188095Y-10500000D01*
X57235714Y-10547619D01*
X57283333Y-10642857D01*
X57283333Y-10738095D01*
X57235714Y-10880952D01*
X56664285Y-11452380D01*
X57283333Y-11452380D01*
X34338095Y-17752380D02*
X34338095Y-18561904D01*
X34385714Y-18657142D01*
X34433333Y-18704761D01*
X34528571Y-18752380D01*
X34719047Y-18752380D01*
X34814285Y-18704761D01*
X34861904Y-18657142D01*
X34909523Y-18561904D01*
X34909523Y-17752380D01*
X35909523Y-18752380D02*
X35338095Y-18752380D01*
X35623809Y-18752380D02*
X35623809Y-17752380D01*
X35528571Y-17895238D01*
X35433333Y-17990476D01*
X35338095Y-18038095D01*
%LPC*%
D13*
G36*
X135656808Y-8347506D02*
G01*
X135673905Y-8387826D01*
X135696701Y-8461173D01*
X135726676Y-8571469D01*
X135747134Y-8650775D01*
X135776380Y-8762898D01*
X135814681Y-8905837D01*
X135858885Y-9068035D01*
X135905834Y-9237936D01*
X135952376Y-9403983D01*
X135963046Y-9441667D01*
X136007908Y-9599108D01*
X136042871Y-9719073D01*
X136069915Y-9806555D01*
X136091016Y-9866546D01*
X136108152Y-9904038D01*
X136123301Y-9924024D01*
X136138440Y-9931496D01*
X136155547Y-9931446D01*
X136156994Y-9931275D01*
X136182021Y-9927472D01*
X136221504Y-9920155D01*
X136279635Y-9908432D01*
X136360609Y-9891412D01*
X136468620Y-9868206D01*
X136607862Y-9837921D01*
X136782528Y-9799667D01*
X136954297Y-9761910D01*
X137066429Y-9737354D01*
X137206560Y-9706845D01*
X137359570Y-9673665D01*
X137510339Y-9641096D01*
X137566146Y-9629080D01*
X138293750Y-9629080D01*
X138304774Y-9640105D01*
X138315798Y-9629080D01*
X138304774Y-9618056D01*
X138293750Y-9629080D01*
X137566146Y-9629080D01*
X137948776Y-9546302D01*
X138300767Y-9469114D01*
X138634771Y-9394739D01*
X138679443Y-9384702D01*
X138785016Y-9361452D01*
X138855940Y-9347888D01*
X138900466Y-9343501D01*
X138926848Y-9347784D01*
X138943340Y-9360230D01*
X138949539Y-9368092D01*
X138976322Y-9419322D01*
X138970605Y-9462245D01*
X138928940Y-9502550D01*
X138847881Y-9545926D01*
X138839453Y-9549761D01*
X138786322Y-9574545D01*
X138699521Y-9616022D01*
X138584912Y-9671347D01*
X138448358Y-9737676D01*
X138295722Y-9812164D01*
X138132866Y-9891966D01*
X138029166Y-9942947D01*
X137855216Y-10028553D01*
X137681102Y-10114201D01*
X137514085Y-10196321D01*
X137361424Y-10271345D01*
X137230378Y-10335706D01*
X137128207Y-10385835D01*
X137092100Y-10403526D01*
X136827517Y-10533073D01*
X137053515Y-10539357D01*
X137279514Y-10545640D01*
X137279514Y-10742535D01*
X137049505Y-10742535D01*
X136946624Y-10742911D01*
X136878357Y-10745538D01*
X136835220Y-10752662D01*
X136807731Y-10766532D01*
X136786405Y-10789393D01*
X136772808Y-10808101D01*
X136726121Y-10873667D01*
X136775453Y-10940393D01*
X136800310Y-10971723D01*
X136825476Y-10991294D01*
X136861420Y-11001872D01*
X136918611Y-11006223D01*
X137007517Y-11007112D01*
X137028014Y-11007118D01*
X137231242Y-11007118D01*
X137343572Y-11158643D01*
X137394528Y-11229072D01*
X137433418Y-11286045D01*
X137454097Y-11320430D01*
X137455903Y-11325626D01*
X137442837Y-11348698D01*
X137408068Y-11396557D01*
X137358232Y-11460205D01*
X137340147Y-11482487D01*
X137224392Y-11623890D01*
X136921224Y-11624185D01*
X136618055Y-11624479D01*
X136618055Y-11448091D01*
X137122171Y-11448091D01*
X137168858Y-11382524D01*
X137215545Y-11316958D01*
X137166213Y-11250233D01*
X137141356Y-11218903D01*
X137116190Y-11199332D01*
X137080246Y-11188754D01*
X137023055Y-11184403D01*
X136934149Y-11183513D01*
X136913652Y-11183507D01*
X136710424Y-11183507D01*
X136595536Y-11028531D01*
X136480647Y-10873556D01*
X136541995Y-10785031D01*
X136581499Y-10730929D01*
X136612508Y-10693556D01*
X136621723Y-10685147D01*
X136639924Y-10655796D01*
X136640104Y-10652743D01*
X136623305Y-10647229D01*
X136582805Y-10657217D01*
X136533452Y-10676796D01*
X136490090Y-10700050D01*
X136467568Y-10721066D01*
X136467390Y-10721541D01*
X136442108Y-10740038D01*
X136423293Y-10742873D01*
X136369132Y-10751252D01*
X136343284Y-10779882D01*
X136342523Y-10835912D01*
X136354950Y-10894327D01*
X136374071Y-10957415D01*
X136392145Y-10998350D01*
X136401003Y-11007118D01*
X136421032Y-11023577D01*
X136460235Y-11067640D01*
X136511726Y-11131343D01*
X136538384Y-11166028D01*
X136658619Y-11324938D01*
X136526803Y-11491370D01*
X136595940Y-11717777D01*
X136626801Y-11818512D01*
X136654949Y-11909810D01*
X136676615Y-11979472D01*
X136685763Y-12008393D01*
X136698638Y-12054937D01*
X136700930Y-12077920D01*
X136700837Y-12078022D01*
X136680304Y-12071235D01*
X136633734Y-12047970D01*
X136596007Y-12027231D01*
X136519430Y-11983770D01*
X136443779Y-11940713D01*
X136419618Y-11926925D01*
X136351627Y-11888439D01*
X136271968Y-11843839D01*
X136243229Y-11827873D01*
X136181887Y-11793052D01*
X136135661Y-11765292D01*
X136121962Y-11756127D01*
X136080669Y-11729222D01*
X136021198Y-11695376D01*
X135957349Y-11661823D01*
X135902922Y-11635795D01*
X135895481Y-11633108D01*
X136223018Y-11633108D01*
X136247011Y-11648950D01*
X136293263Y-11675838D01*
X136348187Y-11706302D01*
X136398194Y-11732872D01*
X136429699Y-11748075D01*
X136434207Y-11749230D01*
X136433152Y-11727771D01*
X136426125Y-11685113D01*
X136414704Y-11647683D01*
X136390647Y-11629952D01*
X136340626Y-11624703D01*
X136314154Y-11624479D01*
X136256852Y-11626145D01*
X136225302Y-11630373D01*
X136223018Y-11633108D01*
X135895481Y-11633108D01*
X135871720Y-11624529D01*
X135870808Y-11624479D01*
X135841265Y-11610672D01*
X135797278Y-11576708D01*
X135789149Y-11569358D01*
X135744994Y-11533034D01*
X135713061Y-11514753D01*
X135709784Y-11514236D01*
X135682158Y-11503122D01*
X135629617Y-11474105D01*
X135569259Y-11437066D01*
X135505526Y-11397457D01*
X135457267Y-11369616D01*
X135435918Y-11359896D01*
X135410975Y-11348342D01*
X135367590Y-11320273D01*
X135364007Y-11317738D01*
X135304801Y-11275579D01*
X135151142Y-11361000D01*
X135087842Y-11395053D01*
X134998395Y-11441599D01*
X134888511Y-11497808D01*
X134763899Y-11560850D01*
X134630270Y-11627895D01*
X134493333Y-11696112D01*
X134358797Y-11762672D01*
X134232374Y-11824743D01*
X134119773Y-11879497D01*
X134026703Y-11924102D01*
X133958875Y-11955729D01*
X133921998Y-11971547D01*
X133916988Y-11972724D01*
X133924670Y-11951989D01*
X133949185Y-11896484D01*
X133988236Y-11811171D01*
X134039525Y-11701008D01*
X134100752Y-11570959D01*
X134117696Y-11535287D01*
X134405088Y-11535287D01*
X134405747Y-11535737D01*
X134430644Y-11526382D01*
X134488489Y-11500733D01*
X134572616Y-11461867D01*
X134676360Y-11412861D01*
X134782929Y-11361691D01*
X135128531Y-11194532D01*
X135481170Y-11194532D01*
X135609527Y-11277214D01*
X135675767Y-11318592D01*
X135727318Y-11348408D01*
X135753284Y-11360370D01*
X135753534Y-11360386D01*
X135780239Y-11373066D01*
X135823025Y-11402995D01*
X135824305Y-11403993D01*
X135858346Y-11424907D01*
X135902505Y-11437984D01*
X135967255Y-11444933D01*
X136063068Y-11447462D01*
X136091701Y-11447600D01*
X136210198Y-11445066D01*
X136286870Y-11436669D01*
X136323627Y-11422187D01*
X136325080Y-11420530D01*
X136333159Y-11376922D01*
X136318685Y-11299517D01*
X136315474Y-11288238D01*
X136284763Y-11183507D01*
X136093119Y-11183357D01*
X135901475Y-11183206D01*
X135802127Y-11037274D01*
X135641649Y-11115903D01*
X135481170Y-11194532D01*
X135128531Y-11194532D01*
X135141640Y-11188192D01*
X135014440Y-11114206D01*
X134946253Y-11075134D01*
X134892229Y-11045250D01*
X134865191Y-11031550D01*
X134833164Y-11013747D01*
X134785017Y-10982147D01*
X134780810Y-10979215D01*
X134733783Y-10954584D01*
X134702214Y-10953142D01*
X134700192Y-10954798D01*
X134680117Y-10984339D01*
X134647207Y-11041672D01*
X134605600Y-11118630D01*
X134559436Y-11207050D01*
X134512852Y-11298766D01*
X134469987Y-11385612D01*
X134434979Y-11459425D01*
X134411966Y-11512038D01*
X134405088Y-11535287D01*
X134117696Y-11535287D01*
X134169619Y-11425982D01*
X134192415Y-11378252D01*
X134274488Y-11205725D01*
X134338503Y-11068797D01*
X134386047Y-10963591D01*
X134418705Y-10886227D01*
X134438067Y-10832827D01*
X134445719Y-10799510D01*
X134444636Y-10792006D01*
X134780781Y-10792006D01*
X134834010Y-10832926D01*
X134876130Y-10862110D01*
X134901870Y-10874336D01*
X134925948Y-10885157D01*
X134978775Y-10913857D01*
X135051382Y-10955465D01*
X135100307Y-10984317D01*
X135180861Y-11031340D01*
X135247444Y-11068417D01*
X135290901Y-11090544D01*
X135301984Y-11094560D01*
X135328313Y-11085748D01*
X135384576Y-11061437D01*
X135461265Y-11025845D01*
X135513039Y-11000875D01*
X135574694Y-10968605D01*
X135989164Y-10968605D01*
X136010373Y-10992394D01*
X136072233Y-11005477D01*
X136115686Y-11007118D01*
X136180628Y-11005961D01*
X136211290Y-10998323D01*
X136217490Y-10977959D01*
X136210986Y-10946485D01*
X136193551Y-10893296D01*
X136168538Y-10872076D01*
X136124702Y-10879053D01*
X136073219Y-10900294D01*
X136009735Y-10936957D01*
X135989164Y-10968605D01*
X135574694Y-10968605D01*
X135602487Y-10954059D01*
X135665265Y-10914762D01*
X135695565Y-10886820D01*
X135697181Y-10879304D01*
X135705223Y-10849799D01*
X135734705Y-10796233D01*
X135763302Y-10753559D01*
X136000694Y-10753559D01*
X136011719Y-10764584D01*
X136022743Y-10753559D01*
X136011719Y-10742535D01*
X136000694Y-10753559D01*
X135763302Y-10753559D01*
X135779685Y-10729113D01*
X135790254Y-10714670D01*
X135847367Y-10641659D01*
X135892865Y-10596504D01*
X135938692Y-10569783D01*
X135996142Y-10552229D01*
X136099913Y-10527287D01*
X136007788Y-10524668D01*
X135915662Y-10522049D01*
X135888922Y-10402563D01*
X135871077Y-10331085D01*
X135853926Y-10275669D01*
X135845323Y-10255797D01*
X135828640Y-10248012D01*
X135789875Y-10248468D01*
X135724337Y-10257907D01*
X135627334Y-10277065D01*
X135494174Y-10306682D01*
X135435021Y-10320387D01*
X135308805Y-10349617D01*
X135197291Y-10374982D01*
X135107625Y-10394896D01*
X135046951Y-10407769D01*
X135022684Y-10412031D01*
X135013501Y-10395193D01*
X135018478Y-10373221D01*
X135027438Y-10343310D01*
X135018768Y-10348645D01*
X134994954Y-10385231D01*
X134958484Y-10449074D01*
X134911844Y-10536178D01*
X134886425Y-10585369D01*
X134780781Y-10792006D01*
X134444636Y-10792006D01*
X134443248Y-10782399D01*
X134437878Y-10778396D01*
X134398963Y-10760613D01*
X134339371Y-10728450D01*
X134302951Y-10707291D01*
X134219836Y-10658512D01*
X134131087Y-10607631D01*
X134104514Y-10592689D01*
X134028797Y-10548676D01*
X133988280Y-10523626D01*
X134292901Y-10523626D01*
X134322372Y-10543601D01*
X134327471Y-10544098D01*
X134357798Y-10555620D01*
X134408213Y-10584605D01*
X134430507Y-10599219D01*
X134482204Y-10632597D01*
X134517526Y-10652186D01*
X134524162Y-10654341D01*
X134540040Y-10636282D01*
X134567050Y-10590039D01*
X134586198Y-10552456D01*
X134612316Y-10492829D01*
X134625343Y-10450986D01*
X134624860Y-10439734D01*
X134598733Y-10437220D01*
X134545449Y-10444691D01*
X134477084Y-10459093D01*
X134405715Y-10477376D01*
X134343419Y-10496487D01*
X134302274Y-10513374D01*
X134292901Y-10523626D01*
X133988280Y-10523626D01*
X133955385Y-10503289D01*
X133932438Y-10488248D01*
X133859581Y-10439181D01*
X134020632Y-10402261D01*
X134109714Y-10382260D01*
X134225452Y-10356864D01*
X134351336Y-10329673D01*
X134446267Y-10309466D01*
X134549335Y-10286797D01*
X134636344Y-10265960D01*
X134698352Y-10249216D01*
X134726413Y-10238826D01*
X134726689Y-10238587D01*
X134738230Y-10217163D01*
X134766445Y-10160694D01*
X134775011Y-10143250D01*
X135117931Y-10143250D01*
X135234095Y-10113662D01*
X135278540Y-10103125D01*
X135802257Y-10103125D01*
X135810324Y-10121274D01*
X135816956Y-10117824D01*
X135819426Y-10093324D01*
X136159069Y-10093324D01*
X136161700Y-10115391D01*
X136174285Y-10170813D01*
X136194652Y-10250547D01*
X136213880Y-10321414D01*
X136275680Y-10544098D01*
X136359992Y-10544098D01*
X136404066Y-10537657D01*
X136469396Y-10517236D01*
X136560035Y-10481185D01*
X136680039Y-10427855D01*
X136833460Y-10355596D01*
X136888379Y-10329124D01*
X137069031Y-10241400D01*
X137251226Y-10152427D01*
X137430760Y-10064302D01*
X137603429Y-9979121D01*
X137765029Y-9898979D01*
X137911355Y-9825974D01*
X138038204Y-9762200D01*
X138141371Y-9709755D01*
X138216653Y-9670733D01*
X138259845Y-9647232D01*
X138268473Y-9641015D01*
X138242566Y-9645042D01*
X138182468Y-9656682D01*
X138097070Y-9674154D01*
X137995266Y-9695679D01*
X137992865Y-9696194D01*
X137661842Y-9767377D01*
X137368285Y-9830811D01*
X137106489Y-9887732D01*
X136870749Y-9939379D01*
X136827517Y-9948899D01*
X136697480Y-9977308D01*
X136564882Y-10005842D01*
X136444377Y-10031374D01*
X136350619Y-10050777D01*
X136342448Y-10052427D01*
X136260097Y-10069453D01*
X136196405Y-10083481D01*
X136162061Y-10092128D01*
X136159069Y-10093324D01*
X135819426Y-10093324D01*
X135819595Y-10091658D01*
X135816956Y-10088426D01*
X135803848Y-10091453D01*
X135802257Y-10103125D01*
X135278540Y-10103125D01*
X135312428Y-10095091D01*
X135414461Y-10072759D01*
X135520538Y-10050942D01*
X135540340Y-10047050D01*
X135629032Y-10028596D01*
X135702162Y-10011206D01*
X135748074Y-9997737D01*
X135756054Y-9994184D01*
X135762978Y-9973835D01*
X135759049Y-9925223D01*
X135743587Y-9844516D01*
X135715915Y-9727885D01*
X135693260Y-9639418D01*
X135604833Y-9300496D01*
X135656395Y-9211229D01*
X135685116Y-9151854D01*
X135698184Y-9104831D01*
X135697359Y-9092035D01*
X135693257Y-9086332D01*
X135685944Y-9089252D01*
X135673484Y-9104229D01*
X135653944Y-9134696D01*
X135625388Y-9184086D01*
X135585881Y-9255833D01*
X135533489Y-9353371D01*
X135466278Y-9480131D01*
X135382311Y-9639548D01*
X135293329Y-9808995D01*
X135117931Y-10143250D01*
X134775011Y-10143250D01*
X134809043Y-10073947D01*
X134863734Y-9961688D01*
X134928229Y-9828685D01*
X135000237Y-9679704D01*
X135077470Y-9519512D01*
X135157637Y-9352875D01*
X135238448Y-9184561D01*
X135317613Y-9019336D01*
X135392843Y-8861967D01*
X135461848Y-8717221D01*
X135522338Y-8589863D01*
X135572023Y-8484663D01*
X135608613Y-8406385D01*
X135629818Y-8359796D01*
X135633798Y-8350261D01*
X135643932Y-8336292D01*
X135656808Y-8347506D01*
G37*
X135656808Y-8347506D02*
X135673905Y-8387826D01*
X135696701Y-8461173D01*
X135726676Y-8571469D01*
X135747134Y-8650775D01*
X135776380Y-8762898D01*
X135814681Y-8905837D01*
X135858885Y-9068035D01*
X135905834Y-9237936D01*
X135952376Y-9403983D01*
X135963046Y-9441667D01*
X136007908Y-9599108D01*
X136042871Y-9719073D01*
X136069915Y-9806555D01*
X136091016Y-9866546D01*
X136108152Y-9904038D01*
X136123301Y-9924024D01*
X136138440Y-9931496D01*
X136155547Y-9931446D01*
X136156994Y-9931275D01*
X136182021Y-9927472D01*
X136221504Y-9920155D01*
X136279635Y-9908432D01*
X136360609Y-9891412D01*
X136468620Y-9868206D01*
X136607862Y-9837921D01*
X136782528Y-9799667D01*
X136954297Y-9761910D01*
X137066429Y-9737354D01*
X137206560Y-9706845D01*
X137359570Y-9673665D01*
X137510339Y-9641096D01*
X137566146Y-9629080D01*
X138293750Y-9629080D01*
X138304774Y-9640105D01*
X138315798Y-9629080D01*
X138304774Y-9618056D01*
X138293750Y-9629080D01*
X137566146Y-9629080D01*
X137948776Y-9546302D01*
X138300767Y-9469114D01*
X138634771Y-9394739D01*
X138679443Y-9384702D01*
X138785016Y-9361452D01*
X138855940Y-9347888D01*
X138900466Y-9343501D01*
X138926848Y-9347784D01*
X138943340Y-9360230D01*
X138949539Y-9368092D01*
X138976322Y-9419322D01*
X138970605Y-9462245D01*
X138928940Y-9502550D01*
X138847881Y-9545926D01*
X138839453Y-9549761D01*
X138786322Y-9574545D01*
X138699521Y-9616022D01*
X138584912Y-9671347D01*
X138448358Y-9737676D01*
X138295722Y-9812164D01*
X138132866Y-9891966D01*
X138029166Y-9942947D01*
X137855216Y-10028553D01*
X137681102Y-10114201D01*
X137514085Y-10196321D01*
X137361424Y-10271345D01*
X137230378Y-10335706D01*
X137128207Y-10385835D01*
X137092100Y-10403526D01*
X136827517Y-10533073D01*
X137053515Y-10539357D01*
X137279514Y-10545640D01*
X137279514Y-10742535D01*
X137049505Y-10742535D01*
X136946624Y-10742911D01*
X136878357Y-10745538D01*
X136835220Y-10752662D01*
X136807731Y-10766532D01*
X136786405Y-10789393D01*
X136772808Y-10808101D01*
X136726121Y-10873667D01*
X136775453Y-10940393D01*
X136800310Y-10971723D01*
X136825476Y-10991294D01*
X136861420Y-11001872D01*
X136918611Y-11006223D01*
X137007517Y-11007112D01*
X137028014Y-11007118D01*
X137231242Y-11007118D01*
X137343572Y-11158643D01*
X137394528Y-11229072D01*
X137433418Y-11286045D01*
X137454097Y-11320430D01*
X137455903Y-11325626D01*
X137442837Y-11348698D01*
X137408068Y-11396557D01*
X137358232Y-11460205D01*
X137340147Y-11482487D01*
X137224392Y-11623890D01*
X136921224Y-11624185D01*
X136618055Y-11624479D01*
X136618055Y-11448091D01*
X137122171Y-11448091D01*
X137168858Y-11382524D01*
X137215545Y-11316958D01*
X137166213Y-11250233D01*
X137141356Y-11218903D01*
X137116190Y-11199332D01*
X137080246Y-11188754D01*
X137023055Y-11184403D01*
X136934149Y-11183513D01*
X136913652Y-11183507D01*
X136710424Y-11183507D01*
X136595536Y-11028531D01*
X136480647Y-10873556D01*
X136541995Y-10785031D01*
X136581499Y-10730929D01*
X136612508Y-10693556D01*
X136621723Y-10685147D01*
X136639924Y-10655796D01*
X136640104Y-10652743D01*
X136623305Y-10647229D01*
X136582805Y-10657217D01*
X136533452Y-10676796D01*
X136490090Y-10700050D01*
X136467568Y-10721066D01*
X136467390Y-10721541D01*
X136442108Y-10740038D01*
X136423293Y-10742873D01*
X136369132Y-10751252D01*
X136343284Y-10779882D01*
X136342523Y-10835912D01*
X136354950Y-10894327D01*
X136374071Y-10957415D01*
X136392145Y-10998350D01*
X136401003Y-11007118D01*
X136421032Y-11023577D01*
X136460235Y-11067640D01*
X136511726Y-11131343D01*
X136538384Y-11166028D01*
X136658619Y-11324938D01*
X136526803Y-11491370D01*
X136595940Y-11717777D01*
X136626801Y-11818512D01*
X136654949Y-11909810D01*
X136676615Y-11979472D01*
X136685763Y-12008393D01*
X136698638Y-12054937D01*
X136700930Y-12077920D01*
X136700837Y-12078022D01*
X136680304Y-12071235D01*
X136633734Y-12047970D01*
X136596007Y-12027231D01*
X136519430Y-11983770D01*
X136443779Y-11940713D01*
X136419618Y-11926925D01*
X136351627Y-11888439D01*
X136271968Y-11843839D01*
X136243229Y-11827873D01*
X136181887Y-11793052D01*
X136135661Y-11765292D01*
X136121962Y-11756127D01*
X136080669Y-11729222D01*
X136021198Y-11695376D01*
X135957349Y-11661823D01*
X135902922Y-11635795D01*
X135895481Y-11633108D01*
X136223018Y-11633108D01*
X136247011Y-11648950D01*
X136293263Y-11675838D01*
X136348187Y-11706302D01*
X136398194Y-11732872D01*
X136429699Y-11748075D01*
X136434207Y-11749230D01*
X136433152Y-11727771D01*
X136426125Y-11685113D01*
X136414704Y-11647683D01*
X136390647Y-11629952D01*
X136340626Y-11624703D01*
X136314154Y-11624479D01*
X136256852Y-11626145D01*
X136225302Y-11630373D01*
X136223018Y-11633108D01*
X135895481Y-11633108D01*
X135871720Y-11624529D01*
X135870808Y-11624479D01*
X135841265Y-11610672D01*
X135797278Y-11576708D01*
X135789149Y-11569358D01*
X135744994Y-11533034D01*
X135713061Y-11514753D01*
X135709784Y-11514236D01*
X135682158Y-11503122D01*
X135629617Y-11474105D01*
X135569259Y-11437066D01*
X135505526Y-11397457D01*
X135457267Y-11369616D01*
X135435918Y-11359896D01*
X135410975Y-11348342D01*
X135367590Y-11320273D01*
X135364007Y-11317738D01*
X135304801Y-11275579D01*
X135151142Y-11361000D01*
X135087842Y-11395053D01*
X134998395Y-11441599D01*
X134888511Y-11497808D01*
X134763899Y-11560850D01*
X134630270Y-11627895D01*
X134493333Y-11696112D01*
X134358797Y-11762672D01*
X134232374Y-11824743D01*
X134119773Y-11879497D01*
X134026703Y-11924102D01*
X133958875Y-11955729D01*
X133921998Y-11971547D01*
X133916988Y-11972724D01*
X133924670Y-11951989D01*
X133949185Y-11896484D01*
X133988236Y-11811171D01*
X134039525Y-11701008D01*
X134100752Y-11570959D01*
X134117696Y-11535287D01*
X134405088Y-11535287D01*
X134405747Y-11535737D01*
X134430644Y-11526382D01*
X134488489Y-11500733D01*
X134572616Y-11461867D01*
X134676360Y-11412861D01*
X134782929Y-11361691D01*
X135128531Y-11194532D01*
X135481170Y-11194532D01*
X135609527Y-11277214D01*
X135675767Y-11318592D01*
X135727318Y-11348408D01*
X135753284Y-11360370D01*
X135753534Y-11360386D01*
X135780239Y-11373066D01*
X135823025Y-11402995D01*
X135824305Y-11403993D01*
X135858346Y-11424907D01*
X135902505Y-11437984D01*
X135967255Y-11444933D01*
X136063068Y-11447462D01*
X136091701Y-11447600D01*
X136210198Y-11445066D01*
X136286870Y-11436669D01*
X136323627Y-11422187D01*
X136325080Y-11420530D01*
X136333159Y-11376922D01*
X136318685Y-11299517D01*
X136315474Y-11288238D01*
X136284763Y-11183507D01*
X136093119Y-11183357D01*
X135901475Y-11183206D01*
X135802127Y-11037274D01*
X135641649Y-11115903D01*
X135481170Y-11194532D01*
X135128531Y-11194532D01*
X135141640Y-11188192D01*
X135014440Y-11114206D01*
X134946253Y-11075134D01*
X134892229Y-11045250D01*
X134865191Y-11031550D01*
X134833164Y-11013747D01*
X134785017Y-10982147D01*
X134780810Y-10979215D01*
X134733783Y-10954584D01*
X134702214Y-10953142D01*
X134700192Y-10954798D01*
X134680117Y-10984339D01*
X134647207Y-11041672D01*
X134605600Y-11118630D01*
X134559436Y-11207050D01*
X134512852Y-11298766D01*
X134469987Y-11385612D01*
X134434979Y-11459425D01*
X134411966Y-11512038D01*
X134405088Y-11535287D01*
X134117696Y-11535287D01*
X134169619Y-11425982D01*
X134192415Y-11378252D01*
X134274488Y-11205725D01*
X134338503Y-11068797D01*
X134386047Y-10963591D01*
X134418705Y-10886227D01*
X134438067Y-10832827D01*
X134445719Y-10799510D01*
X134444636Y-10792006D01*
X134780781Y-10792006D01*
X134834010Y-10832926D01*
X134876130Y-10862110D01*
X134901870Y-10874336D01*
X134925948Y-10885157D01*
X134978775Y-10913857D01*
X135051382Y-10955465D01*
X135100307Y-10984317D01*
X135180861Y-11031340D01*
X135247444Y-11068417D01*
X135290901Y-11090544D01*
X135301984Y-11094560D01*
X135328313Y-11085748D01*
X135384576Y-11061437D01*
X135461265Y-11025845D01*
X135513039Y-11000875D01*
X135574694Y-10968605D01*
X135989164Y-10968605D01*
X136010373Y-10992394D01*
X136072233Y-11005477D01*
X136115686Y-11007118D01*
X136180628Y-11005961D01*
X136211290Y-10998323D01*
X136217490Y-10977959D01*
X136210986Y-10946485D01*
X136193551Y-10893296D01*
X136168538Y-10872076D01*
X136124702Y-10879053D01*
X136073219Y-10900294D01*
X136009735Y-10936957D01*
X135989164Y-10968605D01*
X135574694Y-10968605D01*
X135602487Y-10954059D01*
X135665265Y-10914762D01*
X135695565Y-10886820D01*
X135697181Y-10879304D01*
X135705223Y-10849799D01*
X135734705Y-10796233D01*
X135763302Y-10753559D01*
X136000694Y-10753559D01*
X136011719Y-10764584D01*
X136022743Y-10753559D01*
X136011719Y-10742535D01*
X136000694Y-10753559D01*
X135763302Y-10753559D01*
X135779685Y-10729113D01*
X135790254Y-10714670D01*
X135847367Y-10641659D01*
X135892865Y-10596504D01*
X135938692Y-10569783D01*
X135996142Y-10552229D01*
X136099913Y-10527287D01*
X136007788Y-10524668D01*
X135915662Y-10522049D01*
X135888922Y-10402563D01*
X135871077Y-10331085D01*
X135853926Y-10275669D01*
X135845323Y-10255797D01*
X135828640Y-10248012D01*
X135789875Y-10248468D01*
X135724337Y-10257907D01*
X135627334Y-10277065D01*
X135494174Y-10306682D01*
X135435021Y-10320387D01*
X135308805Y-10349617D01*
X135197291Y-10374982D01*
X135107625Y-10394896D01*
X135046951Y-10407769D01*
X135022684Y-10412031D01*
X135013501Y-10395193D01*
X135018478Y-10373221D01*
X135027438Y-10343310D01*
X135018768Y-10348645D01*
X134994954Y-10385231D01*
X134958484Y-10449074D01*
X134911844Y-10536178D01*
X134886425Y-10585369D01*
X134780781Y-10792006D01*
X134444636Y-10792006D01*
X134443248Y-10782399D01*
X134437878Y-10778396D01*
X134398963Y-10760613D01*
X134339371Y-10728450D01*
X134302951Y-10707291D01*
X134219836Y-10658512D01*
X134131087Y-10607631D01*
X134104514Y-10592689D01*
X134028797Y-10548676D01*
X133988280Y-10523626D01*
X134292901Y-10523626D01*
X134322372Y-10543601D01*
X134327471Y-10544098D01*
X134357798Y-10555620D01*
X134408213Y-10584605D01*
X134430507Y-10599219D01*
X134482204Y-10632597D01*
X134517526Y-10652186D01*
X134524162Y-10654341D01*
X134540040Y-10636282D01*
X134567050Y-10590039D01*
X134586198Y-10552456D01*
X134612316Y-10492829D01*
X134625343Y-10450986D01*
X134624860Y-10439734D01*
X134598733Y-10437220D01*
X134545449Y-10444691D01*
X134477084Y-10459093D01*
X134405715Y-10477376D01*
X134343419Y-10496487D01*
X134302274Y-10513374D01*
X134292901Y-10523626D01*
X133988280Y-10523626D01*
X133955385Y-10503289D01*
X133932438Y-10488248D01*
X133859581Y-10439181D01*
X134020632Y-10402261D01*
X134109714Y-10382260D01*
X134225452Y-10356864D01*
X134351336Y-10329673D01*
X134446267Y-10309466D01*
X134549335Y-10286797D01*
X134636344Y-10265960D01*
X134698352Y-10249216D01*
X134726413Y-10238826D01*
X134726689Y-10238587D01*
X134738230Y-10217163D01*
X134766445Y-10160694D01*
X134775011Y-10143250D01*
X135117931Y-10143250D01*
X135234095Y-10113662D01*
X135278540Y-10103125D01*
X135802257Y-10103125D01*
X135810324Y-10121274D01*
X135816956Y-10117824D01*
X135819426Y-10093324D01*
X136159069Y-10093324D01*
X136161700Y-10115391D01*
X136174285Y-10170813D01*
X136194652Y-10250547D01*
X136213880Y-10321414D01*
X136275680Y-10544098D01*
X136359992Y-10544098D01*
X136404066Y-10537657D01*
X136469396Y-10517236D01*
X136560035Y-10481185D01*
X136680039Y-10427855D01*
X136833460Y-10355596D01*
X136888379Y-10329124D01*
X137069031Y-10241400D01*
X137251226Y-10152427D01*
X137430760Y-10064302D01*
X137603429Y-9979121D01*
X137765029Y-9898979D01*
X137911355Y-9825974D01*
X138038204Y-9762200D01*
X138141371Y-9709755D01*
X138216653Y-9670733D01*
X138259845Y-9647232D01*
X138268473Y-9641015D01*
X138242566Y-9645042D01*
X138182468Y-9656682D01*
X138097070Y-9674154D01*
X137995266Y-9695679D01*
X137992865Y-9696194D01*
X137661842Y-9767377D01*
X137368285Y-9830811D01*
X137106489Y-9887732D01*
X136870749Y-9939379D01*
X136827517Y-9948899D01*
X136697480Y-9977308D01*
X136564882Y-10005842D01*
X136444377Y-10031374D01*
X136350619Y-10050777D01*
X136342448Y-10052427D01*
X136260097Y-10069453D01*
X136196405Y-10083481D01*
X136162061Y-10092128D01*
X136159069Y-10093324D01*
X135819426Y-10093324D01*
X135819595Y-10091658D01*
X135816956Y-10088426D01*
X135803848Y-10091453D01*
X135802257Y-10103125D01*
X135278540Y-10103125D01*
X135312428Y-10095091D01*
X135414461Y-10072759D01*
X135520538Y-10050942D01*
X135540340Y-10047050D01*
X135629032Y-10028596D01*
X135702162Y-10011206D01*
X135748074Y-9997737D01*
X135756054Y-9994184D01*
X135762978Y-9973835D01*
X135759049Y-9925223D01*
X135743587Y-9844516D01*
X135715915Y-9727885D01*
X135693260Y-9639418D01*
X135604833Y-9300496D01*
X135656395Y-9211229D01*
X135685116Y-9151854D01*
X135698184Y-9104831D01*
X135697359Y-9092035D01*
X135693257Y-9086332D01*
X135685944Y-9089252D01*
X135673484Y-9104229D01*
X135653944Y-9134696D01*
X135625388Y-9184086D01*
X135585881Y-9255833D01*
X135533489Y-9353371D01*
X135466278Y-9480131D01*
X135382311Y-9639548D01*
X135293329Y-9808995D01*
X135117931Y-10143250D01*
X134775011Y-10143250D01*
X134809043Y-10073947D01*
X134863734Y-9961688D01*
X134928229Y-9828685D01*
X135000237Y-9679704D01*
X135077470Y-9519512D01*
X135157637Y-9352875D01*
X135238448Y-9184561D01*
X135317613Y-9019336D01*
X135392843Y-8861967D01*
X135461848Y-8717221D01*
X135522338Y-8589863D01*
X135572023Y-8484663D01*
X135608613Y-8406385D01*
X135629818Y-8359796D01*
X135633798Y-8350261D01*
X135643932Y-8336292D01*
X135656808Y-8347506D01*
G36*
X138933160Y-10566146D02*
G01*
X139330035Y-10566146D01*
X139330035Y-10742535D01*
X138933160Y-10742535D01*
X138933650Y-11012631D01*
X138934673Y-11129385D01*
X138938058Y-11210932D01*
X138945020Y-11266147D01*
X138956779Y-11303905D01*
X138974553Y-11333082D01*
X138978276Y-11337848D01*
X139022413Y-11392969D01*
X139099709Y-11305855D01*
X139177006Y-11218740D01*
X139314884Y-11356618D01*
X139165417Y-11523622D01*
X139102326Y-11593361D01*
X139050878Y-11648814D01*
X139017597Y-11683030D01*
X139008618Y-11690625D01*
X138993066Y-11674250D01*
X138957024Y-11630115D01*
X138906502Y-11565705D01*
X138868005Y-11515538D01*
X138734722Y-11340451D01*
X138734722Y-10742535D01*
X138668576Y-10742535D01*
X138626163Y-10739052D01*
X138607308Y-10720179D01*
X138602535Y-10673279D01*
X138602430Y-10654341D01*
X138605042Y-10597790D01*
X138619197Y-10572650D01*
X138654373Y-10566285D01*
X138668576Y-10566146D01*
X138706391Y-10564110D01*
X138726073Y-10550765D01*
X138733543Y-10515257D01*
X138734722Y-10446733D01*
X138734722Y-10323611D01*
X138933160Y-10323611D01*
X138933160Y-10566146D01*
G37*
X138933160Y-10566146D02*
X139330035Y-10566146D01*
X139330035Y-10742535D01*
X138933160Y-10742535D01*
X138933650Y-11012631D01*
X138934673Y-11129385D01*
X138938058Y-11210932D01*
X138945020Y-11266147D01*
X138956779Y-11303905D01*
X138974553Y-11333082D01*
X138978276Y-11337848D01*
X139022413Y-11392969D01*
X139099709Y-11305855D01*
X139177006Y-11218740D01*
X139314884Y-11356618D01*
X139165417Y-11523622D01*
X139102326Y-11593361D01*
X139050878Y-11648814D01*
X139017597Y-11683030D01*
X139008618Y-11690625D01*
X138993066Y-11674250D01*
X138957024Y-11630115D01*
X138906502Y-11565705D01*
X138868005Y-11515538D01*
X138734722Y-11340451D01*
X138734722Y-10742535D01*
X138668576Y-10742535D01*
X138626163Y-10739052D01*
X138607308Y-10720179D01*
X138602535Y-10673279D01*
X138602430Y-10654341D01*
X138605042Y-10597790D01*
X138619197Y-10572650D01*
X138654373Y-10566285D01*
X138668576Y-10566146D01*
X138706391Y-10564110D01*
X138726073Y-10550765D01*
X138733543Y-10515257D01*
X138734722Y-10446733D01*
X138734722Y-10323611D01*
X138933160Y-10323611D01*
X138933160Y-10566146D01*
G36*
X137676389Y-11668577D02*
G01*
X137500000Y-11668577D01*
X137500000Y-10544098D01*
X137676389Y-10544098D01*
X137676389Y-11668577D01*
G37*
X137676389Y-11668577D02*
X137500000Y-11668577D01*
X137500000Y-10544098D01*
X137676389Y-10544098D01*
X137676389Y-11668577D01*
G36*
X138536285Y-10736393D02*
G01*
X138420529Y-10750297D01*
X138325391Y-10758906D01*
X138221331Y-10764304D01*
X138183507Y-10765085D01*
X138109171Y-10768635D01*
X138063541Y-10781507D01*
X138031402Y-10809083D01*
X138020979Y-10822581D01*
X137994460Y-10863542D01*
X137994055Y-10893091D01*
X138020209Y-10933507D01*
X138023288Y-10937643D01*
X138046667Y-10965163D01*
X138073907Y-10982825D01*
X138115211Y-10993290D01*
X138180783Y-10999220D01*
X138274010Y-11003050D01*
X138481163Y-11010006D01*
X138586765Y-11152345D01*
X138637775Y-11222689D01*
X138678263Y-11281473D01*
X138701015Y-11318146D01*
X138703007Y-11322410D01*
X138694620Y-11350870D01*
X138663109Y-11403091D01*
X138614429Y-11469683D01*
X138591408Y-11498332D01*
X138469169Y-11646528D01*
X137874826Y-11646528D01*
X137874826Y-11448091D01*
X138124542Y-11448091D01*
X138233564Y-11447522D01*
X138307706Y-11444717D01*
X138356183Y-11438028D01*
X138388207Y-11425805D01*
X138412992Y-11406402D01*
X138424709Y-11394387D01*
X138475161Y-11340684D01*
X138427051Y-11273120D01*
X138402989Y-11241513D01*
X138378644Y-11221717D01*
X138343672Y-11210969D01*
X138287731Y-11206506D01*
X138200478Y-11205565D01*
X138174176Y-11205556D01*
X137969410Y-11205556D01*
X137872509Y-11069212D01*
X137823298Y-10999453D01*
X137783084Y-10941508D01*
X137759696Y-10906670D01*
X137758309Y-10904444D01*
X137762388Y-10871097D01*
X137795474Y-10809401D01*
X137855818Y-10722606D01*
X137856957Y-10721083D01*
X137972903Y-10566146D01*
X138536285Y-10566146D01*
X138536285Y-10736393D01*
G37*
X138536285Y-10736393D02*
X138420529Y-10750297D01*
X138325391Y-10758906D01*
X138221331Y-10764304D01*
X138183507Y-10765085D01*
X138109171Y-10768635D01*
X138063541Y-10781507D01*
X138031402Y-10809083D01*
X138020979Y-10822581D01*
X137994460Y-10863542D01*
X137994055Y-10893091D01*
X138020209Y-10933507D01*
X138023288Y-10937643D01*
X138046667Y-10965163D01*
X138073907Y-10982825D01*
X138115211Y-10993290D01*
X138180783Y-10999220D01*
X138274010Y-11003050D01*
X138481163Y-11010006D01*
X138586765Y-11152345D01*
X138637775Y-11222689D01*
X138678263Y-11281473D01*
X138701015Y-11318146D01*
X138703007Y-11322410D01*
X138694620Y-11350870D01*
X138663109Y-11403091D01*
X138614429Y-11469683D01*
X138591408Y-11498332D01*
X138469169Y-11646528D01*
X137874826Y-11646528D01*
X137874826Y-11448091D01*
X138124542Y-11448091D01*
X138233564Y-11447522D01*
X138307706Y-11444717D01*
X138356183Y-11438028D01*
X138388207Y-11425805D01*
X138412992Y-11406402D01*
X138424709Y-11394387D01*
X138475161Y-11340684D01*
X138427051Y-11273120D01*
X138402989Y-11241513D01*
X138378644Y-11221717D01*
X138343672Y-11210969D01*
X138287731Y-11206506D01*
X138200478Y-11205565D01*
X138174176Y-11205556D01*
X137969410Y-11205556D01*
X137872509Y-11069212D01*
X137823298Y-10999453D01*
X137783084Y-10941508D01*
X137759696Y-10906670D01*
X137758309Y-10904444D01*
X137762388Y-10871097D01*
X137795474Y-10809401D01*
X137855818Y-10722606D01*
X137856957Y-10721083D01*
X137972903Y-10566146D01*
X138536285Y-10566146D01*
X138536285Y-10736393D01*
D14*
X74500000Y-11000000D03*
X16000000Y-11000000D03*
X152000000Y-11000000D03*
X74500000Y-89000000D03*
X152000000Y-89000000D03*
X16000000Y-89000000D03*
D15*
X24500000Y-24000000D03*
D16*
X24500000Y-29900000D03*
X19500000Y-27800000D03*
D17*
X19000000Y-24000000D03*
X30000000Y-24000000D03*
D15*
X143500000Y-42000000D03*
D16*
X143500000Y-47900000D03*
X138500000Y-45800000D03*
D17*
X138000000Y-42000000D03*
X149000000Y-42000000D03*
D15*
X105500000Y-78000000D03*
D16*
X105500000Y-83900000D03*
X100500000Y-81800000D03*
D17*
X100000000Y-78000000D03*
X111000000Y-78000000D03*
D15*
X86500000Y-42000000D03*
D16*
X86500000Y-47900000D03*
X81500000Y-45800000D03*
D17*
X81000000Y-42000000D03*
X92000000Y-42000000D03*
G36*
G01*
X40825000Y-46925000D02*
X40575000Y-46925000D01*
G75*
G02*
X40450000Y-46800000I0J125000D01*
G01*
X40450000Y-45550000D01*
G75*
G02*
X40575000Y-45425000I125000J0D01*
G01*
X40825000Y-45425000D01*
G75*
G02*
X40950000Y-45550000I0J-125000D01*
G01*
X40950000Y-46800000D01*
G75*
G02*
X40825000Y-46925000I-125000J0D01*
G01*
G37*
G36*
G01*
X41625000Y-46925000D02*
X41375000Y-46925000D01*
G75*
G02*
X41250000Y-46800000I0J125000D01*
G01*
X41250000Y-45550000D01*
G75*
G02*
X41375000Y-45425000I125000J0D01*
G01*
X41625000Y-45425000D01*
G75*
G02*
X41750000Y-45550000I0J-125000D01*
G01*
X41750000Y-46800000D01*
G75*
G02*
X41625000Y-46925000I-125000J0D01*
G01*
G37*
G36*
G01*
X42425000Y-46925000D02*
X42175000Y-46925000D01*
G75*
G02*
X42050000Y-46800000I0J125000D01*
G01*
X42050000Y-45550000D01*
G75*
G02*
X42175000Y-45425000I125000J0D01*
G01*
X42425000Y-45425000D01*
G75*
G02*
X42550000Y-45550000I0J-125000D01*
G01*
X42550000Y-46800000D01*
G75*
G02*
X42425000Y-46925000I-125000J0D01*
G01*
G37*
G36*
G01*
X43225000Y-46925000D02*
X42975000Y-46925000D01*
G75*
G02*
X42850000Y-46800000I0J125000D01*
G01*
X42850000Y-45550000D01*
G75*
G02*
X42975000Y-45425000I125000J0D01*
G01*
X43225000Y-45425000D01*
G75*
G02*
X43350000Y-45550000I0J-125000D01*
G01*
X43350000Y-46800000D01*
G75*
G02*
X43225000Y-46925000I-125000J0D01*
G01*
G37*
G36*
G01*
X44025000Y-46925000D02*
X43775000Y-46925000D01*
G75*
G02*
X43650000Y-46800000I0J125000D01*
G01*
X43650000Y-45550000D01*
G75*
G02*
X43775000Y-45425000I125000J0D01*
G01*
X44025000Y-45425000D01*
G75*
G02*
X44150000Y-45550000I0J-125000D01*
G01*
X44150000Y-46800000D01*
G75*
G02*
X44025000Y-46925000I-125000J0D01*
G01*
G37*
G36*
G01*
X44825000Y-46925000D02*
X44575000Y-46925000D01*
G75*
G02*
X44450000Y-46800000I0J125000D01*
G01*
X44450000Y-45550000D01*
G75*
G02*
X44575000Y-45425000I125000J0D01*
G01*
X44825000Y-45425000D01*
G75*
G02*
X44950000Y-45550000I0J-125000D01*
G01*
X44950000Y-46800000D01*
G75*
G02*
X44825000Y-46925000I-125000J0D01*
G01*
G37*
G36*
G01*
X45625000Y-46925000D02*
X45375000Y-46925000D01*
G75*
G02*
X45250000Y-46800000I0J125000D01*
G01*
X45250000Y-45550000D01*
G75*
G02*
X45375000Y-45425000I125000J0D01*
G01*
X45625000Y-45425000D01*
G75*
G02*
X45750000Y-45550000I0J-125000D01*
G01*
X45750000Y-46800000D01*
G75*
G02*
X45625000Y-46925000I-125000J0D01*
G01*
G37*
G36*
G01*
X46425000Y-46925000D02*
X46175000Y-46925000D01*
G75*
G02*
X46050000Y-46800000I0J125000D01*
G01*
X46050000Y-45550000D01*
G75*
G02*
X46175000Y-45425000I125000J0D01*
G01*
X46425000Y-45425000D01*
G75*
G02*
X46550000Y-45550000I0J-125000D01*
G01*
X46550000Y-46800000D01*
G75*
G02*
X46425000Y-46925000I-125000J0D01*
G01*
G37*
G36*
G01*
X48300000Y-45050000D02*
X47050000Y-45050000D01*
G75*
G02*
X46925000Y-44925000I0J125000D01*
G01*
X46925000Y-44675000D01*
G75*
G02*
X47050000Y-44550000I125000J0D01*
G01*
X48300000Y-44550000D01*
G75*
G02*
X48425000Y-44675000I0J-125000D01*
G01*
X48425000Y-44925000D01*
G75*
G02*
X48300000Y-45050000I-125000J0D01*
G01*
G37*
G36*
G01*
X48300000Y-44250000D02*
X47050000Y-44250000D01*
G75*
G02*
X46925000Y-44125000I0J125000D01*
G01*
X46925000Y-43875000D01*
G75*
G02*
X47050000Y-43750000I125000J0D01*
G01*
X48300000Y-43750000D01*
G75*
G02*
X48425000Y-43875000I0J-125000D01*
G01*
X48425000Y-44125000D01*
G75*
G02*
X48300000Y-44250000I-125000J0D01*
G01*
G37*
G36*
G01*
X48300000Y-43450000D02*
X47050000Y-43450000D01*
G75*
G02*
X46925000Y-43325000I0J125000D01*
G01*
X46925000Y-43075000D01*
G75*
G02*
X47050000Y-42950000I125000J0D01*
G01*
X48300000Y-42950000D01*
G75*
G02*
X48425000Y-43075000I0J-125000D01*
G01*
X48425000Y-43325000D01*
G75*
G02*
X48300000Y-43450000I-125000J0D01*
G01*
G37*
G36*
G01*
X48300000Y-42650000D02*
X47050000Y-42650000D01*
G75*
G02*
X46925000Y-42525000I0J125000D01*
G01*
X46925000Y-42275000D01*
G75*
G02*
X47050000Y-42150000I125000J0D01*
G01*
X48300000Y-42150000D01*
G75*
G02*
X48425000Y-42275000I0J-125000D01*
G01*
X48425000Y-42525000D01*
G75*
G02*
X48300000Y-42650000I-125000J0D01*
G01*
G37*
G36*
G01*
X48300000Y-41850000D02*
X47050000Y-41850000D01*
G75*
G02*
X46925000Y-41725000I0J125000D01*
G01*
X46925000Y-41475000D01*
G75*
G02*
X47050000Y-41350000I125000J0D01*
G01*
X48300000Y-41350000D01*
G75*
G02*
X48425000Y-41475000I0J-125000D01*
G01*
X48425000Y-41725000D01*
G75*
G02*
X48300000Y-41850000I-125000J0D01*
G01*
G37*
G36*
G01*
X48300000Y-41050000D02*
X47050000Y-41050000D01*
G75*
G02*
X46925000Y-40925000I0J125000D01*
G01*
X46925000Y-40675000D01*
G75*
G02*
X47050000Y-40550000I125000J0D01*
G01*
X48300000Y-40550000D01*
G75*
G02*
X48425000Y-40675000I0J-125000D01*
G01*
X48425000Y-40925000D01*
G75*
G02*
X48300000Y-41050000I-125000J0D01*
G01*
G37*
G36*
G01*
X48300000Y-40250000D02*
X47050000Y-40250000D01*
G75*
G02*
X46925000Y-40125000I0J125000D01*
G01*
X46925000Y-39875000D01*
G75*
G02*
X47050000Y-39750000I125000J0D01*
G01*
X48300000Y-39750000D01*
G75*
G02*
X48425000Y-39875000I0J-125000D01*
G01*
X48425000Y-40125000D01*
G75*
G02*
X48300000Y-40250000I-125000J0D01*
G01*
G37*
G36*
G01*
X48300000Y-39450000D02*
X47050000Y-39450000D01*
G75*
G02*
X46925000Y-39325000I0J125000D01*
G01*
X46925000Y-39075000D01*
G75*
G02*
X47050000Y-38950000I125000J0D01*
G01*
X48300000Y-38950000D01*
G75*
G02*
X48425000Y-39075000I0J-125000D01*
G01*
X48425000Y-39325000D01*
G75*
G02*
X48300000Y-39450000I-125000J0D01*
G01*
G37*
G36*
G01*
X46425000Y-38575000D02*
X46175000Y-38575000D01*
G75*
G02*
X46050000Y-38450000I0J125000D01*
G01*
X46050000Y-37200000D01*
G75*
G02*
X46175000Y-37075000I125000J0D01*
G01*
X46425000Y-37075000D01*
G75*
G02*
X46550000Y-37200000I0J-125000D01*
G01*
X46550000Y-38450000D01*
G75*
G02*
X46425000Y-38575000I-125000J0D01*
G01*
G37*
G36*
G01*
X45625000Y-38575000D02*
X45375000Y-38575000D01*
G75*
G02*
X45250000Y-38450000I0J125000D01*
G01*
X45250000Y-37200000D01*
G75*
G02*
X45375000Y-37075000I125000J0D01*
G01*
X45625000Y-37075000D01*
G75*
G02*
X45750000Y-37200000I0J-125000D01*
G01*
X45750000Y-38450000D01*
G75*
G02*
X45625000Y-38575000I-125000J0D01*
G01*
G37*
G36*
G01*
X44825000Y-38575000D02*
X44575000Y-38575000D01*
G75*
G02*
X44450000Y-38450000I0J125000D01*
G01*
X44450000Y-37200000D01*
G75*
G02*
X44575000Y-37075000I125000J0D01*
G01*
X44825000Y-37075000D01*
G75*
G02*
X44950000Y-37200000I0J-125000D01*
G01*
X44950000Y-38450000D01*
G75*
G02*
X44825000Y-38575000I-125000J0D01*
G01*
G37*
G36*
G01*
X44025000Y-38575000D02*
X43775000Y-38575000D01*
G75*
G02*
X43650000Y-38450000I0J125000D01*
G01*
X43650000Y-37200000D01*
G75*
G02*
X43775000Y-37075000I125000J0D01*
G01*
X44025000Y-37075000D01*
G75*
G02*
X44150000Y-37200000I0J-125000D01*
G01*
X44150000Y-38450000D01*
G75*
G02*
X44025000Y-38575000I-125000J0D01*
G01*
G37*
G36*
G01*
X43225000Y-38575000D02*
X42975000Y-38575000D01*
G75*
G02*
X42850000Y-38450000I0J125000D01*
G01*
X42850000Y-37200000D01*
G75*
G02*
X42975000Y-37075000I125000J0D01*
G01*
X43225000Y-37075000D01*
G75*
G02*
X43350000Y-37200000I0J-125000D01*
G01*
X43350000Y-38450000D01*
G75*
G02*
X43225000Y-38575000I-125000J0D01*
G01*
G37*
G36*
G01*
X42425000Y-38575000D02*
X42175000Y-38575000D01*
G75*
G02*
X42050000Y-38450000I0J125000D01*
G01*
X42050000Y-37200000D01*
G75*
G02*
X42175000Y-37075000I125000J0D01*
G01*
X42425000Y-37075000D01*
G75*
G02*
X42550000Y-37200000I0J-125000D01*
G01*
X42550000Y-38450000D01*
G75*
G02*
X42425000Y-38575000I-125000J0D01*
G01*
G37*
G36*
G01*
X41625000Y-38575000D02*
X41375000Y-38575000D01*
G75*
G02*
X41250000Y-38450000I0J125000D01*
G01*
X41250000Y-37200000D01*
G75*
G02*
X41375000Y-37075000I125000J0D01*
G01*
X41625000Y-37075000D01*
G75*
G02*
X41750000Y-37200000I0J-125000D01*
G01*
X41750000Y-38450000D01*
G75*
G02*
X41625000Y-38575000I-125000J0D01*
G01*
G37*
G36*
G01*
X40825000Y-38575000D02*
X40575000Y-38575000D01*
G75*
G02*
X40450000Y-38450000I0J125000D01*
G01*
X40450000Y-37200000D01*
G75*
G02*
X40575000Y-37075000I125000J0D01*
G01*
X40825000Y-37075000D01*
G75*
G02*
X40950000Y-37200000I0J-125000D01*
G01*
X40950000Y-38450000D01*
G75*
G02*
X40825000Y-38575000I-125000J0D01*
G01*
G37*
G36*
G01*
X39950000Y-39450000D02*
X38700000Y-39450000D01*
G75*
G02*
X38575000Y-39325000I0J125000D01*
G01*
X38575000Y-39075000D01*
G75*
G02*
X38700000Y-38950000I125000J0D01*
G01*
X39950000Y-38950000D01*
G75*
G02*
X40075000Y-39075000I0J-125000D01*
G01*
X40075000Y-39325000D01*
G75*
G02*
X39950000Y-39450000I-125000J0D01*
G01*
G37*
G36*
G01*
X39950000Y-40250000D02*
X38700000Y-40250000D01*
G75*
G02*
X38575000Y-40125000I0J125000D01*
G01*
X38575000Y-39875000D01*
G75*
G02*
X38700000Y-39750000I125000J0D01*
G01*
X39950000Y-39750000D01*
G75*
G02*
X40075000Y-39875000I0J-125000D01*
G01*
X40075000Y-40125000D01*
G75*
G02*
X39950000Y-40250000I-125000J0D01*
G01*
G37*
G36*
G01*
X39950000Y-41050000D02*
X38700000Y-41050000D01*
G75*
G02*
X38575000Y-40925000I0J125000D01*
G01*
X38575000Y-40675000D01*
G75*
G02*
X38700000Y-40550000I125000J0D01*
G01*
X39950000Y-40550000D01*
G75*
G02*
X40075000Y-40675000I0J-125000D01*
G01*
X40075000Y-40925000D01*
G75*
G02*
X39950000Y-41050000I-125000J0D01*
G01*
G37*
G36*
G01*
X39950000Y-41850000D02*
X38700000Y-41850000D01*
G75*
G02*
X38575000Y-41725000I0J125000D01*
G01*
X38575000Y-41475000D01*
G75*
G02*
X38700000Y-41350000I125000J0D01*
G01*
X39950000Y-41350000D01*
G75*
G02*
X40075000Y-41475000I0J-125000D01*
G01*
X40075000Y-41725000D01*
G75*
G02*
X39950000Y-41850000I-125000J0D01*
G01*
G37*
G36*
G01*
X39950000Y-42650000D02*
X38700000Y-42650000D01*
G75*
G02*
X38575000Y-42525000I0J125000D01*
G01*
X38575000Y-42275000D01*
G75*
G02*
X38700000Y-42150000I125000J0D01*
G01*
X39950000Y-42150000D01*
G75*
G02*
X40075000Y-42275000I0J-125000D01*
G01*
X40075000Y-42525000D01*
G75*
G02*
X39950000Y-42650000I-125000J0D01*
G01*
G37*
G36*
G01*
X39950000Y-43450000D02*
X38700000Y-43450000D01*
G75*
G02*
X38575000Y-43325000I0J125000D01*
G01*
X38575000Y-43075000D01*
G75*
G02*
X38700000Y-42950000I125000J0D01*
G01*
X39950000Y-42950000D01*
G75*
G02*
X40075000Y-43075000I0J-125000D01*
G01*
X40075000Y-43325000D01*
G75*
G02*
X39950000Y-43450000I-125000J0D01*
G01*
G37*
G36*
G01*
X39950000Y-44250000D02*
X38700000Y-44250000D01*
G75*
G02*
X38575000Y-44125000I0J125000D01*
G01*
X38575000Y-43875000D01*
G75*
G02*
X38700000Y-43750000I125000J0D01*
G01*
X39950000Y-43750000D01*
G75*
G02*
X40075000Y-43875000I0J-125000D01*
G01*
X40075000Y-44125000D01*
G75*
G02*
X39950000Y-44250000I-125000J0D01*
G01*
G37*
G36*
G01*
X39950000Y-45050000D02*
X38700000Y-45050000D01*
G75*
G02*
X38575000Y-44925000I0J125000D01*
G01*
X38575000Y-44675000D01*
G75*
G02*
X38700000Y-44550000I125000J0D01*
G01*
X39950000Y-44550000D01*
G75*
G02*
X40075000Y-44675000I0J-125000D01*
G01*
X40075000Y-44925000D01*
G75*
G02*
X39950000Y-45050000I-125000J0D01*
G01*
G37*
D18*
X43450000Y-17900000D03*
X42500000Y-17900000D03*
X44400000Y-17900000D03*
X44400000Y-20100000D03*
X43450000Y-20100000D03*
X42500000Y-20100000D03*
D15*
X24500000Y-42000000D03*
D16*
X24500000Y-47900000D03*
X19500000Y-45800000D03*
D17*
X19000000Y-42000000D03*
X30000000Y-42000000D03*
D15*
X24500000Y-78000000D03*
D16*
X24500000Y-83900000D03*
X19500000Y-81800000D03*
D17*
X19000000Y-78000000D03*
X30000000Y-78000000D03*
D15*
X43500000Y-60000000D03*
D16*
X43500000Y-65900000D03*
X38500000Y-63800000D03*
D17*
X38000000Y-60000000D03*
X49000000Y-60000000D03*
D15*
X43500000Y-78000000D03*
D16*
X43500000Y-83900000D03*
X38500000Y-81800000D03*
D17*
X38000000Y-78000000D03*
X49000000Y-78000000D03*
D15*
X62500000Y-24000000D03*
D16*
X62500000Y-29900000D03*
X57500000Y-27800000D03*
D17*
X57000000Y-24000000D03*
X68000000Y-24000000D03*
D15*
X62500000Y-42000000D03*
D16*
X62500000Y-47900000D03*
X57500000Y-45800000D03*
D17*
X57000000Y-42000000D03*
X68000000Y-42000000D03*
D15*
X62500000Y-78000000D03*
D16*
X62500000Y-83900000D03*
X57500000Y-81800000D03*
D17*
X57000000Y-78000000D03*
X68000000Y-78000000D03*
D15*
X86500000Y-24000000D03*
D16*
X86500000Y-29900000D03*
X81500000Y-27800000D03*
D17*
X81000000Y-24000000D03*
X92000000Y-24000000D03*
D15*
X86500000Y-60000000D03*
D16*
X86500000Y-65900000D03*
X81500000Y-63800000D03*
D17*
X81000000Y-60000000D03*
X92000000Y-60000000D03*
D15*
X86500000Y-78000000D03*
D16*
X86500000Y-83900000D03*
X81500000Y-81800000D03*
D17*
X81000000Y-78000000D03*
X92000000Y-78000000D03*
D15*
X105500000Y-24000000D03*
D16*
X105500000Y-29900000D03*
X100500000Y-27800000D03*
D17*
X100000000Y-24000000D03*
X111000000Y-24000000D03*
D15*
X105500000Y-42000000D03*
D16*
X105500000Y-47900000D03*
X100500000Y-45800000D03*
D17*
X100000000Y-42000000D03*
X111000000Y-42000000D03*
D15*
X105500000Y-60000000D03*
D16*
X105500000Y-65900000D03*
X100500000Y-63800000D03*
D17*
X100000000Y-60000000D03*
X111000000Y-60000000D03*
D15*
X124500000Y-24000000D03*
D16*
X124500000Y-29900000D03*
X119500000Y-27800000D03*
D17*
X119000000Y-24000000D03*
X130000000Y-24000000D03*
D15*
X124500000Y-42000000D03*
D16*
X124500000Y-47900000D03*
X119500000Y-45800000D03*
D17*
X119000000Y-42000000D03*
X130000000Y-42000000D03*
D15*
X124500000Y-60000000D03*
D16*
X124500000Y-65900000D03*
X119500000Y-63800000D03*
D17*
X119000000Y-60000000D03*
X130000000Y-60000000D03*
D15*
X124500000Y-78000000D03*
D16*
X124500000Y-83900000D03*
X119500000Y-81800000D03*
D17*
X119000000Y-78000000D03*
X130000000Y-78000000D03*
D15*
X143500000Y-24000000D03*
D16*
X143500000Y-29900000D03*
X138500000Y-27800000D03*
D17*
X138000000Y-24000000D03*
X149000000Y-24000000D03*
D15*
X143500000Y-60000000D03*
D16*
X143500000Y-65900000D03*
X138500000Y-63800000D03*
D17*
X138000000Y-60000000D03*
X149000000Y-60000000D03*
D15*
X143500000Y-78000000D03*
D16*
X143500000Y-83900000D03*
X138500000Y-81800000D03*
D17*
X138000000Y-78000000D03*
X149000000Y-78000000D03*
D19*
X27600000Y-10200000D03*
X25600000Y-10200000D03*
X23600000Y-10200000D03*
D16*
X29800000Y-10200000D03*
X21400000Y-10200000D03*
G36*
G01*
X38945000Y-26897500D02*
X39255000Y-26897500D01*
G75*
G02*
X39410000Y-27052500I0J-155000D01*
G01*
X39410000Y-27477500D01*
G75*
G02*
X39255000Y-27632500I-155000J0D01*
G01*
X38945000Y-27632500D01*
G75*
G02*
X38790000Y-27477500I0J155000D01*
G01*
X38790000Y-27052500D01*
G75*
G02*
X38945000Y-26897500I155000J0D01*
G01*
G37*
G36*
G01*
X38945000Y-28032500D02*
X39255000Y-28032500D01*
G75*
G02*
X39410000Y-28187500I0J-155000D01*
G01*
X39410000Y-28612500D01*
G75*
G02*
X39255000Y-28767500I-155000J0D01*
G01*
X38945000Y-28767500D01*
G75*
G02*
X38790000Y-28612500I0J155000D01*
G01*
X38790000Y-28187500D01*
G75*
G02*
X38945000Y-28032500I155000J0D01*
G01*
G37*
G36*
G01*
X35037500Y-28475000D02*
X35037500Y-27525000D01*
G75*
G02*
X35287500Y-27275000I250000J0D01*
G01*
X35962500Y-27275000D01*
G75*
G02*
X36212500Y-27525000I0J-250000D01*
G01*
X36212500Y-28475000D01*
G75*
G02*
X35962500Y-28725000I-250000J0D01*
G01*
X35287500Y-28725000D01*
G75*
G02*
X35037500Y-28475000I0J250000D01*
G01*
G37*
G36*
G01*
X37112500Y-28475000D02*
X37112500Y-27525000D01*
G75*
G02*
X37362500Y-27275000I250000J0D01*
G01*
X38037500Y-27275000D01*
G75*
G02*
X38287500Y-27525000I0J-250000D01*
G01*
X38287500Y-28475000D01*
G75*
G02*
X38037500Y-28725000I-250000J0D01*
G01*
X37362500Y-28725000D01*
G75*
G02*
X37112500Y-28475000I0J250000D01*
G01*
G37*
G36*
G01*
X41537500Y-49562500D02*
X41537500Y-50037500D01*
G75*
G02*
X41300000Y-50275000I-237500J0D01*
G01*
X40700000Y-50275000D01*
G75*
G02*
X40462500Y-50037500I0J237500D01*
G01*
X40462500Y-49562500D01*
G75*
G02*
X40700000Y-49325000I237500J0D01*
G01*
X41300000Y-49325000D01*
G75*
G02*
X41537500Y-49562500I0J-237500D01*
G01*
G37*
G36*
G01*
X43262500Y-49562500D02*
X43262500Y-50037500D01*
G75*
G02*
X43025000Y-50275000I-237500J0D01*
G01*
X42425000Y-50275000D01*
G75*
G02*
X42187500Y-50037500I0J237500D01*
G01*
X42187500Y-49562500D01*
G75*
G02*
X42425000Y-49325000I237500J0D01*
G01*
X43025000Y-49325000D01*
G75*
G02*
X43262500Y-49562500I0J-237500D01*
G01*
G37*
G36*
G01*
X35662500Y-46962500D02*
X36137500Y-46962500D01*
G75*
G02*
X36375000Y-47200000I0J-237500D01*
G01*
X36375000Y-47800000D01*
G75*
G02*
X36137500Y-48037500I-237500J0D01*
G01*
X35662500Y-48037500D01*
G75*
G02*
X35425000Y-47800000I0J237500D01*
G01*
X35425000Y-47200000D01*
G75*
G02*
X35662500Y-46962500I237500J0D01*
G01*
G37*
G36*
G01*
X35662500Y-48687500D02*
X36137500Y-48687500D01*
G75*
G02*
X36375000Y-48925000I0J-237500D01*
G01*
X36375000Y-49525000D01*
G75*
G02*
X36137500Y-49762500I-237500J0D01*
G01*
X35662500Y-49762500D01*
G75*
G02*
X35425000Y-49525000I0J237500D01*
G01*
X35425000Y-48925000D01*
G75*
G02*
X35662500Y-48687500I237500J0D01*
G01*
G37*
G36*
G01*
X62637500Y-10337500D02*
X62637500Y-9862500D01*
G75*
G02*
X62875000Y-9625000I237500J0D01*
G01*
X63475000Y-9625000D01*
G75*
G02*
X63712500Y-9862500I0J-237500D01*
G01*
X63712500Y-10337500D01*
G75*
G02*
X63475000Y-10575000I-237500J0D01*
G01*
X62875000Y-10575000D01*
G75*
G02*
X62637500Y-10337500I0J237500D01*
G01*
G37*
G36*
G01*
X64362500Y-10337500D02*
X64362500Y-9862500D01*
G75*
G02*
X64600000Y-9625000I237500J0D01*
G01*
X65200000Y-9625000D01*
G75*
G02*
X65437500Y-9862500I0J-237500D01*
G01*
X65437500Y-10337500D01*
G75*
G02*
X65200000Y-10575000I-237500J0D01*
G01*
X64600000Y-10575000D01*
G75*
G02*
X64362500Y-10337500I0J237500D01*
G01*
G37*
G36*
G01*
X41537500Y-48062500D02*
X41537500Y-48537500D01*
G75*
G02*
X41300000Y-48775000I-237500J0D01*
G01*
X40700000Y-48775000D01*
G75*
G02*
X40462500Y-48537500I0J237500D01*
G01*
X40462500Y-48062500D01*
G75*
G02*
X40700000Y-47825000I237500J0D01*
G01*
X41300000Y-47825000D01*
G75*
G02*
X41537500Y-48062500I0J-237500D01*
G01*
G37*
G36*
G01*
X43262500Y-48062500D02*
X43262500Y-48537500D01*
G75*
G02*
X43025000Y-48775000I-237500J0D01*
G01*
X42425000Y-48775000D01*
G75*
G02*
X42187500Y-48537500I0J237500D01*
G01*
X42187500Y-48062500D01*
G75*
G02*
X42425000Y-47825000I237500J0D01*
G01*
X43025000Y-47825000D01*
G75*
G02*
X43262500Y-48062500I0J-237500D01*
G01*
G37*
G36*
G01*
X37162500Y-48687500D02*
X37637500Y-48687500D01*
G75*
G02*
X37875000Y-48925000I0J-237500D01*
G01*
X37875000Y-49525000D01*
G75*
G02*
X37637500Y-49762500I-237500J0D01*
G01*
X37162500Y-49762500D01*
G75*
G02*
X36925000Y-49525000I0J237500D01*
G01*
X36925000Y-48925000D01*
G75*
G02*
X37162500Y-48687500I237500J0D01*
G01*
G37*
G36*
G01*
X37162500Y-46962500D02*
X37637500Y-46962500D01*
G75*
G02*
X37875000Y-47200000I0J-237500D01*
G01*
X37875000Y-47800000D01*
G75*
G02*
X37637500Y-48037500I-237500J0D01*
G01*
X37162500Y-48037500D01*
G75*
G02*
X36925000Y-47800000I0J237500D01*
G01*
X36925000Y-47200000D01*
G75*
G02*
X37162500Y-46962500I237500J0D01*
G01*
G37*
G36*
G01*
X38662500Y-46962500D02*
X39137500Y-46962500D01*
G75*
G02*
X39375000Y-47200000I0J-237500D01*
G01*
X39375000Y-47800000D01*
G75*
G02*
X39137500Y-48037500I-237500J0D01*
G01*
X38662500Y-48037500D01*
G75*
G02*
X38425000Y-47800000I0J237500D01*
G01*
X38425000Y-47200000D01*
G75*
G02*
X38662500Y-46962500I237500J0D01*
G01*
G37*
G36*
G01*
X38662500Y-48687500D02*
X39137500Y-48687500D01*
G75*
G02*
X39375000Y-48925000I0J-237500D01*
G01*
X39375000Y-49525000D01*
G75*
G02*
X39137500Y-49762500I-237500J0D01*
G01*
X38662500Y-49762500D01*
G75*
G02*
X38425000Y-49525000I0J237500D01*
G01*
X38425000Y-48925000D01*
G75*
G02*
X38662500Y-48687500I237500J0D01*
G01*
G37*
G36*
G01*
X48937500Y-34637500D02*
X48937500Y-34162500D01*
G75*
G02*
X49175000Y-33925000I237500J0D01*
G01*
X49775000Y-33925000D01*
G75*
G02*
X50012500Y-34162500I0J-237500D01*
G01*
X50012500Y-34637500D01*
G75*
G02*
X49775000Y-34875000I-237500J0D01*
G01*
X49175000Y-34875000D01*
G75*
G02*
X48937500Y-34637500I0J237500D01*
G01*
G37*
G36*
G01*
X50662500Y-34637500D02*
X50662500Y-34162500D01*
G75*
G02*
X50900000Y-33925000I237500J0D01*
G01*
X51500000Y-33925000D01*
G75*
G02*
X51737500Y-34162500I0J-237500D01*
G01*
X51737500Y-34637500D01*
G75*
G02*
X51500000Y-34875000I-237500J0D01*
G01*
X50900000Y-34875000D01*
G75*
G02*
X50662500Y-34637500I0J237500D01*
G01*
G37*
G36*
G01*
X50662500Y-36137500D02*
X50662500Y-35662500D01*
G75*
G02*
X50900000Y-35425000I237500J0D01*
G01*
X51500000Y-35425000D01*
G75*
G02*
X51737500Y-35662500I0J-237500D01*
G01*
X51737500Y-36137500D01*
G75*
G02*
X51500000Y-36375000I-237500J0D01*
G01*
X50900000Y-36375000D01*
G75*
G02*
X50662500Y-36137500I0J237500D01*
G01*
G37*
G36*
G01*
X48937500Y-36137500D02*
X48937500Y-35662500D01*
G75*
G02*
X49175000Y-35425000I237500J0D01*
G01*
X49775000Y-35425000D01*
G75*
G02*
X50012500Y-35662500I0J-237500D01*
G01*
X50012500Y-36137500D01*
G75*
G02*
X49775000Y-36375000I-237500J0D01*
G01*
X49175000Y-36375000D01*
G75*
G02*
X48937500Y-36137500I0J237500D01*
G01*
G37*
G36*
G01*
X37925000Y-17437500D02*
X37925000Y-16962500D01*
G75*
G02*
X38162500Y-16725000I237500J0D01*
G01*
X38737500Y-16725000D01*
G75*
G02*
X38975000Y-16962500I0J-237500D01*
G01*
X38975000Y-17437500D01*
G75*
G02*
X38737500Y-17675000I-237500J0D01*
G01*
X38162500Y-17675000D01*
G75*
G02*
X37925000Y-17437500I0J237500D01*
G01*
G37*
G36*
G01*
X39675000Y-17437500D02*
X39675000Y-16962500D01*
G75*
G02*
X39912500Y-16725000I237500J0D01*
G01*
X40487500Y-16725000D01*
G75*
G02*
X40725000Y-16962500I0J-237500D01*
G01*
X40725000Y-17437500D01*
G75*
G02*
X40487500Y-17675000I-237500J0D01*
G01*
X39912500Y-17675000D01*
G75*
G02*
X39675000Y-17437500I0J237500D01*
G01*
G37*
D20*
X47820000Y-14000000D03*
X39180000Y-14000000D03*
D21*
X47820000Y-9820000D03*
X39180000Y-9820000D03*
D22*
X40610000Y-13500000D03*
X46390000Y-13500000D03*
D23*
X43750000Y-14570000D03*
X44250000Y-14570000D03*
X44750000Y-14570000D03*
X45250000Y-14570000D03*
X43250000Y-14570000D03*
X42750000Y-14570000D03*
X42250000Y-14570000D03*
X41750000Y-14570000D03*
D24*
X45900000Y-14570000D03*
X46700000Y-14570000D03*
X41100000Y-14570000D03*
X40300000Y-14570000D03*
D25*
X83920000Y-11700000D03*
D26*
X83920000Y-10430000D03*
X85190000Y-11700000D03*
X85190000Y-10430000D03*
X86460000Y-11700000D03*
X86460000Y-10430000D03*
X87730000Y-11700000D03*
X87730000Y-10430000D03*
X89000000Y-11700000D03*
X89000000Y-10430000D03*
D27*
X36200000Y-44100000D03*
D28*
X36200000Y-41560000D03*
X36200000Y-39020000D03*
D27*
X109320000Y-11000000D03*
D28*
X106780000Y-11000000D03*
X104240000Y-11000000D03*
X101700000Y-11000000D03*
D29*
X33900000Y-13800000D03*
X33900000Y-11900000D03*
X31900000Y-12850000D03*
G36*
G01*
X35162500Y-11612500D02*
X35637500Y-11612500D01*
G75*
G02*
X35875000Y-11850000I0J-237500D01*
G01*
X35875000Y-12350000D01*
G75*
G02*
X35637500Y-12587500I-237500J0D01*
G01*
X35162500Y-12587500D01*
G75*
G02*
X34925000Y-12350000I0J237500D01*
G01*
X34925000Y-11850000D01*
G75*
G02*
X35162500Y-11612500I237500J0D01*
G01*
G37*
G36*
G01*
X35162500Y-13437500D02*
X35637500Y-13437500D01*
G75*
G02*
X35875000Y-13675000I0J-237500D01*
G01*
X35875000Y-14175000D01*
G75*
G02*
X35637500Y-14412500I-237500J0D01*
G01*
X35162500Y-14412500D01*
G75*
G02*
X34925000Y-14175000I0J237500D01*
G01*
X34925000Y-13675000D01*
G75*
G02*
X35162500Y-13437500I237500J0D01*
G01*
G37*
G36*
G01*
X36662500Y-16712500D02*
X37137500Y-16712500D01*
G75*
G02*
X37375000Y-16950000I0J-237500D01*
G01*
X37375000Y-17450000D01*
G75*
G02*
X37137500Y-17687500I-237500J0D01*
G01*
X36662500Y-17687500D01*
G75*
G02*
X36425000Y-17450000I0J237500D01*
G01*
X36425000Y-16950000D01*
G75*
G02*
X36662500Y-16712500I237500J0D01*
G01*
G37*
G36*
G01*
X36662500Y-14887500D02*
X37137500Y-14887500D01*
G75*
G02*
X37375000Y-15125000I0J-237500D01*
G01*
X37375000Y-15625000D01*
G75*
G02*
X37137500Y-15862500I-237500J0D01*
G01*
X36662500Y-15862500D01*
G75*
G02*
X36425000Y-15625000I0J237500D01*
G01*
X36425000Y-15125000D01*
G75*
G02*
X36662500Y-14887500I237500J0D01*
G01*
G37*
G36*
G01*
X39862500Y-33112500D02*
X40337500Y-33112500D01*
G75*
G02*
X40575000Y-33350000I0J-237500D01*
G01*
X40575000Y-33850000D01*
G75*
G02*
X40337500Y-34087500I-237500J0D01*
G01*
X39862500Y-34087500D01*
G75*
G02*
X39625000Y-33850000I0J237500D01*
G01*
X39625000Y-33350000D01*
G75*
G02*
X39862500Y-33112500I237500J0D01*
G01*
G37*
G36*
G01*
X39862500Y-31287500D02*
X40337500Y-31287500D01*
G75*
G02*
X40575000Y-31525000I0J-237500D01*
G01*
X40575000Y-32025000D01*
G75*
G02*
X40337500Y-32262500I-237500J0D01*
G01*
X39862500Y-32262500D01*
G75*
G02*
X39625000Y-32025000I0J237500D01*
G01*
X39625000Y-31525000D01*
G75*
G02*
X39862500Y-31287500I237500J0D01*
G01*
G37*
G36*
G01*
X38162500Y-31300000D02*
X38637500Y-31300000D01*
G75*
G02*
X38875000Y-31537500I0J-237500D01*
G01*
X38875000Y-32037500D01*
G75*
G02*
X38637500Y-32275000I-237500J0D01*
G01*
X38162500Y-32275000D01*
G75*
G02*
X37925000Y-32037500I0J237500D01*
G01*
X37925000Y-31537500D01*
G75*
G02*
X38162500Y-31300000I237500J0D01*
G01*
G37*
G36*
G01*
X38162500Y-33125000D02*
X38637500Y-33125000D01*
G75*
G02*
X38875000Y-33362500I0J-237500D01*
G01*
X38875000Y-33862500D01*
G75*
G02*
X38637500Y-34100000I-237500J0D01*
G01*
X38162500Y-34100000D01*
G75*
G02*
X37925000Y-33862500I0J237500D01*
G01*
X37925000Y-33362500D01*
G75*
G02*
X38162500Y-33125000I237500J0D01*
G01*
G37*
G36*
G01*
X63662500Y-12462500D02*
X63662500Y-12937500D01*
G75*
G02*
X63425000Y-13175000I-237500J0D01*
G01*
X62925000Y-13175000D01*
G75*
G02*
X62687500Y-12937500I0J237500D01*
G01*
X62687500Y-12462500D01*
G75*
G02*
X62925000Y-12225000I237500J0D01*
G01*
X63425000Y-12225000D01*
G75*
G02*
X63662500Y-12462500I0J-237500D01*
G01*
G37*
G36*
G01*
X65487500Y-12462500D02*
X65487500Y-12937500D01*
G75*
G02*
X65250000Y-13175000I-237500J0D01*
G01*
X64750000Y-13175000D01*
G75*
G02*
X64512500Y-12937500I0J237500D01*
G01*
X64512500Y-12462500D01*
G75*
G02*
X64750000Y-12225000I237500J0D01*
G01*
X65250000Y-12225000D01*
G75*
G02*
X65487500Y-12462500I0J-237500D01*
G01*
G37*
G36*
G01*
X48562500Y-16962500D02*
X48562500Y-17437500D01*
G75*
G02*
X48325000Y-17675000I-237500J0D01*
G01*
X47825000Y-17675000D01*
G75*
G02*
X47587500Y-17437500I0J237500D01*
G01*
X47587500Y-16962500D01*
G75*
G02*
X47825000Y-16725000I237500J0D01*
G01*
X48325000Y-16725000D01*
G75*
G02*
X48562500Y-16962500I0J-237500D01*
G01*
G37*
G36*
G01*
X50387500Y-16962500D02*
X50387500Y-17437500D01*
G75*
G02*
X50150000Y-17675000I-237500J0D01*
G01*
X49650000Y-17675000D01*
G75*
G02*
X49412500Y-17437500I0J237500D01*
G01*
X49412500Y-16962500D01*
G75*
G02*
X49650000Y-16725000I237500J0D01*
G01*
X50150000Y-16725000D01*
G75*
G02*
X50387500Y-16962500I0J-237500D01*
G01*
G37*
G36*
G01*
X47600000Y-18937500D02*
X47600000Y-18462500D01*
G75*
G02*
X47837500Y-18225000I237500J0D01*
G01*
X48337500Y-18225000D01*
G75*
G02*
X48575000Y-18462500I0J-237500D01*
G01*
X48575000Y-18937500D01*
G75*
G02*
X48337500Y-19175000I-237500J0D01*
G01*
X47837500Y-19175000D01*
G75*
G02*
X47600000Y-18937500I0J237500D01*
G01*
G37*
G36*
G01*
X49425000Y-18937500D02*
X49425000Y-18462500D01*
G75*
G02*
X49662500Y-18225000I237500J0D01*
G01*
X50162500Y-18225000D01*
G75*
G02*
X50400000Y-18462500I0J-237500D01*
G01*
X50400000Y-18937500D01*
G75*
G02*
X50162500Y-19175000I-237500J0D01*
G01*
X49662500Y-19175000D01*
G75*
G02*
X49425000Y-18937500I0J237500D01*
G01*
G37*
G36*
G01*
X44637500Y-24287500D02*
X44162500Y-24287500D01*
G75*
G02*
X43925000Y-24050000I0J237500D01*
G01*
X43925000Y-23550000D01*
G75*
G02*
X44162500Y-23312500I237500J0D01*
G01*
X44637500Y-23312500D01*
G75*
G02*
X44875000Y-23550000I0J-237500D01*
G01*
X44875000Y-24050000D01*
G75*
G02*
X44637500Y-24287500I-237500J0D01*
G01*
G37*
G36*
G01*
X44637500Y-22462500D02*
X44162500Y-22462500D01*
G75*
G02*
X43925000Y-22225000I0J237500D01*
G01*
X43925000Y-21725000D01*
G75*
G02*
X44162500Y-21487500I237500J0D01*
G01*
X44637500Y-21487500D01*
G75*
G02*
X44875000Y-21725000I0J-237500D01*
G01*
X44875000Y-22225000D01*
G75*
G02*
X44637500Y-22462500I-237500J0D01*
G01*
G37*
G36*
G01*
X42262500Y-21487500D02*
X42737500Y-21487500D01*
G75*
G02*
X42975000Y-21725000I0J-237500D01*
G01*
X42975000Y-22225000D01*
G75*
G02*
X42737500Y-22462500I-237500J0D01*
G01*
X42262500Y-22462500D01*
G75*
G02*
X42025000Y-22225000I0J237500D01*
G01*
X42025000Y-21725000D01*
G75*
G02*
X42262500Y-21487500I237500J0D01*
G01*
G37*
G36*
G01*
X42262500Y-23312500D02*
X42737500Y-23312500D01*
G75*
G02*
X42975000Y-23550000I0J-237500D01*
G01*
X42975000Y-24050000D01*
G75*
G02*
X42737500Y-24287500I-237500J0D01*
G01*
X42262500Y-24287500D01*
G75*
G02*
X42025000Y-24050000I0J237500D01*
G01*
X42025000Y-23550000D01*
G75*
G02*
X42262500Y-23312500I237500J0D01*
G01*
G37*
G36*
G01*
X46237500Y-20675000D02*
X45762500Y-20675000D01*
G75*
G02*
X45525000Y-20437500I0J237500D01*
G01*
X45525000Y-19937500D01*
G75*
G02*
X45762500Y-19700000I237500J0D01*
G01*
X46237500Y-19700000D01*
G75*
G02*
X46475000Y-19937500I0J-237500D01*
G01*
X46475000Y-20437500D01*
G75*
G02*
X46237500Y-20675000I-237500J0D01*
G01*
G37*
G36*
G01*
X46237500Y-22500000D02*
X45762500Y-22500000D01*
G75*
G02*
X45525000Y-22262500I0J237500D01*
G01*
X45525000Y-21762500D01*
G75*
G02*
X45762500Y-21525000I237500J0D01*
G01*
X46237500Y-21525000D01*
G75*
G02*
X46475000Y-21762500I0J-237500D01*
G01*
X46475000Y-22262500D01*
G75*
G02*
X46237500Y-22500000I-237500J0D01*
G01*
G37*
G36*
G01*
X41137500Y-20662500D02*
X40662500Y-20662500D01*
G75*
G02*
X40425000Y-20425000I0J237500D01*
G01*
X40425000Y-19925000D01*
G75*
G02*
X40662500Y-19687500I237500J0D01*
G01*
X41137500Y-19687500D01*
G75*
G02*
X41375000Y-19925000I0J-237500D01*
G01*
X41375000Y-20425000D01*
G75*
G02*
X41137500Y-20662500I-237500J0D01*
G01*
G37*
G36*
G01*
X41137500Y-22487500D02*
X40662500Y-22487500D01*
G75*
G02*
X40425000Y-22250000I0J237500D01*
G01*
X40425000Y-21750000D01*
G75*
G02*
X40662500Y-21512500I237500J0D01*
G01*
X41137500Y-21512500D01*
G75*
G02*
X41375000Y-21750000I0J-237500D01*
G01*
X41375000Y-22250000D01*
G75*
G02*
X41137500Y-22487500I-237500J0D01*
G01*
G37*
G36*
G01*
X36937500Y-34112500D02*
X36462500Y-34112500D01*
G75*
G02*
X36225000Y-33875000I0J237500D01*
G01*
X36225000Y-33375000D01*
G75*
G02*
X36462500Y-33137500I237500J0D01*
G01*
X36937500Y-33137500D01*
G75*
G02*
X37175000Y-33375000I0J-237500D01*
G01*
X37175000Y-33875000D01*
G75*
G02*
X36937500Y-34112500I-237500J0D01*
G01*
G37*
G36*
G01*
X36937500Y-32287500D02*
X36462500Y-32287500D01*
G75*
G02*
X36225000Y-32050000I0J237500D01*
G01*
X36225000Y-31550000D01*
G75*
G02*
X36462500Y-31312500I237500J0D01*
G01*
X36937500Y-31312500D01*
G75*
G02*
X37175000Y-31550000I0J-237500D01*
G01*
X37175000Y-32050000D01*
G75*
G02*
X36937500Y-32287500I-237500J0D01*
G01*
G37*
G36*
G01*
X50812500Y-29537500D02*
X50812500Y-29062500D01*
G75*
G02*
X51050000Y-28825000I237500J0D01*
G01*
X51550000Y-28825000D01*
G75*
G02*
X51787500Y-29062500I0J-237500D01*
G01*
X51787500Y-29537500D01*
G75*
G02*
X51550000Y-29775000I-237500J0D01*
G01*
X51050000Y-29775000D01*
G75*
G02*
X50812500Y-29537500I0J237500D01*
G01*
G37*
G36*
G01*
X48987500Y-29537500D02*
X48987500Y-29062500D01*
G75*
G02*
X49225000Y-28825000I237500J0D01*
G01*
X49725000Y-28825000D01*
G75*
G02*
X49962500Y-29062500I0J-237500D01*
G01*
X49962500Y-29537500D01*
G75*
G02*
X49725000Y-29775000I-237500J0D01*
G01*
X49225000Y-29775000D01*
G75*
G02*
X48987500Y-29537500I0J237500D01*
G01*
G37*
G36*
G01*
X48987500Y-31037500D02*
X48987500Y-30562500D01*
G75*
G02*
X49225000Y-30325000I237500J0D01*
G01*
X49725000Y-30325000D01*
G75*
G02*
X49962500Y-30562500I0J-237500D01*
G01*
X49962500Y-31037500D01*
G75*
G02*
X49725000Y-31275000I-237500J0D01*
G01*
X49225000Y-31275000D01*
G75*
G02*
X48987500Y-31037500I0J237500D01*
G01*
G37*
G36*
G01*
X50812500Y-31037500D02*
X50812500Y-30562500D01*
G75*
G02*
X51050000Y-30325000I237500J0D01*
G01*
X51550000Y-30325000D01*
G75*
G02*
X51787500Y-30562500I0J-237500D01*
G01*
X51787500Y-31037500D01*
G75*
G02*
X51550000Y-31275000I-237500J0D01*
G01*
X51050000Y-31275000D01*
G75*
G02*
X50812500Y-31037500I0J237500D01*
G01*
G37*
G36*
G01*
X50812500Y-32537500D02*
X50812500Y-32062500D01*
G75*
G02*
X51050000Y-31825000I237500J0D01*
G01*
X51550000Y-31825000D01*
G75*
G02*
X51787500Y-32062500I0J-237500D01*
G01*
X51787500Y-32537500D01*
G75*
G02*
X51550000Y-32775000I-237500J0D01*
G01*
X51050000Y-32775000D01*
G75*
G02*
X50812500Y-32537500I0J237500D01*
G01*
G37*
G36*
G01*
X48987500Y-32537500D02*
X48987500Y-32062500D01*
G75*
G02*
X49225000Y-31825000I237500J0D01*
G01*
X49725000Y-31825000D01*
G75*
G02*
X49962500Y-32062500I0J-237500D01*
G01*
X49962500Y-32537500D01*
G75*
G02*
X49725000Y-32775000I-237500J0D01*
G01*
X49225000Y-32775000D01*
G75*
G02*
X48987500Y-32537500I0J237500D01*
G01*
G37*
G36*
G01*
X49387500Y-41837500D02*
X49387500Y-41362500D01*
G75*
G02*
X49625000Y-41125000I237500J0D01*
G01*
X50125000Y-41125000D01*
G75*
G02*
X50362500Y-41362500I0J-237500D01*
G01*
X50362500Y-41837500D01*
G75*
G02*
X50125000Y-42075000I-237500J0D01*
G01*
X49625000Y-42075000D01*
G75*
G02*
X49387500Y-41837500I0J237500D01*
G01*
G37*
G36*
G01*
X51212500Y-41837500D02*
X51212500Y-41362500D01*
G75*
G02*
X51450000Y-41125000I237500J0D01*
G01*
X51950000Y-41125000D01*
G75*
G02*
X52187500Y-41362500I0J-237500D01*
G01*
X52187500Y-41837500D01*
G75*
G02*
X51950000Y-42075000I-237500J0D01*
G01*
X51450000Y-42075000D01*
G75*
G02*
X51212500Y-41837500I0J237500D01*
G01*
G37*
G36*
G01*
X41062500Y-26787500D02*
X41537500Y-26787500D01*
G75*
G02*
X41775000Y-27025000I0J-237500D01*
G01*
X41775000Y-27525000D01*
G75*
G02*
X41537500Y-27762500I-237500J0D01*
G01*
X41062500Y-27762500D01*
G75*
G02*
X40825000Y-27525000I0J237500D01*
G01*
X40825000Y-27025000D01*
G75*
G02*
X41062500Y-26787500I237500J0D01*
G01*
G37*
G36*
G01*
X41062500Y-28612500D02*
X41537500Y-28612500D01*
G75*
G02*
X41775000Y-28850000I0J-237500D01*
G01*
X41775000Y-29350000D01*
G75*
G02*
X41537500Y-29587500I-237500J0D01*
G01*
X41062500Y-29587500D01*
G75*
G02*
X40825000Y-29350000I0J237500D01*
G01*
X40825000Y-28850000D01*
G75*
G02*
X41062500Y-28612500I237500J0D01*
G01*
G37*
G36*
G01*
X48812500Y-25637500D02*
X48812500Y-25162500D01*
G75*
G02*
X49050000Y-24925000I237500J0D01*
G01*
X49550000Y-24925000D01*
G75*
G02*
X49787500Y-25162500I0J-237500D01*
G01*
X49787500Y-25637500D01*
G75*
G02*
X49550000Y-25875000I-237500J0D01*
G01*
X49050000Y-25875000D01*
G75*
G02*
X48812500Y-25637500I0J237500D01*
G01*
G37*
G36*
G01*
X46987500Y-25637500D02*
X46987500Y-25162500D01*
G75*
G02*
X47225000Y-24925000I237500J0D01*
G01*
X47725000Y-24925000D01*
G75*
G02*
X47962500Y-25162500I0J-237500D01*
G01*
X47962500Y-25637500D01*
G75*
G02*
X47725000Y-25875000I-237500J0D01*
G01*
X47225000Y-25875000D01*
G75*
G02*
X46987500Y-25637500I0J237500D01*
G01*
G37*
D30*
X52700000Y-11000000D03*
X59200000Y-11000000D03*
D31*
X39100000Y-25150000D03*
X36100000Y-25150000D03*
X39100000Y-20450000D03*
X36100000Y-20450000D03*
D10*
G36*
X38100000Y-23700000D02*
G01*
X38100000Y-26400000D01*
X37100000Y-26400000D01*
X37100000Y-23700000D01*
X36600000Y-23200000D01*
X36600000Y-22400000D01*
X37100000Y-21900000D01*
X37100000Y-19200000D01*
X38100000Y-19200000D01*
X38100000Y-21900000D01*
X38600000Y-22400000D01*
X38600000Y-23200000D01*
X38100000Y-23700000D01*
G37*
M02*
