G04 #@! TF.GenerationSoftware,KiCad,Pcbnew,(5.1.10)-1*
G04 #@! TF.CreationDate,2021-08-19T21:12:26+09:00*
G04 #@! TF.ProjectId,cnc-controller,636e632d-636f-46e7-9472-6f6c6c65722e,rev?*
G04 #@! TF.SameCoordinates,Original*
G04 #@! TF.FileFunction,Soldermask,Bot*
G04 #@! TF.FilePolarity,Negative*
%FSLAX46Y46*%
G04 Gerber Fmt 4.6, Leading zero omitted, Abs format (unit mm)*
G04 Created by KiCad (PCBNEW (5.1.10)-1) date 2021-08-19 21:12:26*
%MOMM*%
%LPD*%
G01*
G04 APERTURE LIST*
%ADD10C,3.200000*%
%ADD11R,0.900000X0.950000*%
%ADD12R,1.600000X0.820000*%
%ADD13C,3.400000*%
%ADD14C,2.000000*%
%ADD15C,1.900000*%
%ADD16C,1.462000*%
%ADD17O,1.000000X2.100000*%
%ADD18O,1.000000X1.800000*%
%ADD19C,0.650000*%
%ADD20R,1.000000X1.000000*%
%ADD21O,1.000000X1.000000*%
%ADD22R,1.700000X1.700000*%
%ADD23O,1.700000X1.700000*%
%ADD24C,2.100000*%
G04 APERTURE END LIST*
D10*
X74500000Y-11000000D03*
X16000000Y-11000000D03*
X152000000Y-11000000D03*
X74500000Y-89000000D03*
X152000000Y-89000000D03*
X16000000Y-89000000D03*
G36*
G01*
X18600000Y-19650000D02*
X19100000Y-19650000D01*
G75*
G02*
X19325000Y-19875000I0J-225000D01*
G01*
X19325000Y-20325000D01*
G75*
G02*
X19100000Y-20550000I-225000J0D01*
G01*
X18600000Y-20550000D01*
G75*
G02*
X18375000Y-20325000I0J225000D01*
G01*
X18375000Y-19875000D01*
G75*
G02*
X18600000Y-19650000I225000J0D01*
G01*
G37*
G36*
G01*
X18600000Y-18050000D02*
X19100000Y-18050000D01*
G75*
G02*
X19325000Y-18275000I0J-225000D01*
G01*
X19325000Y-18725000D01*
G75*
G02*
X19100000Y-18950000I-225000J0D01*
G01*
X18600000Y-18950000D01*
G75*
G02*
X18375000Y-18725000I0J225000D01*
G01*
X18375000Y-18275000D01*
G75*
G02*
X18600000Y-18050000I225000J0D01*
G01*
G37*
D11*
X30650000Y-30000000D03*
X27500000Y-30000000D03*
D12*
X27700000Y-20050000D03*
X27700000Y-18550000D03*
X21300000Y-20050000D03*
X21300000Y-18550000D03*
D13*
X24500000Y-24000000D03*
D14*
X24500000Y-29900000D03*
X19500000Y-27800000D03*
D15*
X19000000Y-24000000D03*
X30000000Y-24000000D03*
G36*
G01*
X137600000Y-37650000D02*
X138100000Y-37650000D01*
G75*
G02*
X138325000Y-37875000I0J-225000D01*
G01*
X138325000Y-38325000D01*
G75*
G02*
X138100000Y-38550000I-225000J0D01*
G01*
X137600000Y-38550000D01*
G75*
G02*
X137375000Y-38325000I0J225000D01*
G01*
X137375000Y-37875000D01*
G75*
G02*
X137600000Y-37650000I225000J0D01*
G01*
G37*
G36*
G01*
X137600000Y-36050000D02*
X138100000Y-36050000D01*
G75*
G02*
X138325000Y-36275000I0J-225000D01*
G01*
X138325000Y-36725000D01*
G75*
G02*
X138100000Y-36950000I-225000J0D01*
G01*
X137600000Y-36950000D01*
G75*
G02*
X137375000Y-36725000I0J225000D01*
G01*
X137375000Y-36275000D01*
G75*
G02*
X137600000Y-36050000I225000J0D01*
G01*
G37*
D11*
X149650000Y-48000000D03*
X146500000Y-48000000D03*
D12*
X146700000Y-38050000D03*
X146700000Y-36550000D03*
X140300000Y-38050000D03*
X140300000Y-36550000D03*
D13*
X143500000Y-42000000D03*
D14*
X143500000Y-47900000D03*
X138500000Y-45800000D03*
D15*
X138000000Y-42000000D03*
X149000000Y-42000000D03*
G36*
G01*
X99600000Y-73650000D02*
X100100000Y-73650000D01*
G75*
G02*
X100325000Y-73875000I0J-225000D01*
G01*
X100325000Y-74325000D01*
G75*
G02*
X100100000Y-74550000I-225000J0D01*
G01*
X99600000Y-74550000D01*
G75*
G02*
X99375000Y-74325000I0J225000D01*
G01*
X99375000Y-73875000D01*
G75*
G02*
X99600000Y-73650000I225000J0D01*
G01*
G37*
G36*
G01*
X99600000Y-72050000D02*
X100100000Y-72050000D01*
G75*
G02*
X100325000Y-72275000I0J-225000D01*
G01*
X100325000Y-72725000D01*
G75*
G02*
X100100000Y-72950000I-225000J0D01*
G01*
X99600000Y-72950000D01*
G75*
G02*
X99375000Y-72725000I0J225000D01*
G01*
X99375000Y-72275000D01*
G75*
G02*
X99600000Y-72050000I225000J0D01*
G01*
G37*
D11*
X111650000Y-84000000D03*
X108500000Y-84000000D03*
D12*
X108700000Y-74050000D03*
X108700000Y-72550000D03*
X102300000Y-74050000D03*
X102300000Y-72550000D03*
D13*
X105500000Y-78000000D03*
D14*
X105500000Y-83900000D03*
X100500000Y-81800000D03*
D15*
X100000000Y-78000000D03*
X111000000Y-78000000D03*
G36*
G01*
X80600000Y-37650000D02*
X81100000Y-37650000D01*
G75*
G02*
X81325000Y-37875000I0J-225000D01*
G01*
X81325000Y-38325000D01*
G75*
G02*
X81100000Y-38550000I-225000J0D01*
G01*
X80600000Y-38550000D01*
G75*
G02*
X80375000Y-38325000I0J225000D01*
G01*
X80375000Y-37875000D01*
G75*
G02*
X80600000Y-37650000I225000J0D01*
G01*
G37*
G36*
G01*
X80600000Y-36050000D02*
X81100000Y-36050000D01*
G75*
G02*
X81325000Y-36275000I0J-225000D01*
G01*
X81325000Y-36725000D01*
G75*
G02*
X81100000Y-36950000I-225000J0D01*
G01*
X80600000Y-36950000D01*
G75*
G02*
X80375000Y-36725000I0J225000D01*
G01*
X80375000Y-36275000D01*
G75*
G02*
X80600000Y-36050000I225000J0D01*
G01*
G37*
D11*
X92650000Y-48000000D03*
X89500000Y-48000000D03*
D12*
X89700000Y-38050000D03*
X89700000Y-36550000D03*
X83300000Y-38050000D03*
X83300000Y-36550000D03*
D13*
X86500000Y-42000000D03*
D14*
X86500000Y-47900000D03*
X81500000Y-45800000D03*
D15*
X81000000Y-42000000D03*
X92000000Y-42000000D03*
G36*
G01*
X18600000Y-37650000D02*
X19100000Y-37650000D01*
G75*
G02*
X19325000Y-37875000I0J-225000D01*
G01*
X19325000Y-38325000D01*
G75*
G02*
X19100000Y-38550000I-225000J0D01*
G01*
X18600000Y-38550000D01*
G75*
G02*
X18375000Y-38325000I0J225000D01*
G01*
X18375000Y-37875000D01*
G75*
G02*
X18600000Y-37650000I225000J0D01*
G01*
G37*
G36*
G01*
X18600000Y-36050000D02*
X19100000Y-36050000D01*
G75*
G02*
X19325000Y-36275000I0J-225000D01*
G01*
X19325000Y-36725000D01*
G75*
G02*
X19100000Y-36950000I-225000J0D01*
G01*
X18600000Y-36950000D01*
G75*
G02*
X18375000Y-36725000I0J225000D01*
G01*
X18375000Y-36275000D01*
G75*
G02*
X18600000Y-36050000I225000J0D01*
G01*
G37*
D11*
X30650000Y-48000000D03*
X27500000Y-48000000D03*
D12*
X27700000Y-38050000D03*
X27700000Y-36550000D03*
X21300000Y-38050000D03*
X21300000Y-36550000D03*
D13*
X24500000Y-42000000D03*
D14*
X24500000Y-47900000D03*
X19500000Y-45800000D03*
D15*
X19000000Y-42000000D03*
X30000000Y-42000000D03*
G36*
G01*
X18600000Y-73650000D02*
X19100000Y-73650000D01*
G75*
G02*
X19325000Y-73875000I0J-225000D01*
G01*
X19325000Y-74325000D01*
G75*
G02*
X19100000Y-74550000I-225000J0D01*
G01*
X18600000Y-74550000D01*
G75*
G02*
X18375000Y-74325000I0J225000D01*
G01*
X18375000Y-73875000D01*
G75*
G02*
X18600000Y-73650000I225000J0D01*
G01*
G37*
G36*
G01*
X18600000Y-72050000D02*
X19100000Y-72050000D01*
G75*
G02*
X19325000Y-72275000I0J-225000D01*
G01*
X19325000Y-72725000D01*
G75*
G02*
X19100000Y-72950000I-225000J0D01*
G01*
X18600000Y-72950000D01*
G75*
G02*
X18375000Y-72725000I0J225000D01*
G01*
X18375000Y-72275000D01*
G75*
G02*
X18600000Y-72050000I225000J0D01*
G01*
G37*
D11*
X30650000Y-84000000D03*
X27500000Y-84000000D03*
D12*
X27700000Y-74050000D03*
X27700000Y-72550000D03*
X21300000Y-74050000D03*
X21300000Y-72550000D03*
D13*
X24500000Y-78000000D03*
D14*
X24500000Y-83900000D03*
X19500000Y-81800000D03*
D15*
X19000000Y-78000000D03*
X30000000Y-78000000D03*
G36*
G01*
X37600000Y-55650000D02*
X38100000Y-55650000D01*
G75*
G02*
X38325000Y-55875000I0J-225000D01*
G01*
X38325000Y-56325000D01*
G75*
G02*
X38100000Y-56550000I-225000J0D01*
G01*
X37600000Y-56550000D01*
G75*
G02*
X37375000Y-56325000I0J225000D01*
G01*
X37375000Y-55875000D01*
G75*
G02*
X37600000Y-55650000I225000J0D01*
G01*
G37*
G36*
G01*
X37600000Y-54050000D02*
X38100000Y-54050000D01*
G75*
G02*
X38325000Y-54275000I0J-225000D01*
G01*
X38325000Y-54725000D01*
G75*
G02*
X38100000Y-54950000I-225000J0D01*
G01*
X37600000Y-54950000D01*
G75*
G02*
X37375000Y-54725000I0J225000D01*
G01*
X37375000Y-54275000D01*
G75*
G02*
X37600000Y-54050000I225000J0D01*
G01*
G37*
D11*
X49650000Y-66000000D03*
X46500000Y-66000000D03*
D12*
X46700000Y-56050000D03*
X46700000Y-54550000D03*
X40300000Y-56050000D03*
X40300000Y-54550000D03*
D13*
X43500000Y-60000000D03*
D14*
X43500000Y-65900000D03*
X38500000Y-63800000D03*
D15*
X38000000Y-60000000D03*
X49000000Y-60000000D03*
G36*
G01*
X37600000Y-73650000D02*
X38100000Y-73650000D01*
G75*
G02*
X38325000Y-73875000I0J-225000D01*
G01*
X38325000Y-74325000D01*
G75*
G02*
X38100000Y-74550000I-225000J0D01*
G01*
X37600000Y-74550000D01*
G75*
G02*
X37375000Y-74325000I0J225000D01*
G01*
X37375000Y-73875000D01*
G75*
G02*
X37600000Y-73650000I225000J0D01*
G01*
G37*
G36*
G01*
X37600000Y-72050000D02*
X38100000Y-72050000D01*
G75*
G02*
X38325000Y-72275000I0J-225000D01*
G01*
X38325000Y-72725000D01*
G75*
G02*
X38100000Y-72950000I-225000J0D01*
G01*
X37600000Y-72950000D01*
G75*
G02*
X37375000Y-72725000I0J225000D01*
G01*
X37375000Y-72275000D01*
G75*
G02*
X37600000Y-72050000I225000J0D01*
G01*
G37*
D11*
X49650000Y-84000000D03*
X46500000Y-84000000D03*
D12*
X46700000Y-74050000D03*
X46700000Y-72550000D03*
X40300000Y-74050000D03*
X40300000Y-72550000D03*
D13*
X43500000Y-78000000D03*
D14*
X43500000Y-83900000D03*
X38500000Y-81800000D03*
D15*
X38000000Y-78000000D03*
X49000000Y-78000000D03*
G36*
G01*
X56600000Y-19650000D02*
X57100000Y-19650000D01*
G75*
G02*
X57325000Y-19875000I0J-225000D01*
G01*
X57325000Y-20325000D01*
G75*
G02*
X57100000Y-20550000I-225000J0D01*
G01*
X56600000Y-20550000D01*
G75*
G02*
X56375000Y-20325000I0J225000D01*
G01*
X56375000Y-19875000D01*
G75*
G02*
X56600000Y-19650000I225000J0D01*
G01*
G37*
G36*
G01*
X56600000Y-18050000D02*
X57100000Y-18050000D01*
G75*
G02*
X57325000Y-18275000I0J-225000D01*
G01*
X57325000Y-18725000D01*
G75*
G02*
X57100000Y-18950000I-225000J0D01*
G01*
X56600000Y-18950000D01*
G75*
G02*
X56375000Y-18725000I0J225000D01*
G01*
X56375000Y-18275000D01*
G75*
G02*
X56600000Y-18050000I225000J0D01*
G01*
G37*
D11*
X68650000Y-30000000D03*
X65500000Y-30000000D03*
D12*
X65700000Y-20050000D03*
X65700000Y-18550000D03*
X59300000Y-20050000D03*
X59300000Y-18550000D03*
D13*
X62500000Y-24000000D03*
D14*
X62500000Y-29900000D03*
X57500000Y-27800000D03*
D15*
X57000000Y-24000000D03*
X68000000Y-24000000D03*
G36*
G01*
X56600000Y-37650000D02*
X57100000Y-37650000D01*
G75*
G02*
X57325000Y-37875000I0J-225000D01*
G01*
X57325000Y-38325000D01*
G75*
G02*
X57100000Y-38550000I-225000J0D01*
G01*
X56600000Y-38550000D01*
G75*
G02*
X56375000Y-38325000I0J225000D01*
G01*
X56375000Y-37875000D01*
G75*
G02*
X56600000Y-37650000I225000J0D01*
G01*
G37*
G36*
G01*
X56600000Y-36050000D02*
X57100000Y-36050000D01*
G75*
G02*
X57325000Y-36275000I0J-225000D01*
G01*
X57325000Y-36725000D01*
G75*
G02*
X57100000Y-36950000I-225000J0D01*
G01*
X56600000Y-36950000D01*
G75*
G02*
X56375000Y-36725000I0J225000D01*
G01*
X56375000Y-36275000D01*
G75*
G02*
X56600000Y-36050000I225000J0D01*
G01*
G37*
D11*
X68650000Y-48000000D03*
X65500000Y-48000000D03*
D12*
X65700000Y-38050000D03*
X65700000Y-36550000D03*
X59300000Y-38050000D03*
X59300000Y-36550000D03*
D13*
X62500000Y-42000000D03*
D14*
X62500000Y-47900000D03*
X57500000Y-45800000D03*
D15*
X57000000Y-42000000D03*
X68000000Y-42000000D03*
G36*
G01*
X56600000Y-73650000D02*
X57100000Y-73650000D01*
G75*
G02*
X57325000Y-73875000I0J-225000D01*
G01*
X57325000Y-74325000D01*
G75*
G02*
X57100000Y-74550000I-225000J0D01*
G01*
X56600000Y-74550000D01*
G75*
G02*
X56375000Y-74325000I0J225000D01*
G01*
X56375000Y-73875000D01*
G75*
G02*
X56600000Y-73650000I225000J0D01*
G01*
G37*
G36*
G01*
X56600000Y-72050000D02*
X57100000Y-72050000D01*
G75*
G02*
X57325000Y-72275000I0J-225000D01*
G01*
X57325000Y-72725000D01*
G75*
G02*
X57100000Y-72950000I-225000J0D01*
G01*
X56600000Y-72950000D01*
G75*
G02*
X56375000Y-72725000I0J225000D01*
G01*
X56375000Y-72275000D01*
G75*
G02*
X56600000Y-72050000I225000J0D01*
G01*
G37*
D11*
X68650000Y-84000000D03*
X65500000Y-84000000D03*
D12*
X65700000Y-74050000D03*
X65700000Y-72550000D03*
X59300000Y-74050000D03*
X59300000Y-72550000D03*
D13*
X62500000Y-78000000D03*
D14*
X62500000Y-83900000D03*
X57500000Y-81800000D03*
D15*
X57000000Y-78000000D03*
X68000000Y-78000000D03*
G36*
G01*
X80600000Y-19650000D02*
X81100000Y-19650000D01*
G75*
G02*
X81325000Y-19875000I0J-225000D01*
G01*
X81325000Y-20325000D01*
G75*
G02*
X81100000Y-20550000I-225000J0D01*
G01*
X80600000Y-20550000D01*
G75*
G02*
X80375000Y-20325000I0J225000D01*
G01*
X80375000Y-19875000D01*
G75*
G02*
X80600000Y-19650000I225000J0D01*
G01*
G37*
G36*
G01*
X80600000Y-18050000D02*
X81100000Y-18050000D01*
G75*
G02*
X81325000Y-18275000I0J-225000D01*
G01*
X81325000Y-18725000D01*
G75*
G02*
X81100000Y-18950000I-225000J0D01*
G01*
X80600000Y-18950000D01*
G75*
G02*
X80375000Y-18725000I0J225000D01*
G01*
X80375000Y-18275000D01*
G75*
G02*
X80600000Y-18050000I225000J0D01*
G01*
G37*
D11*
X92650000Y-30000000D03*
X89500000Y-30000000D03*
D12*
X89700000Y-20050000D03*
X89700000Y-18550000D03*
X83300000Y-20050000D03*
X83300000Y-18550000D03*
D13*
X86500000Y-24000000D03*
D14*
X86500000Y-29900000D03*
X81500000Y-27800000D03*
D15*
X81000000Y-24000000D03*
X92000000Y-24000000D03*
G36*
G01*
X80600000Y-55650000D02*
X81100000Y-55650000D01*
G75*
G02*
X81325000Y-55875000I0J-225000D01*
G01*
X81325000Y-56325000D01*
G75*
G02*
X81100000Y-56550000I-225000J0D01*
G01*
X80600000Y-56550000D01*
G75*
G02*
X80375000Y-56325000I0J225000D01*
G01*
X80375000Y-55875000D01*
G75*
G02*
X80600000Y-55650000I225000J0D01*
G01*
G37*
G36*
G01*
X80600000Y-54050000D02*
X81100000Y-54050000D01*
G75*
G02*
X81325000Y-54275000I0J-225000D01*
G01*
X81325000Y-54725000D01*
G75*
G02*
X81100000Y-54950000I-225000J0D01*
G01*
X80600000Y-54950000D01*
G75*
G02*
X80375000Y-54725000I0J225000D01*
G01*
X80375000Y-54275000D01*
G75*
G02*
X80600000Y-54050000I225000J0D01*
G01*
G37*
D11*
X92650000Y-66000000D03*
X89500000Y-66000000D03*
D12*
X89700000Y-56050000D03*
X89700000Y-54550000D03*
X83300000Y-56050000D03*
X83300000Y-54550000D03*
D13*
X86500000Y-60000000D03*
D14*
X86500000Y-65900000D03*
X81500000Y-63800000D03*
D15*
X81000000Y-60000000D03*
X92000000Y-60000000D03*
G36*
G01*
X80600000Y-73650000D02*
X81100000Y-73650000D01*
G75*
G02*
X81325000Y-73875000I0J-225000D01*
G01*
X81325000Y-74325000D01*
G75*
G02*
X81100000Y-74550000I-225000J0D01*
G01*
X80600000Y-74550000D01*
G75*
G02*
X80375000Y-74325000I0J225000D01*
G01*
X80375000Y-73875000D01*
G75*
G02*
X80600000Y-73650000I225000J0D01*
G01*
G37*
G36*
G01*
X80600000Y-72050000D02*
X81100000Y-72050000D01*
G75*
G02*
X81325000Y-72275000I0J-225000D01*
G01*
X81325000Y-72725000D01*
G75*
G02*
X81100000Y-72950000I-225000J0D01*
G01*
X80600000Y-72950000D01*
G75*
G02*
X80375000Y-72725000I0J225000D01*
G01*
X80375000Y-72275000D01*
G75*
G02*
X80600000Y-72050000I225000J0D01*
G01*
G37*
D11*
X92650000Y-84000000D03*
X89500000Y-84000000D03*
D12*
X89700000Y-74050000D03*
X89700000Y-72550000D03*
X83300000Y-74050000D03*
X83300000Y-72550000D03*
D13*
X86500000Y-78000000D03*
D14*
X86500000Y-83900000D03*
X81500000Y-81800000D03*
D15*
X81000000Y-78000000D03*
X92000000Y-78000000D03*
G36*
G01*
X99600000Y-19650000D02*
X100100000Y-19650000D01*
G75*
G02*
X100325000Y-19875000I0J-225000D01*
G01*
X100325000Y-20325000D01*
G75*
G02*
X100100000Y-20550000I-225000J0D01*
G01*
X99600000Y-20550000D01*
G75*
G02*
X99375000Y-20325000I0J225000D01*
G01*
X99375000Y-19875000D01*
G75*
G02*
X99600000Y-19650000I225000J0D01*
G01*
G37*
G36*
G01*
X99600000Y-18050000D02*
X100100000Y-18050000D01*
G75*
G02*
X100325000Y-18275000I0J-225000D01*
G01*
X100325000Y-18725000D01*
G75*
G02*
X100100000Y-18950000I-225000J0D01*
G01*
X99600000Y-18950000D01*
G75*
G02*
X99375000Y-18725000I0J225000D01*
G01*
X99375000Y-18275000D01*
G75*
G02*
X99600000Y-18050000I225000J0D01*
G01*
G37*
D11*
X111650000Y-30000000D03*
X108500000Y-30000000D03*
D12*
X108700000Y-20050000D03*
X108700000Y-18550000D03*
X102300000Y-20050000D03*
X102300000Y-18550000D03*
D13*
X105500000Y-24000000D03*
D14*
X105500000Y-29900000D03*
X100500000Y-27800000D03*
D15*
X100000000Y-24000000D03*
X111000000Y-24000000D03*
G36*
G01*
X99600000Y-37650000D02*
X100100000Y-37650000D01*
G75*
G02*
X100325000Y-37875000I0J-225000D01*
G01*
X100325000Y-38325000D01*
G75*
G02*
X100100000Y-38550000I-225000J0D01*
G01*
X99600000Y-38550000D01*
G75*
G02*
X99375000Y-38325000I0J225000D01*
G01*
X99375000Y-37875000D01*
G75*
G02*
X99600000Y-37650000I225000J0D01*
G01*
G37*
G36*
G01*
X99600000Y-36050000D02*
X100100000Y-36050000D01*
G75*
G02*
X100325000Y-36275000I0J-225000D01*
G01*
X100325000Y-36725000D01*
G75*
G02*
X100100000Y-36950000I-225000J0D01*
G01*
X99600000Y-36950000D01*
G75*
G02*
X99375000Y-36725000I0J225000D01*
G01*
X99375000Y-36275000D01*
G75*
G02*
X99600000Y-36050000I225000J0D01*
G01*
G37*
D11*
X111650000Y-48000000D03*
X108500000Y-48000000D03*
D12*
X108700000Y-38050000D03*
X108700000Y-36550000D03*
X102300000Y-38050000D03*
X102300000Y-36550000D03*
D13*
X105500000Y-42000000D03*
D14*
X105500000Y-47900000D03*
X100500000Y-45800000D03*
D15*
X100000000Y-42000000D03*
X111000000Y-42000000D03*
G36*
G01*
X99600000Y-55650000D02*
X100100000Y-55650000D01*
G75*
G02*
X100325000Y-55875000I0J-225000D01*
G01*
X100325000Y-56325000D01*
G75*
G02*
X100100000Y-56550000I-225000J0D01*
G01*
X99600000Y-56550000D01*
G75*
G02*
X99375000Y-56325000I0J225000D01*
G01*
X99375000Y-55875000D01*
G75*
G02*
X99600000Y-55650000I225000J0D01*
G01*
G37*
G36*
G01*
X99600000Y-54050000D02*
X100100000Y-54050000D01*
G75*
G02*
X100325000Y-54275000I0J-225000D01*
G01*
X100325000Y-54725000D01*
G75*
G02*
X100100000Y-54950000I-225000J0D01*
G01*
X99600000Y-54950000D01*
G75*
G02*
X99375000Y-54725000I0J225000D01*
G01*
X99375000Y-54275000D01*
G75*
G02*
X99600000Y-54050000I225000J0D01*
G01*
G37*
D11*
X111650000Y-66000000D03*
X108500000Y-66000000D03*
D12*
X108700000Y-56050000D03*
X108700000Y-54550000D03*
X102300000Y-56050000D03*
X102300000Y-54550000D03*
D13*
X105500000Y-60000000D03*
D14*
X105500000Y-65900000D03*
X100500000Y-63800000D03*
D15*
X100000000Y-60000000D03*
X111000000Y-60000000D03*
G36*
G01*
X118600000Y-19650000D02*
X119100000Y-19650000D01*
G75*
G02*
X119325000Y-19875000I0J-225000D01*
G01*
X119325000Y-20325000D01*
G75*
G02*
X119100000Y-20550000I-225000J0D01*
G01*
X118600000Y-20550000D01*
G75*
G02*
X118375000Y-20325000I0J225000D01*
G01*
X118375000Y-19875000D01*
G75*
G02*
X118600000Y-19650000I225000J0D01*
G01*
G37*
G36*
G01*
X118600000Y-18050000D02*
X119100000Y-18050000D01*
G75*
G02*
X119325000Y-18275000I0J-225000D01*
G01*
X119325000Y-18725000D01*
G75*
G02*
X119100000Y-18950000I-225000J0D01*
G01*
X118600000Y-18950000D01*
G75*
G02*
X118375000Y-18725000I0J225000D01*
G01*
X118375000Y-18275000D01*
G75*
G02*
X118600000Y-18050000I225000J0D01*
G01*
G37*
D11*
X130650000Y-30000000D03*
X127500000Y-30000000D03*
D12*
X127700000Y-20050000D03*
X127700000Y-18550000D03*
X121300000Y-20050000D03*
X121300000Y-18550000D03*
D13*
X124500000Y-24000000D03*
D14*
X124500000Y-29900000D03*
X119500000Y-27800000D03*
D15*
X119000000Y-24000000D03*
X130000000Y-24000000D03*
G36*
G01*
X118600000Y-37650000D02*
X119100000Y-37650000D01*
G75*
G02*
X119325000Y-37875000I0J-225000D01*
G01*
X119325000Y-38325000D01*
G75*
G02*
X119100000Y-38550000I-225000J0D01*
G01*
X118600000Y-38550000D01*
G75*
G02*
X118375000Y-38325000I0J225000D01*
G01*
X118375000Y-37875000D01*
G75*
G02*
X118600000Y-37650000I225000J0D01*
G01*
G37*
G36*
G01*
X118600000Y-36050000D02*
X119100000Y-36050000D01*
G75*
G02*
X119325000Y-36275000I0J-225000D01*
G01*
X119325000Y-36725000D01*
G75*
G02*
X119100000Y-36950000I-225000J0D01*
G01*
X118600000Y-36950000D01*
G75*
G02*
X118375000Y-36725000I0J225000D01*
G01*
X118375000Y-36275000D01*
G75*
G02*
X118600000Y-36050000I225000J0D01*
G01*
G37*
D11*
X130650000Y-48000000D03*
X127500000Y-48000000D03*
D12*
X127700000Y-38050000D03*
X127700000Y-36550000D03*
X121300000Y-38050000D03*
X121300000Y-36550000D03*
D13*
X124500000Y-42000000D03*
D14*
X124500000Y-47900000D03*
X119500000Y-45800000D03*
D15*
X119000000Y-42000000D03*
X130000000Y-42000000D03*
G36*
G01*
X118600000Y-55650000D02*
X119100000Y-55650000D01*
G75*
G02*
X119325000Y-55875000I0J-225000D01*
G01*
X119325000Y-56325000D01*
G75*
G02*
X119100000Y-56550000I-225000J0D01*
G01*
X118600000Y-56550000D01*
G75*
G02*
X118375000Y-56325000I0J225000D01*
G01*
X118375000Y-55875000D01*
G75*
G02*
X118600000Y-55650000I225000J0D01*
G01*
G37*
G36*
G01*
X118600000Y-54050000D02*
X119100000Y-54050000D01*
G75*
G02*
X119325000Y-54275000I0J-225000D01*
G01*
X119325000Y-54725000D01*
G75*
G02*
X119100000Y-54950000I-225000J0D01*
G01*
X118600000Y-54950000D01*
G75*
G02*
X118375000Y-54725000I0J225000D01*
G01*
X118375000Y-54275000D01*
G75*
G02*
X118600000Y-54050000I225000J0D01*
G01*
G37*
D11*
X130650000Y-66000000D03*
X127500000Y-66000000D03*
D12*
X127700000Y-56050000D03*
X127700000Y-54550000D03*
X121300000Y-56050000D03*
X121300000Y-54550000D03*
D13*
X124500000Y-60000000D03*
D14*
X124500000Y-65900000D03*
X119500000Y-63800000D03*
D15*
X119000000Y-60000000D03*
X130000000Y-60000000D03*
G36*
G01*
X118600000Y-73650000D02*
X119100000Y-73650000D01*
G75*
G02*
X119325000Y-73875000I0J-225000D01*
G01*
X119325000Y-74325000D01*
G75*
G02*
X119100000Y-74550000I-225000J0D01*
G01*
X118600000Y-74550000D01*
G75*
G02*
X118375000Y-74325000I0J225000D01*
G01*
X118375000Y-73875000D01*
G75*
G02*
X118600000Y-73650000I225000J0D01*
G01*
G37*
G36*
G01*
X118600000Y-72050000D02*
X119100000Y-72050000D01*
G75*
G02*
X119325000Y-72275000I0J-225000D01*
G01*
X119325000Y-72725000D01*
G75*
G02*
X119100000Y-72950000I-225000J0D01*
G01*
X118600000Y-72950000D01*
G75*
G02*
X118375000Y-72725000I0J225000D01*
G01*
X118375000Y-72275000D01*
G75*
G02*
X118600000Y-72050000I225000J0D01*
G01*
G37*
D11*
X130650000Y-84000000D03*
X127500000Y-84000000D03*
D12*
X127700000Y-74050000D03*
X127700000Y-72550000D03*
X121300000Y-74050000D03*
X121300000Y-72550000D03*
D13*
X124500000Y-78000000D03*
D14*
X124500000Y-83900000D03*
X119500000Y-81800000D03*
D15*
X119000000Y-78000000D03*
X130000000Y-78000000D03*
G36*
G01*
X137600000Y-19650000D02*
X138100000Y-19650000D01*
G75*
G02*
X138325000Y-19875000I0J-225000D01*
G01*
X138325000Y-20325000D01*
G75*
G02*
X138100000Y-20550000I-225000J0D01*
G01*
X137600000Y-20550000D01*
G75*
G02*
X137375000Y-20325000I0J225000D01*
G01*
X137375000Y-19875000D01*
G75*
G02*
X137600000Y-19650000I225000J0D01*
G01*
G37*
G36*
G01*
X137600000Y-18050000D02*
X138100000Y-18050000D01*
G75*
G02*
X138325000Y-18275000I0J-225000D01*
G01*
X138325000Y-18725000D01*
G75*
G02*
X138100000Y-18950000I-225000J0D01*
G01*
X137600000Y-18950000D01*
G75*
G02*
X137375000Y-18725000I0J225000D01*
G01*
X137375000Y-18275000D01*
G75*
G02*
X137600000Y-18050000I225000J0D01*
G01*
G37*
D11*
X149650000Y-30000000D03*
X146500000Y-30000000D03*
D12*
X146700000Y-20050000D03*
X146700000Y-18550000D03*
X140300000Y-20050000D03*
X140300000Y-18550000D03*
D13*
X143500000Y-24000000D03*
D14*
X143500000Y-29900000D03*
X138500000Y-27800000D03*
D15*
X138000000Y-24000000D03*
X149000000Y-24000000D03*
G36*
G01*
X137600000Y-55650000D02*
X138100000Y-55650000D01*
G75*
G02*
X138325000Y-55875000I0J-225000D01*
G01*
X138325000Y-56325000D01*
G75*
G02*
X138100000Y-56550000I-225000J0D01*
G01*
X137600000Y-56550000D01*
G75*
G02*
X137375000Y-56325000I0J225000D01*
G01*
X137375000Y-55875000D01*
G75*
G02*
X137600000Y-55650000I225000J0D01*
G01*
G37*
G36*
G01*
X137600000Y-54050000D02*
X138100000Y-54050000D01*
G75*
G02*
X138325000Y-54275000I0J-225000D01*
G01*
X138325000Y-54725000D01*
G75*
G02*
X138100000Y-54950000I-225000J0D01*
G01*
X137600000Y-54950000D01*
G75*
G02*
X137375000Y-54725000I0J225000D01*
G01*
X137375000Y-54275000D01*
G75*
G02*
X137600000Y-54050000I225000J0D01*
G01*
G37*
D11*
X149650000Y-66000000D03*
X146500000Y-66000000D03*
D12*
X146700000Y-56050000D03*
X146700000Y-54550000D03*
X140300000Y-56050000D03*
X140300000Y-54550000D03*
D13*
X143500000Y-60000000D03*
D14*
X143500000Y-65900000D03*
X138500000Y-63800000D03*
D15*
X138000000Y-60000000D03*
X149000000Y-60000000D03*
G36*
G01*
X137600000Y-73650000D02*
X138100000Y-73650000D01*
G75*
G02*
X138325000Y-73875000I0J-225000D01*
G01*
X138325000Y-74325000D01*
G75*
G02*
X138100000Y-74550000I-225000J0D01*
G01*
X137600000Y-74550000D01*
G75*
G02*
X137375000Y-74325000I0J225000D01*
G01*
X137375000Y-73875000D01*
G75*
G02*
X137600000Y-73650000I225000J0D01*
G01*
G37*
G36*
G01*
X137600000Y-72050000D02*
X138100000Y-72050000D01*
G75*
G02*
X138325000Y-72275000I0J-225000D01*
G01*
X138325000Y-72725000D01*
G75*
G02*
X138100000Y-72950000I-225000J0D01*
G01*
X137600000Y-72950000D01*
G75*
G02*
X137375000Y-72725000I0J225000D01*
G01*
X137375000Y-72275000D01*
G75*
G02*
X137600000Y-72050000I225000J0D01*
G01*
G37*
D11*
X149650000Y-84000000D03*
X146500000Y-84000000D03*
D12*
X146700000Y-74050000D03*
X146700000Y-72550000D03*
X140300000Y-74050000D03*
X140300000Y-72550000D03*
D13*
X143500000Y-78000000D03*
D14*
X143500000Y-83900000D03*
X138500000Y-81800000D03*
D15*
X138000000Y-78000000D03*
X149000000Y-78000000D03*
D16*
X27600000Y-10200000D03*
X25600000Y-10200000D03*
X23600000Y-10200000D03*
D14*
X29800000Y-10200000D03*
X21400000Y-10200000D03*
D17*
X47820000Y-14000000D03*
X39180000Y-14000000D03*
D18*
X47820000Y-9820000D03*
X39180000Y-9820000D03*
D19*
X40610000Y-13500000D03*
X46390000Y-13500000D03*
D20*
X83920000Y-11700000D03*
D21*
X83920000Y-10430000D03*
X85190000Y-11700000D03*
X85190000Y-10430000D03*
X86460000Y-11700000D03*
X86460000Y-10430000D03*
X87730000Y-11700000D03*
X87730000Y-10430000D03*
X89000000Y-11700000D03*
X89000000Y-10430000D03*
D22*
X36200000Y-44100000D03*
D23*
X36200000Y-41560000D03*
X36200000Y-39020000D03*
D22*
X109320000Y-11000000D03*
D23*
X106780000Y-11000000D03*
X104240000Y-11000000D03*
X101700000Y-11000000D03*
D24*
X52700000Y-11000000D03*
X59200000Y-11000000D03*
M02*
