G04 #@! TF.GenerationSoftware,KiCad,Pcbnew,(5.1.10)-1*
G04 #@! TF.CreationDate,2021-08-19T21:12:26+09:00*
G04 #@! TF.ProjectId,cnc-controller,636e632d-636f-46e7-9472-6f6c6c65722e,rev?*
G04 #@! TF.SameCoordinates,Original*
G04 #@! TF.FileFunction,Profile,NP*
%FSLAX46Y46*%
G04 Gerber Fmt 4.6, Leading zero omitted, Abs format (unit mm)*
G04 Created by KiCad (PCBNEW (5.1.10)-1) date 2021-08-19 21:12:26*
%MOMM*%
%LPD*%
G01*
G04 APERTURE LIST*
G04 #@! TA.AperFunction,Profile*
%ADD10C,0.050000*%
G04 #@! TD*
G04 APERTURE END LIST*
D10*
X141800000Y-71800000D02*
X141800000Y-74800000D01*
X144700000Y-71300000D02*
X142300000Y-71300000D01*
X145200000Y-74800000D02*
X145200000Y-71800000D01*
X141800000Y-71800000D02*
G75*
G02*
X142300000Y-71300000I500000J0D01*
G01*
X142300000Y-75300000D02*
X144700000Y-75300000D01*
X144700000Y-71300000D02*
G75*
G02*
X145200000Y-71800000I0J-500000D01*
G01*
X145200000Y-74800000D02*
G75*
G02*
X144700000Y-75300000I-500000J0D01*
G01*
X142300000Y-75300000D02*
G75*
G02*
X141800000Y-74800000I0J500000D01*
G01*
X122800000Y-71800000D02*
X122800000Y-74800000D01*
X125700000Y-71300000D02*
X123300000Y-71300000D01*
X126200000Y-74800000D02*
X126200000Y-71800000D01*
X122800000Y-71800000D02*
G75*
G02*
X123300000Y-71300000I500000J0D01*
G01*
X123300000Y-75300000D02*
X125700000Y-75300000D01*
X125700000Y-71300000D02*
G75*
G02*
X126200000Y-71800000I0J-500000D01*
G01*
X126200000Y-74800000D02*
G75*
G02*
X125700000Y-75300000I-500000J0D01*
G01*
X123300000Y-75300000D02*
G75*
G02*
X122800000Y-74800000I0J500000D01*
G01*
X103800000Y-71800000D02*
X103800000Y-74800000D01*
X106700000Y-71300000D02*
X104300000Y-71300000D01*
X107200000Y-74800000D02*
X107200000Y-71800000D01*
X103800000Y-71800000D02*
G75*
G02*
X104300000Y-71300000I500000J0D01*
G01*
X104300000Y-75300000D02*
X106700000Y-75300000D01*
X106700000Y-71300000D02*
G75*
G02*
X107200000Y-71800000I0J-500000D01*
G01*
X107200000Y-74800000D02*
G75*
G02*
X106700000Y-75300000I-500000J0D01*
G01*
X104300000Y-75300000D02*
G75*
G02*
X103800000Y-74800000I0J500000D01*
G01*
X84800000Y-71800000D02*
X84800000Y-74800000D01*
X87700000Y-71300000D02*
X85300000Y-71300000D01*
X88200000Y-74800000D02*
X88200000Y-71800000D01*
X84800000Y-71800000D02*
G75*
G02*
X85300000Y-71300000I500000J0D01*
G01*
X85300000Y-75300000D02*
X87700000Y-75300000D01*
X87700000Y-71300000D02*
G75*
G02*
X88200000Y-71800000I0J-500000D01*
G01*
X88200000Y-74800000D02*
G75*
G02*
X87700000Y-75300000I-500000J0D01*
G01*
X85300000Y-75300000D02*
G75*
G02*
X84800000Y-74800000I0J500000D01*
G01*
X60800000Y-71800000D02*
X60800000Y-74800000D01*
X63700000Y-71300000D02*
X61300000Y-71300000D01*
X64200000Y-74800000D02*
X64200000Y-71800000D01*
X60800000Y-71800000D02*
G75*
G02*
X61300000Y-71300000I500000J0D01*
G01*
X61300000Y-75300000D02*
X63700000Y-75300000D01*
X63700000Y-71300000D02*
G75*
G02*
X64200000Y-71800000I0J-500000D01*
G01*
X64200000Y-74800000D02*
G75*
G02*
X63700000Y-75300000I-500000J0D01*
G01*
X61300000Y-75300000D02*
G75*
G02*
X60800000Y-74800000I0J500000D01*
G01*
X41800000Y-71800000D02*
X41800000Y-74800000D01*
X44700000Y-71300000D02*
X42300000Y-71300000D01*
X45200000Y-74800000D02*
X45200000Y-71800000D01*
X41800000Y-71800000D02*
G75*
G02*
X42300000Y-71300000I500000J0D01*
G01*
X42300000Y-75300000D02*
X44700000Y-75300000D01*
X44700000Y-71300000D02*
G75*
G02*
X45200000Y-71800000I0J-500000D01*
G01*
X45200000Y-74800000D02*
G75*
G02*
X44700000Y-75300000I-500000J0D01*
G01*
X42300000Y-75300000D02*
G75*
G02*
X41800000Y-74800000I0J500000D01*
G01*
X22800000Y-71800000D02*
X22800000Y-74800000D01*
X25700000Y-71300000D02*
X23300000Y-71300000D01*
X26200000Y-74800000D02*
X26200000Y-71800000D01*
X22800000Y-71800000D02*
G75*
G02*
X23300000Y-71300000I500000J0D01*
G01*
X23300000Y-75300000D02*
X25700000Y-75300000D01*
X25700000Y-71300000D02*
G75*
G02*
X26200000Y-71800000I0J-500000D01*
G01*
X26200000Y-74800000D02*
G75*
G02*
X25700000Y-75300000I-500000J0D01*
G01*
X23300000Y-75300000D02*
G75*
G02*
X22800000Y-74800000I0J500000D01*
G01*
X141800000Y-53800000D02*
X141800000Y-56800000D01*
X144700000Y-53300000D02*
X142300000Y-53300000D01*
X145200000Y-56800000D02*
X145200000Y-53800000D01*
X141800000Y-53800000D02*
G75*
G02*
X142300000Y-53300000I500000J0D01*
G01*
X142300000Y-57300000D02*
X144700000Y-57300000D01*
X144700000Y-53300000D02*
G75*
G02*
X145200000Y-53800000I0J-500000D01*
G01*
X145200000Y-56800000D02*
G75*
G02*
X144700000Y-57300000I-500000J0D01*
G01*
X142300000Y-57300000D02*
G75*
G02*
X141800000Y-56800000I0J500000D01*
G01*
X122800000Y-53800000D02*
X122800000Y-56800000D01*
X125700000Y-53300000D02*
X123300000Y-53300000D01*
X126200000Y-56800000D02*
X126200000Y-53800000D01*
X122800000Y-53800000D02*
G75*
G02*
X123300000Y-53300000I500000J0D01*
G01*
X123300000Y-57300000D02*
X125700000Y-57300000D01*
X125700000Y-53300000D02*
G75*
G02*
X126200000Y-53800000I0J-500000D01*
G01*
X126200000Y-56800000D02*
G75*
G02*
X125700000Y-57300000I-500000J0D01*
G01*
X123300000Y-57300000D02*
G75*
G02*
X122800000Y-56800000I0J500000D01*
G01*
X103800000Y-53800000D02*
X103800000Y-56800000D01*
X106700000Y-53300000D02*
X104300000Y-53300000D01*
X107200000Y-56800000D02*
X107200000Y-53800000D01*
X103800000Y-53800000D02*
G75*
G02*
X104300000Y-53300000I500000J0D01*
G01*
X104300000Y-57300000D02*
X106700000Y-57300000D01*
X106700000Y-53300000D02*
G75*
G02*
X107200000Y-53800000I0J-500000D01*
G01*
X107200000Y-56800000D02*
G75*
G02*
X106700000Y-57300000I-500000J0D01*
G01*
X104300000Y-57300000D02*
G75*
G02*
X103800000Y-56800000I0J500000D01*
G01*
X84800000Y-53800000D02*
X84800000Y-56800000D01*
X87700000Y-53300000D02*
X85300000Y-53300000D01*
X88200000Y-56800000D02*
X88200000Y-53800000D01*
X84800000Y-53800000D02*
G75*
G02*
X85300000Y-53300000I500000J0D01*
G01*
X85300000Y-57300000D02*
X87700000Y-57300000D01*
X87700000Y-53300000D02*
G75*
G02*
X88200000Y-53800000I0J-500000D01*
G01*
X88200000Y-56800000D02*
G75*
G02*
X87700000Y-57300000I-500000J0D01*
G01*
X85300000Y-57300000D02*
G75*
G02*
X84800000Y-56800000I0J500000D01*
G01*
X41800000Y-53800000D02*
X41800000Y-56800000D01*
X44700000Y-53300000D02*
X42300000Y-53300000D01*
X45200000Y-56800000D02*
X45200000Y-53800000D01*
X41800000Y-53800000D02*
G75*
G02*
X42300000Y-53300000I500000J0D01*
G01*
X42300000Y-57300000D02*
X44700000Y-57300000D01*
X44700000Y-53300000D02*
G75*
G02*
X45200000Y-53800000I0J-500000D01*
G01*
X45200000Y-56800000D02*
G75*
G02*
X44700000Y-57300000I-500000J0D01*
G01*
X42300000Y-57300000D02*
G75*
G02*
X41800000Y-56800000I0J500000D01*
G01*
X141800000Y-35800000D02*
X141800000Y-38800000D01*
X144700000Y-35300000D02*
X142300000Y-35300000D01*
X145200000Y-38800000D02*
X145200000Y-35800000D01*
X141800000Y-35800000D02*
G75*
G02*
X142300000Y-35300000I500000J0D01*
G01*
X142300000Y-39300000D02*
X144700000Y-39300000D01*
X144700000Y-35300000D02*
G75*
G02*
X145200000Y-35800000I0J-500000D01*
G01*
X145200000Y-38800000D02*
G75*
G02*
X144700000Y-39300000I-500000J0D01*
G01*
X142300000Y-39300000D02*
G75*
G02*
X141800000Y-38800000I0J500000D01*
G01*
X122800000Y-35800000D02*
X122800000Y-38800000D01*
X125700000Y-35300000D02*
X123300000Y-35300000D01*
X126200000Y-38800000D02*
X126200000Y-35800000D01*
X122800000Y-35800000D02*
G75*
G02*
X123300000Y-35300000I500000J0D01*
G01*
X123300000Y-39300000D02*
X125700000Y-39300000D01*
X125700000Y-35300000D02*
G75*
G02*
X126200000Y-35800000I0J-500000D01*
G01*
X126200000Y-38800000D02*
G75*
G02*
X125700000Y-39300000I-500000J0D01*
G01*
X123300000Y-39300000D02*
G75*
G02*
X122800000Y-38800000I0J500000D01*
G01*
X103800000Y-35800000D02*
X103800000Y-38800000D01*
X106700000Y-35300000D02*
X104300000Y-35300000D01*
X107200000Y-38800000D02*
X107200000Y-35800000D01*
X103800000Y-35800000D02*
G75*
G02*
X104300000Y-35300000I500000J0D01*
G01*
X104300000Y-39300000D02*
X106700000Y-39300000D01*
X106700000Y-35300000D02*
G75*
G02*
X107200000Y-35800000I0J-500000D01*
G01*
X107200000Y-38800000D02*
G75*
G02*
X106700000Y-39300000I-500000J0D01*
G01*
X104300000Y-39300000D02*
G75*
G02*
X103800000Y-38800000I0J500000D01*
G01*
X84800000Y-35800000D02*
X84800000Y-38800000D01*
X87700000Y-35300000D02*
X85300000Y-35300000D01*
X88200000Y-38800000D02*
X88200000Y-35800000D01*
X84800000Y-35800000D02*
G75*
G02*
X85300000Y-35300000I500000J0D01*
G01*
X85300000Y-39300000D02*
X87700000Y-39300000D01*
X87700000Y-35300000D02*
G75*
G02*
X88200000Y-35800000I0J-500000D01*
G01*
X88200000Y-38800000D02*
G75*
G02*
X87700000Y-39300000I-500000J0D01*
G01*
X85300000Y-39300000D02*
G75*
G02*
X84800000Y-38800000I0J500000D01*
G01*
X60800000Y-35800000D02*
X60800000Y-38800000D01*
X63700000Y-35300000D02*
X61300000Y-35300000D01*
X64200000Y-38800000D02*
X64200000Y-35800000D01*
X60800000Y-35800000D02*
G75*
G02*
X61300000Y-35300000I500000J0D01*
G01*
X61300000Y-39300000D02*
X63700000Y-39300000D01*
X63700000Y-35300000D02*
G75*
G02*
X64200000Y-35800000I0J-500000D01*
G01*
X64200000Y-38800000D02*
G75*
G02*
X63700000Y-39300000I-500000J0D01*
G01*
X61300000Y-39300000D02*
G75*
G02*
X60800000Y-38800000I0J500000D01*
G01*
X22800000Y-35800000D02*
X22800000Y-38800000D01*
X25700000Y-35300000D02*
X23300000Y-35300000D01*
X26200000Y-38800000D02*
X26200000Y-35800000D01*
X22800000Y-35800000D02*
G75*
G02*
X23300000Y-35300000I500000J0D01*
G01*
X23300000Y-39300000D02*
X25700000Y-39300000D01*
X25700000Y-35300000D02*
G75*
G02*
X26200000Y-35800000I0J-500000D01*
G01*
X26200000Y-38800000D02*
G75*
G02*
X25700000Y-39300000I-500000J0D01*
G01*
X23300000Y-39300000D02*
G75*
G02*
X22800000Y-38800000I0J500000D01*
G01*
X141800000Y-17800000D02*
X141800000Y-20800000D01*
X144700000Y-17300000D02*
X142300000Y-17300000D01*
X145200000Y-20800000D02*
X145200000Y-17800000D01*
X141800000Y-17800000D02*
G75*
G02*
X142300000Y-17300000I500000J0D01*
G01*
X142300000Y-21300000D02*
X144700000Y-21300000D01*
X144700000Y-17300000D02*
G75*
G02*
X145200000Y-17800000I0J-500000D01*
G01*
X145200000Y-20800000D02*
G75*
G02*
X144700000Y-21300000I-500000J0D01*
G01*
X142300000Y-21300000D02*
G75*
G02*
X141800000Y-20800000I0J500000D01*
G01*
X122800000Y-17800000D02*
X122800000Y-20800000D01*
X125700000Y-17300000D02*
X123300000Y-17300000D01*
X126200000Y-20800000D02*
X126200000Y-17800000D01*
X122800000Y-17800000D02*
G75*
G02*
X123300000Y-17300000I500000J0D01*
G01*
X123300000Y-21300000D02*
X125700000Y-21300000D01*
X125700000Y-17300000D02*
G75*
G02*
X126200000Y-17800000I0J-500000D01*
G01*
X126200000Y-20800000D02*
G75*
G02*
X125700000Y-21300000I-500000J0D01*
G01*
X123300000Y-21300000D02*
G75*
G02*
X122800000Y-20800000I0J500000D01*
G01*
X103800000Y-17800000D02*
X103800000Y-20800000D01*
X106700000Y-17300000D02*
X104300000Y-17300000D01*
X107200000Y-20800000D02*
X107200000Y-17800000D01*
X103800000Y-17800000D02*
G75*
G02*
X104300000Y-17300000I500000J0D01*
G01*
X104300000Y-21300000D02*
X106700000Y-21300000D01*
X106700000Y-17300000D02*
G75*
G02*
X107200000Y-17800000I0J-500000D01*
G01*
X107200000Y-20800000D02*
G75*
G02*
X106700000Y-21300000I-500000J0D01*
G01*
X104300000Y-21300000D02*
G75*
G02*
X103800000Y-20800000I0J500000D01*
G01*
X84800000Y-17800000D02*
X84800000Y-20800000D01*
X87700000Y-17300000D02*
X85300000Y-17300000D01*
X88200000Y-20800000D02*
X88200000Y-17800000D01*
X84800000Y-17800000D02*
G75*
G02*
X85300000Y-17300000I500000J0D01*
G01*
X85300000Y-21300000D02*
X87700000Y-21300000D01*
X87700000Y-17300000D02*
G75*
G02*
X88200000Y-17800000I0J-500000D01*
G01*
X88200000Y-20800000D02*
G75*
G02*
X87700000Y-21300000I-500000J0D01*
G01*
X85300000Y-21300000D02*
G75*
G02*
X84800000Y-20800000I0J500000D01*
G01*
X60800000Y-17800000D02*
X60800000Y-20800000D01*
X63700000Y-17300000D02*
X61300000Y-17300000D01*
X64200000Y-20800000D02*
X64200000Y-17800000D01*
X60800000Y-17800000D02*
G75*
G02*
X61300000Y-17300000I500000J0D01*
G01*
X61300000Y-21300000D02*
X63700000Y-21300000D01*
X63700000Y-17300000D02*
G75*
G02*
X64200000Y-17800000I0J-500000D01*
G01*
X64200000Y-20800000D02*
G75*
G02*
X63700000Y-21300000I-500000J0D01*
G01*
X61300000Y-21300000D02*
G75*
G02*
X60800000Y-20800000I0J500000D01*
G01*
X22800000Y-17800000D02*
X22800000Y-20800000D01*
X25700000Y-17300000D02*
X23300000Y-17300000D01*
X26200000Y-20800000D02*
X26200000Y-17800000D01*
X23300000Y-21300000D02*
X25700000Y-21300000D01*
X23300000Y-21300000D02*
G75*
G02*
X22800000Y-20800000I0J500000D01*
G01*
X22800000Y-17800000D02*
G75*
G02*
X23300000Y-17300000I500000J0D01*
G01*
X25700000Y-17300000D02*
G75*
G02*
X26200000Y-17800000I0J-500000D01*
G01*
X26200000Y-20800000D02*
G75*
G02*
X25700000Y-21300000I-500000J0D01*
G01*
X15000000Y-93000000D02*
G75*
G02*
X12000000Y-90000000I0J3000000D01*
G01*
X156000000Y-90000000D02*
G75*
G02*
X153000000Y-93000000I-3000000J0D01*
G01*
X153000000Y-7000000D02*
G75*
G02*
X156000000Y-10000000I0J-3000000D01*
G01*
X12000000Y-10000000D02*
G75*
G02*
X15000000Y-7000000I3000000J0D01*
G01*
X153000000Y-7000000D02*
X15000000Y-7000000D01*
X156000000Y-90000000D02*
X156000000Y-10000000D01*
X15000000Y-93000000D02*
X153000000Y-93000000D01*
X12000000Y-10000000D02*
X12000000Y-90000000D01*
M02*
