G04 #@! TF.GenerationSoftware,KiCad,Pcbnew,(5.1.10)-1*
G04 #@! TF.CreationDate,2021-08-19T21:12:26+09:00*
G04 #@! TF.ProjectId,cnc-controller,636e632d-636f-46e7-9472-6f6c6c65722e,rev?*
G04 #@! TF.SameCoordinates,Original*
G04 #@! TF.FileFunction,Legend,Bot*
G04 #@! TF.FilePolarity,Positive*
%FSLAX46Y46*%
G04 Gerber Fmt 4.6, Leading zero omitted, Abs format (unit mm)*
G04 Created by KiCad (PCBNEW (5.1.10)-1) date 2021-08-19 21:12:26*
%MOMM*%
%LPD*%
G01*
G04 APERTURE LIST*
%ADD10C,0.150000*%
%ADD11C,0.120000*%
%ADD12C,3.200000*%
%ADD13R,0.900000X0.950000*%
%ADD14R,1.600000X0.820000*%
%ADD15C,3.400000*%
%ADD16C,2.000000*%
%ADD17C,1.900000*%
%ADD18C,1.462000*%
%ADD19O,1.000000X2.100000*%
%ADD20O,1.000000X1.800000*%
%ADD21C,0.650000*%
%ADD22R,1.000000X1.000000*%
%ADD23O,1.000000X1.000000*%
%ADD24R,1.700000X1.700000*%
%ADD25O,1.700000X1.700000*%
%ADD26C,2.100000*%
G04 APERTURE END LIST*
D10*
X26142857Y-12527380D02*
X26619047Y-12527380D01*
X26619047Y-11527380D01*
X25809523Y-12003571D02*
X25476190Y-12003571D01*
X25333333Y-12527380D02*
X25809523Y-12527380D01*
X25809523Y-11527380D01*
X25333333Y-11527380D01*
X24904761Y-12527380D02*
X24904761Y-11527380D01*
X24666666Y-11527380D01*
X24523809Y-11575000D01*
X24428571Y-11670238D01*
X24380952Y-11765476D01*
X24333333Y-11955952D01*
X24333333Y-12098809D01*
X24380952Y-12289285D01*
X24428571Y-12384523D01*
X24523809Y-12479761D01*
X24666666Y-12527380D01*
X24904761Y-12527380D01*
X29785714Y-13510714D02*
X30547619Y-13796428D01*
X29785714Y-14082142D01*
X29309523Y-13796428D02*
X28547619Y-13796428D01*
X27880952Y-13177380D02*
X27690476Y-13177380D01*
X27595238Y-13225000D01*
X27500000Y-13320238D01*
X27452380Y-13510714D01*
X27452380Y-13844047D01*
X27500000Y-14034523D01*
X27595238Y-14129761D01*
X27690476Y-14177380D01*
X27880952Y-14177380D01*
X27976190Y-14129761D01*
X28071428Y-14034523D01*
X28119047Y-13844047D01*
X28119047Y-13510714D01*
X28071428Y-13320238D01*
X27976190Y-13225000D01*
X27880952Y-13177380D01*
X27023809Y-14177380D02*
X27023809Y-13177380D01*
X26452380Y-14177380D01*
X26452380Y-13177380D01*
X25023809Y-13177380D02*
X24833333Y-13177380D01*
X24738095Y-13225000D01*
X24642857Y-13320238D01*
X24595238Y-13510714D01*
X24595238Y-13844047D01*
X24642857Y-14034523D01*
X24738095Y-14129761D01*
X24833333Y-14177380D01*
X25023809Y-14177380D01*
X25119047Y-14129761D01*
X25214285Y-14034523D01*
X25261904Y-13844047D01*
X25261904Y-13510714D01*
X25214285Y-13320238D01*
X25119047Y-13225000D01*
X25023809Y-13177380D01*
X23833333Y-13653571D02*
X24166666Y-13653571D01*
X24166666Y-14177380D02*
X24166666Y-13177380D01*
X23690476Y-13177380D01*
X22976190Y-13653571D02*
X23309523Y-13653571D01*
X23309523Y-14177380D02*
X23309523Y-13177380D01*
X22833333Y-13177380D01*
X22452380Y-13796428D02*
X21690476Y-13796428D01*
X21214285Y-13510714D02*
X20452380Y-13796428D01*
X21214285Y-14082142D01*
D11*
X26700000Y-16800000D02*
X26700000Y-17800000D01*
X25700000Y-16800000D02*
X26700000Y-16800000D01*
X22300000Y-16800000D02*
X23300000Y-16800000D01*
X22300000Y-17800000D02*
X22300000Y-16800000D01*
X22300000Y-21800000D02*
X22300000Y-20800000D01*
X22300000Y-21800000D02*
X23300000Y-21800000D01*
X26200000Y-21800000D02*
X25700000Y-21800000D01*
X26700000Y-21300000D02*
X26700000Y-20800000D01*
X26200000Y-21800000D02*
X26700000Y-21300000D01*
X19325000Y-18950000D02*
X19325000Y-19650000D01*
X18375000Y-18950000D02*
X18375000Y-19650000D01*
X27950000Y-30800000D02*
X30200000Y-30800000D01*
X30200000Y-29200000D02*
X27950000Y-29200000D01*
X29700000Y-29200000D02*
X29700000Y-30800000D01*
X30200000Y-29200000D02*
X30200000Y-29450000D01*
X30200000Y-30800000D02*
X30200000Y-30550000D01*
X27950000Y-30800000D02*
X27950000Y-30550000D01*
X27950000Y-29200000D02*
X27950000Y-29450000D01*
X145700000Y-34800000D02*
X145700000Y-35800000D01*
X144700000Y-34800000D02*
X145700000Y-34800000D01*
X141300000Y-34800000D02*
X142300000Y-34800000D01*
X141300000Y-35800000D02*
X141300000Y-34800000D01*
X141300000Y-39800000D02*
X141300000Y-38800000D01*
X141300000Y-39800000D02*
X142300000Y-39800000D01*
X145200000Y-39800000D02*
X144700000Y-39800000D01*
X145700000Y-39300000D02*
X145700000Y-38800000D01*
X145200000Y-39800000D02*
X145700000Y-39300000D01*
X138325000Y-36950000D02*
X138325000Y-37650000D01*
X137375000Y-36950000D02*
X137375000Y-37650000D01*
X146950000Y-48800000D02*
X149200000Y-48800000D01*
X149200000Y-47200000D02*
X146950000Y-47200000D01*
X148700000Y-47200000D02*
X148700000Y-48800000D01*
X149200000Y-47200000D02*
X149200000Y-47450000D01*
X149200000Y-48800000D02*
X149200000Y-48550000D01*
X146950000Y-48800000D02*
X146950000Y-48550000D01*
X146950000Y-47200000D02*
X146950000Y-47450000D01*
X107700000Y-70800000D02*
X107700000Y-71800000D01*
X106700000Y-70800000D02*
X107700000Y-70800000D01*
X103300000Y-70800000D02*
X104300000Y-70800000D01*
X103300000Y-71800000D02*
X103300000Y-70800000D01*
X103300000Y-75800000D02*
X103300000Y-74800000D01*
X103300000Y-75800000D02*
X104300000Y-75800000D01*
X107200000Y-75800000D02*
X106700000Y-75800000D01*
X107700000Y-75300000D02*
X107700000Y-74800000D01*
X107200000Y-75800000D02*
X107700000Y-75300000D01*
X100325000Y-72950000D02*
X100325000Y-73650000D01*
X99375000Y-72950000D02*
X99375000Y-73650000D01*
X108950000Y-84800000D02*
X111200000Y-84800000D01*
X111200000Y-83200000D02*
X108950000Y-83200000D01*
X110700000Y-83200000D02*
X110700000Y-84800000D01*
X111200000Y-83200000D02*
X111200000Y-83450000D01*
X111200000Y-84800000D02*
X111200000Y-84550000D01*
X108950000Y-84800000D02*
X108950000Y-84550000D01*
X108950000Y-83200000D02*
X108950000Y-83450000D01*
X88700000Y-34800000D02*
X88700000Y-35800000D01*
X87700000Y-34800000D02*
X88700000Y-34800000D01*
X84300000Y-34800000D02*
X85300000Y-34800000D01*
X84300000Y-35800000D02*
X84300000Y-34800000D01*
X84300000Y-39800000D02*
X84300000Y-38800000D01*
X84300000Y-39800000D02*
X85300000Y-39800000D01*
X88200000Y-39800000D02*
X87700000Y-39800000D01*
X88700000Y-39300000D02*
X88700000Y-38800000D01*
X88200000Y-39800000D02*
X88700000Y-39300000D01*
X81325000Y-36950000D02*
X81325000Y-37650000D01*
X80375000Y-36950000D02*
X80375000Y-37650000D01*
X89950000Y-48800000D02*
X92200000Y-48800000D01*
X92200000Y-47200000D02*
X89950000Y-47200000D01*
X91700000Y-47200000D02*
X91700000Y-48800000D01*
X92200000Y-47200000D02*
X92200000Y-47450000D01*
X92200000Y-48800000D02*
X92200000Y-48550000D01*
X89950000Y-48800000D02*
X89950000Y-48550000D01*
X89950000Y-47200000D02*
X89950000Y-47450000D01*
X26700000Y-34800000D02*
X26700000Y-35800000D01*
X25700000Y-34800000D02*
X26700000Y-34800000D01*
X22300000Y-34800000D02*
X23300000Y-34800000D01*
X22300000Y-35800000D02*
X22300000Y-34800000D01*
X22300000Y-39800000D02*
X22300000Y-38800000D01*
X22300000Y-39800000D02*
X23300000Y-39800000D01*
X26200000Y-39800000D02*
X25700000Y-39800000D01*
X26700000Y-39300000D02*
X26700000Y-38800000D01*
X26200000Y-39800000D02*
X26700000Y-39300000D01*
X19325000Y-36950000D02*
X19325000Y-37650000D01*
X18375000Y-36950000D02*
X18375000Y-37650000D01*
X27950000Y-48800000D02*
X30200000Y-48800000D01*
X30200000Y-47200000D02*
X27950000Y-47200000D01*
X29700000Y-47200000D02*
X29700000Y-48800000D01*
X30200000Y-47200000D02*
X30200000Y-47450000D01*
X30200000Y-48800000D02*
X30200000Y-48550000D01*
X27950000Y-48800000D02*
X27950000Y-48550000D01*
X27950000Y-47200000D02*
X27950000Y-47450000D01*
X26700000Y-70800000D02*
X26700000Y-71800000D01*
X25700000Y-70800000D02*
X26700000Y-70800000D01*
X22300000Y-70800000D02*
X23300000Y-70800000D01*
X22300000Y-71800000D02*
X22300000Y-70800000D01*
X22300000Y-75800000D02*
X22300000Y-74800000D01*
X22300000Y-75800000D02*
X23300000Y-75800000D01*
X26200000Y-75800000D02*
X25700000Y-75800000D01*
X26700000Y-75300000D02*
X26700000Y-74800000D01*
X26200000Y-75800000D02*
X26700000Y-75300000D01*
X19325000Y-72950000D02*
X19325000Y-73650000D01*
X18375000Y-72950000D02*
X18375000Y-73650000D01*
X27950000Y-84800000D02*
X30200000Y-84800000D01*
X30200000Y-83200000D02*
X27950000Y-83200000D01*
X29700000Y-83200000D02*
X29700000Y-84800000D01*
X30200000Y-83200000D02*
X30200000Y-83450000D01*
X30200000Y-84800000D02*
X30200000Y-84550000D01*
X27950000Y-84800000D02*
X27950000Y-84550000D01*
X27950000Y-83200000D02*
X27950000Y-83450000D01*
X45700000Y-52800000D02*
X45700000Y-53800000D01*
X44700000Y-52800000D02*
X45700000Y-52800000D01*
X41300000Y-52800000D02*
X42300000Y-52800000D01*
X41300000Y-53800000D02*
X41300000Y-52800000D01*
X41300000Y-57800000D02*
X41300000Y-56800000D01*
X41300000Y-57800000D02*
X42300000Y-57800000D01*
X45200000Y-57800000D02*
X44700000Y-57800000D01*
X45700000Y-57300000D02*
X45700000Y-56800000D01*
X45200000Y-57800000D02*
X45700000Y-57300000D01*
X38325000Y-54950000D02*
X38325000Y-55650000D01*
X37375000Y-54950000D02*
X37375000Y-55650000D01*
X46950000Y-66800000D02*
X49200000Y-66800000D01*
X49200000Y-65200000D02*
X46950000Y-65200000D01*
X48700000Y-65200000D02*
X48700000Y-66800000D01*
X49200000Y-65200000D02*
X49200000Y-65450000D01*
X49200000Y-66800000D02*
X49200000Y-66550000D01*
X46950000Y-66800000D02*
X46950000Y-66550000D01*
X46950000Y-65200000D02*
X46950000Y-65450000D01*
X45700000Y-70800000D02*
X45700000Y-71800000D01*
X44700000Y-70800000D02*
X45700000Y-70800000D01*
X41300000Y-70800000D02*
X42300000Y-70800000D01*
X41300000Y-71800000D02*
X41300000Y-70800000D01*
X41300000Y-75800000D02*
X41300000Y-74800000D01*
X41300000Y-75800000D02*
X42300000Y-75800000D01*
X45200000Y-75800000D02*
X44700000Y-75800000D01*
X45700000Y-75300000D02*
X45700000Y-74800000D01*
X45200000Y-75800000D02*
X45700000Y-75300000D01*
X38325000Y-72950000D02*
X38325000Y-73650000D01*
X37375000Y-72950000D02*
X37375000Y-73650000D01*
X46950000Y-84800000D02*
X49200000Y-84800000D01*
X49200000Y-83200000D02*
X46950000Y-83200000D01*
X48700000Y-83200000D02*
X48700000Y-84800000D01*
X49200000Y-83200000D02*
X49200000Y-83450000D01*
X49200000Y-84800000D02*
X49200000Y-84550000D01*
X46950000Y-84800000D02*
X46950000Y-84550000D01*
X46950000Y-83200000D02*
X46950000Y-83450000D01*
X64700000Y-16800000D02*
X64700000Y-17800000D01*
X63700000Y-16800000D02*
X64700000Y-16800000D01*
X60300000Y-16800000D02*
X61300000Y-16800000D01*
X60300000Y-17800000D02*
X60300000Y-16800000D01*
X60300000Y-21800000D02*
X60300000Y-20800000D01*
X60300000Y-21800000D02*
X61300000Y-21800000D01*
X64200000Y-21800000D02*
X63700000Y-21800000D01*
X64700000Y-21300000D02*
X64700000Y-20800000D01*
X64200000Y-21800000D02*
X64700000Y-21300000D01*
X57325000Y-18950000D02*
X57325000Y-19650000D01*
X56375000Y-18950000D02*
X56375000Y-19650000D01*
X65950000Y-30800000D02*
X68200000Y-30800000D01*
X68200000Y-29200000D02*
X65950000Y-29200000D01*
X67700000Y-29200000D02*
X67700000Y-30800000D01*
X68200000Y-29200000D02*
X68200000Y-29450000D01*
X68200000Y-30800000D02*
X68200000Y-30550000D01*
X65950000Y-30800000D02*
X65950000Y-30550000D01*
X65950000Y-29200000D02*
X65950000Y-29450000D01*
X64700000Y-34800000D02*
X64700000Y-35800000D01*
X63700000Y-34800000D02*
X64700000Y-34800000D01*
X60300000Y-34800000D02*
X61300000Y-34800000D01*
X60300000Y-35800000D02*
X60300000Y-34800000D01*
X60300000Y-39800000D02*
X60300000Y-38800000D01*
X60300000Y-39800000D02*
X61300000Y-39800000D01*
X64200000Y-39800000D02*
X63700000Y-39800000D01*
X64700000Y-39300000D02*
X64700000Y-38800000D01*
X64200000Y-39800000D02*
X64700000Y-39300000D01*
X57325000Y-36950000D02*
X57325000Y-37650000D01*
X56375000Y-36950000D02*
X56375000Y-37650000D01*
X65950000Y-48800000D02*
X68200000Y-48800000D01*
X68200000Y-47200000D02*
X65950000Y-47200000D01*
X67700000Y-47200000D02*
X67700000Y-48800000D01*
X68200000Y-47200000D02*
X68200000Y-47450000D01*
X68200000Y-48800000D02*
X68200000Y-48550000D01*
X65950000Y-48800000D02*
X65950000Y-48550000D01*
X65950000Y-47200000D02*
X65950000Y-47450000D01*
X64700000Y-70800000D02*
X64700000Y-71800000D01*
X63700000Y-70800000D02*
X64700000Y-70800000D01*
X60300000Y-70800000D02*
X61300000Y-70800000D01*
X60300000Y-71800000D02*
X60300000Y-70800000D01*
X60300000Y-75800000D02*
X60300000Y-74800000D01*
X60300000Y-75800000D02*
X61300000Y-75800000D01*
X64200000Y-75800000D02*
X63700000Y-75800000D01*
X64700000Y-75300000D02*
X64700000Y-74800000D01*
X64200000Y-75800000D02*
X64700000Y-75300000D01*
X57325000Y-72950000D02*
X57325000Y-73650000D01*
X56375000Y-72950000D02*
X56375000Y-73650000D01*
X65950000Y-84800000D02*
X68200000Y-84800000D01*
X68200000Y-83200000D02*
X65950000Y-83200000D01*
X67700000Y-83200000D02*
X67700000Y-84800000D01*
X68200000Y-83200000D02*
X68200000Y-83450000D01*
X68200000Y-84800000D02*
X68200000Y-84550000D01*
X65950000Y-84800000D02*
X65950000Y-84550000D01*
X65950000Y-83200000D02*
X65950000Y-83450000D01*
X88700000Y-16800000D02*
X88700000Y-17800000D01*
X87700000Y-16800000D02*
X88700000Y-16800000D01*
X84300000Y-16800000D02*
X85300000Y-16800000D01*
X84300000Y-17800000D02*
X84300000Y-16800000D01*
X84300000Y-21800000D02*
X84300000Y-20800000D01*
X84300000Y-21800000D02*
X85300000Y-21800000D01*
X88200000Y-21800000D02*
X87700000Y-21800000D01*
X88700000Y-21300000D02*
X88700000Y-20800000D01*
X88200000Y-21800000D02*
X88700000Y-21300000D01*
X81325000Y-18950000D02*
X81325000Y-19650000D01*
X80375000Y-18950000D02*
X80375000Y-19650000D01*
X89950000Y-30800000D02*
X92200000Y-30800000D01*
X92200000Y-29200000D02*
X89950000Y-29200000D01*
X91700000Y-29200000D02*
X91700000Y-30800000D01*
X92200000Y-29200000D02*
X92200000Y-29450000D01*
X92200000Y-30800000D02*
X92200000Y-30550000D01*
X89950000Y-30800000D02*
X89950000Y-30550000D01*
X89950000Y-29200000D02*
X89950000Y-29450000D01*
X88700000Y-52800000D02*
X88700000Y-53800000D01*
X87700000Y-52800000D02*
X88700000Y-52800000D01*
X84300000Y-52800000D02*
X85300000Y-52800000D01*
X84300000Y-53800000D02*
X84300000Y-52800000D01*
X84300000Y-57800000D02*
X84300000Y-56800000D01*
X84300000Y-57800000D02*
X85300000Y-57800000D01*
X88200000Y-57800000D02*
X87700000Y-57800000D01*
X88700000Y-57300000D02*
X88700000Y-56800000D01*
X88200000Y-57800000D02*
X88700000Y-57300000D01*
X81325000Y-54950000D02*
X81325000Y-55650000D01*
X80375000Y-54950000D02*
X80375000Y-55650000D01*
X89950000Y-66800000D02*
X92200000Y-66800000D01*
X92200000Y-65200000D02*
X89950000Y-65200000D01*
X91700000Y-65200000D02*
X91700000Y-66800000D01*
X92200000Y-65200000D02*
X92200000Y-65450000D01*
X92200000Y-66800000D02*
X92200000Y-66550000D01*
X89950000Y-66800000D02*
X89950000Y-66550000D01*
X89950000Y-65200000D02*
X89950000Y-65450000D01*
X88700000Y-70800000D02*
X88700000Y-71800000D01*
X87700000Y-70800000D02*
X88700000Y-70800000D01*
X84300000Y-70800000D02*
X85300000Y-70800000D01*
X84300000Y-71800000D02*
X84300000Y-70800000D01*
X84300000Y-75800000D02*
X84300000Y-74800000D01*
X84300000Y-75800000D02*
X85300000Y-75800000D01*
X88200000Y-75800000D02*
X87700000Y-75800000D01*
X88700000Y-75300000D02*
X88700000Y-74800000D01*
X88200000Y-75800000D02*
X88700000Y-75300000D01*
X81325000Y-72950000D02*
X81325000Y-73650000D01*
X80375000Y-72950000D02*
X80375000Y-73650000D01*
X89950000Y-84800000D02*
X92200000Y-84800000D01*
X92200000Y-83200000D02*
X89950000Y-83200000D01*
X91700000Y-83200000D02*
X91700000Y-84800000D01*
X92200000Y-83200000D02*
X92200000Y-83450000D01*
X92200000Y-84800000D02*
X92200000Y-84550000D01*
X89950000Y-84800000D02*
X89950000Y-84550000D01*
X89950000Y-83200000D02*
X89950000Y-83450000D01*
X107700000Y-16800000D02*
X107700000Y-17800000D01*
X106700000Y-16800000D02*
X107700000Y-16800000D01*
X103300000Y-16800000D02*
X104300000Y-16800000D01*
X103300000Y-17800000D02*
X103300000Y-16800000D01*
X103300000Y-21800000D02*
X103300000Y-20800000D01*
X103300000Y-21800000D02*
X104300000Y-21800000D01*
X107200000Y-21800000D02*
X106700000Y-21800000D01*
X107700000Y-21300000D02*
X107700000Y-20800000D01*
X107200000Y-21800000D02*
X107700000Y-21300000D01*
X100325000Y-18950000D02*
X100325000Y-19650000D01*
X99375000Y-18950000D02*
X99375000Y-19650000D01*
X108950000Y-30800000D02*
X111200000Y-30800000D01*
X111200000Y-29200000D02*
X108950000Y-29200000D01*
X110700000Y-29200000D02*
X110700000Y-30800000D01*
X111200000Y-29200000D02*
X111200000Y-29450000D01*
X111200000Y-30800000D02*
X111200000Y-30550000D01*
X108950000Y-30800000D02*
X108950000Y-30550000D01*
X108950000Y-29200000D02*
X108950000Y-29450000D01*
X107700000Y-34800000D02*
X107700000Y-35800000D01*
X106700000Y-34800000D02*
X107700000Y-34800000D01*
X103300000Y-34800000D02*
X104300000Y-34800000D01*
X103300000Y-35800000D02*
X103300000Y-34800000D01*
X103300000Y-39800000D02*
X103300000Y-38800000D01*
X103300000Y-39800000D02*
X104300000Y-39800000D01*
X107200000Y-39800000D02*
X106700000Y-39800000D01*
X107700000Y-39300000D02*
X107700000Y-38800000D01*
X107200000Y-39800000D02*
X107700000Y-39300000D01*
X100325000Y-36950000D02*
X100325000Y-37650000D01*
X99375000Y-36950000D02*
X99375000Y-37650000D01*
X108950000Y-48800000D02*
X111200000Y-48800000D01*
X111200000Y-47200000D02*
X108950000Y-47200000D01*
X110700000Y-47200000D02*
X110700000Y-48800000D01*
X111200000Y-47200000D02*
X111200000Y-47450000D01*
X111200000Y-48800000D02*
X111200000Y-48550000D01*
X108950000Y-48800000D02*
X108950000Y-48550000D01*
X108950000Y-47200000D02*
X108950000Y-47450000D01*
X107700000Y-52800000D02*
X107700000Y-53800000D01*
X106700000Y-52800000D02*
X107700000Y-52800000D01*
X103300000Y-52800000D02*
X104300000Y-52800000D01*
X103300000Y-53800000D02*
X103300000Y-52800000D01*
X103300000Y-57800000D02*
X103300000Y-56800000D01*
X103300000Y-57800000D02*
X104300000Y-57800000D01*
X107200000Y-57800000D02*
X106700000Y-57800000D01*
X107700000Y-57300000D02*
X107700000Y-56800000D01*
X107200000Y-57800000D02*
X107700000Y-57300000D01*
X100325000Y-54950000D02*
X100325000Y-55650000D01*
X99375000Y-54950000D02*
X99375000Y-55650000D01*
X108950000Y-66800000D02*
X111200000Y-66800000D01*
X111200000Y-65200000D02*
X108950000Y-65200000D01*
X110700000Y-65200000D02*
X110700000Y-66800000D01*
X111200000Y-65200000D02*
X111200000Y-65450000D01*
X111200000Y-66800000D02*
X111200000Y-66550000D01*
X108950000Y-66800000D02*
X108950000Y-66550000D01*
X108950000Y-65200000D02*
X108950000Y-65450000D01*
X126700000Y-16800000D02*
X126700000Y-17800000D01*
X125700000Y-16800000D02*
X126700000Y-16800000D01*
X122300000Y-16800000D02*
X123300000Y-16800000D01*
X122300000Y-17800000D02*
X122300000Y-16800000D01*
X122300000Y-21800000D02*
X122300000Y-20800000D01*
X122300000Y-21800000D02*
X123300000Y-21800000D01*
X126200000Y-21800000D02*
X125700000Y-21800000D01*
X126700000Y-21300000D02*
X126700000Y-20800000D01*
X126200000Y-21800000D02*
X126700000Y-21300000D01*
X119325000Y-18950000D02*
X119325000Y-19650000D01*
X118375000Y-18950000D02*
X118375000Y-19650000D01*
X127950000Y-30800000D02*
X130200000Y-30800000D01*
X130200000Y-29200000D02*
X127950000Y-29200000D01*
X129700000Y-29200000D02*
X129700000Y-30800000D01*
X130200000Y-29200000D02*
X130200000Y-29450000D01*
X130200000Y-30800000D02*
X130200000Y-30550000D01*
X127950000Y-30800000D02*
X127950000Y-30550000D01*
X127950000Y-29200000D02*
X127950000Y-29450000D01*
X126700000Y-34800000D02*
X126700000Y-35800000D01*
X125700000Y-34800000D02*
X126700000Y-34800000D01*
X122300000Y-34800000D02*
X123300000Y-34800000D01*
X122300000Y-35800000D02*
X122300000Y-34800000D01*
X122300000Y-39800000D02*
X122300000Y-38800000D01*
X122300000Y-39800000D02*
X123300000Y-39800000D01*
X126200000Y-39800000D02*
X125700000Y-39800000D01*
X126700000Y-39300000D02*
X126700000Y-38800000D01*
X126200000Y-39800000D02*
X126700000Y-39300000D01*
X119325000Y-36950000D02*
X119325000Y-37650000D01*
X118375000Y-36950000D02*
X118375000Y-37650000D01*
X127950000Y-48800000D02*
X130200000Y-48800000D01*
X130200000Y-47200000D02*
X127950000Y-47200000D01*
X129700000Y-47200000D02*
X129700000Y-48800000D01*
X130200000Y-47200000D02*
X130200000Y-47450000D01*
X130200000Y-48800000D02*
X130200000Y-48550000D01*
X127950000Y-48800000D02*
X127950000Y-48550000D01*
X127950000Y-47200000D02*
X127950000Y-47450000D01*
X126700000Y-52800000D02*
X126700000Y-53800000D01*
X125700000Y-52800000D02*
X126700000Y-52800000D01*
X122300000Y-52800000D02*
X123300000Y-52800000D01*
X122300000Y-53800000D02*
X122300000Y-52800000D01*
X122300000Y-57800000D02*
X122300000Y-56800000D01*
X122300000Y-57800000D02*
X123300000Y-57800000D01*
X126200000Y-57800000D02*
X125700000Y-57800000D01*
X126700000Y-57300000D02*
X126700000Y-56800000D01*
X126200000Y-57800000D02*
X126700000Y-57300000D01*
X119325000Y-54950000D02*
X119325000Y-55650000D01*
X118375000Y-54950000D02*
X118375000Y-55650000D01*
X127950000Y-66800000D02*
X130200000Y-66800000D01*
X130200000Y-65200000D02*
X127950000Y-65200000D01*
X129700000Y-65200000D02*
X129700000Y-66800000D01*
X130200000Y-65200000D02*
X130200000Y-65450000D01*
X130200000Y-66800000D02*
X130200000Y-66550000D01*
X127950000Y-66800000D02*
X127950000Y-66550000D01*
X127950000Y-65200000D02*
X127950000Y-65450000D01*
X126700000Y-70800000D02*
X126700000Y-71800000D01*
X125700000Y-70800000D02*
X126700000Y-70800000D01*
X122300000Y-70800000D02*
X123300000Y-70800000D01*
X122300000Y-71800000D02*
X122300000Y-70800000D01*
X122300000Y-75800000D02*
X122300000Y-74800000D01*
X122300000Y-75800000D02*
X123300000Y-75800000D01*
X126200000Y-75800000D02*
X125700000Y-75800000D01*
X126700000Y-75300000D02*
X126700000Y-74800000D01*
X126200000Y-75800000D02*
X126700000Y-75300000D01*
X119325000Y-72950000D02*
X119325000Y-73650000D01*
X118375000Y-72950000D02*
X118375000Y-73650000D01*
X127950000Y-84800000D02*
X130200000Y-84800000D01*
X130200000Y-83200000D02*
X127950000Y-83200000D01*
X129700000Y-83200000D02*
X129700000Y-84800000D01*
X130200000Y-83200000D02*
X130200000Y-83450000D01*
X130200000Y-84800000D02*
X130200000Y-84550000D01*
X127950000Y-84800000D02*
X127950000Y-84550000D01*
X127950000Y-83200000D02*
X127950000Y-83450000D01*
X145700000Y-16800000D02*
X145700000Y-17800000D01*
X144700000Y-16800000D02*
X145700000Y-16800000D01*
X141300000Y-16800000D02*
X142300000Y-16800000D01*
X141300000Y-17800000D02*
X141300000Y-16800000D01*
X141300000Y-21800000D02*
X141300000Y-20800000D01*
X141300000Y-21800000D02*
X142300000Y-21800000D01*
X145200000Y-21800000D02*
X144700000Y-21800000D01*
X145700000Y-21300000D02*
X145700000Y-20800000D01*
X145200000Y-21800000D02*
X145700000Y-21300000D01*
X138325000Y-18950000D02*
X138325000Y-19650000D01*
X137375000Y-18950000D02*
X137375000Y-19650000D01*
X146950000Y-30800000D02*
X149200000Y-30800000D01*
X149200000Y-29200000D02*
X146950000Y-29200000D01*
X148700000Y-29200000D02*
X148700000Y-30800000D01*
X149200000Y-29200000D02*
X149200000Y-29450000D01*
X149200000Y-30800000D02*
X149200000Y-30550000D01*
X146950000Y-30800000D02*
X146950000Y-30550000D01*
X146950000Y-29200000D02*
X146950000Y-29450000D01*
X145700000Y-52800000D02*
X145700000Y-53800000D01*
X144700000Y-52800000D02*
X145700000Y-52800000D01*
X141300000Y-52800000D02*
X142300000Y-52800000D01*
X141300000Y-53800000D02*
X141300000Y-52800000D01*
X141300000Y-57800000D02*
X141300000Y-56800000D01*
X141300000Y-57800000D02*
X142300000Y-57800000D01*
X145200000Y-57800000D02*
X144700000Y-57800000D01*
X145700000Y-57300000D02*
X145700000Y-56800000D01*
X145200000Y-57800000D02*
X145700000Y-57300000D01*
X138325000Y-54950000D02*
X138325000Y-55650000D01*
X137375000Y-54950000D02*
X137375000Y-55650000D01*
X146950000Y-66800000D02*
X149200000Y-66800000D01*
X149200000Y-65200000D02*
X146950000Y-65200000D01*
X148700000Y-65200000D02*
X148700000Y-66800000D01*
X149200000Y-65200000D02*
X149200000Y-65450000D01*
X149200000Y-66800000D02*
X149200000Y-66550000D01*
X146950000Y-66800000D02*
X146950000Y-66550000D01*
X146950000Y-65200000D02*
X146950000Y-65450000D01*
X145700000Y-70800000D02*
X145700000Y-71800000D01*
X144700000Y-70800000D02*
X145700000Y-70800000D01*
X141300000Y-70800000D02*
X142300000Y-70800000D01*
X141300000Y-71800000D02*
X141300000Y-70800000D01*
X141300000Y-75800000D02*
X141300000Y-74800000D01*
X141300000Y-75800000D02*
X142300000Y-75800000D01*
X145200000Y-75800000D02*
X144700000Y-75800000D01*
X145700000Y-75300000D02*
X145700000Y-74800000D01*
X145200000Y-75800000D02*
X145700000Y-75300000D01*
X138325000Y-72950000D02*
X138325000Y-73650000D01*
X137375000Y-72950000D02*
X137375000Y-73650000D01*
X146950000Y-84800000D02*
X149200000Y-84800000D01*
X149200000Y-83200000D02*
X146950000Y-83200000D01*
X148700000Y-83200000D02*
X148700000Y-84800000D01*
X149200000Y-83200000D02*
X149200000Y-83450000D01*
X149200000Y-84800000D02*
X149200000Y-84550000D01*
X146950000Y-84800000D02*
X146950000Y-84550000D01*
X146950000Y-83200000D02*
X146950000Y-83450000D01*
D10*
X17390476Y-19657142D02*
X17438095Y-19704761D01*
X17580952Y-19752380D01*
X17676190Y-19752380D01*
X17819047Y-19704761D01*
X17914285Y-19609523D01*
X17961904Y-19514285D01*
X18009523Y-19323809D01*
X18009523Y-19180952D01*
X17961904Y-18990476D01*
X17914285Y-18895238D01*
X17819047Y-18800000D01*
X17676190Y-18752380D01*
X17580952Y-18752380D01*
X17438095Y-18800000D01*
X17390476Y-18847619D01*
X29361904Y-28452380D02*
X29361904Y-27452380D01*
X29123809Y-27452380D01*
X28980952Y-27500000D01*
X28885714Y-27595238D01*
X28838095Y-27690476D01*
X28790476Y-27880952D01*
X28790476Y-28023809D01*
X28838095Y-28214285D01*
X28885714Y-28309523D01*
X28980952Y-28404761D01*
X29123809Y-28452380D01*
X29361904Y-28452380D01*
X28867857Y-21877380D02*
X29344047Y-21877380D01*
X29344047Y-20877380D01*
X28534523Y-21353571D02*
X28201190Y-21353571D01*
X28058333Y-21877380D02*
X28534523Y-21877380D01*
X28534523Y-20877380D01*
X28058333Y-20877380D01*
X27629761Y-21877380D02*
X27629761Y-20877380D01*
X27391666Y-20877380D01*
X27248809Y-20925000D01*
X27153571Y-21020238D01*
X27105952Y-21115476D01*
X27058333Y-21305952D01*
X27058333Y-21448809D01*
X27105952Y-21639285D01*
X27153571Y-21734523D01*
X27248809Y-21829761D01*
X27391666Y-21877380D01*
X27629761Y-21877380D01*
X136390476Y-37657142D02*
X136438095Y-37704761D01*
X136580952Y-37752380D01*
X136676190Y-37752380D01*
X136819047Y-37704761D01*
X136914285Y-37609523D01*
X136961904Y-37514285D01*
X137009523Y-37323809D01*
X137009523Y-37180952D01*
X136961904Y-36990476D01*
X136914285Y-36895238D01*
X136819047Y-36800000D01*
X136676190Y-36752380D01*
X136580952Y-36752380D01*
X136438095Y-36800000D01*
X136390476Y-36847619D01*
X148361904Y-46452380D02*
X148361904Y-45452380D01*
X148123809Y-45452380D01*
X147980952Y-45500000D01*
X147885714Y-45595238D01*
X147838095Y-45690476D01*
X147790476Y-45880952D01*
X147790476Y-46023809D01*
X147838095Y-46214285D01*
X147885714Y-46309523D01*
X147980952Y-46404761D01*
X148123809Y-46452380D01*
X148361904Y-46452380D01*
X147867857Y-39877380D02*
X148344047Y-39877380D01*
X148344047Y-38877380D01*
X147534523Y-39353571D02*
X147201190Y-39353571D01*
X147058333Y-39877380D02*
X147534523Y-39877380D01*
X147534523Y-38877380D01*
X147058333Y-38877380D01*
X146629761Y-39877380D02*
X146629761Y-38877380D01*
X146391666Y-38877380D01*
X146248809Y-38925000D01*
X146153571Y-39020238D01*
X146105952Y-39115476D01*
X146058333Y-39305952D01*
X146058333Y-39448809D01*
X146105952Y-39639285D01*
X146153571Y-39734523D01*
X146248809Y-39829761D01*
X146391666Y-39877380D01*
X146629761Y-39877380D01*
X98390476Y-73657142D02*
X98438095Y-73704761D01*
X98580952Y-73752380D01*
X98676190Y-73752380D01*
X98819047Y-73704761D01*
X98914285Y-73609523D01*
X98961904Y-73514285D01*
X99009523Y-73323809D01*
X99009523Y-73180952D01*
X98961904Y-72990476D01*
X98914285Y-72895238D01*
X98819047Y-72800000D01*
X98676190Y-72752380D01*
X98580952Y-72752380D01*
X98438095Y-72800000D01*
X98390476Y-72847619D01*
X110361904Y-82452380D02*
X110361904Y-81452380D01*
X110123809Y-81452380D01*
X109980952Y-81500000D01*
X109885714Y-81595238D01*
X109838095Y-81690476D01*
X109790476Y-81880952D01*
X109790476Y-82023809D01*
X109838095Y-82214285D01*
X109885714Y-82309523D01*
X109980952Y-82404761D01*
X110123809Y-82452380D01*
X110361904Y-82452380D01*
X109867857Y-75877380D02*
X110344047Y-75877380D01*
X110344047Y-74877380D01*
X109534523Y-75353571D02*
X109201190Y-75353571D01*
X109058333Y-75877380D02*
X109534523Y-75877380D01*
X109534523Y-74877380D01*
X109058333Y-74877380D01*
X108629761Y-75877380D02*
X108629761Y-74877380D01*
X108391666Y-74877380D01*
X108248809Y-74925000D01*
X108153571Y-75020238D01*
X108105952Y-75115476D01*
X108058333Y-75305952D01*
X108058333Y-75448809D01*
X108105952Y-75639285D01*
X108153571Y-75734523D01*
X108248809Y-75829761D01*
X108391666Y-75877380D01*
X108629761Y-75877380D01*
X79390476Y-37657142D02*
X79438095Y-37704761D01*
X79580952Y-37752380D01*
X79676190Y-37752380D01*
X79819047Y-37704761D01*
X79914285Y-37609523D01*
X79961904Y-37514285D01*
X80009523Y-37323809D01*
X80009523Y-37180952D01*
X79961904Y-36990476D01*
X79914285Y-36895238D01*
X79819047Y-36800000D01*
X79676190Y-36752380D01*
X79580952Y-36752380D01*
X79438095Y-36800000D01*
X79390476Y-36847619D01*
X91361904Y-46452380D02*
X91361904Y-45452380D01*
X91123809Y-45452380D01*
X90980952Y-45500000D01*
X90885714Y-45595238D01*
X90838095Y-45690476D01*
X90790476Y-45880952D01*
X90790476Y-46023809D01*
X90838095Y-46214285D01*
X90885714Y-46309523D01*
X90980952Y-46404761D01*
X91123809Y-46452380D01*
X91361904Y-46452380D01*
X90867857Y-39877380D02*
X91344047Y-39877380D01*
X91344047Y-38877380D01*
X90534523Y-39353571D02*
X90201190Y-39353571D01*
X90058333Y-39877380D02*
X90534523Y-39877380D01*
X90534523Y-38877380D01*
X90058333Y-38877380D01*
X89629761Y-39877380D02*
X89629761Y-38877380D01*
X89391666Y-38877380D01*
X89248809Y-38925000D01*
X89153571Y-39020238D01*
X89105952Y-39115476D01*
X89058333Y-39305952D01*
X89058333Y-39448809D01*
X89105952Y-39639285D01*
X89153571Y-39734523D01*
X89248809Y-39829761D01*
X89391666Y-39877380D01*
X89629761Y-39877380D01*
X17390476Y-37657142D02*
X17438095Y-37704761D01*
X17580952Y-37752380D01*
X17676190Y-37752380D01*
X17819047Y-37704761D01*
X17914285Y-37609523D01*
X17961904Y-37514285D01*
X18009523Y-37323809D01*
X18009523Y-37180952D01*
X17961904Y-36990476D01*
X17914285Y-36895238D01*
X17819047Y-36800000D01*
X17676190Y-36752380D01*
X17580952Y-36752380D01*
X17438095Y-36800000D01*
X17390476Y-36847619D01*
X29361904Y-46452380D02*
X29361904Y-45452380D01*
X29123809Y-45452380D01*
X28980952Y-45500000D01*
X28885714Y-45595238D01*
X28838095Y-45690476D01*
X28790476Y-45880952D01*
X28790476Y-46023809D01*
X28838095Y-46214285D01*
X28885714Y-46309523D01*
X28980952Y-46404761D01*
X29123809Y-46452380D01*
X29361904Y-46452380D01*
X28867857Y-39877380D02*
X29344047Y-39877380D01*
X29344047Y-38877380D01*
X28534523Y-39353571D02*
X28201190Y-39353571D01*
X28058333Y-39877380D02*
X28534523Y-39877380D01*
X28534523Y-38877380D01*
X28058333Y-38877380D01*
X27629761Y-39877380D02*
X27629761Y-38877380D01*
X27391666Y-38877380D01*
X27248809Y-38925000D01*
X27153571Y-39020238D01*
X27105952Y-39115476D01*
X27058333Y-39305952D01*
X27058333Y-39448809D01*
X27105952Y-39639285D01*
X27153571Y-39734523D01*
X27248809Y-39829761D01*
X27391666Y-39877380D01*
X27629761Y-39877380D01*
X17390476Y-73657142D02*
X17438095Y-73704761D01*
X17580952Y-73752380D01*
X17676190Y-73752380D01*
X17819047Y-73704761D01*
X17914285Y-73609523D01*
X17961904Y-73514285D01*
X18009523Y-73323809D01*
X18009523Y-73180952D01*
X17961904Y-72990476D01*
X17914285Y-72895238D01*
X17819047Y-72800000D01*
X17676190Y-72752380D01*
X17580952Y-72752380D01*
X17438095Y-72800000D01*
X17390476Y-72847619D01*
X29361904Y-82452380D02*
X29361904Y-81452380D01*
X29123809Y-81452380D01*
X28980952Y-81500000D01*
X28885714Y-81595238D01*
X28838095Y-81690476D01*
X28790476Y-81880952D01*
X28790476Y-82023809D01*
X28838095Y-82214285D01*
X28885714Y-82309523D01*
X28980952Y-82404761D01*
X29123809Y-82452380D01*
X29361904Y-82452380D01*
X28867857Y-75877380D02*
X29344047Y-75877380D01*
X29344047Y-74877380D01*
X28534523Y-75353571D02*
X28201190Y-75353571D01*
X28058333Y-75877380D02*
X28534523Y-75877380D01*
X28534523Y-74877380D01*
X28058333Y-74877380D01*
X27629761Y-75877380D02*
X27629761Y-74877380D01*
X27391666Y-74877380D01*
X27248809Y-74925000D01*
X27153571Y-75020238D01*
X27105952Y-75115476D01*
X27058333Y-75305952D01*
X27058333Y-75448809D01*
X27105952Y-75639285D01*
X27153571Y-75734523D01*
X27248809Y-75829761D01*
X27391666Y-75877380D01*
X27629761Y-75877380D01*
X36390476Y-55657142D02*
X36438095Y-55704761D01*
X36580952Y-55752380D01*
X36676190Y-55752380D01*
X36819047Y-55704761D01*
X36914285Y-55609523D01*
X36961904Y-55514285D01*
X37009523Y-55323809D01*
X37009523Y-55180952D01*
X36961904Y-54990476D01*
X36914285Y-54895238D01*
X36819047Y-54800000D01*
X36676190Y-54752380D01*
X36580952Y-54752380D01*
X36438095Y-54800000D01*
X36390476Y-54847619D01*
X48361904Y-64452380D02*
X48361904Y-63452380D01*
X48123809Y-63452380D01*
X47980952Y-63500000D01*
X47885714Y-63595238D01*
X47838095Y-63690476D01*
X47790476Y-63880952D01*
X47790476Y-64023809D01*
X47838095Y-64214285D01*
X47885714Y-64309523D01*
X47980952Y-64404761D01*
X48123809Y-64452380D01*
X48361904Y-64452380D01*
X47867857Y-57877380D02*
X48344047Y-57877380D01*
X48344047Y-56877380D01*
X47534523Y-57353571D02*
X47201190Y-57353571D01*
X47058333Y-57877380D02*
X47534523Y-57877380D01*
X47534523Y-56877380D01*
X47058333Y-56877380D01*
X46629761Y-57877380D02*
X46629761Y-56877380D01*
X46391666Y-56877380D01*
X46248809Y-56925000D01*
X46153571Y-57020238D01*
X46105952Y-57115476D01*
X46058333Y-57305952D01*
X46058333Y-57448809D01*
X46105952Y-57639285D01*
X46153571Y-57734523D01*
X46248809Y-57829761D01*
X46391666Y-57877380D01*
X46629761Y-57877380D01*
X36390476Y-73657142D02*
X36438095Y-73704761D01*
X36580952Y-73752380D01*
X36676190Y-73752380D01*
X36819047Y-73704761D01*
X36914285Y-73609523D01*
X36961904Y-73514285D01*
X37009523Y-73323809D01*
X37009523Y-73180952D01*
X36961904Y-72990476D01*
X36914285Y-72895238D01*
X36819047Y-72800000D01*
X36676190Y-72752380D01*
X36580952Y-72752380D01*
X36438095Y-72800000D01*
X36390476Y-72847619D01*
X48361904Y-82452380D02*
X48361904Y-81452380D01*
X48123809Y-81452380D01*
X47980952Y-81500000D01*
X47885714Y-81595238D01*
X47838095Y-81690476D01*
X47790476Y-81880952D01*
X47790476Y-82023809D01*
X47838095Y-82214285D01*
X47885714Y-82309523D01*
X47980952Y-82404761D01*
X48123809Y-82452380D01*
X48361904Y-82452380D01*
X47867857Y-75877380D02*
X48344047Y-75877380D01*
X48344047Y-74877380D01*
X47534523Y-75353571D02*
X47201190Y-75353571D01*
X47058333Y-75877380D02*
X47534523Y-75877380D01*
X47534523Y-74877380D01*
X47058333Y-74877380D01*
X46629761Y-75877380D02*
X46629761Y-74877380D01*
X46391666Y-74877380D01*
X46248809Y-74925000D01*
X46153571Y-75020238D01*
X46105952Y-75115476D01*
X46058333Y-75305952D01*
X46058333Y-75448809D01*
X46105952Y-75639285D01*
X46153571Y-75734523D01*
X46248809Y-75829761D01*
X46391666Y-75877380D01*
X46629761Y-75877380D01*
X55390476Y-19657142D02*
X55438095Y-19704761D01*
X55580952Y-19752380D01*
X55676190Y-19752380D01*
X55819047Y-19704761D01*
X55914285Y-19609523D01*
X55961904Y-19514285D01*
X56009523Y-19323809D01*
X56009523Y-19180952D01*
X55961904Y-18990476D01*
X55914285Y-18895238D01*
X55819047Y-18800000D01*
X55676190Y-18752380D01*
X55580952Y-18752380D01*
X55438095Y-18800000D01*
X55390476Y-18847619D01*
X67361904Y-28452380D02*
X67361904Y-27452380D01*
X67123809Y-27452380D01*
X66980952Y-27500000D01*
X66885714Y-27595238D01*
X66838095Y-27690476D01*
X66790476Y-27880952D01*
X66790476Y-28023809D01*
X66838095Y-28214285D01*
X66885714Y-28309523D01*
X66980952Y-28404761D01*
X67123809Y-28452380D01*
X67361904Y-28452380D01*
X66867857Y-21877380D02*
X67344047Y-21877380D01*
X67344047Y-20877380D01*
X66534523Y-21353571D02*
X66201190Y-21353571D01*
X66058333Y-21877380D02*
X66534523Y-21877380D01*
X66534523Y-20877380D01*
X66058333Y-20877380D01*
X65629761Y-21877380D02*
X65629761Y-20877380D01*
X65391666Y-20877380D01*
X65248809Y-20925000D01*
X65153571Y-21020238D01*
X65105952Y-21115476D01*
X65058333Y-21305952D01*
X65058333Y-21448809D01*
X65105952Y-21639285D01*
X65153571Y-21734523D01*
X65248809Y-21829761D01*
X65391666Y-21877380D01*
X65629761Y-21877380D01*
X55390476Y-37657142D02*
X55438095Y-37704761D01*
X55580952Y-37752380D01*
X55676190Y-37752380D01*
X55819047Y-37704761D01*
X55914285Y-37609523D01*
X55961904Y-37514285D01*
X56009523Y-37323809D01*
X56009523Y-37180952D01*
X55961904Y-36990476D01*
X55914285Y-36895238D01*
X55819047Y-36800000D01*
X55676190Y-36752380D01*
X55580952Y-36752380D01*
X55438095Y-36800000D01*
X55390476Y-36847619D01*
X67361904Y-46452380D02*
X67361904Y-45452380D01*
X67123809Y-45452380D01*
X66980952Y-45500000D01*
X66885714Y-45595238D01*
X66838095Y-45690476D01*
X66790476Y-45880952D01*
X66790476Y-46023809D01*
X66838095Y-46214285D01*
X66885714Y-46309523D01*
X66980952Y-46404761D01*
X67123809Y-46452380D01*
X67361904Y-46452380D01*
X66867857Y-39877380D02*
X67344047Y-39877380D01*
X67344047Y-38877380D01*
X66534523Y-39353571D02*
X66201190Y-39353571D01*
X66058333Y-39877380D02*
X66534523Y-39877380D01*
X66534523Y-38877380D01*
X66058333Y-38877380D01*
X65629761Y-39877380D02*
X65629761Y-38877380D01*
X65391666Y-38877380D01*
X65248809Y-38925000D01*
X65153571Y-39020238D01*
X65105952Y-39115476D01*
X65058333Y-39305952D01*
X65058333Y-39448809D01*
X65105952Y-39639285D01*
X65153571Y-39734523D01*
X65248809Y-39829761D01*
X65391666Y-39877380D01*
X65629761Y-39877380D01*
X55390476Y-73657142D02*
X55438095Y-73704761D01*
X55580952Y-73752380D01*
X55676190Y-73752380D01*
X55819047Y-73704761D01*
X55914285Y-73609523D01*
X55961904Y-73514285D01*
X56009523Y-73323809D01*
X56009523Y-73180952D01*
X55961904Y-72990476D01*
X55914285Y-72895238D01*
X55819047Y-72800000D01*
X55676190Y-72752380D01*
X55580952Y-72752380D01*
X55438095Y-72800000D01*
X55390476Y-72847619D01*
X67361904Y-82452380D02*
X67361904Y-81452380D01*
X67123809Y-81452380D01*
X66980952Y-81500000D01*
X66885714Y-81595238D01*
X66838095Y-81690476D01*
X66790476Y-81880952D01*
X66790476Y-82023809D01*
X66838095Y-82214285D01*
X66885714Y-82309523D01*
X66980952Y-82404761D01*
X67123809Y-82452380D01*
X67361904Y-82452380D01*
X66867857Y-75877380D02*
X67344047Y-75877380D01*
X67344047Y-74877380D01*
X66534523Y-75353571D02*
X66201190Y-75353571D01*
X66058333Y-75877380D02*
X66534523Y-75877380D01*
X66534523Y-74877380D01*
X66058333Y-74877380D01*
X65629761Y-75877380D02*
X65629761Y-74877380D01*
X65391666Y-74877380D01*
X65248809Y-74925000D01*
X65153571Y-75020238D01*
X65105952Y-75115476D01*
X65058333Y-75305952D01*
X65058333Y-75448809D01*
X65105952Y-75639285D01*
X65153571Y-75734523D01*
X65248809Y-75829761D01*
X65391666Y-75877380D01*
X65629761Y-75877380D01*
X79390476Y-19657142D02*
X79438095Y-19704761D01*
X79580952Y-19752380D01*
X79676190Y-19752380D01*
X79819047Y-19704761D01*
X79914285Y-19609523D01*
X79961904Y-19514285D01*
X80009523Y-19323809D01*
X80009523Y-19180952D01*
X79961904Y-18990476D01*
X79914285Y-18895238D01*
X79819047Y-18800000D01*
X79676190Y-18752380D01*
X79580952Y-18752380D01*
X79438095Y-18800000D01*
X79390476Y-18847619D01*
X91361904Y-28452380D02*
X91361904Y-27452380D01*
X91123809Y-27452380D01*
X90980952Y-27500000D01*
X90885714Y-27595238D01*
X90838095Y-27690476D01*
X90790476Y-27880952D01*
X90790476Y-28023809D01*
X90838095Y-28214285D01*
X90885714Y-28309523D01*
X90980952Y-28404761D01*
X91123809Y-28452380D01*
X91361904Y-28452380D01*
X90867857Y-21877380D02*
X91344047Y-21877380D01*
X91344047Y-20877380D01*
X90534523Y-21353571D02*
X90201190Y-21353571D01*
X90058333Y-21877380D02*
X90534523Y-21877380D01*
X90534523Y-20877380D01*
X90058333Y-20877380D01*
X89629761Y-21877380D02*
X89629761Y-20877380D01*
X89391666Y-20877380D01*
X89248809Y-20925000D01*
X89153571Y-21020238D01*
X89105952Y-21115476D01*
X89058333Y-21305952D01*
X89058333Y-21448809D01*
X89105952Y-21639285D01*
X89153571Y-21734523D01*
X89248809Y-21829761D01*
X89391666Y-21877380D01*
X89629761Y-21877380D01*
X79390476Y-55657142D02*
X79438095Y-55704761D01*
X79580952Y-55752380D01*
X79676190Y-55752380D01*
X79819047Y-55704761D01*
X79914285Y-55609523D01*
X79961904Y-55514285D01*
X80009523Y-55323809D01*
X80009523Y-55180952D01*
X79961904Y-54990476D01*
X79914285Y-54895238D01*
X79819047Y-54800000D01*
X79676190Y-54752380D01*
X79580952Y-54752380D01*
X79438095Y-54800000D01*
X79390476Y-54847619D01*
X91361904Y-64452380D02*
X91361904Y-63452380D01*
X91123809Y-63452380D01*
X90980952Y-63500000D01*
X90885714Y-63595238D01*
X90838095Y-63690476D01*
X90790476Y-63880952D01*
X90790476Y-64023809D01*
X90838095Y-64214285D01*
X90885714Y-64309523D01*
X90980952Y-64404761D01*
X91123809Y-64452380D01*
X91361904Y-64452380D01*
X90867857Y-57877380D02*
X91344047Y-57877380D01*
X91344047Y-56877380D01*
X90534523Y-57353571D02*
X90201190Y-57353571D01*
X90058333Y-57877380D02*
X90534523Y-57877380D01*
X90534523Y-56877380D01*
X90058333Y-56877380D01*
X89629761Y-57877380D02*
X89629761Y-56877380D01*
X89391666Y-56877380D01*
X89248809Y-56925000D01*
X89153571Y-57020238D01*
X89105952Y-57115476D01*
X89058333Y-57305952D01*
X89058333Y-57448809D01*
X89105952Y-57639285D01*
X89153571Y-57734523D01*
X89248809Y-57829761D01*
X89391666Y-57877380D01*
X89629761Y-57877380D01*
X79390476Y-73657142D02*
X79438095Y-73704761D01*
X79580952Y-73752380D01*
X79676190Y-73752380D01*
X79819047Y-73704761D01*
X79914285Y-73609523D01*
X79961904Y-73514285D01*
X80009523Y-73323809D01*
X80009523Y-73180952D01*
X79961904Y-72990476D01*
X79914285Y-72895238D01*
X79819047Y-72800000D01*
X79676190Y-72752380D01*
X79580952Y-72752380D01*
X79438095Y-72800000D01*
X79390476Y-72847619D01*
X91361904Y-82452380D02*
X91361904Y-81452380D01*
X91123809Y-81452380D01*
X90980952Y-81500000D01*
X90885714Y-81595238D01*
X90838095Y-81690476D01*
X90790476Y-81880952D01*
X90790476Y-82023809D01*
X90838095Y-82214285D01*
X90885714Y-82309523D01*
X90980952Y-82404761D01*
X91123809Y-82452380D01*
X91361904Y-82452380D01*
X90867857Y-75877380D02*
X91344047Y-75877380D01*
X91344047Y-74877380D01*
X90534523Y-75353571D02*
X90201190Y-75353571D01*
X90058333Y-75877380D02*
X90534523Y-75877380D01*
X90534523Y-74877380D01*
X90058333Y-74877380D01*
X89629761Y-75877380D02*
X89629761Y-74877380D01*
X89391666Y-74877380D01*
X89248809Y-74925000D01*
X89153571Y-75020238D01*
X89105952Y-75115476D01*
X89058333Y-75305952D01*
X89058333Y-75448809D01*
X89105952Y-75639285D01*
X89153571Y-75734523D01*
X89248809Y-75829761D01*
X89391666Y-75877380D01*
X89629761Y-75877380D01*
X98390476Y-19657142D02*
X98438095Y-19704761D01*
X98580952Y-19752380D01*
X98676190Y-19752380D01*
X98819047Y-19704761D01*
X98914285Y-19609523D01*
X98961904Y-19514285D01*
X99009523Y-19323809D01*
X99009523Y-19180952D01*
X98961904Y-18990476D01*
X98914285Y-18895238D01*
X98819047Y-18800000D01*
X98676190Y-18752380D01*
X98580952Y-18752380D01*
X98438095Y-18800000D01*
X98390476Y-18847619D01*
X110361904Y-28452380D02*
X110361904Y-27452380D01*
X110123809Y-27452380D01*
X109980952Y-27500000D01*
X109885714Y-27595238D01*
X109838095Y-27690476D01*
X109790476Y-27880952D01*
X109790476Y-28023809D01*
X109838095Y-28214285D01*
X109885714Y-28309523D01*
X109980952Y-28404761D01*
X110123809Y-28452380D01*
X110361904Y-28452380D01*
X109867857Y-21877380D02*
X110344047Y-21877380D01*
X110344047Y-20877380D01*
X109534523Y-21353571D02*
X109201190Y-21353571D01*
X109058333Y-21877380D02*
X109534523Y-21877380D01*
X109534523Y-20877380D01*
X109058333Y-20877380D01*
X108629761Y-21877380D02*
X108629761Y-20877380D01*
X108391666Y-20877380D01*
X108248809Y-20925000D01*
X108153571Y-21020238D01*
X108105952Y-21115476D01*
X108058333Y-21305952D01*
X108058333Y-21448809D01*
X108105952Y-21639285D01*
X108153571Y-21734523D01*
X108248809Y-21829761D01*
X108391666Y-21877380D01*
X108629761Y-21877380D01*
X98390476Y-37657142D02*
X98438095Y-37704761D01*
X98580952Y-37752380D01*
X98676190Y-37752380D01*
X98819047Y-37704761D01*
X98914285Y-37609523D01*
X98961904Y-37514285D01*
X99009523Y-37323809D01*
X99009523Y-37180952D01*
X98961904Y-36990476D01*
X98914285Y-36895238D01*
X98819047Y-36800000D01*
X98676190Y-36752380D01*
X98580952Y-36752380D01*
X98438095Y-36800000D01*
X98390476Y-36847619D01*
X110361904Y-46452380D02*
X110361904Y-45452380D01*
X110123809Y-45452380D01*
X109980952Y-45500000D01*
X109885714Y-45595238D01*
X109838095Y-45690476D01*
X109790476Y-45880952D01*
X109790476Y-46023809D01*
X109838095Y-46214285D01*
X109885714Y-46309523D01*
X109980952Y-46404761D01*
X110123809Y-46452380D01*
X110361904Y-46452380D01*
X109867857Y-39877380D02*
X110344047Y-39877380D01*
X110344047Y-38877380D01*
X109534523Y-39353571D02*
X109201190Y-39353571D01*
X109058333Y-39877380D02*
X109534523Y-39877380D01*
X109534523Y-38877380D01*
X109058333Y-38877380D01*
X108629761Y-39877380D02*
X108629761Y-38877380D01*
X108391666Y-38877380D01*
X108248809Y-38925000D01*
X108153571Y-39020238D01*
X108105952Y-39115476D01*
X108058333Y-39305952D01*
X108058333Y-39448809D01*
X108105952Y-39639285D01*
X108153571Y-39734523D01*
X108248809Y-39829761D01*
X108391666Y-39877380D01*
X108629761Y-39877380D01*
X98390476Y-55657142D02*
X98438095Y-55704761D01*
X98580952Y-55752380D01*
X98676190Y-55752380D01*
X98819047Y-55704761D01*
X98914285Y-55609523D01*
X98961904Y-55514285D01*
X99009523Y-55323809D01*
X99009523Y-55180952D01*
X98961904Y-54990476D01*
X98914285Y-54895238D01*
X98819047Y-54800000D01*
X98676190Y-54752380D01*
X98580952Y-54752380D01*
X98438095Y-54800000D01*
X98390476Y-54847619D01*
X110361904Y-64452380D02*
X110361904Y-63452380D01*
X110123809Y-63452380D01*
X109980952Y-63500000D01*
X109885714Y-63595238D01*
X109838095Y-63690476D01*
X109790476Y-63880952D01*
X109790476Y-64023809D01*
X109838095Y-64214285D01*
X109885714Y-64309523D01*
X109980952Y-64404761D01*
X110123809Y-64452380D01*
X110361904Y-64452380D01*
X109867857Y-57877380D02*
X110344047Y-57877380D01*
X110344047Y-56877380D01*
X109534523Y-57353571D02*
X109201190Y-57353571D01*
X109058333Y-57877380D02*
X109534523Y-57877380D01*
X109534523Y-56877380D01*
X109058333Y-56877380D01*
X108629761Y-57877380D02*
X108629761Y-56877380D01*
X108391666Y-56877380D01*
X108248809Y-56925000D01*
X108153571Y-57020238D01*
X108105952Y-57115476D01*
X108058333Y-57305952D01*
X108058333Y-57448809D01*
X108105952Y-57639285D01*
X108153571Y-57734523D01*
X108248809Y-57829761D01*
X108391666Y-57877380D01*
X108629761Y-57877380D01*
X117390476Y-19657142D02*
X117438095Y-19704761D01*
X117580952Y-19752380D01*
X117676190Y-19752380D01*
X117819047Y-19704761D01*
X117914285Y-19609523D01*
X117961904Y-19514285D01*
X118009523Y-19323809D01*
X118009523Y-19180952D01*
X117961904Y-18990476D01*
X117914285Y-18895238D01*
X117819047Y-18800000D01*
X117676190Y-18752380D01*
X117580952Y-18752380D01*
X117438095Y-18800000D01*
X117390476Y-18847619D01*
X129361904Y-28452380D02*
X129361904Y-27452380D01*
X129123809Y-27452380D01*
X128980952Y-27500000D01*
X128885714Y-27595238D01*
X128838095Y-27690476D01*
X128790476Y-27880952D01*
X128790476Y-28023809D01*
X128838095Y-28214285D01*
X128885714Y-28309523D01*
X128980952Y-28404761D01*
X129123809Y-28452380D01*
X129361904Y-28452380D01*
X128867857Y-21877380D02*
X129344047Y-21877380D01*
X129344047Y-20877380D01*
X128534523Y-21353571D02*
X128201190Y-21353571D01*
X128058333Y-21877380D02*
X128534523Y-21877380D01*
X128534523Y-20877380D01*
X128058333Y-20877380D01*
X127629761Y-21877380D02*
X127629761Y-20877380D01*
X127391666Y-20877380D01*
X127248809Y-20925000D01*
X127153571Y-21020238D01*
X127105952Y-21115476D01*
X127058333Y-21305952D01*
X127058333Y-21448809D01*
X127105952Y-21639285D01*
X127153571Y-21734523D01*
X127248809Y-21829761D01*
X127391666Y-21877380D01*
X127629761Y-21877380D01*
X117390476Y-37657142D02*
X117438095Y-37704761D01*
X117580952Y-37752380D01*
X117676190Y-37752380D01*
X117819047Y-37704761D01*
X117914285Y-37609523D01*
X117961904Y-37514285D01*
X118009523Y-37323809D01*
X118009523Y-37180952D01*
X117961904Y-36990476D01*
X117914285Y-36895238D01*
X117819047Y-36800000D01*
X117676190Y-36752380D01*
X117580952Y-36752380D01*
X117438095Y-36800000D01*
X117390476Y-36847619D01*
X129361904Y-46452380D02*
X129361904Y-45452380D01*
X129123809Y-45452380D01*
X128980952Y-45500000D01*
X128885714Y-45595238D01*
X128838095Y-45690476D01*
X128790476Y-45880952D01*
X128790476Y-46023809D01*
X128838095Y-46214285D01*
X128885714Y-46309523D01*
X128980952Y-46404761D01*
X129123809Y-46452380D01*
X129361904Y-46452380D01*
X128867857Y-39877380D02*
X129344047Y-39877380D01*
X129344047Y-38877380D01*
X128534523Y-39353571D02*
X128201190Y-39353571D01*
X128058333Y-39877380D02*
X128534523Y-39877380D01*
X128534523Y-38877380D01*
X128058333Y-38877380D01*
X127629761Y-39877380D02*
X127629761Y-38877380D01*
X127391666Y-38877380D01*
X127248809Y-38925000D01*
X127153571Y-39020238D01*
X127105952Y-39115476D01*
X127058333Y-39305952D01*
X127058333Y-39448809D01*
X127105952Y-39639285D01*
X127153571Y-39734523D01*
X127248809Y-39829761D01*
X127391666Y-39877380D01*
X127629761Y-39877380D01*
X117390476Y-55657142D02*
X117438095Y-55704761D01*
X117580952Y-55752380D01*
X117676190Y-55752380D01*
X117819047Y-55704761D01*
X117914285Y-55609523D01*
X117961904Y-55514285D01*
X118009523Y-55323809D01*
X118009523Y-55180952D01*
X117961904Y-54990476D01*
X117914285Y-54895238D01*
X117819047Y-54800000D01*
X117676190Y-54752380D01*
X117580952Y-54752380D01*
X117438095Y-54800000D01*
X117390476Y-54847619D01*
X129361904Y-64452380D02*
X129361904Y-63452380D01*
X129123809Y-63452380D01*
X128980952Y-63500000D01*
X128885714Y-63595238D01*
X128838095Y-63690476D01*
X128790476Y-63880952D01*
X128790476Y-64023809D01*
X128838095Y-64214285D01*
X128885714Y-64309523D01*
X128980952Y-64404761D01*
X129123809Y-64452380D01*
X129361904Y-64452380D01*
X128867857Y-57877380D02*
X129344047Y-57877380D01*
X129344047Y-56877380D01*
X128534523Y-57353571D02*
X128201190Y-57353571D01*
X128058333Y-57877380D02*
X128534523Y-57877380D01*
X128534523Y-56877380D01*
X128058333Y-56877380D01*
X127629761Y-57877380D02*
X127629761Y-56877380D01*
X127391666Y-56877380D01*
X127248809Y-56925000D01*
X127153571Y-57020238D01*
X127105952Y-57115476D01*
X127058333Y-57305952D01*
X127058333Y-57448809D01*
X127105952Y-57639285D01*
X127153571Y-57734523D01*
X127248809Y-57829761D01*
X127391666Y-57877380D01*
X127629761Y-57877380D01*
X117390476Y-73657142D02*
X117438095Y-73704761D01*
X117580952Y-73752380D01*
X117676190Y-73752380D01*
X117819047Y-73704761D01*
X117914285Y-73609523D01*
X117961904Y-73514285D01*
X118009523Y-73323809D01*
X118009523Y-73180952D01*
X117961904Y-72990476D01*
X117914285Y-72895238D01*
X117819047Y-72800000D01*
X117676190Y-72752380D01*
X117580952Y-72752380D01*
X117438095Y-72800000D01*
X117390476Y-72847619D01*
X129361904Y-82452380D02*
X129361904Y-81452380D01*
X129123809Y-81452380D01*
X128980952Y-81500000D01*
X128885714Y-81595238D01*
X128838095Y-81690476D01*
X128790476Y-81880952D01*
X128790476Y-82023809D01*
X128838095Y-82214285D01*
X128885714Y-82309523D01*
X128980952Y-82404761D01*
X129123809Y-82452380D01*
X129361904Y-82452380D01*
X128867857Y-75877380D02*
X129344047Y-75877380D01*
X129344047Y-74877380D01*
X128534523Y-75353571D02*
X128201190Y-75353571D01*
X128058333Y-75877380D02*
X128534523Y-75877380D01*
X128534523Y-74877380D01*
X128058333Y-74877380D01*
X127629761Y-75877380D02*
X127629761Y-74877380D01*
X127391666Y-74877380D01*
X127248809Y-74925000D01*
X127153571Y-75020238D01*
X127105952Y-75115476D01*
X127058333Y-75305952D01*
X127058333Y-75448809D01*
X127105952Y-75639285D01*
X127153571Y-75734523D01*
X127248809Y-75829761D01*
X127391666Y-75877380D01*
X127629761Y-75877380D01*
X136390476Y-19657142D02*
X136438095Y-19704761D01*
X136580952Y-19752380D01*
X136676190Y-19752380D01*
X136819047Y-19704761D01*
X136914285Y-19609523D01*
X136961904Y-19514285D01*
X137009523Y-19323809D01*
X137009523Y-19180952D01*
X136961904Y-18990476D01*
X136914285Y-18895238D01*
X136819047Y-18800000D01*
X136676190Y-18752380D01*
X136580952Y-18752380D01*
X136438095Y-18800000D01*
X136390476Y-18847619D01*
X148361904Y-28452380D02*
X148361904Y-27452380D01*
X148123809Y-27452380D01*
X147980952Y-27500000D01*
X147885714Y-27595238D01*
X147838095Y-27690476D01*
X147790476Y-27880952D01*
X147790476Y-28023809D01*
X147838095Y-28214285D01*
X147885714Y-28309523D01*
X147980952Y-28404761D01*
X148123809Y-28452380D01*
X148361904Y-28452380D01*
X147867857Y-21877380D02*
X148344047Y-21877380D01*
X148344047Y-20877380D01*
X147534523Y-21353571D02*
X147201190Y-21353571D01*
X147058333Y-21877380D02*
X147534523Y-21877380D01*
X147534523Y-20877380D01*
X147058333Y-20877380D01*
X146629761Y-21877380D02*
X146629761Y-20877380D01*
X146391666Y-20877380D01*
X146248809Y-20925000D01*
X146153571Y-21020238D01*
X146105952Y-21115476D01*
X146058333Y-21305952D01*
X146058333Y-21448809D01*
X146105952Y-21639285D01*
X146153571Y-21734523D01*
X146248809Y-21829761D01*
X146391666Y-21877380D01*
X146629761Y-21877380D01*
X136390476Y-55657142D02*
X136438095Y-55704761D01*
X136580952Y-55752380D01*
X136676190Y-55752380D01*
X136819047Y-55704761D01*
X136914285Y-55609523D01*
X136961904Y-55514285D01*
X137009523Y-55323809D01*
X137009523Y-55180952D01*
X136961904Y-54990476D01*
X136914285Y-54895238D01*
X136819047Y-54800000D01*
X136676190Y-54752380D01*
X136580952Y-54752380D01*
X136438095Y-54800000D01*
X136390476Y-54847619D01*
X148361904Y-64452380D02*
X148361904Y-63452380D01*
X148123809Y-63452380D01*
X147980952Y-63500000D01*
X147885714Y-63595238D01*
X147838095Y-63690476D01*
X147790476Y-63880952D01*
X147790476Y-64023809D01*
X147838095Y-64214285D01*
X147885714Y-64309523D01*
X147980952Y-64404761D01*
X148123809Y-64452380D01*
X148361904Y-64452380D01*
X147867857Y-57877380D02*
X148344047Y-57877380D01*
X148344047Y-56877380D01*
X147534523Y-57353571D02*
X147201190Y-57353571D01*
X147058333Y-57877380D02*
X147534523Y-57877380D01*
X147534523Y-56877380D01*
X147058333Y-56877380D01*
X146629761Y-57877380D02*
X146629761Y-56877380D01*
X146391666Y-56877380D01*
X146248809Y-56925000D01*
X146153571Y-57020238D01*
X146105952Y-57115476D01*
X146058333Y-57305952D01*
X146058333Y-57448809D01*
X146105952Y-57639285D01*
X146153571Y-57734523D01*
X146248809Y-57829761D01*
X146391666Y-57877380D01*
X146629761Y-57877380D01*
X136390476Y-73657142D02*
X136438095Y-73704761D01*
X136580952Y-73752380D01*
X136676190Y-73752380D01*
X136819047Y-73704761D01*
X136914285Y-73609523D01*
X136961904Y-73514285D01*
X137009523Y-73323809D01*
X137009523Y-73180952D01*
X136961904Y-72990476D01*
X136914285Y-72895238D01*
X136819047Y-72800000D01*
X136676190Y-72752380D01*
X136580952Y-72752380D01*
X136438095Y-72800000D01*
X136390476Y-72847619D01*
X148361904Y-82452380D02*
X148361904Y-81452380D01*
X148123809Y-81452380D01*
X147980952Y-81500000D01*
X147885714Y-81595238D01*
X147838095Y-81690476D01*
X147790476Y-81880952D01*
X147790476Y-82023809D01*
X147838095Y-82214285D01*
X147885714Y-82309523D01*
X147980952Y-82404761D01*
X148123809Y-82452380D01*
X148361904Y-82452380D01*
X147867857Y-75877380D02*
X148344047Y-75877380D01*
X148344047Y-74877380D01*
X147534523Y-75353571D02*
X147201190Y-75353571D01*
X147058333Y-75877380D02*
X147534523Y-75877380D01*
X147534523Y-74877380D01*
X147058333Y-74877380D01*
X146629761Y-75877380D02*
X146629761Y-74877380D01*
X146391666Y-74877380D01*
X146248809Y-74925000D01*
X146153571Y-75020238D01*
X146105952Y-75115476D01*
X146058333Y-75305952D01*
X146058333Y-75448809D01*
X146105952Y-75639285D01*
X146153571Y-75734523D01*
X146248809Y-75829761D01*
X146391666Y-75877380D01*
X146629761Y-75877380D01*
%LPC*%
D12*
X74500000Y-11000000D03*
X16000000Y-11000000D03*
X152000000Y-11000000D03*
X74500000Y-89000000D03*
X152000000Y-89000000D03*
X16000000Y-89000000D03*
G36*
G01*
X18600000Y-19650000D02*
X19100000Y-19650000D01*
G75*
G02*
X19325000Y-19875000I0J-225000D01*
G01*
X19325000Y-20325000D01*
G75*
G02*
X19100000Y-20550000I-225000J0D01*
G01*
X18600000Y-20550000D01*
G75*
G02*
X18375000Y-20325000I0J225000D01*
G01*
X18375000Y-19875000D01*
G75*
G02*
X18600000Y-19650000I225000J0D01*
G01*
G37*
G36*
G01*
X18600000Y-18050000D02*
X19100000Y-18050000D01*
G75*
G02*
X19325000Y-18275000I0J-225000D01*
G01*
X19325000Y-18725000D01*
G75*
G02*
X19100000Y-18950000I-225000J0D01*
G01*
X18600000Y-18950000D01*
G75*
G02*
X18375000Y-18725000I0J225000D01*
G01*
X18375000Y-18275000D01*
G75*
G02*
X18600000Y-18050000I225000J0D01*
G01*
G37*
D13*
X30650000Y-30000000D03*
X27500000Y-30000000D03*
D14*
X27700000Y-20050000D03*
X27700000Y-18550000D03*
X21300000Y-20050000D03*
X21300000Y-18550000D03*
D15*
X24500000Y-24000000D03*
D16*
X24500000Y-29900000D03*
X19500000Y-27800000D03*
D17*
X19000000Y-24000000D03*
X30000000Y-24000000D03*
G36*
G01*
X137600000Y-37650000D02*
X138100000Y-37650000D01*
G75*
G02*
X138325000Y-37875000I0J-225000D01*
G01*
X138325000Y-38325000D01*
G75*
G02*
X138100000Y-38550000I-225000J0D01*
G01*
X137600000Y-38550000D01*
G75*
G02*
X137375000Y-38325000I0J225000D01*
G01*
X137375000Y-37875000D01*
G75*
G02*
X137600000Y-37650000I225000J0D01*
G01*
G37*
G36*
G01*
X137600000Y-36050000D02*
X138100000Y-36050000D01*
G75*
G02*
X138325000Y-36275000I0J-225000D01*
G01*
X138325000Y-36725000D01*
G75*
G02*
X138100000Y-36950000I-225000J0D01*
G01*
X137600000Y-36950000D01*
G75*
G02*
X137375000Y-36725000I0J225000D01*
G01*
X137375000Y-36275000D01*
G75*
G02*
X137600000Y-36050000I225000J0D01*
G01*
G37*
D13*
X149650000Y-48000000D03*
X146500000Y-48000000D03*
D14*
X146700000Y-38050000D03*
X146700000Y-36550000D03*
X140300000Y-38050000D03*
X140300000Y-36550000D03*
D15*
X143500000Y-42000000D03*
D16*
X143500000Y-47900000D03*
X138500000Y-45800000D03*
D17*
X138000000Y-42000000D03*
X149000000Y-42000000D03*
G36*
G01*
X99600000Y-73650000D02*
X100100000Y-73650000D01*
G75*
G02*
X100325000Y-73875000I0J-225000D01*
G01*
X100325000Y-74325000D01*
G75*
G02*
X100100000Y-74550000I-225000J0D01*
G01*
X99600000Y-74550000D01*
G75*
G02*
X99375000Y-74325000I0J225000D01*
G01*
X99375000Y-73875000D01*
G75*
G02*
X99600000Y-73650000I225000J0D01*
G01*
G37*
G36*
G01*
X99600000Y-72050000D02*
X100100000Y-72050000D01*
G75*
G02*
X100325000Y-72275000I0J-225000D01*
G01*
X100325000Y-72725000D01*
G75*
G02*
X100100000Y-72950000I-225000J0D01*
G01*
X99600000Y-72950000D01*
G75*
G02*
X99375000Y-72725000I0J225000D01*
G01*
X99375000Y-72275000D01*
G75*
G02*
X99600000Y-72050000I225000J0D01*
G01*
G37*
D13*
X111650000Y-84000000D03*
X108500000Y-84000000D03*
D14*
X108700000Y-74050000D03*
X108700000Y-72550000D03*
X102300000Y-74050000D03*
X102300000Y-72550000D03*
D15*
X105500000Y-78000000D03*
D16*
X105500000Y-83900000D03*
X100500000Y-81800000D03*
D17*
X100000000Y-78000000D03*
X111000000Y-78000000D03*
G36*
G01*
X80600000Y-37650000D02*
X81100000Y-37650000D01*
G75*
G02*
X81325000Y-37875000I0J-225000D01*
G01*
X81325000Y-38325000D01*
G75*
G02*
X81100000Y-38550000I-225000J0D01*
G01*
X80600000Y-38550000D01*
G75*
G02*
X80375000Y-38325000I0J225000D01*
G01*
X80375000Y-37875000D01*
G75*
G02*
X80600000Y-37650000I225000J0D01*
G01*
G37*
G36*
G01*
X80600000Y-36050000D02*
X81100000Y-36050000D01*
G75*
G02*
X81325000Y-36275000I0J-225000D01*
G01*
X81325000Y-36725000D01*
G75*
G02*
X81100000Y-36950000I-225000J0D01*
G01*
X80600000Y-36950000D01*
G75*
G02*
X80375000Y-36725000I0J225000D01*
G01*
X80375000Y-36275000D01*
G75*
G02*
X80600000Y-36050000I225000J0D01*
G01*
G37*
D13*
X92650000Y-48000000D03*
X89500000Y-48000000D03*
D14*
X89700000Y-38050000D03*
X89700000Y-36550000D03*
X83300000Y-38050000D03*
X83300000Y-36550000D03*
D15*
X86500000Y-42000000D03*
D16*
X86500000Y-47900000D03*
X81500000Y-45800000D03*
D17*
X81000000Y-42000000D03*
X92000000Y-42000000D03*
G36*
G01*
X18600000Y-37650000D02*
X19100000Y-37650000D01*
G75*
G02*
X19325000Y-37875000I0J-225000D01*
G01*
X19325000Y-38325000D01*
G75*
G02*
X19100000Y-38550000I-225000J0D01*
G01*
X18600000Y-38550000D01*
G75*
G02*
X18375000Y-38325000I0J225000D01*
G01*
X18375000Y-37875000D01*
G75*
G02*
X18600000Y-37650000I225000J0D01*
G01*
G37*
G36*
G01*
X18600000Y-36050000D02*
X19100000Y-36050000D01*
G75*
G02*
X19325000Y-36275000I0J-225000D01*
G01*
X19325000Y-36725000D01*
G75*
G02*
X19100000Y-36950000I-225000J0D01*
G01*
X18600000Y-36950000D01*
G75*
G02*
X18375000Y-36725000I0J225000D01*
G01*
X18375000Y-36275000D01*
G75*
G02*
X18600000Y-36050000I225000J0D01*
G01*
G37*
D13*
X30650000Y-48000000D03*
X27500000Y-48000000D03*
D14*
X27700000Y-38050000D03*
X27700000Y-36550000D03*
X21300000Y-38050000D03*
X21300000Y-36550000D03*
D15*
X24500000Y-42000000D03*
D16*
X24500000Y-47900000D03*
X19500000Y-45800000D03*
D17*
X19000000Y-42000000D03*
X30000000Y-42000000D03*
G36*
G01*
X18600000Y-73650000D02*
X19100000Y-73650000D01*
G75*
G02*
X19325000Y-73875000I0J-225000D01*
G01*
X19325000Y-74325000D01*
G75*
G02*
X19100000Y-74550000I-225000J0D01*
G01*
X18600000Y-74550000D01*
G75*
G02*
X18375000Y-74325000I0J225000D01*
G01*
X18375000Y-73875000D01*
G75*
G02*
X18600000Y-73650000I225000J0D01*
G01*
G37*
G36*
G01*
X18600000Y-72050000D02*
X19100000Y-72050000D01*
G75*
G02*
X19325000Y-72275000I0J-225000D01*
G01*
X19325000Y-72725000D01*
G75*
G02*
X19100000Y-72950000I-225000J0D01*
G01*
X18600000Y-72950000D01*
G75*
G02*
X18375000Y-72725000I0J225000D01*
G01*
X18375000Y-72275000D01*
G75*
G02*
X18600000Y-72050000I225000J0D01*
G01*
G37*
D13*
X30650000Y-84000000D03*
X27500000Y-84000000D03*
D14*
X27700000Y-74050000D03*
X27700000Y-72550000D03*
X21300000Y-74050000D03*
X21300000Y-72550000D03*
D15*
X24500000Y-78000000D03*
D16*
X24500000Y-83900000D03*
X19500000Y-81800000D03*
D17*
X19000000Y-78000000D03*
X30000000Y-78000000D03*
G36*
G01*
X37600000Y-55650000D02*
X38100000Y-55650000D01*
G75*
G02*
X38325000Y-55875000I0J-225000D01*
G01*
X38325000Y-56325000D01*
G75*
G02*
X38100000Y-56550000I-225000J0D01*
G01*
X37600000Y-56550000D01*
G75*
G02*
X37375000Y-56325000I0J225000D01*
G01*
X37375000Y-55875000D01*
G75*
G02*
X37600000Y-55650000I225000J0D01*
G01*
G37*
G36*
G01*
X37600000Y-54050000D02*
X38100000Y-54050000D01*
G75*
G02*
X38325000Y-54275000I0J-225000D01*
G01*
X38325000Y-54725000D01*
G75*
G02*
X38100000Y-54950000I-225000J0D01*
G01*
X37600000Y-54950000D01*
G75*
G02*
X37375000Y-54725000I0J225000D01*
G01*
X37375000Y-54275000D01*
G75*
G02*
X37600000Y-54050000I225000J0D01*
G01*
G37*
D13*
X49650000Y-66000000D03*
X46500000Y-66000000D03*
D14*
X46700000Y-56050000D03*
X46700000Y-54550000D03*
X40300000Y-56050000D03*
X40300000Y-54550000D03*
D15*
X43500000Y-60000000D03*
D16*
X43500000Y-65900000D03*
X38500000Y-63800000D03*
D17*
X38000000Y-60000000D03*
X49000000Y-60000000D03*
G36*
G01*
X37600000Y-73650000D02*
X38100000Y-73650000D01*
G75*
G02*
X38325000Y-73875000I0J-225000D01*
G01*
X38325000Y-74325000D01*
G75*
G02*
X38100000Y-74550000I-225000J0D01*
G01*
X37600000Y-74550000D01*
G75*
G02*
X37375000Y-74325000I0J225000D01*
G01*
X37375000Y-73875000D01*
G75*
G02*
X37600000Y-73650000I225000J0D01*
G01*
G37*
G36*
G01*
X37600000Y-72050000D02*
X38100000Y-72050000D01*
G75*
G02*
X38325000Y-72275000I0J-225000D01*
G01*
X38325000Y-72725000D01*
G75*
G02*
X38100000Y-72950000I-225000J0D01*
G01*
X37600000Y-72950000D01*
G75*
G02*
X37375000Y-72725000I0J225000D01*
G01*
X37375000Y-72275000D01*
G75*
G02*
X37600000Y-72050000I225000J0D01*
G01*
G37*
D13*
X49650000Y-84000000D03*
X46500000Y-84000000D03*
D14*
X46700000Y-74050000D03*
X46700000Y-72550000D03*
X40300000Y-74050000D03*
X40300000Y-72550000D03*
D15*
X43500000Y-78000000D03*
D16*
X43500000Y-83900000D03*
X38500000Y-81800000D03*
D17*
X38000000Y-78000000D03*
X49000000Y-78000000D03*
G36*
G01*
X56600000Y-19650000D02*
X57100000Y-19650000D01*
G75*
G02*
X57325000Y-19875000I0J-225000D01*
G01*
X57325000Y-20325000D01*
G75*
G02*
X57100000Y-20550000I-225000J0D01*
G01*
X56600000Y-20550000D01*
G75*
G02*
X56375000Y-20325000I0J225000D01*
G01*
X56375000Y-19875000D01*
G75*
G02*
X56600000Y-19650000I225000J0D01*
G01*
G37*
G36*
G01*
X56600000Y-18050000D02*
X57100000Y-18050000D01*
G75*
G02*
X57325000Y-18275000I0J-225000D01*
G01*
X57325000Y-18725000D01*
G75*
G02*
X57100000Y-18950000I-225000J0D01*
G01*
X56600000Y-18950000D01*
G75*
G02*
X56375000Y-18725000I0J225000D01*
G01*
X56375000Y-18275000D01*
G75*
G02*
X56600000Y-18050000I225000J0D01*
G01*
G37*
D13*
X68650000Y-30000000D03*
X65500000Y-30000000D03*
D14*
X65700000Y-20050000D03*
X65700000Y-18550000D03*
X59300000Y-20050000D03*
X59300000Y-18550000D03*
D15*
X62500000Y-24000000D03*
D16*
X62500000Y-29900000D03*
X57500000Y-27800000D03*
D17*
X57000000Y-24000000D03*
X68000000Y-24000000D03*
G36*
G01*
X56600000Y-37650000D02*
X57100000Y-37650000D01*
G75*
G02*
X57325000Y-37875000I0J-225000D01*
G01*
X57325000Y-38325000D01*
G75*
G02*
X57100000Y-38550000I-225000J0D01*
G01*
X56600000Y-38550000D01*
G75*
G02*
X56375000Y-38325000I0J225000D01*
G01*
X56375000Y-37875000D01*
G75*
G02*
X56600000Y-37650000I225000J0D01*
G01*
G37*
G36*
G01*
X56600000Y-36050000D02*
X57100000Y-36050000D01*
G75*
G02*
X57325000Y-36275000I0J-225000D01*
G01*
X57325000Y-36725000D01*
G75*
G02*
X57100000Y-36950000I-225000J0D01*
G01*
X56600000Y-36950000D01*
G75*
G02*
X56375000Y-36725000I0J225000D01*
G01*
X56375000Y-36275000D01*
G75*
G02*
X56600000Y-36050000I225000J0D01*
G01*
G37*
D13*
X68650000Y-48000000D03*
X65500000Y-48000000D03*
D14*
X65700000Y-38050000D03*
X65700000Y-36550000D03*
X59300000Y-38050000D03*
X59300000Y-36550000D03*
D15*
X62500000Y-42000000D03*
D16*
X62500000Y-47900000D03*
X57500000Y-45800000D03*
D17*
X57000000Y-42000000D03*
X68000000Y-42000000D03*
G36*
G01*
X56600000Y-73650000D02*
X57100000Y-73650000D01*
G75*
G02*
X57325000Y-73875000I0J-225000D01*
G01*
X57325000Y-74325000D01*
G75*
G02*
X57100000Y-74550000I-225000J0D01*
G01*
X56600000Y-74550000D01*
G75*
G02*
X56375000Y-74325000I0J225000D01*
G01*
X56375000Y-73875000D01*
G75*
G02*
X56600000Y-73650000I225000J0D01*
G01*
G37*
G36*
G01*
X56600000Y-72050000D02*
X57100000Y-72050000D01*
G75*
G02*
X57325000Y-72275000I0J-225000D01*
G01*
X57325000Y-72725000D01*
G75*
G02*
X57100000Y-72950000I-225000J0D01*
G01*
X56600000Y-72950000D01*
G75*
G02*
X56375000Y-72725000I0J225000D01*
G01*
X56375000Y-72275000D01*
G75*
G02*
X56600000Y-72050000I225000J0D01*
G01*
G37*
D13*
X68650000Y-84000000D03*
X65500000Y-84000000D03*
D14*
X65700000Y-74050000D03*
X65700000Y-72550000D03*
X59300000Y-74050000D03*
X59300000Y-72550000D03*
D15*
X62500000Y-78000000D03*
D16*
X62500000Y-83900000D03*
X57500000Y-81800000D03*
D17*
X57000000Y-78000000D03*
X68000000Y-78000000D03*
G36*
G01*
X80600000Y-19650000D02*
X81100000Y-19650000D01*
G75*
G02*
X81325000Y-19875000I0J-225000D01*
G01*
X81325000Y-20325000D01*
G75*
G02*
X81100000Y-20550000I-225000J0D01*
G01*
X80600000Y-20550000D01*
G75*
G02*
X80375000Y-20325000I0J225000D01*
G01*
X80375000Y-19875000D01*
G75*
G02*
X80600000Y-19650000I225000J0D01*
G01*
G37*
G36*
G01*
X80600000Y-18050000D02*
X81100000Y-18050000D01*
G75*
G02*
X81325000Y-18275000I0J-225000D01*
G01*
X81325000Y-18725000D01*
G75*
G02*
X81100000Y-18950000I-225000J0D01*
G01*
X80600000Y-18950000D01*
G75*
G02*
X80375000Y-18725000I0J225000D01*
G01*
X80375000Y-18275000D01*
G75*
G02*
X80600000Y-18050000I225000J0D01*
G01*
G37*
D13*
X92650000Y-30000000D03*
X89500000Y-30000000D03*
D14*
X89700000Y-20050000D03*
X89700000Y-18550000D03*
X83300000Y-20050000D03*
X83300000Y-18550000D03*
D15*
X86500000Y-24000000D03*
D16*
X86500000Y-29900000D03*
X81500000Y-27800000D03*
D17*
X81000000Y-24000000D03*
X92000000Y-24000000D03*
G36*
G01*
X80600000Y-55650000D02*
X81100000Y-55650000D01*
G75*
G02*
X81325000Y-55875000I0J-225000D01*
G01*
X81325000Y-56325000D01*
G75*
G02*
X81100000Y-56550000I-225000J0D01*
G01*
X80600000Y-56550000D01*
G75*
G02*
X80375000Y-56325000I0J225000D01*
G01*
X80375000Y-55875000D01*
G75*
G02*
X80600000Y-55650000I225000J0D01*
G01*
G37*
G36*
G01*
X80600000Y-54050000D02*
X81100000Y-54050000D01*
G75*
G02*
X81325000Y-54275000I0J-225000D01*
G01*
X81325000Y-54725000D01*
G75*
G02*
X81100000Y-54950000I-225000J0D01*
G01*
X80600000Y-54950000D01*
G75*
G02*
X80375000Y-54725000I0J225000D01*
G01*
X80375000Y-54275000D01*
G75*
G02*
X80600000Y-54050000I225000J0D01*
G01*
G37*
D13*
X92650000Y-66000000D03*
X89500000Y-66000000D03*
D14*
X89700000Y-56050000D03*
X89700000Y-54550000D03*
X83300000Y-56050000D03*
X83300000Y-54550000D03*
D15*
X86500000Y-60000000D03*
D16*
X86500000Y-65900000D03*
X81500000Y-63800000D03*
D17*
X81000000Y-60000000D03*
X92000000Y-60000000D03*
G36*
G01*
X80600000Y-73650000D02*
X81100000Y-73650000D01*
G75*
G02*
X81325000Y-73875000I0J-225000D01*
G01*
X81325000Y-74325000D01*
G75*
G02*
X81100000Y-74550000I-225000J0D01*
G01*
X80600000Y-74550000D01*
G75*
G02*
X80375000Y-74325000I0J225000D01*
G01*
X80375000Y-73875000D01*
G75*
G02*
X80600000Y-73650000I225000J0D01*
G01*
G37*
G36*
G01*
X80600000Y-72050000D02*
X81100000Y-72050000D01*
G75*
G02*
X81325000Y-72275000I0J-225000D01*
G01*
X81325000Y-72725000D01*
G75*
G02*
X81100000Y-72950000I-225000J0D01*
G01*
X80600000Y-72950000D01*
G75*
G02*
X80375000Y-72725000I0J225000D01*
G01*
X80375000Y-72275000D01*
G75*
G02*
X80600000Y-72050000I225000J0D01*
G01*
G37*
D13*
X92650000Y-84000000D03*
X89500000Y-84000000D03*
D14*
X89700000Y-74050000D03*
X89700000Y-72550000D03*
X83300000Y-74050000D03*
X83300000Y-72550000D03*
D15*
X86500000Y-78000000D03*
D16*
X86500000Y-83900000D03*
X81500000Y-81800000D03*
D17*
X81000000Y-78000000D03*
X92000000Y-78000000D03*
G36*
G01*
X99600000Y-19650000D02*
X100100000Y-19650000D01*
G75*
G02*
X100325000Y-19875000I0J-225000D01*
G01*
X100325000Y-20325000D01*
G75*
G02*
X100100000Y-20550000I-225000J0D01*
G01*
X99600000Y-20550000D01*
G75*
G02*
X99375000Y-20325000I0J225000D01*
G01*
X99375000Y-19875000D01*
G75*
G02*
X99600000Y-19650000I225000J0D01*
G01*
G37*
G36*
G01*
X99600000Y-18050000D02*
X100100000Y-18050000D01*
G75*
G02*
X100325000Y-18275000I0J-225000D01*
G01*
X100325000Y-18725000D01*
G75*
G02*
X100100000Y-18950000I-225000J0D01*
G01*
X99600000Y-18950000D01*
G75*
G02*
X99375000Y-18725000I0J225000D01*
G01*
X99375000Y-18275000D01*
G75*
G02*
X99600000Y-18050000I225000J0D01*
G01*
G37*
D13*
X111650000Y-30000000D03*
X108500000Y-30000000D03*
D14*
X108700000Y-20050000D03*
X108700000Y-18550000D03*
X102300000Y-20050000D03*
X102300000Y-18550000D03*
D15*
X105500000Y-24000000D03*
D16*
X105500000Y-29900000D03*
X100500000Y-27800000D03*
D17*
X100000000Y-24000000D03*
X111000000Y-24000000D03*
G36*
G01*
X99600000Y-37650000D02*
X100100000Y-37650000D01*
G75*
G02*
X100325000Y-37875000I0J-225000D01*
G01*
X100325000Y-38325000D01*
G75*
G02*
X100100000Y-38550000I-225000J0D01*
G01*
X99600000Y-38550000D01*
G75*
G02*
X99375000Y-38325000I0J225000D01*
G01*
X99375000Y-37875000D01*
G75*
G02*
X99600000Y-37650000I225000J0D01*
G01*
G37*
G36*
G01*
X99600000Y-36050000D02*
X100100000Y-36050000D01*
G75*
G02*
X100325000Y-36275000I0J-225000D01*
G01*
X100325000Y-36725000D01*
G75*
G02*
X100100000Y-36950000I-225000J0D01*
G01*
X99600000Y-36950000D01*
G75*
G02*
X99375000Y-36725000I0J225000D01*
G01*
X99375000Y-36275000D01*
G75*
G02*
X99600000Y-36050000I225000J0D01*
G01*
G37*
D13*
X111650000Y-48000000D03*
X108500000Y-48000000D03*
D14*
X108700000Y-38050000D03*
X108700000Y-36550000D03*
X102300000Y-38050000D03*
X102300000Y-36550000D03*
D15*
X105500000Y-42000000D03*
D16*
X105500000Y-47900000D03*
X100500000Y-45800000D03*
D17*
X100000000Y-42000000D03*
X111000000Y-42000000D03*
G36*
G01*
X99600000Y-55650000D02*
X100100000Y-55650000D01*
G75*
G02*
X100325000Y-55875000I0J-225000D01*
G01*
X100325000Y-56325000D01*
G75*
G02*
X100100000Y-56550000I-225000J0D01*
G01*
X99600000Y-56550000D01*
G75*
G02*
X99375000Y-56325000I0J225000D01*
G01*
X99375000Y-55875000D01*
G75*
G02*
X99600000Y-55650000I225000J0D01*
G01*
G37*
G36*
G01*
X99600000Y-54050000D02*
X100100000Y-54050000D01*
G75*
G02*
X100325000Y-54275000I0J-225000D01*
G01*
X100325000Y-54725000D01*
G75*
G02*
X100100000Y-54950000I-225000J0D01*
G01*
X99600000Y-54950000D01*
G75*
G02*
X99375000Y-54725000I0J225000D01*
G01*
X99375000Y-54275000D01*
G75*
G02*
X99600000Y-54050000I225000J0D01*
G01*
G37*
D13*
X111650000Y-66000000D03*
X108500000Y-66000000D03*
D14*
X108700000Y-56050000D03*
X108700000Y-54550000D03*
X102300000Y-56050000D03*
X102300000Y-54550000D03*
D15*
X105500000Y-60000000D03*
D16*
X105500000Y-65900000D03*
X100500000Y-63800000D03*
D17*
X100000000Y-60000000D03*
X111000000Y-60000000D03*
G36*
G01*
X118600000Y-19650000D02*
X119100000Y-19650000D01*
G75*
G02*
X119325000Y-19875000I0J-225000D01*
G01*
X119325000Y-20325000D01*
G75*
G02*
X119100000Y-20550000I-225000J0D01*
G01*
X118600000Y-20550000D01*
G75*
G02*
X118375000Y-20325000I0J225000D01*
G01*
X118375000Y-19875000D01*
G75*
G02*
X118600000Y-19650000I225000J0D01*
G01*
G37*
G36*
G01*
X118600000Y-18050000D02*
X119100000Y-18050000D01*
G75*
G02*
X119325000Y-18275000I0J-225000D01*
G01*
X119325000Y-18725000D01*
G75*
G02*
X119100000Y-18950000I-225000J0D01*
G01*
X118600000Y-18950000D01*
G75*
G02*
X118375000Y-18725000I0J225000D01*
G01*
X118375000Y-18275000D01*
G75*
G02*
X118600000Y-18050000I225000J0D01*
G01*
G37*
D13*
X130650000Y-30000000D03*
X127500000Y-30000000D03*
D14*
X127700000Y-20050000D03*
X127700000Y-18550000D03*
X121300000Y-20050000D03*
X121300000Y-18550000D03*
D15*
X124500000Y-24000000D03*
D16*
X124500000Y-29900000D03*
X119500000Y-27800000D03*
D17*
X119000000Y-24000000D03*
X130000000Y-24000000D03*
G36*
G01*
X118600000Y-37650000D02*
X119100000Y-37650000D01*
G75*
G02*
X119325000Y-37875000I0J-225000D01*
G01*
X119325000Y-38325000D01*
G75*
G02*
X119100000Y-38550000I-225000J0D01*
G01*
X118600000Y-38550000D01*
G75*
G02*
X118375000Y-38325000I0J225000D01*
G01*
X118375000Y-37875000D01*
G75*
G02*
X118600000Y-37650000I225000J0D01*
G01*
G37*
G36*
G01*
X118600000Y-36050000D02*
X119100000Y-36050000D01*
G75*
G02*
X119325000Y-36275000I0J-225000D01*
G01*
X119325000Y-36725000D01*
G75*
G02*
X119100000Y-36950000I-225000J0D01*
G01*
X118600000Y-36950000D01*
G75*
G02*
X118375000Y-36725000I0J225000D01*
G01*
X118375000Y-36275000D01*
G75*
G02*
X118600000Y-36050000I225000J0D01*
G01*
G37*
D13*
X130650000Y-48000000D03*
X127500000Y-48000000D03*
D14*
X127700000Y-38050000D03*
X127700000Y-36550000D03*
X121300000Y-38050000D03*
X121300000Y-36550000D03*
D15*
X124500000Y-42000000D03*
D16*
X124500000Y-47900000D03*
X119500000Y-45800000D03*
D17*
X119000000Y-42000000D03*
X130000000Y-42000000D03*
G36*
G01*
X118600000Y-55650000D02*
X119100000Y-55650000D01*
G75*
G02*
X119325000Y-55875000I0J-225000D01*
G01*
X119325000Y-56325000D01*
G75*
G02*
X119100000Y-56550000I-225000J0D01*
G01*
X118600000Y-56550000D01*
G75*
G02*
X118375000Y-56325000I0J225000D01*
G01*
X118375000Y-55875000D01*
G75*
G02*
X118600000Y-55650000I225000J0D01*
G01*
G37*
G36*
G01*
X118600000Y-54050000D02*
X119100000Y-54050000D01*
G75*
G02*
X119325000Y-54275000I0J-225000D01*
G01*
X119325000Y-54725000D01*
G75*
G02*
X119100000Y-54950000I-225000J0D01*
G01*
X118600000Y-54950000D01*
G75*
G02*
X118375000Y-54725000I0J225000D01*
G01*
X118375000Y-54275000D01*
G75*
G02*
X118600000Y-54050000I225000J0D01*
G01*
G37*
D13*
X130650000Y-66000000D03*
X127500000Y-66000000D03*
D14*
X127700000Y-56050000D03*
X127700000Y-54550000D03*
X121300000Y-56050000D03*
X121300000Y-54550000D03*
D15*
X124500000Y-60000000D03*
D16*
X124500000Y-65900000D03*
X119500000Y-63800000D03*
D17*
X119000000Y-60000000D03*
X130000000Y-60000000D03*
G36*
G01*
X118600000Y-73650000D02*
X119100000Y-73650000D01*
G75*
G02*
X119325000Y-73875000I0J-225000D01*
G01*
X119325000Y-74325000D01*
G75*
G02*
X119100000Y-74550000I-225000J0D01*
G01*
X118600000Y-74550000D01*
G75*
G02*
X118375000Y-74325000I0J225000D01*
G01*
X118375000Y-73875000D01*
G75*
G02*
X118600000Y-73650000I225000J0D01*
G01*
G37*
G36*
G01*
X118600000Y-72050000D02*
X119100000Y-72050000D01*
G75*
G02*
X119325000Y-72275000I0J-225000D01*
G01*
X119325000Y-72725000D01*
G75*
G02*
X119100000Y-72950000I-225000J0D01*
G01*
X118600000Y-72950000D01*
G75*
G02*
X118375000Y-72725000I0J225000D01*
G01*
X118375000Y-72275000D01*
G75*
G02*
X118600000Y-72050000I225000J0D01*
G01*
G37*
D13*
X130650000Y-84000000D03*
X127500000Y-84000000D03*
D14*
X127700000Y-74050000D03*
X127700000Y-72550000D03*
X121300000Y-74050000D03*
X121300000Y-72550000D03*
D15*
X124500000Y-78000000D03*
D16*
X124500000Y-83900000D03*
X119500000Y-81800000D03*
D17*
X119000000Y-78000000D03*
X130000000Y-78000000D03*
G36*
G01*
X137600000Y-19650000D02*
X138100000Y-19650000D01*
G75*
G02*
X138325000Y-19875000I0J-225000D01*
G01*
X138325000Y-20325000D01*
G75*
G02*
X138100000Y-20550000I-225000J0D01*
G01*
X137600000Y-20550000D01*
G75*
G02*
X137375000Y-20325000I0J225000D01*
G01*
X137375000Y-19875000D01*
G75*
G02*
X137600000Y-19650000I225000J0D01*
G01*
G37*
G36*
G01*
X137600000Y-18050000D02*
X138100000Y-18050000D01*
G75*
G02*
X138325000Y-18275000I0J-225000D01*
G01*
X138325000Y-18725000D01*
G75*
G02*
X138100000Y-18950000I-225000J0D01*
G01*
X137600000Y-18950000D01*
G75*
G02*
X137375000Y-18725000I0J225000D01*
G01*
X137375000Y-18275000D01*
G75*
G02*
X137600000Y-18050000I225000J0D01*
G01*
G37*
D13*
X149650000Y-30000000D03*
X146500000Y-30000000D03*
D14*
X146700000Y-20050000D03*
X146700000Y-18550000D03*
X140300000Y-20050000D03*
X140300000Y-18550000D03*
D15*
X143500000Y-24000000D03*
D16*
X143500000Y-29900000D03*
X138500000Y-27800000D03*
D17*
X138000000Y-24000000D03*
X149000000Y-24000000D03*
G36*
G01*
X137600000Y-55650000D02*
X138100000Y-55650000D01*
G75*
G02*
X138325000Y-55875000I0J-225000D01*
G01*
X138325000Y-56325000D01*
G75*
G02*
X138100000Y-56550000I-225000J0D01*
G01*
X137600000Y-56550000D01*
G75*
G02*
X137375000Y-56325000I0J225000D01*
G01*
X137375000Y-55875000D01*
G75*
G02*
X137600000Y-55650000I225000J0D01*
G01*
G37*
G36*
G01*
X137600000Y-54050000D02*
X138100000Y-54050000D01*
G75*
G02*
X138325000Y-54275000I0J-225000D01*
G01*
X138325000Y-54725000D01*
G75*
G02*
X138100000Y-54950000I-225000J0D01*
G01*
X137600000Y-54950000D01*
G75*
G02*
X137375000Y-54725000I0J225000D01*
G01*
X137375000Y-54275000D01*
G75*
G02*
X137600000Y-54050000I225000J0D01*
G01*
G37*
D13*
X149650000Y-66000000D03*
X146500000Y-66000000D03*
D14*
X146700000Y-56050000D03*
X146700000Y-54550000D03*
X140300000Y-56050000D03*
X140300000Y-54550000D03*
D15*
X143500000Y-60000000D03*
D16*
X143500000Y-65900000D03*
X138500000Y-63800000D03*
D17*
X138000000Y-60000000D03*
X149000000Y-60000000D03*
G36*
G01*
X137600000Y-73650000D02*
X138100000Y-73650000D01*
G75*
G02*
X138325000Y-73875000I0J-225000D01*
G01*
X138325000Y-74325000D01*
G75*
G02*
X138100000Y-74550000I-225000J0D01*
G01*
X137600000Y-74550000D01*
G75*
G02*
X137375000Y-74325000I0J225000D01*
G01*
X137375000Y-73875000D01*
G75*
G02*
X137600000Y-73650000I225000J0D01*
G01*
G37*
G36*
G01*
X137600000Y-72050000D02*
X138100000Y-72050000D01*
G75*
G02*
X138325000Y-72275000I0J-225000D01*
G01*
X138325000Y-72725000D01*
G75*
G02*
X138100000Y-72950000I-225000J0D01*
G01*
X137600000Y-72950000D01*
G75*
G02*
X137375000Y-72725000I0J225000D01*
G01*
X137375000Y-72275000D01*
G75*
G02*
X137600000Y-72050000I225000J0D01*
G01*
G37*
D13*
X149650000Y-84000000D03*
X146500000Y-84000000D03*
D14*
X146700000Y-74050000D03*
X146700000Y-72550000D03*
X140300000Y-74050000D03*
X140300000Y-72550000D03*
D15*
X143500000Y-78000000D03*
D16*
X143500000Y-83900000D03*
X138500000Y-81800000D03*
D17*
X138000000Y-78000000D03*
X149000000Y-78000000D03*
D18*
X27600000Y-10200000D03*
X25600000Y-10200000D03*
X23600000Y-10200000D03*
D16*
X29800000Y-10200000D03*
X21400000Y-10200000D03*
D19*
X47820000Y-14000000D03*
X39180000Y-14000000D03*
D20*
X47820000Y-9820000D03*
X39180000Y-9820000D03*
D21*
X40610000Y-13500000D03*
X46390000Y-13500000D03*
D22*
X83920000Y-11700000D03*
D23*
X83920000Y-10430000D03*
X85190000Y-11700000D03*
X85190000Y-10430000D03*
X86460000Y-11700000D03*
X86460000Y-10430000D03*
X87730000Y-11700000D03*
X87730000Y-10430000D03*
X89000000Y-11700000D03*
X89000000Y-10430000D03*
D24*
X36200000Y-44100000D03*
D25*
X36200000Y-41560000D03*
X36200000Y-39020000D03*
D24*
X109320000Y-11000000D03*
D25*
X106780000Y-11000000D03*
X104240000Y-11000000D03*
X101700000Y-11000000D03*
D26*
X52700000Y-11000000D03*
X59200000Y-11000000D03*
M02*
