M48
; DRILL file {KiCad (5.1.10)-1} date 08/19/21 21:12:35
; FORMAT={3:3/ absolute / metric / suppress trailing zeros}
; #@! TF.CreationDate,2021-08-19T21:12:35+09:00
; #@! TF.GenerationSoftware,Kicad,Pcbnew,(5.1.10)-1
; #@! TF.FileFunction,Plated,1,2,PTH
FMAT,2
METRIC,LZ
T1C0.400
T2C0.600
T3C0.650
T4C0.700
T5C0.800
T6C1.000
T7C1.200
T8C1.300
%
G90
G05
T1
X0135Y-015
X015Y-018
X015Y-021
X015Y-024
X015Y-027
X015Y-03
X015Y-033
X015Y-036
X015Y-039
X015Y-042
X015Y-045
X015Y-048
X015Y-051
X015Y-054
X015Y-057
X015Y-06
X015Y-063
X015Y-066
X015Y-069
X015Y-072
X015Y-075
X015Y-078
X015Y-081
X015Y-084
X018Y-015
X018Y-084
X019Y-051
X019Y-054
X019Y-057
X019Y-06
X019Y-063
X019Y-066
X019Y-069
X021Y-012
X021Y-015
X021Y-084
X021Y-087
X021Y-09
X021159Y-023841
X021159Y-077841
X0213Y-0481
X0213Y-02
X0213Y-03805
X0213Y-07405
X022Y-032
X0222Y-0273
X0227Y-0467
X024Y-015
X024Y-051
X024Y-054
X024Y-057
X024Y-06
X024Y-063
X024Y-066
X024Y-069
X024Y-087
X024Y-09
X026Y-054
X026Y-057
X026Y-06
X026Y-063
X026Y-066
X026Y-069
X0265Y-0273
X0269Y-0322
X027Y-015
X027Y-087
X027Y-09
X027341Y-078341
X0277Y-0185
X0277Y-0366
X0277Y-051
X029575Y-0322
X03Y-012
X03Y-015
X03Y-018
X03Y-057
X03Y-06
X03Y-063
X03Y-066
X03Y-069
X03Y-072
X03Y-075
X03Y-081
X03Y-087
X03Y-09
X0303Y-0261
X03065Y-084
X03295Y-03005
X033Y-009
X033Y-018
X033Y-021
X033Y-024
X033Y-027
X033Y-06
X033Y-063
X033Y-066
X033Y-072
X033Y-075
X033Y-081
X033Y-083
X033Y-087
X033Y-09
X034Y-0689
X035Y-063
X035Y-066
X035Y-072
X0354Y-013925
X036Y-009
X036Y-078
X036Y-083
X036Y-087
X036Y-09
X038Y-066
X038Y-069
X038159Y-075841
X0384Y-033613
X0389Y-049225
X039Y-087
X039Y-09
X040088Y-031788
X0401Y-0336
X0403Y-0561
X0403Y-0741
X0413Y-0291
X042Y-0164
X042Y-087
X042Y-09
X0435Y-0164
X044Y-0445
X0443Y-0432
X0446Y-0398
X0447Y-0327
X045Y-087
X045Y-09
X0453Y-0424
X045938Y-034338
X0467Y-05455
X0467Y-07255
X047475Y-0254
X048Y-087
X048Y-09
X048088Y-0187
X049475Y-0293
X049475Y-0344
X049718Y-041443
X0498Y-0213
X04991Y-01191
X04992Y-0161
X05Y-009
X051Y-087
X051Y-09
X0517Y-0812
X052Y-013
X0524Y-0391
X0535Y-0455
X053501Y-041301
X054Y-087
X054Y-09
X0541Y-0666
X0543Y-0423
X055Y-01
X056Y-022
X056Y-026
X056Y-03
X056Y-0627
X0562Y-05
X0562Y-0517
X0562Y-0533
X0562Y-0548
X0569Y-033
X057Y-084
X057Y-087
X057Y-09
X058Y-021
X058Y-026
X0582Y-0146
X0585Y-00825
X0593Y-02005
X0593Y-0381
X0593Y-0741
X06Y-081
X06Y-084
X06Y-087
X06Y-09
X0601Y-0668
X0606Y-0283
X0607Y-05
X0608Y-0517
X0608Y-0533
X0608Y-0548
X061Y-032
X06175Y-00825
X0619Y-0659
X063Y-087
X063Y-09
X064Y-032
X064Y-067
X0644Y-0802
X065Y-00825
X065Y-045
X065674Y-018576
X0657Y-03655
X0657Y-07255
X0657Y-077982
X066Y-068
X066Y-081
X066Y-087
X066Y-09
X067Y-032
X068Y-045
X06865Y-048
X069Y-0516
X069Y-00825
X069Y-018
X069Y-0532
X069Y-068
X069Y-072
X069Y-075
X069Y-081
X069Y-087
X069Y-09
X0691Y-0548
X0694Y-0266
X07Y-01
X072Y-021
X072Y-024
X072Y-027
X072Y-03
X072Y-036
X072Y-039
X072Y-042
X072Y-068
X072Y-072
X072Y-075
X072Y-078
X072Y-081
X072Y-084
X0739Y-0526
X075Y-021
X075Y-024
X075Y-027
X075Y-03
X075Y-036
X075Y-039
X075Y-042
X075Y-068
X075Y-072
X075Y-075
X075Y-078
X075Y-081
X075Y-084
X078Y-0135
X078Y-021
X078Y-024
X078Y-027
X078Y-03
X078Y-068
X078Y-072
X078Y-075
X078Y-078
X078Y-081
X078Y-084
X0795Y-01
X08Y-026
X0802Y-0658
X081Y-00825
X081Y-022
X081Y-03
X081Y-068
X081Y-084
X081Y-087
X081Y-09
X0812Y-0327
X083Y-026
X0833Y-0201
X0833Y-0381
X0833Y-056
X0833Y-0742
X0834Y-0299
X084Y-00825
X084Y-015
X084Y-028
X084Y-081
X084Y-084
X084Y-087
X084Y-09
X0845Y-033
X087Y-00825
X087Y-015
X087Y-033
X087Y-081
X087Y-087
X087Y-09
X0897Y-01855
X0897Y-03655
X0897Y-05455
X0897Y-0726
X0898Y-0258
X09Y-00825
X09Y-015
X09Y-028
X09Y-033
X09Y-043
X09Y-045
X09Y-081
X09Y-087
X09Y-09
X091Y-03
X092Y-04
X092Y-051
X093Y-00825
X093Y-015
X093Y-018
X093Y-021
X093Y-028
X093Y-033
X093Y-036
X093Y-045
X093Y-05
X093Y-054
X093Y-063
X093Y-072
X093Y-081
X093Y-087
X093Y-09
X09375Y-04325
X096Y-00825
X096Y-015
X096Y-018
X096Y-021
X096Y-024
X096Y-028
X096Y-03
X096Y-033
X096Y-036
X096Y-039
X096Y-042
X096Y-045
X096Y-051
X096Y-054
X096Y-057
X096Y-06
X096Y-063
X096Y-066
X096Y-072
X096Y-075
X096Y-078
X096Y-081
X096Y-084
X096Y-087
X096Y-09
X098Y-019
X099Y-00825
X099Y-015
X099Y-022
X099Y-066
X099Y-075
X099Y-084
X099Y-087
X099Y-09
X1014Y-02165
X102Y-009
X102Y-015
X102Y-025
X102Y-084
X102Y-087
X102Y-09
X1023Y-0201
X1023Y-038
X1023Y-0561
X1023Y-0741
X1029Y-0804
X103Y-023
X103Y-028
X105Y-009
X105Y-051
X105Y-087
X105Y-09
X107Y-013
X108Y-027
X108Y-045
X108Y-051
X108Y-081
X108Y-087
X108Y-09
X1087Y-01855
X1087Y-03655
X1087Y-05455
X1087Y-07255
X11Y-009
X11Y-013
X111Y-018
X111Y-021
X111Y-027
X111Y-036
X111Y-039
X111Y-045
X111Y-051
X111Y-054
X111Y-057
X111Y-063
X111Y-069
X111Y-072
X111Y-075
X111Y-081
X111Y-087
X111Y-09
X114Y-009
X114Y-012
X114Y-014
X114Y-021
X114Y-024
X114Y-027
X114Y-03
X114Y-036
X114Y-039
X114Y-042
X114Y-045
X114Y-051
X114Y-054
X114Y-057
X114Y-06
X114Y-063
X114Y-066
X114Y-069
X114Y-072
X114Y-075
X114Y-078
X114Y-081
X114Y-084
X114Y-087
X114Y-09
X117Y-009
X117Y-012
X117Y-014
X117Y-024
X117Y-027
X117Y-03
X117Y-036
X117Y-039
X117Y-042
X117Y-045
X117Y-051
X117Y-054
X117Y-057
X117Y-06
X117Y-063
X117Y-066
X117Y-069
X117Y-072
X117Y-075
X117Y-078
X117Y-081
X117Y-084
X117Y-087
X117Y-09
X12Y-009
X12Y-012
X12Y-014
X12Y-084
X12Y-087
X12Y-09
X1213Y-0201
X1213Y-0381
X1213Y-056
X1213Y-0741
X1217Y-081
X1222Y-0262
X123Y-009
X123Y-012
X123Y-051
X123Y-087
X123Y-09
X126Y-009
X126Y-012
X126Y-051
X126Y-063
X126Y-087
X126Y-09
X1271Y-081
X1272Y-0282
X1277Y-01855
X1277Y-03655
X1277Y-05455
X1277Y-07255
X129Y-009
X129Y-012
X129Y-027
X129Y-045
X129Y-048
X129Y-051
X129Y-063
X129Y-066
X129Y-075
X129Y-081
X129Y-087
X129Y-09
X13Y-022
X13Y-039
X13Y-057
X132Y-009
X132Y-012
X132Y-018
X132Y-021
X132Y-024
X132Y-027
X132Y-03
X132Y-036
X132Y-039
X132Y-042
X132Y-045
X132Y-051
X132Y-054
X132Y-057
X132Y-06
X132Y-063
X132Y-066
X132Y-072
X132Y-075
X132Y-078
X132Y-081
X132Y-084
X132Y-087
X132Y-09
X135Y-01375
X135Y-018
X135Y-021
X135Y-024
X135Y-027
X135Y-03
X135Y-036
X135Y-039
X135Y-042
X135Y-045
X135Y-048
X135Y-051
X135Y-054
X135Y-057
X135Y-06
X135Y-063
X135Y-066
X135Y-072
X135Y-075
X135Y-078
X135Y-081
X135Y-084
X135Y-087
X135Y-09
X13785Y-02115
X13785Y-05715
X138Y-01375
X138Y-017
X138Y-033
X138Y-051
X138Y-069
X138Y-084
X138Y-087
X138Y-09
X1382Y-0757
X1403Y-0381
X1403Y-056
X1403Y-074
X1403Y-076
X140659Y-024341
X140659Y-042341
X140659Y-060341
X141Y-01375
X141Y-016
X141Y-027
X141Y-045
X141Y-063
X141Y-081
X141Y-084
X141Y-087
X141Y-09
X144Y-01375
X144Y-016
X144Y-087
X144Y-09
X1454Y-0801
X1467Y-01855
X1467Y-03655
X1467Y-05455
X1467Y-07255
X1467Y-0753
X147Y-01375
X147Y-016
X147Y-081
X147Y-087
X147Y-09
X149Y-018
X149Y-021
X15Y-015
X15Y-072
X15Y-075
X15Y-081
X153Y-018
X153Y-021
X153Y-024
X153Y-027
X153Y-03
X153Y-033
X153Y-036
X153Y-039
X153Y-042
X153Y-045
X153Y-048
X153Y-051
X153Y-054
X153Y-057
X153Y-06
X153Y-063
X153Y-066
X153Y-069
X153Y-072
X153Y-075
X153Y-078
X153Y-081
X153Y-084
T3
X08392Y-01043
X08392Y-0117
X08519Y-01043
X08519Y-0117
X08646Y-01043
X08646Y-0117
X08773Y-01043
X08773Y-0117
X089Y-01043
X089Y-0117
T4
X0236Y-0102
X0256Y-0102
X0276Y-0102
T5
X0195Y-015
X068225Y-039275
X0684Y-0201
X09295Y-03805
X09295Y-07405
X09315Y-05605
T6
X0362Y-03902
X0362Y-04156
X0362Y-0441
X1017Y-011
X10424Y-011
X10678Y-011
X10932Y-011
T7
X0195Y-0278
X0195Y-0458
X0195Y-0818
X0214Y-0102
X0245Y-0299
X0245Y-0479
X0245Y-0839
X0298Y-0102
X0385Y-0638
X0385Y-0818
X0435Y-0659
X0435Y-0839
X0575Y-0278
X0575Y-0458
X0575Y-0818
X0625Y-0299
X0625Y-0479
X0625Y-0839
X0815Y-0278
X0815Y-0458
X0815Y-0638
X0815Y-0818
X0865Y-0299
X0865Y-0479
X0865Y-0659
X0865Y-0839
X1005Y-0278
X1005Y-0458
X1005Y-0638
X1005Y-0818
X1055Y-0299
X1055Y-0479
X1055Y-0659
X1055Y-0839
X1195Y-0278
X1195Y-0458
X1195Y-0638
X1195Y-0818
X1245Y-0299
X1245Y-0479
X1245Y-0659
X1245Y-0839
X1385Y-0278
X1385Y-0458
X1385Y-0638
X1385Y-0818
X1435Y-0299
X1435Y-0479
X1435Y-0659
X1435Y-0839
T8
X0527Y-011
X0592Y-011
T2
G00X03918Y-01022
M15
G01X03918Y-00942
M16
G05
G00X03918Y-01455
M15
G01X03918Y-01345
M16
G05
G00X04782Y-01022
M15
G01X04782Y-00942
M16
G05
G00X04782Y-01455
M15
G01X04782Y-01345
M16
G05
T0
M30
